<svg xmlns="http://www.w3.org/2000/svg" width="24" height="24"><rect width="24" height="24" opacity="0"></rect><g><path d="M8.06 11.3L12.12 7.25Q12.34 7.03 12.34 6.72Q12.34 6.41 12.12 6.19Q11.9 5.98 11.59 5.98Q11.28 5.98 11.06 6.19L6.05 11.21Q5.69 11.57 5.69 12.08Q5.69 12.6 6.05 12.96L11.06 17.95L11.11 18Q11.33 18.19 11.63 18.18Q11.93 18.17 12.12 17.95Q12.36 17.76 12.36 17.45Q12.36 17.14 12.12 16.92L8.02 12.79L17.21 12.79Q17.52 12.79 17.74 12.58Q17.95 12.36 17.95 12.05Q17.95 11.74 17.74 11.52Q17.52 11.3 17.21 11.3Z" fill="rgba(0,0,0,1)"></path><path d="M12 1.01Q9.02 1.01 6.49 2.48Q3.96 3.96 2.48 6.49Q1.01 9.02 1.01 12Q1.01 14.98 2.48 17.51Q3.96 20.04 6.49 21.52Q9.02 22.99 12 22.99Q14.98 22.99 17.51 21.52Q20.04 20.04 21.52 17.51Q22.99 14.98 22.99 12Q22.99 9.02 21.52 6.49Q20.04 3.96 17.51 2.48Q14.98 1.01 12 1.01ZM12 21.5Q9.43 21.5 7.25 20.22Q5.06 18.94 3.78 16.75Q2.5 14.57 2.5 12Q2.5 9.43 3.78 7.25Q5.06 5.06 7.25 3.78Q9.43 2.5 12 2.5Q14.57 2.5 16.75 3.78Q18.94 5.06 20.22 7.25Q21.5 9.43 21.5 12Q21.5 14.57 20.22 16.75Q18.94 18.94 16.75 20.22Q14.57 21.5 12 21.5Z" fill="rgba(0,0,0,1)"></path></g></svg>