<?xml version="1.0" standalone="no"?><!DOCTYPE svg PUBLIC "-//W3C//DTD SVG 1.1//EN" "http://www.w3.org/Graphics/SVG/1.1/DTD/svg11.dtd"><svg height="1024" node-id="1" sillyvg="true" template-height="1024" template-width="1024" version="1.1" viewBox="0 0 1024 1024" width="1024" xmlns="http://www.w3.org/2000/svg" xmlns:xlink="http://www.w3.org/1999/xlink"><defs node-id="115"><clipPath id="clip-灯" node-id="3"><path d="M 0.00 0.00 L 1024.00 0.00 L 1024.00 1024.00 L 0.00 1024.00 Z" fill="#000000" fill-rule="nonzero" node-id="118" stroke="none" target-height="1024" target-width="1024" target-x="0" target-y="0"></path></clipPath></defs><g clip-path="url(#clip-灯)" id="灯" node-id="5"><path d="M 0.00 0.00 L 1024.00 0.00 L 1024.00 1024.00 L 0.00 1024.00 Z" fill="#fff9e6" fill-rule="nonzero" node-id="123" stroke="none" target-height="1024" target-width="1024" target-x="0" target-y="0"></path><path d="M 185.10 95.70 L 185.80 94.70 L 187.00 94.30 L 188.20 94.70 L 188.90 95.70 L 195.80 116.40 L 196.30 117.20 L 197.10 117.70 L 217.80 124.60 L 219.10 125.90 L 219.10 127.10 L 217.80 128.40 L 197.10 135.30 L 196.30 135.80 L 195.80 136.60 L 188.90 157.30 L 187.60 158.60 L 186.40 158.60 L 185.10 157.30 L 178.20 136.60 L 177.70 135.80 L 176.90 135.30 L 156.20 128.40 L 154.90 127.10 L 154.90 125.90 L 156.20 124.60 L 176.90 117.70 L 177.70 117.20 L 178.20 116.40 Z" fill="none" group-id="1,4" node-id="127" stroke="none" target-height="64.3" target-width="64.20001" target-x="154.9" target-y="94.3"></path><path d="M 187.00 109.00 L 183.90 118.30 L 183.10 120.00 L 181.90 121.40 L 180.50 122.60 L 178.80 123.40 L 169.50 126.50 L 178.80 129.60 L 180.50 130.40 L 181.90 131.60 L 183.10 133.00 L 183.90 134.70 L 187.00 144.00 L 190.10 134.70 L 190.90 133.00 L 192.10 131.60 L 193.50 130.40 L 195.20 129.60 L 204.50 126.50 L 195.20 123.40 L 193.50 122.60 L 192.10 121.40 L 190.90 120.00 L 190.10 118.30 L 187.00 109.00 M 187.00 94.30 L 188.10 94.70 L 188.90 95.70 L 195.80 116.40 L 196.30 117.20 L 197.10 117.70 L 217.80 124.60 L 218.60 125.10 L 219.20 126.50 L 218.60 127.90 L 217.80 128.40 L 197.10 135.30 L 196.30 135.80 L 195.80 136.60 L 188.90 157.30 L 188.40 158.10 L 187.00 158.70 L 185.60 158.10 L 185.10 157.30 L 178.20 136.60 L 177.70 135.80 L 176.90 135.30 L 156.20 128.40 L 155.40 127.90 L 154.80 126.50 L 155.40 125.10 L 156.20 124.60 L 176.90 117.70 L 177.70 117.20 L 178.20 116.40 L 185.10 95.70 L 185.90 94.70 L 187.00 94.30 Z" fill="#c00121" fill-rule="nonzero" group-id="1,4" node-id="129" stroke="none" target-height="64.399994" target-width="64.399994" target-x="154.8" target-y="94.3"></path><path d="M 78.60 838.50 L 75.00 832.60 L 69.80 826.30 L 63.40 821.10 L 57.60 817.50 L 63.40 813.90 L 69.80 808.70 L 75.00 802.40 L 78.60 796.50 L 82.10 802.40 L 87.40 808.70 L 93.70 813.90 L 99.60 817.50 L 93.70 821.10 L 87.40 826.30 L 82.10 832.60 L 78.60 838.50 Z" fill="#fbb84e" fill-rule="nonzero" group-id="1,5" node-id="133" stroke="none" target-height="42" target-width="42" target-x="57.6" target-y="796.5"></path><path d="M 78.60 800.50 L 75.30 805.30 L 71.20 810.10 L 66.40 814.30 L 61.60 817.50 L 66.40 820.70 L 71.20 824.90 L 75.30 829.70 L 78.60 834.50 L 81.80 829.70 L 85.90 824.90 L 90.80 820.70 L 95.50 817.50 L 90.80 814.30 L 85.90 810.10 L 81.80 805.30 L 78.60 800.50 M 78.60 792.00 L 82.70 799.60 L 86.50 804.80 L 88.80 807.30 L 91.30 809.60 L 96.50 813.40 L 104.10 817.50 L 96.50 821.60 L 91.30 825.40 L 88.80 827.70 L 86.50 830.20 L 82.70 835.40 L 78.60 843.00 L 74.40 835.40 L 70.70 830.20 L 68.40 827.70 L 65.90 825.40 L 60.70 821.60 L 53.10 817.50 L 60.70 813.40 L 65.90 809.60 L 68.40 807.30 L 70.70 804.80 L 74.40 799.60 L 78.60 792.00 Z" fill="#c00121" fill-rule="nonzero" group-id="1,5" node-id="135" stroke="none" target-height="51" target-width="51" target-x="53.1" target-y="792"></path><path d="M 895.00 831.00 L 899.10 838.60 L 902.90 843.80 L 905.20 846.30 L 907.70 848.60 L 912.90 852.40 L 920.50 856.50 L 912.90 860.60 L 907.70 864.40 L 905.20 866.70 L 902.90 869.20 L 899.10 874.40 L 895.00 882.00 L 890.90 874.40 L 887.10 869.20 L 884.80 866.70 L 882.30 864.40 L 877.10 860.60 L 869.50 856.50 L 877.10 852.40 L 882.30 848.60 L 884.80 846.30 L 887.10 843.80 L 890.90 838.60 L 895.00 831.00 Z" fill="none" group-id="1,6" node-id="139" stroke="none" target-height="51" target-width="51" target-x="869.5" target-y="831"></path><path d="M 895.00 843.20 L 892.30 846.90 L 889.00 850.50 L 885.40 853.80 L 881.70 856.50 L 885.40 859.20 L 889.00 862.50 L 892.30 866.10 L 895.00 869.80 L 897.70 866.10 L 901.00 862.50 L 904.60 859.20 L 908.30 856.50 L 904.60 853.80 L 901.00 850.50 L 897.70 846.90 L 895.00 843.20 M 895.00 831.00 L 899.10 838.60 L 902.90 843.80 L 905.20 846.30 L 907.70 848.60 L 912.90 852.40 L 920.50 856.50 L 912.90 860.60 L 907.70 864.40 L 905.20 866.70 L 902.90 869.20 L 899.10 874.40 L 895.00 882.00 L 890.90 874.40 L 887.10 869.20 L 884.80 866.70 L 882.30 864.40 L 877.10 860.60 L 869.50 856.50 L 877.10 852.40 L 882.30 848.60 L 884.80 846.30 L 887.10 843.80 L 890.90 838.60 L 895.00 831.00 Z" fill="#c00121" fill-rule="nonzero" group-id="1,6" node-id="141" stroke="none" target-height="51" target-width="51" target-x="869.5" target-y="831"></path><path d="M 913.50 364.70 L 897.80 354.00 L 896.50 353.30 L 895.00 353.10 L 893.50 353.30 L 892.20 354.00 L 876.50 364.70 L 881.90 346.60 L 882.10 345.10 L 881.90 343.60 L 881.20 342.30 L 880.20 341.20 L 865.10 329.70 L 884.10 329.20 L 885.60 328.90 L 886.90 328.20 L 887.90 327.20 L 888.70 325.90 L 895.00 308.00 L 901.30 325.90 L 902.10 327.20 L 903.10 328.20 L 904.40 328.90 L 905.90 329.20 L 924.90 329.70 L 909.80 341.20 L 908.80 342.30 L 908.10 343.60 L 907.90 345.10 L 908.10 346.60 L 913.50 364.70 Z" fill="#fbb84e" fill-rule="nonzero" group-id="1,7" node-id="145" stroke="none" target-height="56.700012" target-width="59.80005" target-x="865.1" target-y="308"></path><path d="M 895.00 317.00 L 891.50 326.90 L 890.80 328.30 L 888.60 330.60 L 885.80 332.00 L 884.20 332.20 L 873.70 332.40 L 882.00 338.80 L 883.20 339.90 L 884.70 342.70 L 885.10 345.80 L 884.80 347.40 L 881.80 357.50 L 890.50 351.50 L 891.90 350.70 L 895.00 350.10 L 898.10 350.70 L 899.50 351.50 L 908.20 357.50 L 905.20 347.40 L 904.90 345.80 L 905.30 342.70 L 906.80 339.90 L 908.00 338.80 L 916.30 332.40 L 905.80 332.20 L 904.20 332.00 L 901.40 330.60 L 899.20 328.30 L 898.50 326.90 L 895.00 317.00 M 895.00 303.00 L 896.10 303.30 L 896.90 304.30 L 904.20 324.90 L 904.90 325.80 L 906.00 326.20 L 927.80 326.70 L 928.70 326.90 L 929.70 328.10 L 929.60 329.70 L 929.00 330.30 L 911.70 343.60 L 911.00 344.50 L 911.00 345.70 L 917.20 366.60 L 917.00 368.20 L 915.70 369.10 L 914.10 368.80 L 896.10 356.50 L 895.00 356.10 L 893.90 356.50 L 875.90 368.80 L 875.00 369.10 L 873.60 368.80 L 872.80 367.50 L 872.80 366.60 L 879.00 345.70 L 879.00 344.50 L 878.30 343.60 L 860.40 329.70 L 860.20 328.90 L 860.70 327.40 L 862.20 326.70 L 884.00 326.20 L 885.10 325.80 L 885.80 324.90 L 893.10 304.30 L 893.90 303.30 L 895.00 303.00 Z" fill="#c00121" fill-rule="nonzero" group-id="1,7" node-id="147" stroke="none" target-height="66.100006" target-width="69.5" target-x="860.2" target-y="303"></path><path d="M 501.60 964.80 L 502.90 963.60 L 504.10 963.60 L 505.10 964.30 L 510.50 979.40 L 511.30 980.40 L 512.40 980.70 L 527.80 981.10 L 529.00 981.50 L 529.70 982.50 L 529.70 983.70 L 529.00 984.70 L 516.70 994.10 L 516.00 995.10 L 516.00 996.30 L 520.40 1011.10 L 520.40 1012.30 L 519.70 1013.30 L 519.10 1013.60 L 517.40 1013.30 L 504.60 1004.50 L 503.50 1004.20 L 502.40 1004.50 L 489.60 1013.30 L 487.90 1013.60 L 486.90 1012.80 L 486.60 1011.10 L 491.00 996.30 L 491.00 995.10 L 490.30 994.10 L 478.00 984.70 L 477.30 983.70 L 477.30 982.50 L 478.00 981.50 L 479.20 981.10 L 494.60 980.70 L 495.80 980.40 L 496.50 979.40 Z" fill="none" group-id="1,8" node-id="151" stroke="none" target-height="50" target-width="52.400024" target-x="477.3" target-y="963.6"></path><path d="M 503.50 974.50 L 501.20 981.10 L 500.20 982.90 L 498.70 984.40 L 496.80 985.40 L 494.80 985.70 L 487.80 985.90 L 493.30 990.10 L 494.80 991.70 L 495.70 993.50 L 496.10 995.60 L 495.80 997.70 L 493.80 1004.40 L 499.50 1000.40 L 501.40 999.50 L 503.50 999.20 L 505.60 999.50 L 507.50 1000.40 L 513.20 1004.40 L 511.20 997.70 L 511.00 995.60 L 511.30 993.50 L 512.20 991.70 L 513.70 990.10 L 519.20 985.90 L 512.20 985.70 L 510.20 985.40 L 508.30 984.40 L 506.80 982.90 L 505.80 981.10 L 503.50 974.50 M 503.50 963.50 L 504.60 963.80 L 505.40 964.80 L 510.50 979.40 L 511.30 980.40 L 512.40 980.70 L 527.80 981.10 L 528.70 981.30 L 529.70 982.50 L 529.60 984.00 L 529.00 984.70 L 516.70 994.10 L 516.00 995.10 L 516.00 996.30 L 520.40 1011.10 L 520.20 1012.70 L 519.00 1013.60 L 517.40 1013.30 L 504.60 1004.50 L 503.50 1004.20 L 502.40 1004.50 L 489.60 1013.30 L 488.80 1013.60 L 487.30 1013.30 L 486.50 1012.00 L 486.60 1011.10 L 491.00 996.30 L 491.00 995.10 L 490.30 994.10 L 477.40 984.00 L 477.20 983.30 L 477.70 981.80 L 479.20 981.10 L 494.60 980.70 L 495.70 980.40 L 496.50 979.40 L 501.60 964.80 L 502.40 963.80 L 503.50 963.50 Z" fill="#c00121" fill-rule="nonzero" group-id="1,8" node-id="153" stroke="none" target-height="50.099976" target-width="52.5" target-x="477.2" target-y="963.5"></path><path d="M 305.00 857.00 L 310.40 877.80 L 332.00 876.50 L 313.70 888.00 L 321.70 908.00 L 305.00 894.30 L 288.30 908.00 L 296.30 888.00 L 278.00 876.50 L 299.60 877.80 Z" fill="#fbb84e" fill-rule="nonzero" group-id="1,9" id="多边形_3" node-id="23" stroke="none" target-height="51" target-width="54" target-x="278" target-y="857"></path><path d="M 56.00 96.50 L 56.70 102.80 L 57.40 105.50 L 58.40 108.40 L 59.80 111.10 L 61.70 113.40 L 64.00 115.30 L 66.70 116.70 L 69.50 117.70 L 72.20 118.30 L 78.60 119.00 L 72.20 119.70 L 69.50 120.40 L 66.70 121.40 L 64.00 122.80 L 61.70 124.70 L 59.80 127.00 L 58.40 129.70 L 57.40 132.50 L 56.70 135.20 L 56.00 141.60 L 55.30 135.20 L 54.70 132.50 L 53.70 129.70 L 52.30 127.00 L 50.40 124.70 L 48.10 122.80 L 45.40 121.40 L 42.50 120.40 L 39.80 119.70 L 33.50 119.00 L 39.80 118.30 L 42.50 117.70 L 45.40 116.70 L 48.10 115.30 L 50.40 113.40 L 52.30 111.10 L 53.70 108.40 L 54.70 105.50 L 55.30 102.80 L 56.00 96.50 Z" fill="#fbb84e" fill-rule="nonzero" group-id="1,10" id="路径_1" node-id="24" stroke="none" target-height="45.100006" target-width="45.1" target-x="33.5" target-y="96.5"></path><path d="M 734.00 -28.00 L 735.10 -17.80 L 737.10 -10.60 L 738.70 -7.00 L 740.70 -3.60 L 743.10 -0.60 L 746.10 1.80 L 749.50 3.80 L 753.10 5.40 L 760.30 7.40 L 770.50 8.50 L 760.30 9.60 L 753.10 11.60 L 749.50 13.20 L 746.10 15.20 L 743.10 17.60 L 740.70 20.60 L 738.70 24.00 L 737.10 27.60 L 735.10 34.80 L 734.00 45.00 L 732.90 34.80 L 730.90 27.60 L 729.30 24.00 L 727.30 20.60 L 724.90 17.60 L 721.90 15.20 L 718.50 13.20 L 714.90 11.60 L 707.70 9.60 L 697.50 8.50 L 707.70 7.40 L 714.90 5.40 L 718.50 3.80 L 721.90 1.80 L 724.90 -0.60 L 727.30 -3.60 L 729.30 -7.00 L 730.90 -10.60 L 732.90 -17.80 L 734.00 -28.00 Z" fill="#fbb84e" fill-rule="nonzero" group-id="1,11" id="路径_2" node-id="25" stroke="none" target-height="73" target-width="73" target-x="697.5" target-y="-28"></path><path d="M 786.20 1024.00 L 787.50 1020.60 L 790.10 1016.40 L 793.30 1013.60 L 796.50 1012.70 L 798.10 1012.90 L 800.10 1013.60 L 802.40 1015.00 L 804.50 1016.80 L 806.90 1019.60 L 809.80 1023.50 L 812.30 1010.10 L 814.20 1003.60 L 818.10 994.10 L 821.60 988.50 L 823.70 986.30 L 825.70 985.00 L 827.80 984.20 L 829.30 984.10 L 831.00 984.40 L 832.70 985.30 L 834.60 986.70 L 836.70 989.00 L 839.20 992.70 L 841.90 997.90 L 844.10 1003.40 L 846.60 1010.50 L 849.30 1019.70 L 851.50 1015.30 L 853.50 1012.30 L 855.20 1010.40 L 857.20 1008.90 L 858.90 1008.30 L 860.50 1008.20 L 863.50 1009.40 L 866.60 1012.80 L 868.00 1015.30 L 869.50 1019.70" fill="none" group-id="1,12" id="路径_5" node-id="26" stroke="#fbb84e" stroke-linecap="round" stroke-width="6" target-height="39.900024" target-width="83.29999" target-x="786.2" target-y="984.1"></path><path d="M 108.80 479.50 L 110.20 476.10 L 112.80 471.90 L 115.90 469.10 L 119.10 468.30 L 120.80 468.40 L 122.80 469.10 L 125.10 470.60 L 127.10 472.40 L 129.60 475.10 L 132.50 479.10 L 133.50 472.30 L 135.00 465.60 L 136.90 459.10 L 140.70 449.60 L 144.30 444.10 L 146.40 441.90 L 148.40 440.50 L 150.40 439.80 L 152.00 439.70 L 153.60 440.00 L 155.40 440.80 L 157.30 442.30 L 159.40 444.60 L 161.80 448.20 L 164.50 453.50 L 166.80 458.90 L 169.30 466.00 L 171.90 475.20 L 174.20 470.80 L 176.10 467.80 L 177.80 466.00 L 179.80 464.50 L 181.60 463.80 L 183.10 463.80 L 186.10 465.00 L 189.30 468.40 L 190.60 470.80 L 192.20 475.20" fill="none" group-id="1,13" id="路径_6" node-id="27" stroke="#fbb84e" stroke-linecap="round" stroke-width="6" target-height="39.799988" target-width="83.399994" target-x="108.8" target-y="439.7"></path><path d="M 576.50 898.80 L 576.50 892.80 L 407.40 892.80 L 424.10 859.50 L 429.30 850.70 L 435.30 843.40 L 438.70 840.30 L 442.10 837.60 L 445.60 835.40 L 449.40 833.60 L 453.20 832.20 L 457.10 831.30 L 461.00 830.90 L 479.40 797.10 L 467.50 793.30 L 455.90 789.00 L 444.50 784.20 L 433.30 778.90 L 422.30 773.00 L 412.50 767.30 L 403.00 761.10 L 393.70 754.60 L 384.70 747.70 L 376.00 740.50 L 367.60 732.90 L 359.40 724.90 L 351.60 716.60 L 344.10 708.00 L 336.90 699.10 L 330.10 690.00 L 323.60 680.50 L 331.80 681.90 L 325.50 672.40 L 319.60 662.60 L 314.10 652.50 L 308.90 642.20 L 304.10 631.50 L 299.80 620.80 L 295.90 609.80 L 292.40 598.60 L 289.30 587.10 L 286.60 575.40 L 284.40 563.70 L 282.70 551.80 L 281.50 539.70 L 280.80 527.40 L 280.50 514.90 L 280.80 502.00 L 281.60 489.40 L 282.90 477.10 L 284.60 464.90 L 286.90 452.90 L 289.70 441.00 L 292.90 429.30 L 296.60 417.80 L 300.70 406.60 L 305.20 395.60 L 310.20 384.80 L 315.60 374.30 L 321.40 364.10 L 327.50 354.10 L 334.10 344.50 L 341.00 335.00 L 348.30 326.00 L 355.90 317.30 L 363.90 308.90 L 372.10 300.80 L 380.70 293.10 L 389.60 285.80 L 398.80 278.80 L 408.20 272.30 L 418.00 266.10 L 428.00 260.40 L 438.20 255.10 L 448.60 250.20 L 459.30 245.80 L 470.30 241.80 L 481.40 238.30 L 492.60 235.30 L 504.10 232.80 L 515.80 230.80 L 527.70 229.30 L 528.90 225.40 L 530.60 221.90 L 532.50 218.60 L 534.80 215.50 L 537.50 212.70 L 540.30 210.20 L 543.50 208.10 L 546.90 206.20 L 550.40 204.80 L 554.10 203.70 L 558.00 203.10 L 562.00 202.80 L 566.00 203.10 L 569.90 203.70 L 573.60 204.80 L 577.20 206.30 L 580.60 208.10 L 583.80 210.30 L 586.80 212.90 L 589.50 215.90 L 589.30 210.50 L 588.80 206.70 L 592.40 210.10 L 595.60 214.00 L 598.30 218.10 L 600.40 222.60 L 602.00 227.30 L 603.10 232.20 L 615.30 234.80 L 627.20 237.90 L 638.90 241.50 L 650.40 245.70 L 661.80 250.40 L 672.80 255.50 L 683.50 261.20 L 694.00 267.30 L 704.20 273.90 L 714.10 281.00 L 723.70 288.40 L 733.00 296.30 L 741.90 304.60 L 750.40 313.30 L 758.60 322.40 L 766.50 331.80 L 759.10 313.90 L 767.80 324.00 L 776.00 334.40 L 783.80 345.30 L 791.00 356.50 L 797.90 368.10 L 804.10 380.10 L 809.90 392.30 L 815.10 404.90 L 819.80 417.90 L 823.90 431.10 L 827.30 444.40 L 830.20 458.00 L 832.20 469.60 L 833.70 481.10 L 834.70 492.70 L 835.30 504.30 L 835.50 516.00 L 835.20 527.60 L 834.50 539.20 L 833.40 550.80 L 831.80 562.40 L 829.80 573.90 L 827.40 585.20 L 824.50 596.30 L 821.30 607.30 L 817.60 618.10 L 813.50 628.90 L 809.00 639.30 L 804.20 649.40 L 799.10 659.30 L 793.50 669.10 L 787.60 678.70 L 781.40 687.90 L 774.90 696.80 L 768.00 705.50 L 760.90 713.90 L 753.30 722.00 L 745.60 729.80 L 737.60 737.30 L 729.30 744.50 L 720.70 751.30 L 711.80 757.80 L 702.70 764.00 L 693.40 769.80 L 683.90 775.20 L 674.10 780.20 L 664.20 784.80 L 651.80 789.90 L 669.40 826.20 L 673.40 827.60 L 677.50 829.70 L 681.30 832.20 L 684.80 835.30 L 690.70 842.00 L 696.40 850.80 L 701.90 861.90 L 721.90 898.90 Z" fill="#f9d4c1" fill-rule="nonzero" group-id="2" id="联合_13" node-id="28" stroke="none" target-height="696.10004" target-width="555" target-x="280.5" target-y="202.8"></path><path d="M 792.50 490.80 L 792.20 504.80 L 791.30 518.50 L 789.80 531.90 L 787.70 545.10 L 785.10 558.00 L 781.90 571.00 L 778.20 583.60 L 773.90 595.90 L 769.20 607.90 L 764.00 619.70 L 758.20 631.30 L 752.00 642.50 L 745.40 653.40 L 738.40 663.90 L 730.90 674.10 L 722.90 684.00 L 714.60 693.50 L 705.90 702.50 L 696.90 711.20 L 687.40 719.50 L 677.60 727.30 L 667.50 734.70 L 657.10 741.60 L 646.40 748.10 L 635.40 754.10 L 624.10 759.50 L 612.50 764.50 L 600.70 768.90 L 588.70 772.80 L 576.30 776.10 L 563.90 778.90 L 551.30 781.00 L 538.40 782.60 L 525.30 783.50 L 512.00 783.80 L 498.70 783.50 L 485.60 782.60 L 472.70 781.00 L 460.10 778.90 L 447.70 776.10 L 435.30 772.80 L 423.30 768.90 L 411.50 764.50 L 399.90 759.50 L 388.60 754.10 L 377.60 748.10 L 366.90 741.60 L 356.50 734.70 L 346.40 727.30 L 336.60 719.50 L 327.10 711.20 L 318.10 702.50 L 309.40 693.50 L 301.10 684.00 L 293.10 674.10 L 285.60 663.90 L 278.60 653.40 L 272.00 642.50 L 265.80 631.30 L 260.00 619.70 L 254.80 607.90 L 250.10 595.90 L 245.80 583.60 L 242.10 571.00 L 238.90 558.00 L 236.30 545.10 L 234.20 531.90 L 232.70 518.50 L 231.80 504.80 L 231.50 490.80 L 231.80 476.90 L 232.70 463.20 L 234.20 449.80 L 236.30 436.60 L 238.90 423.70 L 242.10 410.70 L 245.80 398.10 L 250.10 385.80 L 254.80 373.80 L 260.00 362.00 L 265.80 350.40 L 272.00 339.20 L 278.60 328.30 L 285.60 317.80 L 293.10 307.60 L 301.10 297.70 L 309.40 288.20 L 318.10 279.20 L 327.10 270.50 L 336.60 262.20 L 346.40 254.40 L 356.50 247.00 L 366.90 240.10 L 377.60 233.60 L 388.60 227.60 L 399.90 222.20 L 411.50 217.20 L 423.30 212.80 L 435.30 208.90 L 447.70 205.60 L 460.10 202.80 L 472.70 200.70 L 485.60 199.10 L 498.70 198.20 L 512.00 197.80 L 525.30 198.20 L 538.40 199.10 L 551.30 200.70 L 563.90 202.80 L 576.30 205.60 L 588.70 208.90 L 600.70 212.80 L 612.50 217.20 L 624.10 222.20 L 635.40 227.60 L 646.40 233.60 L 657.10 240.10 L 667.50 247.00 L 677.60 254.40 L 687.40 262.20 L 696.90 270.50 L 705.90 279.20 L 714.60 288.20 L 722.90 297.70 L 730.90 307.60 L 738.40 317.80 L 745.40 328.30 L 752.00 339.20 L 758.20 350.40 L 764.00 362.00 L 769.20 373.80 L 773.90 385.80 L 778.20 398.10 L 781.90 410.70 L 785.10 423.70 L 787.70 436.60 L 789.80 449.80 L 791.30 463.20 L 792.20 476.90 L 792.50 490.80 Z" fill="#f9cf89" fill-rule="nonzero" group-id="3,14,17" node-id="184" stroke="none" target-height="586" target-width="561" target-x="231.5" target-y="197.8"></path><path d="M 786.50 490.80 L 786.20 504.50 L 785.30 517.90 L 783.80 531.00 L 781.80 544.00 L 779.30 556.70 L 776.10 569.30 L 772.50 581.70 L 768.30 593.70 L 763.70 605.50 L 758.60 617.10 L 753.00 628.40 L 746.90 639.40 L 740.40 650.00 L 733.50 660.40 L 726.20 670.40 L 718.40 680.00 L 710.30 689.30 L 701.80 698.20 L 692.90 706.70 L 683.70 714.80 L 674.10 722.50 L 664.20 729.70 L 654.00 736.50 L 643.50 742.80 L 632.70 748.70 L 621.70 754.00 L 610.40 758.90 L 598.80 763.20 L 587.00 767.00 L 574.90 770.30 L 562.80 773.00 L 550.40 775.10 L 537.80 776.60 L 525.00 777.50 L 512.00 777.80 L 499.00 777.50 L 486.20 776.60 L 473.60 775.10 L 461.20 773.00 L 449.10 770.30 L 437.00 767.00 L 425.20 763.20 L 413.60 758.90 L 402.30 754.00 L 391.30 748.70 L 380.50 742.80 L 370.00 736.50 L 359.80 729.70 L 349.90 722.50 L 340.30 714.80 L 331.10 706.70 L 322.20 698.20 L 313.70 689.30 L 305.60 680.00 L 297.80 670.40 L 290.50 660.40 L 283.60 650.00 L 277.10 639.40 L 271.00 628.40 L 265.40 617.10 L 260.30 605.50 L 255.70 593.70 L 251.50 581.70 L 247.90 569.30 L 244.70 556.70 L 242.20 544.00 L 240.20 531.00 L 238.70 517.90 L 237.80 504.50 L 237.50 490.80 L 237.80 477.20 L 238.70 463.80 L 240.20 450.70 L 242.20 437.70 L 244.70 425.00 L 247.90 412.40 L 251.50 400.00 L 255.70 388.00 L 260.30 376.20 L 265.40 364.60 L 271.00 353.30 L 277.10 342.30 L 283.60 331.70 L 290.50 321.30 L 297.80 311.30 L 305.60 301.70 L 313.70 292.40 L 322.20 283.50 L 331.10 275.00 L 340.30 266.90 L 349.90 259.20 L 359.80 252.00 L 370.00 245.20 L 380.50 238.90 L 391.30 233.00 L 402.30 227.70 L 413.60 222.80 L 425.20 218.50 L 437.00 214.70 L 449.10 211.40 L 461.20 208.70 L 473.60 206.60 L 486.20 205.10 L 499.00 204.20 L 512.00 203.80 L 525.00 204.20 L 537.80 205.10 L 550.40 206.60 L 562.80 208.70 L 574.90 211.40 L 587.00 214.70 L 598.80 218.50 L 610.40 222.80 L 621.70 227.70 L 632.70 233.00 L 643.50 238.90 L 654.00 245.20 L 664.20 252.00 L 674.10 259.20 L 683.70 266.90 L 692.90 275.00 L 701.80 283.50 L 710.30 292.40 L 718.40 301.70 L 726.20 311.30 L 733.50 321.30 L 740.40 331.70 L 746.90 342.30 L 753.00 353.30 L 758.60 364.60 L 763.70 376.20 L 768.30 388.00 L 772.50 400.00 L 776.10 412.40 L 779.30 425.00 L 781.80 437.70 L 783.80 450.70 L 785.30 463.80 L 786.20 477.20 L 786.50 490.80 Z" fill="none" group-id="3,14,17" node-id="186" stroke="#960532" stroke-linecap="butt" stroke-width="12" target-height="574" target-width="549" target-x="237.5" target-y="203.8"></path><path d="M 512.00 783.80 L 500.40 783.60 L 488.80 782.90 L 477.30 781.60 L 465.90 779.90 L 454.60 777.70 L 443.40 775.00 L 432.30 771.90 L 421.30 768.20 L 410.50 764.10 L 399.90 759.60 L 389.50 754.50 L 379.30 749.00 L 369.50 743.30 L 360.00 737.10 L 350.70 730.60 L 341.70 723.70 L 333.00 716.50 L 324.60 708.90 L 316.40 700.90 L 308.60 692.60 L 301.10 684.00 L 293.90 675.10 L 287.10 666.00 L 280.60 656.50 L 290.60 658.20 L 300.60 659.40 L 310.60 660.10 L 320.70 660.40 L 330.50 660.10 L 340.10 659.40 L 349.30 658.20 L 358.40 656.50 L 367.30 654.30 L 376.00 651.70 L 384.40 648.60 L 392.50 645.10 L 400.40 641.10 L 408.00 636.70 L 415.30 631.80 L 422.30 626.50 L 428.60 621.10 L 434.60 615.40 L 440.20 609.30 L 445.50 602.90 L 457.90 607.50 L 470.30 611.50 L 482.60 614.90 L 494.80 617.70 L 507.20 619.80 L 519.50 621.40 L 531.70 622.30 L 543.90 622.60 L 555.90 622.30 L 567.60 621.40 L 579.00 619.90 L 590.10 617.80 L 599.00 615.60 L 607.70 613.10 L 616.10 610.20 L 624.40 607.00 L 632.50 603.40 L 640.40 599.40 L 648.10 595.00 L 655.60 590.30 L 662.90 585.30 L 669.90 579.80 L 677.40 573.40 L 684.50 566.60 L 691.20 559.60 L 697.50 552.20 L 703.40 544.50 L 708.90 536.40 L 714.10 528.20 L 718.80 519.60 L 723.10 510.80 L 727.00 501.70 L 730.50 492.40 L 733.50 483.00 L 736.20 473.30 L 738.40 463.40 L 740.30 453.20 L 741.70 443.00 L 742.70 432.70 L 743.20 422.20 L 743.40 411.50 L 743.10 400.60 L 742.40 389.90 L 741.20 379.00 L 739.60 368.00 L 737.60 356.90 L 735.10 345.60 L 732.20 334.60 L 728.90 323.50 L 725.10 312.40 L 720.80 301.10 L 716.10 289.90 L 724.80 300.00 L 733.00 310.40 L 740.80 321.30 L 748.00 332.50 L 754.90 344.20 L 761.10 356.10 L 766.90 368.30 L 772.10 380.90 L 776.80 393.90 L 780.90 407.10 L 784.30 420.50 L 787.20 434.00 L 789.20 445.60 L 790.60 457.10 L 791.70 468.70 L 792.30 480.30 L 792.50 492.00 L 792.20 503.60 L 791.50 515.20 L 790.40 526.80 L 788.80 538.40 L 786.80 549.90 L 784.40 561.20 L 781.50 572.30 L 778.30 583.30 L 774.60 594.20 L 770.50 604.90 L 766.00 615.30 L 761.20 625.40 L 756.10 635.40 L 750.50 645.10 L 744.60 654.70 L 738.40 663.90 L 731.90 672.80 L 725.00 681.50 L 717.90 689.90 L 710.30 698.00 L 702.60 705.80 L 694.60 713.30 L 686.30 720.50 L 677.70 727.30 L 668.80 733.80 L 659.70 740.00 L 650.40 745.80 L 640.90 751.10 L 631.10 756.20 L 621.20 760.80 L 610.70 765.20 L 600.20 769.10 L 589.50 772.50 L 578.70 775.50 L 567.80 778.10 L 556.80 780.10 L 545.70 781.80 L 534.50 782.90 L 523.30 783.60 L 512.00 783.80 Z" fill="#f69859" fill-rule="nonzero" group-id="3,14,18" id="减去_42" node-id="34" stroke="none" target-height="493.9" target-width="511.9" target-x="280.6" target-y="289.9"></path><path d="M 288.50 449.40 L 289.70 438.30 L 293.20 419.80 L 298.40 399.70 L 304.80 381.40 L 308.60 372.00 L 313.00 362.30 L 318.10 352.20 L 326.80 337.40 L 337.30 322.40 L 343.00 315.30 L 349.20 308.20 L 355.90 301.20 L 363.20 294.40 L 370.70 288.00 L 378.80 281.80 L 387.60 275.80 L 396.90 270.10 L 404.50 266.00 L 412.50 262.10 L 421.00 258.50 L 430.00 255.10 L 439.40 251.90" fill="none" group-id="3,14" id="路径_178" node-id="35" stroke="#ffffff" stroke-linecap="round" stroke-width="20" target-height="197.5" target-width="150.9" target-x="288.5" target-y="251.9"></path><path d="M 792.50 490.80 L 792.20 504.80 L 791.30 518.50 L 789.80 531.90 L 787.70 545.10 L 785.10 558.00 L 781.90 571.00 L 778.20 583.60 L 773.90 595.90 L 769.20 607.90 L 764.00 619.70 L 758.20 631.30 L 752.00 642.50 L 745.40 653.40 L 738.40 663.90 L 730.90 674.10 L 722.90 684.00 L 714.60 693.50 L 705.90 702.50 L 696.90 711.20 L 687.40 719.50 L 677.60 727.30 L 667.50 734.70 L 657.10 741.60 L 646.40 748.10 L 635.40 754.10 L 624.10 759.50 L 612.50 764.50 L 600.70 768.90 L 588.70 772.80 L 576.30 776.10 L 563.90 778.90 L 551.30 781.00 L 538.40 782.60 L 525.30 783.50 L 512.00 783.80 L 498.70 783.50 L 485.60 782.60 L 472.70 781.00 L 460.10 778.90 L 447.70 776.10 L 435.30 772.80 L 423.30 768.90 L 411.50 764.50 L 399.90 759.50 L 388.60 754.10 L 377.60 748.10 L 366.90 741.60 L 356.50 734.70 L 346.40 727.30 L 336.60 719.50 L 327.10 711.20 L 318.10 702.50 L 309.40 693.50 L 301.10 684.00 L 293.10 674.10 L 285.60 663.90 L 278.60 653.40 L 272.00 642.50 L 265.80 631.30 L 260.00 619.70 L 254.80 607.90 L 250.10 595.90 L 245.80 583.60 L 242.10 571.00 L 238.90 558.00 L 236.30 545.10 L 234.20 531.90 L 232.70 518.50 L 231.80 504.80 L 231.50 490.80 L 231.80 476.90 L 232.70 463.20 L 234.20 449.80 L 236.30 436.60 L 238.90 423.70 L 242.10 410.70 L 245.80 398.10 L 250.10 385.80 L 254.80 373.80 L 260.00 362.00 L 265.80 350.40 L 272.00 339.20 L 278.60 328.30 L 285.60 317.80 L 293.10 307.60 L 301.10 297.70 L 309.40 288.20 L 318.10 279.20 L 327.10 270.50 L 336.60 262.20 L 346.40 254.40 L 356.50 247.00 L 366.90 240.10 L 377.60 233.60 L 388.60 227.60 L 399.90 222.20 L 411.50 217.20 L 423.30 212.80 L 435.30 208.90 L 447.70 205.60 L 460.10 202.80 L 472.70 200.70 L 485.60 199.10 L 498.70 198.20 L 512.00 197.80 L 525.30 198.20 L 538.40 199.10 L 551.30 200.70 L 563.90 202.80 L 576.30 205.60 L 588.70 208.90 L 600.70 212.80 L 612.50 217.20 L 624.10 222.20 L 635.40 227.60 L 646.40 233.60 L 657.10 240.10 L 667.50 247.00 L 677.60 254.40 L 687.40 262.20 L 696.90 270.50 L 705.90 279.20 L 714.60 288.20 L 722.90 297.70 L 730.90 307.60 L 738.40 317.80 L 745.40 328.30 L 752.00 339.20 L 758.20 350.40 L 764.00 362.00 L 769.20 373.80 L 773.90 385.80 L 778.20 398.10 L 781.90 410.70 L 785.10 423.70 L 787.70 436.60 L 789.80 449.80 L 791.30 463.20 L 792.20 476.90 L 792.50 490.80 Z" fill="none" group-id="3,14,19" node-id="195" stroke="none" target-height="586" target-width="561" target-x="231.5" target-y="197.8"></path><path d="M 786.50 490.80 L 786.20 504.50 L 785.30 517.90 L 783.80 531.00 L 781.80 544.00 L 779.30 556.70 L 776.10 569.30 L 772.50 581.70 L 768.30 593.70 L 763.70 605.50 L 758.60 617.10 L 753.00 628.40 L 746.90 639.40 L 740.40 650.00 L 733.50 660.40 L 726.20 670.40 L 718.40 680.00 L 710.30 689.30 L 701.80 698.20 L 692.90 706.70 L 683.70 714.80 L 674.10 722.50 L 664.20 729.70 L 654.00 736.50 L 643.50 742.80 L 632.70 748.70 L 621.70 754.00 L 610.40 758.90 L 598.80 763.20 L 587.00 767.00 L 574.90 770.30 L 562.80 773.00 L 550.40 775.10 L 537.80 776.60 L 525.00 777.50 L 512.00 777.80 L 499.00 777.50 L 486.20 776.60 L 473.60 775.10 L 461.20 773.00 L 449.10 770.30 L 437.00 767.00 L 425.20 763.20 L 413.60 758.90 L 402.30 754.00 L 391.30 748.70 L 380.50 742.80 L 370.00 736.50 L 359.80 729.70 L 349.90 722.50 L 340.30 714.80 L 331.10 706.70 L 322.20 698.20 L 313.70 689.30 L 305.60 680.00 L 297.80 670.40 L 290.50 660.40 L 283.60 650.00 L 277.10 639.40 L 271.00 628.40 L 265.40 617.10 L 260.30 605.50 L 255.70 593.70 L 251.50 581.70 L 247.90 569.30 L 244.70 556.70 L 242.20 544.00 L 240.20 531.00 L 238.70 517.90 L 237.80 504.50 L 237.50 490.80 L 237.80 477.20 L 238.70 463.80 L 240.20 450.70 L 242.20 437.70 L 244.70 425.00 L 247.90 412.40 L 251.50 400.00 L 255.70 388.00 L 260.30 376.20 L 265.40 364.60 L 271.00 353.30 L 277.10 342.30 L 283.60 331.70 L 290.50 321.30 L 297.80 311.30 L 305.60 301.70 L 313.70 292.40 L 322.20 283.50 L 331.10 275.00 L 340.30 266.90 L 349.90 259.20 L 359.80 252.00 L 370.00 245.20 L 380.50 238.90 L 391.30 233.00 L 402.30 227.70 L 413.60 222.80 L 425.20 218.50 L 437.00 214.70 L 449.10 211.40 L 461.20 208.70 L 473.60 206.60 L 486.20 205.10 L 499.00 204.20 L 512.00 203.80 L 525.00 204.20 L 537.80 205.10 L 550.40 206.60 L 562.80 208.70 L 574.90 211.40 L 587.00 214.70 L 598.80 218.50 L 610.40 222.80 L 621.70 227.70 L 632.70 233.00 L 643.50 238.90 L 654.00 245.20 L 664.20 252.00 L 674.10 259.20 L 683.70 266.90 L 692.90 275.00 L 701.80 283.50 L 710.30 292.40 L 718.40 301.70 L 726.20 311.30 L 733.50 321.30 L 740.40 331.70 L 746.90 342.30 L 753.00 353.30 L 758.60 364.60 L 763.70 376.20 L 768.30 388.00 L 772.50 400.00 L 776.10 412.40 L 779.30 425.00 L 781.80 437.70 L 783.80 450.70 L 785.30 463.80 L 786.20 477.20 L 786.50 490.80 Z" fill="none" group-id="3,14,19" node-id="197" stroke="#960532" stroke-linecap="butt" stroke-width="12" target-height="574" target-width="549" target-x="237.5" target-y="203.8"></path><path d="M 378.50 326.80 L 663.50 326.80 L 663.50 602.80 L 378.50 602.80 Z" fill="#f73c3e" fill-rule="nonzero" group-id="3,15,20,36" node-id="204" stroke="none" target-height="276" target-width="285" target-x="378.5" target-y="326.8"></path><path d="M 384.50 332.80 L 657.50 332.80 L 657.50 596.80 L 384.50 596.80 Z" fill="none" group-id="3,15,20,36" node-id="206" stroke="#960532" stroke-linecap="butt" stroke-width="12" target-height="264" target-width="273" target-x="384.5" target-y="332.8"></path><path d="M 517.50 589.80 L 517.50 357.80 L 378.50 357.80 L 378.50 334.80 L 663.50 334.80 L 663.50 589.80 Z" fill="#e20d33" fill-rule="nonzero" group-id="3,15,20,37" id="联合_12" node-id="44" stroke="none" target-height="255" target-width="285" target-x="378.5" target-y="334.8"></path><path d="M 378.50 326.80 L 663.50 326.80 L 663.50 592.80 L 378.50 592.80 Z" fill="none" group-id="3,15,20,38" node-id="214" stroke="none" target-height="266" target-width="285" target-x="378.5" target-y="326.8"></path><path d="M 384.50 332.80 L 657.50 332.80 L 657.50 586.80 L 384.50 586.80 Z" fill="none" group-id="3,15,20,38" node-id="216" stroke="#960532" stroke-linecap="butt" stroke-width="12" target-height="254" target-width="273" target-x="384.5" target-y="332.8"></path><path d="M 666.20 335.80 L 367.80 335.80 L 517.00 239.00 L 666.20 335.80 Z" fill="#e20d33" fill-rule="nonzero" group-id="3,15,21,39" node-id="222" stroke="none" target-height="96.79999" target-width="298.40002" target-x="367.8" target-y="239"></path><path d="M 517.00 246.20 L 388.00 329.80 L 646.00 329.80 L 517.00 246.20 M 517.00 231.80 L 686.50 341.80 L 347.50 341.80 L 517.00 231.80 Z" fill="#960532" fill-rule="nonzero" group-id="3,15,21,39" node-id="224" stroke="none" target-height="109.999985" target-width="339" target-x="347.5" target-y="231.8"></path><path d="M 517.50 341.80 L 347.50 341.80 L 517.00 231.80 L 517.50 232.20 L 517.50 341.80 Z" fill="#f73c3e" fill-rule="nonzero" group-id="3,15,21,40" id="减去_43" node-id="52" stroke="none" target-height="109.999985" target-width="170" target-x="347.5" target-y="231.8"></path><path d="M 517.00 231.80 L 686.50 341.80 L 347.50 341.80 Z" fill="none" group-id="3,15,21,41" node-id="232" stroke="none" target-height="109.999985" target-width="339" target-x="347.5" target-y="231.8"></path><path d="M 517.00 246.20 L 388.00 329.80 L 646.00 329.80 L 517.00 246.20 M 517.00 231.80 L 686.50 341.80 L 347.50 341.80 L 517.00 231.80 Z" fill="#960532" fill-rule="nonzero" group-id="3,15,21,41" node-id="234" stroke="none" target-height="109.999985" target-width="339" target-x="347.5" target-y="231.8"></path><path d="M 618.20 632.80 L 420.10 632.80 L 364.70 588.80 L 673.40 588.80 L 618.20 632.80 Z" fill="#f93c3e" fill-rule="nonzero" group-id="3,15,22,42" node-id="240" stroke="none" target-height="44" target-width="308.7" target-x="364.7" target-y="588.8"></path><path d="M 381.90 594.80 L 422.20 626.80 L 616.10 626.80 L 656.20 594.80 L 381.90 594.80 M 347.50 582.80 L 690.50 582.80 L 620.30 638.80 L 418.00 638.80 L 347.50 582.80 Z" fill="#960532" fill-rule="nonzero" group-id="3,15,22,42" node-id="242" stroke="none" target-height="56" target-width="343" target-x="347.5" target-y="582.8"></path><path d="M 620.30 638.80 L 517.50 638.80 L 517.50 582.80 L 690.50 582.80 L 620.30 638.80 Z" fill="#e20d33" fill-rule="nonzero" group-id="3,15,22,43" id="减去_44" node-id="60" stroke="none" target-height="56" target-width="173" target-x="517.5" target-y="582.8"></path><path d="M 347.50 582.80 L 690.50 582.80 L 620.30 638.80 L 418.00 638.80 Z" fill="none" group-id="3,15,22,44" node-id="250" stroke="none" target-height="56" target-width="343" target-x="347.5" target-y="582.8"></path><path d="M 381.90 594.80 L 422.20 626.80 L 616.10 626.80 L 656.20 594.80 L 381.90 594.80 M 347.50 582.80 L 690.50 582.80 L 620.30 638.80 L 418.00 638.80 L 347.50 582.80 Z" fill="#960532" fill-rule="nonzero" group-id="3,15,22,44" node-id="252" stroke="none" target-height="56" target-width="343" target-x="347.5" target-y="582.8"></path><path d="M 435.50 626.80 L 491.50 626.80 L 491.50 763.80 L 435.50 763.80 Z" fill="#f73c3e" fill-rule="nonzero" group-id="3,15,23,45" node-id="258" stroke="none" target-height="137" target-width="56" target-x="435.5" target-y="626.8"></path><path d="M 441.50 632.80 L 485.50 632.80 L 485.50 757.80 L 441.50 757.80 Z" fill="none" group-id="3,15,23,45" node-id="260" stroke="#960532" stroke-linecap="butt" stroke-width="12" target-height="125" target-width="44" target-x="441.5" target-y="632.8"></path><path d="M 473.50 626.80 L 529.50 626.80 L 529.50 763.80 L 473.50 763.80 Z" fill="#f73c3e" fill-rule="nonzero" group-id="3,15,23,46" node-id="264" stroke="none" target-height="137" target-width="56" target-x="473.5" target-y="626.8"></path><path d="M 479.50 632.80 L 523.50 632.80 L 523.50 757.80 L 479.50 757.80 Z" fill="none" group-id="3,15,23,46" node-id="266" stroke="#960532" stroke-linecap="butt" stroke-width="12" target-height="125" target-width="44" target-x="479.5" target-y="632.8"></path><path d="M 513.50 626.80 L 569.50 626.80 L 569.50 763.80 L 513.50 763.80 Z" fill="#e20d33" fill-rule="nonzero" group-id="3,15,23,47" node-id="270" stroke="none" target-height="137" target-width="56" target-x="513.5" target-y="626.8"></path><path d="M 519.50 632.80 L 563.50 632.80 L 563.50 757.80 L 519.50 757.80 Z" fill="none" group-id="3,15,23,47" node-id="272" stroke="#960532" stroke-linecap="butt" stroke-width="12" target-height="125" target-width="44" target-x="519.5" target-y="632.8"></path><path d="M 555.50 626.80 L 599.50 626.80 L 599.50 763.80 L 555.50 763.80 Z" fill="#a90633" fill-rule="nonzero" group-id="3,15,23,48" node-id="276" stroke="none" target-height="137" target-width="44" target-x="555.5" target-y="626.8"></path><path d="M 561.50 632.80 L 593.50 632.80 L 593.50 757.80 L 561.50 757.80 Z" fill="none" group-id="3,15,23,48" node-id="278" stroke="#960532" stroke-linecap="butt" stroke-width="12" target-height="125" target-width="32" target-x="561.5" target-y="632.8"></path><path d="M 622.50 807.80 L 417.50 807.80 L 443.10 760.80 L 599.70 760.80 L 622.50 807.80 Z" fill="#f69082" fill-rule="nonzero" group-id="3,15,24,49" node-id="284" stroke="none" target-height="47" target-width="205" target-x="417.5" target-y="760.8"></path><path d="M 446.60 766.80 L 427.60 801.80 L 612.90 801.80 L 596.00 766.80 L 446.60 766.80 M 439.50 754.80 L 603.50 754.80 L 632.00 813.80 L 407.40 813.80 L 439.50 754.80 Z" fill="#960532" fill-rule="nonzero" group-id="3,15,24,49" node-id="286" stroke="none" target-height="59" target-width="224.6" target-x="407.4" target-y="754.8"></path><path d="M 632.00 813.80 L 525.50 813.80 L 525.50 754.80 L 603.50 754.80 L 632.00 813.80 Z" fill="#a90633" fill-rule="nonzero" group-id="3,15,24,50" id="减去_45" node-id="81" stroke="none" target-height="59" target-width="106.5" target-x="525.5" target-y="754.8"></path><path d="M 439.50 754.80 L 603.50 754.80 L 632.00 813.80 L 407.40 813.80 Z" fill="none" group-id="3,15,24,51" node-id="294" stroke="none" target-height="59" target-width="224.6" target-x="407.4" target-y="754.8"></path><path d="M 446.60 766.80 L 427.60 801.80 L 612.90 801.80 L 596.00 766.80 L 446.60 766.80 M 439.50 754.80 L 603.50 754.80 L 632.00 813.80 L 407.40 813.80 L 439.50 754.80 Z" fill="#960532" fill-rule="nonzero" group-id="3,15,24,51" node-id="296" stroke="none" target-height="59" target-width="224.6" target-x="407.4" target-y="754.8"></path><path d="M 668.90 868.80 L 364.40 868.80 L 381.10 835.30 L 383.70 830.60 L 389.50 822.50 L 392.80 818.90 L 396.30 815.80 L 399.80 813.10 L 403.50 810.90 L 407.40 809.10 L 411.40 807.90 L 415.40 807.10 L 419.50 806.80 L 616.50 806.80 L 620.30 807.10 L 623.90 807.70 L 627.30 808.80 L 630.60 810.40 L 633.70 812.30 L 636.70 814.70 L 639.70 817.70 L 642.70 821.30 L 646.20 826.40 L 649.80 832.70 L 653.40 840.30 L 668.90 868.80 Z" fill="#f67065" fill-rule="nonzero" group-id="3,15,25,52" node-id="302" stroke="none" target-height="62" target-width="304.50003" target-x="364.4" target-y="806.8"></path><path d="M 419.50 812.80 L 415.40 813.20 L 411.50 814.00 L 407.80 815.50 L 404.30 817.40 L 401.00 819.70 L 395.00 825.40 L 389.90 832.10 L 386.70 837.60 L 374.20 862.80 L 658.80 862.80 L 647.90 842.70 L 644.80 836.20 L 639.40 826.90 L 636.40 823.00 L 633.70 820.10 L 631.20 817.90 L 628.50 816.00 L 623.60 813.80 L 619.90 813.00 L 616.50 812.80 L 419.50 812.80 M 419.50 800.80 L 616.50 800.80 L 621.60 801.20 L 626.20 802.10 L 630.50 803.60 L 634.50 805.60 L 638.20 808.20 L 641.70 811.20 L 645.00 814.70 L 648.20 818.70 L 652.00 824.30 L 655.50 830.70 L 658.90 837.80 L 678.90 874.80 L 354.60 874.80 L 373.40 837.80 L 375.80 832.60 L 378.50 827.60 L 381.50 823.00 L 384.70 818.80 L 388.30 814.80 L 392.20 811.30 L 396.20 808.30 L 400.40 805.70 L 404.90 803.60 L 409.60 802.10 L 414.40 801.20 L 419.50 800.80 Z" fill="#960532" fill-rule="nonzero" group-id="3,15,25,52" node-id="304" stroke="none" target-height="74" target-width="324.30002" target-x="354.6" target-y="800.8"></path><path d="M 678.90 874.80 L 533.50 874.80 L 533.50 800.80 L 616.50 800.80 L 621.30 801.10 L 625.90 802.10 L 630.40 803.60 L 634.50 805.70 L 638.30 808.20 L 641.80 811.30 L 647.70 818.00 L 650.70 822.30 L 653.40 826.80 L 658.90 837.80 L 678.90 874.80 Z" fill="#e20d33" fill-rule="nonzero" group-id="3,15,25,53" id="减去_46" node-id="89" stroke="none" target-height="74" target-width="145.40002" target-x="533.5" target-y="800.8"></path><path d="M 419.50 800.80 L 616.50 800.80 L 621.60 801.20 L 626.20 802.10 L 630.50 803.60 L 634.50 805.60 L 638.20 808.20 L 641.70 811.20 L 645.00 814.70 L 648.20 818.70 L 652.00 824.30 L 655.50 830.70 L 658.90 837.80 L 678.90 874.80 L 354.60 874.80 L 373.40 837.80 L 375.80 832.60 L 378.50 827.60 L 381.50 823.00 L 384.70 818.80 L 388.30 814.80 L 392.20 811.30 L 396.20 808.30 L 400.40 805.70 L 404.90 803.60 L 409.60 802.10 L 414.40 801.20 L 419.50 800.80 Z" fill="none" group-id="3,15,25,54" node-id="312" stroke="none" target-height="74" target-width="324.30002" target-x="354.6" target-y="800.8"></path><path d="M 419.50 812.80 L 415.40 813.20 L 411.50 814.00 L 407.80 815.50 L 404.30 817.40 L 401.00 819.70 L 395.00 825.40 L 389.90 832.10 L 386.70 837.60 L 374.20 862.80 L 658.80 862.80 L 647.90 842.70 L 644.80 836.20 L 639.40 826.90 L 636.40 823.00 L 633.70 820.10 L 631.20 817.90 L 628.50 816.00 L 623.60 813.80 L 619.90 813.00 L 616.50 812.80 L 419.50 812.80 M 419.50 800.80 L 616.50 800.80 L 621.60 801.20 L 626.20 802.10 L 630.50 803.60 L 634.50 805.60 L 638.20 808.20 L 641.70 811.20 L 645.00 814.70 L 648.20 818.70 L 652.00 824.30 L 655.50 830.70 L 658.90 837.80 L 678.90 874.80 L 354.60 874.80 L 373.40 837.80 L 375.80 832.60 L 378.50 827.60 L 381.50 823.00 L 384.70 818.80 L 388.30 814.80 L 392.20 811.30 L 396.20 808.30 L 400.40 805.70 L 404.90 803.60 L 409.60 802.10 L 414.40 801.20 L 419.50 800.80 Z" fill="#960532" fill-rule="nonzero" group-id="3,15,25,54" node-id="314" stroke="none" target-height="74" target-width="324.30002" target-x="354.6" target-y="800.8"></path><path d="M 519.00 191.70 L 519.00 65.10" fill="none" group-id="3,15,26" id="路径_184" node-id="94" stroke="#93012e" stroke-linecap="round" stroke-width="12" target-height="126.6" target-width="0" target-x="519" target-y="65.1"></path><path d="M 560.50 214.30 L 560.30 218.70 L 559.60 222.80 L 558.60 226.70 L 557.20 230.50 L 553.40 237.60 L 548.30 243.70 L 542.20 248.80 L 535.20 252.60 L 531.40 254.00 L 527.40 255.00 L 523.30 255.60 L 519.00 255.80 L 514.70 255.60 L 510.60 255.00 L 506.60 254.00 L 499.20 250.80 L 492.60 246.40 L 487.00 240.70 L 482.50 234.20 L 479.40 226.70 L 478.40 222.80 L 477.70 218.70 L 477.50 214.30 L 477.70 210.00 L 478.40 205.90 L 479.40 202.00 L 482.50 194.50 L 487.00 188.00 L 492.60 182.30 L 495.80 179.90 L 502.80 176.10 L 506.60 174.70 L 510.60 173.70 L 514.70 173.10 L 519.00 172.80 L 523.30 173.10 L 527.40 173.70 L 531.40 174.70 L 535.20 176.10 L 542.20 179.90 L 548.30 185.00 L 553.40 191.10 L 557.20 198.20 L 558.60 202.00 L 559.60 205.90 L 560.30 210.00 L 560.50 214.30 Z" fill="#f6cd40" fill-rule="nonzero" group-id="3,15,26,55" node-id="321" stroke="none" target-height="83" target-width="83" target-x="477.5" target-y="172.8"></path><path d="M 554.50 214.30 L 554.20 219.20 L 553.20 223.80 L 551.70 228.20 L 549.60 232.30 L 547.10 236.00 L 544.10 239.50 L 540.70 242.50 L 536.90 245.00 L 532.80 247.10 L 528.50 248.60 L 523.90 249.50 L 519.00 249.80 L 514.10 249.50 L 509.50 248.60 L 505.20 247.10 L 501.10 245.00 L 497.30 242.50 L 493.90 239.50 L 490.90 236.00 L 488.40 232.30 L 486.30 228.20 L 484.80 223.80 L 483.80 219.20 L 483.50 214.30 L 483.80 209.50 L 484.80 204.90 L 486.30 200.50 L 488.40 196.40 L 490.90 192.70 L 493.90 189.20 L 497.30 186.20 L 501.10 183.70 L 505.20 181.60 L 509.50 180.10 L 514.10 179.20 L 519.00 178.80 L 523.90 179.20 L 528.50 180.10 L 532.80 181.60 L 536.90 183.70 L 540.70 186.20 L 544.10 189.20 L 547.10 192.70 L 549.60 196.40 L 551.70 200.50 L 553.20 204.90 L 554.20 209.50 L 554.50 214.30 Z" fill="none" group-id="3,15,26,55" node-id="323" stroke="#707070" stroke-linecap="butt" stroke-width="12" target-height="71" target-width="71" target-x="483.5" target-y="178.8"></path><path d="M 519.00 255.80 L 514.00 255.50 L 509.30 254.70 L 504.70 253.30 L 500.40 251.40 L 496.30 249.10 L 492.50 246.30 L 489.10 243.10 L 486.00 239.50 L 483.30 235.60 L 481.10 231.40 L 479.40 226.90 L 478.20 222.00 L 481.40 224.50 L 488.30 228.30 L 495.70 230.80 L 503.30 231.80 L 511.10 231.40 L 514.90 230.60 L 522.50 228.00 L 526.10 226.10 L 529.40 223.90 L 535.20 218.80 L 540.00 212.70 L 543.50 205.80 L 545.70 198.30 L 546.30 194.40 L 546.50 190.30 L 545.80 182.60 L 549.00 185.60 L 551.80 188.90 L 554.20 192.30 L 556.20 195.90 L 557.90 199.80 L 559.10 203.70 L 560.00 207.80 L 560.50 211.90 L 560.50 216.10 L 560.10 220.30 L 559.30 224.40 L 558.00 228.60 L 556.30 232.60 L 554.20 236.40 L 551.80 239.80 L 549.10 243.00 L 546.10 245.80 L 542.80 248.40 L 539.30 250.60 L 535.50 252.40 L 531.60 253.90 L 527.60 255.00 L 523.40 255.60 L 519.00 255.80 Z" fill="#fa8112" fill-rule="nonzero" group-id="3,15,26,56" id="减去_47" node-id="98" stroke="none" target-height="73.2" target-width="82.29999" target-x="478.2" target-y="182.6"></path><path d="M 560.50 214.30 L 560.30 218.70 L 559.60 222.80 L 558.60 226.70 L 557.20 230.50 L 553.40 237.60 L 548.30 243.70 L 542.20 248.80 L 535.20 252.60 L 531.40 254.00 L 527.40 255.00 L 523.30 255.60 L 519.00 255.80 L 514.70 255.60 L 510.60 255.00 L 506.60 254.00 L 499.20 250.80 L 492.60 246.40 L 487.00 240.70 L 482.50 234.20 L 479.40 226.70 L 478.40 222.80 L 477.70 218.70 L 477.50 214.30 L 477.70 210.00 L 478.40 205.90 L 479.40 202.00 L 482.50 194.50 L 487.00 188.00 L 492.60 182.30 L 495.80 179.90 L 502.80 176.10 L 506.60 174.70 L 510.60 173.70 L 514.70 173.10 L 519.00 172.80 L 523.30 173.10 L 527.40 173.70 L 531.40 174.70 L 535.20 176.10 L 542.20 179.90 L 548.30 185.00 L 553.40 191.10 L 557.20 198.20 L 558.60 202.00 L 559.60 205.90 L 560.30 210.00 L 560.50 214.30 Z" fill="none" group-id="3,15,26,57" node-id="331" stroke="none" target-height="83" target-width="83" target-x="477.5" target-y="172.8"></path><path d="M 554.50 214.30 L 554.20 219.20 L 553.20 223.80 L 551.70 228.20 L 549.60 232.30 L 547.10 236.00 L 544.10 239.50 L 540.70 242.50 L 536.90 245.00 L 532.80 247.10 L 528.50 248.60 L 523.90 249.50 L 519.00 249.80 L 514.10 249.50 L 509.50 248.60 L 505.20 247.10 L 501.10 245.00 L 497.30 242.50 L 493.90 239.50 L 490.90 236.00 L 488.40 232.30 L 486.30 228.20 L 484.80 223.80 L 483.80 219.20 L 483.50 214.30 L 483.80 209.50 L 484.80 204.90 L 486.30 200.50 L 488.40 196.40 L 490.90 192.70 L 493.90 189.20 L 497.30 186.20 L 501.10 183.70 L 505.20 181.60 L 509.50 180.10 L 514.10 179.20 L 519.00 178.80 L 523.90 179.20 L 528.50 180.10 L 532.80 181.60 L 536.90 183.70 L 540.70 186.20 L 544.10 189.20 L 547.10 192.70 L 549.60 196.40 L 551.70 200.50 L 553.20 204.90 L 554.20 209.50 L 554.50 214.30 Z" fill="none" group-id="3,15,26,57" node-id="333" stroke="#960532" stroke-linecap="butt" stroke-width="12" target-height="71" target-width="71" target-x="483.5" target-y="178.8"></path><path d="M 616.80 455.80 L 613.50 453.80 L 600.50 444.10 L 595.60 440.80 L 590.50 438.00 L 586.90 436.40 L 583.20 435.40 L 579.50 434.80 L 569.30 434.40 L 558.00 434.30 L 537.10 434.80 L 539.40 476.60 L 569.20 476.90 L 579.50 476.50 L 583.40 476.00 L 587.10 475.00 L 590.60 473.50 L 595.60 470.80 L 600.30 467.60 L 613.00 458.00 L 616.80 455.80 Z" fill="#f7d341" fill-rule="nonzero" group-id="3,16,27" id="路径_189" node-id="103" stroke="#960532" stroke-linecap="butt" stroke-width="12" target-height="42.600006" target-width="79.70001" target-x="537.1" target-y="434.3"></path><path d="M 421.20 455.50 L 424.50 457.50 L 437.50 467.20 L 442.40 470.50 L 447.50 473.30 L 451.10 474.90 L 454.80 475.90 L 458.50 476.50 L 468.70 476.90 L 480.00 477.00 L 500.90 476.50 L 498.60 434.70 L 468.80 434.40 L 458.50 434.80 L 454.60 435.30 L 450.90 436.30 L 447.40 437.70 L 442.40 440.50 L 437.70 443.60 L 425.00 453.30 L 421.20 455.50 Z" fill="#f7d341" fill-rule="nonzero" group-id="3,16,28" id="路径_190" node-id="104" stroke="#960532" stroke-linecap="butt" stroke-width="12" target-height="42.600006" target-width="79.69998" target-x="421.2" target-y="434.4"></path><path d="M 518.80 553.50 L 520.80 550.10 L 530.60 537.20 L 533.80 532.30 L 536.70 527.10 L 538.20 523.50 L 539.30 519.90 L 539.80 516.10 L 540.30 505.90 L 540.30 494.70 L 539.80 473.70 L 498.00 476.10 L 497.70 505.90 L 498.10 516.10 L 498.70 520.10 L 499.70 523.70 L 501.10 527.30 L 503.80 532.30 L 507.00 537.00 L 516.60 549.70 L 518.80 553.50 Z" fill="#f7d341" fill-rule="nonzero" group-id="3,16,29" id="路径_191" node-id="105" stroke="#960532" stroke-linecap="butt" stroke-width="12" target-height="79.79999" target-width="42.599976" target-x="497.7" target-y="473.7"></path><path d="M 519.20 357.80 L 517.20 361.20 L 507.40 374.10 L 504.20 379.00 L 501.30 384.20 L 499.80 387.80 L 498.70 391.40 L 498.20 395.20 L 497.70 405.40 L 497.70 416.60 L 498.20 437.60 L 540.00 435.20 L 540.30 405.40 L 539.90 395.20 L 539.30 391.20 L 538.30 387.50 L 536.90 384.00 L 534.20 379.00 L 531.00 374.30 L 521.40 361.60 L 519.20 357.80 Z" fill="#f7d341" fill-rule="nonzero" group-id="3,16,30" id="路径_192" node-id="106" stroke="#960532" stroke-linecap="butt" stroke-width="12" target-height="79.80002" target-width="42.599976" target-x="497.7" target-y="357.8"></path><path d="M 449.70 524.70 L 453.50 523.80 L 469.50 521.50 L 475.30 520.30 L 481.00 518.70 L 484.60 517.20 L 487.90 515.40 L 491.00 513.20 L 498.50 506.30 L 506.50 498.30 L 521.00 483.20 L 489.70 455.30 L 468.50 476.10 L 461.50 483.70 L 459.10 486.80 L 457.20 490.10 L 455.70 493.60 L 454.10 499.10 L 453.00 504.70 L 450.80 520.50 L 449.70 524.70 Z" fill="#f7d341" fill-rule="nonzero" group-id="3,16,31" id="路径_193" node-id="107" stroke="#960532" stroke-linecap="butt" stroke-width="12" target-height="69.400024" target-width="71.29999" target-x="449.7" target-y="455.3"></path><path d="M 588.30 386.60 L 584.50 387.50 L 568.50 389.80 L 562.70 391.00 L 557.00 392.60 L 553.40 394.10 L 550.10 395.90 L 547.00 398.10 L 539.50 405.00 L 531.50 412.90 L 517.00 428.10 L 548.30 456.00 L 569.50 435.20 L 576.50 427.60 L 578.90 424.50 L 580.80 421.20 L 582.30 417.70 L 583.90 412.20 L 585.00 406.60 L 587.20 390.80 L 588.30 386.60 Z" fill="#f7d341" fill-rule="nonzero" group-id="3,16,32" id="路径_194" node-id="108" stroke="#960532" stroke-linecap="butt" stroke-width="12" target-height="69.399994" target-width="71.29999" target-x="517" target-y="386.6"></path><path d="M 434.40 406.60 L 436.30 410.00 L 442.60 424.90 L 445.20 430.20 L 448.30 435.20 L 450.60 438.40 L 453.30 441.10 L 456.20 443.50 L 464.80 448.90 L 474.50 454.60 L 492.90 464.70 L 511.80 427.30 L 486.20 412.10 L 477.00 407.30 L 473.40 405.80 L 469.70 404.90 L 465.90 404.30 L 460.20 404.20 L 454.60 404.60 L 438.80 406.60 L 434.40 406.60 Z" fill="#f7d341" fill-rule="nonzero" group-id="3,16,33" id="路径_195" node-id="109" stroke="#960532" stroke-linecap="butt" stroke-width="12" target-height="60.5" target-width="77.399994" target-x="434.4" target-y="404.2"></path><path d="M 603.60 504.70 L 601.70 501.30 L 595.40 486.40 L 592.80 481.10 L 589.70 476.10 L 587.40 472.90 L 584.70 470.20 L 581.80 467.80 L 573.20 462.40 L 563.50 456.70 L 545.10 446.60 L 526.20 484.00 L 551.80 499.20 L 561.00 504.00 L 564.60 505.40 L 568.30 506.40 L 572.10 507.00 L 577.80 507.10 L 583.40 506.70 L 599.20 504.70 L 603.60 504.70 Z" fill="#f7d341" fill-rule="nonzero" group-id="3,16,34" id="路径_196" node-id="110" stroke="#960532" stroke-linecap="butt" stroke-width="12" target-height="60.5" target-width="77.39996" target-x="526.2" target-y="446.6"></path><path d="M 552.60 453.00 L 552.30 457.90 L 551.30 462.60 L 549.80 467.00 L 547.70 471.20 L 545.10 475.00 L 542.00 478.50 L 538.60 481.50 L 534.80 484.10 L 530.60 486.20 L 526.20 487.70 L 521.50 488.70 L 516.60 489.00 L 511.60 488.70 L 507.00 487.70 L 502.50 486.20 L 498.40 484.10 L 494.60 481.50 L 491.10 478.50 L 488.00 475.00 L 485.50 471.20 L 483.40 467.00 L 481.80 462.60 L 480.90 457.90 L 480.50 453.00 L 480.90 448.00 L 481.80 443.40 L 483.40 439.00 L 485.50 434.80 L 488.00 431.00 L 491.10 427.50 L 494.60 424.50 L 498.40 421.90 L 502.50 419.80 L 507.00 418.20 L 511.60 417.30 L 516.60 416.90 L 521.50 417.30 L 526.20 418.20 L 530.60 419.80 L 534.80 421.90 L 538.60 424.50 L 542.00 427.50 L 545.10 431.00 L 547.70 434.80 L 549.80 439.00 L 551.30 443.40 L 552.30 448.00 L 552.60 453.00 Z" fill="#ffffff" fill-rule="nonzero" group-id="3,16,35" node-id="372" stroke="none" target-height="72.100006" target-width="72.099976" target-x="480.5" target-y="416.9"></path><path d="M 546.60 453.00 L 546.30 457.10 L 545.50 461.00 L 544.20 464.70 L 542.50 468.20 L 540.30 471.30 L 537.80 474.20 L 534.90 476.80 L 531.70 478.90 L 528.30 480.70 L 524.60 481.90 L 520.70 482.70 L 516.60 483.00 L 512.40 482.70 L 508.60 481.90 L 504.90 480.70 L 501.40 478.90 L 498.20 476.80 L 495.30 474.20 L 492.80 471.30 L 490.70 468.20 L 488.90 464.70 L 487.60 461.00 L 486.80 457.10 L 486.50 453.00 L 486.80 448.90 L 487.60 445.00 L 488.90 441.30 L 490.70 437.80 L 492.80 434.60 L 495.30 431.70 L 498.20 429.20 L 501.40 427.10 L 504.90 425.30 L 508.60 424.00 L 512.40 423.20 L 516.60 422.90 L 520.70 423.20 L 524.60 424.00 L 528.30 425.30 L 531.70 427.10 L 534.90 429.20 L 537.80 431.70 L 540.30 434.60 L 542.50 437.80 L 544.20 441.30 L 545.50 445.00 L 546.30 448.90 L 546.60 453.00 Z" fill="none" group-id="3,16,35" node-id="374" stroke="#960532" stroke-linecap="butt" stroke-width="12" target-height="60.100006" target-width="60.099976" target-x="486.5" target-y="422.9"></path></g></svg>