<?xml version="1.0" standalone="no"?><!DOCTYPE svg PUBLIC "-//W3C//DTD SVG 1.1//EN" "http://www.w3.org/Graphics/SVG/1.1/DTD/svg11.dtd"><svg height="1024" node-id="1" sillyvg="true" template-height="1024" template-width="1024" version="1.1" viewBox="0 0 1024 1024" width="1024" xmlns="http://www.w3.org/2000/svg" xmlns:xlink="http://www.w3.org/1999/xlink"><defs node-id="142"><clipPath id="clip-宫殿" node-id="5"><path d="M 0.00 0.00 L 1024.00 0.00 L 1024.00 1024.00 L 0.00 1024.00 Z" fill="#000000" fill-rule="nonzero" node-id="145" stroke="none" target-height="1024" target-width="1024" target-x="0" target-y="0"></path></clipPath><clipPath id="clip-path" node-id="3"><path d="M 283.00 624.90 L 274.70 614.30 L 267.00 603.50 L 259.70 592.30 L 252.90 580.90 L 246.60 569.20 L 240.90 557.30 L 235.70 545.10 L 231.00 532.80 L 226.80 520.20 L 223.10 507.50 L 220.10 494.60 L 217.50 481.60 L 215.50 468.40 L 214.10 455.20 L 213.30 441.90 L 213.00 428.40 L 213.30 415.50 L 214.00 402.80 L 215.30 390.30 L 217.10 378.00 L 219.30 365.90 L 222.00 353.80 L 225.20 341.90 L 228.80 330.20 L 232.90 318.80 L 237.40 307.60 L 242.30 296.50 L 247.70 285.70 L 253.40 275.20 L 259.50 264.90 L 266.00 254.80 L 272.90 245.00 L 280.20 235.60 L 287.70 226.40 L 295.70 217.50 L 303.90 208.90 L 312.50 200.60 L 321.40 192.70 L 330.60 185.10 L 340.10 177.90 L 349.90 171.00 L 359.90 164.50 L 370.20 158.40 L 380.80 152.60 L 391.60 147.30 L 402.60 142.30 L 413.90 137.90 L 425.30 133.80 L 436.90 130.20 L 448.80 127.00 L 460.90 124.30 L 473.10 122.00 L 485.40 120.30 L 497.90 119.00 L 510.60 118.20 L 523.50 117.90 L 536.40 118.20 L 549.10 119.00 L 561.60 120.30 L 573.90 122.00 L 586.10 124.30 L 598.20 127.00 L 610.10 130.20 L 621.70 133.80 L 633.10 137.90 L 644.40 142.30 L 655.40 147.30 L 666.20 152.60 L 676.80 158.40 L 687.10 164.50 L 697.10 171.00 L 706.90 177.90 L 716.40 185.10 L 725.60 192.70 L 734.50 200.60 L 743.10 208.90 L 751.30 217.50 L 759.30 226.40 L 766.80 235.60 L 774.10 245.00 L 781.00 254.80 L 787.50 264.90 L 793.60 275.20 L 799.30 285.70 L 804.70 296.50 L 809.60 307.60 L 814.10 318.80 L 818.20 330.20 L 821.80 341.90 L 825.00 353.80 L 827.70 365.90 L 829.90 378.00 L 831.70 390.30 L 833.00 402.80 L 833.70 415.50 L 834.00 428.40 L 833.70 442.50 L 832.80 456.30 L 831.20 470.00 L 829.10 483.60 L 826.40 497.20 L 823.00 510.50 L 819.10 523.60 L 814.70 536.50 L 809.60 549.20 L 804.10 561.60 L 797.90 573.80 L 791.30 585.80 L 784.10 597.40 L 776.40 608.70 L 768.20 619.70 L 759.50 630.40 L 750.30 640.60 L 740.60 650.50 L 730.40 660.00 L 719.80 669.00 L 712.70 679.50 L 705.30 689.50 L 697.40 699.10 L 689.00 708.10 L 680.20 716.80 L 671.00 725.00 L 661.50 732.60 L 651.60 739.80 L 641.30 746.50 L 630.80 752.60 L 619.90 758.20 L 608.80 763.30 L 597.40 767.80 L 585.90 771.80 L 574.10 775.10 L 562.00 777.90 L 549.90 780.10 L 537.60 781.70 L 525.10 782.60 L 512.50 782.90 L 502.00 782.70 L 491.60 782.10 L 481.50 781.00 L 471.40 779.50 L 461.60 777.70 L 449.30 774.70 L 437.30 771.20 L 425.70 767.20 L 414.30 762.50 L 403.10 757.30 L 392.30 751.60 L 381.80 745.30 L 371.70 738.60 L 361.90 731.30 L 352.50 723.60 L 343.50 715.50 L 334.90 706.90 L 326.70 698.00 L 319.00 688.60 L 311.80 678.80 L 305.00 668.70 L 298.70 658.20 L 293.00 647.50 L 287.70 636.30 L 283.00 624.90 Z" fill="#000000" fill-rule="nonzero" id="联合_5" node-id="4" stroke="none" target-height="665" target-width="621" target-x="213" target-y="117.9"></path></clipPath></defs><g clip-path="url(#clip-宫殿)" id="宫殿" node-id="7"><path d="M 0.00 0.00 L 1024.00 0.00 L 1024.00 1024.00 L 0.00 1024.00 Z" fill="#fff9e6" fill-rule="nonzero" node-id="153" stroke="none" target-height="1024" target-width="1024" target-x="0" target-y="0"></path><path d="M 185.10 95.70 L 185.80 94.70 L 187.00 94.30 L 188.20 94.70 L 188.90 95.70 L 195.80 116.40 L 196.30 117.20 L 197.10 117.70 L 217.80 124.60 L 219.10 125.90 L 219.10 127.10 L 217.80 128.40 L 197.10 135.30 L 196.30 135.80 L 195.80 136.60 L 188.90 157.30 L 187.60 158.60 L 186.40 158.60 L 185.10 157.30 L 178.20 136.60 L 177.70 135.80 L 176.90 135.30 L 156.20 128.40 L 154.90 127.10 L 154.90 125.90 L 156.20 124.60 L 176.90 117.70 L 177.70 117.20 L 178.20 116.40 Z" fill="none" group-id="1,3" node-id="157" stroke="none" target-height="64.3" target-width="64.20001" target-x="154.9" target-y="94.3"></path><path d="M 187.00 109.00 L 183.90 118.30 L 183.10 120.00 L 181.90 121.40 L 180.50 122.60 L 178.80 123.40 L 169.50 126.50 L 178.80 129.60 L 180.50 130.40 L 181.90 131.60 L 183.10 133.00 L 183.90 134.70 L 187.00 144.00 L 190.10 134.70 L 190.90 133.00 L 192.10 131.60 L 193.50 130.40 L 195.20 129.60 L 204.50 126.50 L 195.20 123.40 L 193.50 122.60 L 192.10 121.40 L 190.90 120.00 L 190.10 118.30 L 187.00 109.00 M 187.00 94.30 L 188.10 94.70 L 188.90 95.70 L 195.80 116.40 L 196.30 117.20 L 197.10 117.70 L 217.80 124.60 L 218.60 125.10 L 219.20 126.50 L 218.60 127.90 L 217.80 128.40 L 197.10 135.30 L 196.30 135.80 L 195.80 136.60 L 188.90 157.30 L 188.40 158.10 L 187.00 158.70 L 185.60 158.10 L 185.10 157.30 L 178.20 136.60 L 177.70 135.80 L 176.90 135.30 L 156.20 128.40 L 155.40 127.90 L 154.80 126.50 L 155.40 125.10 L 156.20 124.60 L 176.90 117.70 L 177.70 117.20 L 178.20 116.40 L 185.10 95.70 L 185.90 94.70 L 187.00 94.30 Z" fill="#c00121" fill-rule="nonzero" group-id="1,3" node-id="159" stroke="none" target-height="64.399994" target-width="64.399994" target-x="154.8" target-y="94.3"></path><path d="M 78.60 838.50 L 75.00 832.60 L 69.80 826.30 L 63.40 821.10 L 57.60 817.50 L 63.40 813.90 L 69.80 808.70 L 75.00 802.40 L 78.60 796.50 L 82.10 802.40 L 87.40 808.70 L 93.70 813.90 L 99.60 817.50 L 93.70 821.10 L 87.40 826.30 L 82.10 832.60 L 78.60 838.50 Z" fill="#fbb84e" fill-rule="nonzero" group-id="1,4" node-id="163" stroke="none" target-height="42" target-width="42" target-x="57.6" target-y="796.5"></path><path d="M 78.60 800.50 L 75.30 805.30 L 71.20 810.10 L 66.40 814.30 L 61.60 817.50 L 66.40 820.70 L 71.20 824.90 L 75.30 829.70 L 78.60 834.50 L 81.80 829.70 L 85.90 824.90 L 90.80 820.70 L 95.50 817.50 L 90.80 814.30 L 85.90 810.10 L 81.80 805.30 L 78.60 800.50 M 78.60 792.00 L 82.70 799.60 L 86.50 804.80 L 88.80 807.30 L 91.30 809.60 L 96.50 813.40 L 104.10 817.50 L 96.50 821.60 L 91.30 825.40 L 88.80 827.70 L 86.50 830.20 L 82.70 835.40 L 78.60 843.00 L 74.40 835.40 L 70.70 830.20 L 68.40 827.70 L 65.90 825.40 L 60.70 821.60 L 53.10 817.50 L 60.70 813.40 L 65.90 809.60 L 68.40 807.30 L 70.70 804.80 L 74.40 799.60 L 78.60 792.00 Z" fill="#c00121" fill-rule="nonzero" group-id="1,4" node-id="165" stroke="none" target-height="51" target-width="51" target-x="53.1" target-y="792"></path><path d="M 895.00 831.00 L 899.10 838.60 L 902.90 843.80 L 905.20 846.30 L 907.70 848.60 L 912.90 852.40 L 920.50 856.50 L 912.90 860.60 L 907.70 864.40 L 905.20 866.70 L 902.90 869.20 L 899.10 874.40 L 895.00 882.00 L 890.90 874.40 L 887.10 869.20 L 884.80 866.70 L 882.30 864.40 L 877.10 860.60 L 869.50 856.50 L 877.10 852.40 L 882.30 848.60 L 884.80 846.30 L 887.10 843.80 L 890.90 838.60 L 895.00 831.00 Z" fill="none" group-id="1,5" node-id="169" stroke="none" target-height="51" target-width="51" target-x="869.5" target-y="831"></path><path d="M 895.00 843.20 L 892.30 846.90 L 889.00 850.50 L 885.40 853.80 L 881.70 856.50 L 885.40 859.20 L 889.00 862.50 L 892.30 866.10 L 895.00 869.80 L 897.70 866.10 L 901.00 862.50 L 904.60 859.20 L 908.30 856.50 L 904.60 853.80 L 901.00 850.50 L 897.70 846.90 L 895.00 843.20 M 895.00 831.00 L 899.10 838.60 L 902.90 843.80 L 905.20 846.30 L 907.70 848.60 L 912.90 852.40 L 920.50 856.50 L 912.90 860.60 L 907.70 864.40 L 905.20 866.70 L 902.90 869.20 L 899.10 874.40 L 895.00 882.00 L 890.90 874.40 L 887.10 869.20 L 884.80 866.70 L 882.30 864.40 L 877.10 860.60 L 869.50 856.50 L 877.10 852.40 L 882.30 848.60 L 884.80 846.30 L 887.10 843.80 L 890.90 838.60 L 895.00 831.00 Z" fill="#c00121" fill-rule="nonzero" group-id="1,5" node-id="171" stroke="none" target-height="51" target-width="51" target-x="869.5" target-y="831"></path><path d="M 913.50 364.70 L 897.80 354.00 L 896.50 353.30 L 895.00 353.10 L 893.50 353.30 L 892.20 354.00 L 876.50 364.70 L 881.90 346.60 L 882.10 345.10 L 881.90 343.60 L 881.20 342.30 L 880.20 341.20 L 865.10 329.70 L 884.10 329.20 L 885.60 328.90 L 886.90 328.20 L 887.90 327.20 L 888.70 325.90 L 895.00 308.00 L 901.30 325.90 L 902.10 327.20 L 903.10 328.20 L 904.40 328.90 L 905.90 329.20 L 924.90 329.70 L 909.80 341.20 L 908.80 342.30 L 908.10 343.60 L 907.90 345.10 L 908.10 346.60 L 913.50 364.70 Z" fill="#fbb84e" fill-rule="nonzero" group-id="1,6" node-id="175" stroke="none" target-height="56.700012" target-width="59.80005" target-x="865.1" target-y="308"></path><path d="M 895.00 317.00 L 891.50 326.90 L 890.80 328.30 L 888.60 330.60 L 885.80 332.00 L 884.20 332.20 L 873.70 332.40 L 882.00 338.80 L 883.20 339.90 L 884.70 342.70 L 885.10 345.80 L 884.80 347.40 L 881.80 357.50 L 890.50 351.50 L 891.90 350.70 L 895.00 350.10 L 898.10 350.70 L 899.50 351.50 L 908.20 357.50 L 905.20 347.40 L 904.90 345.80 L 905.30 342.70 L 906.80 339.90 L 908.00 338.80 L 916.30 332.40 L 905.80 332.20 L 904.20 332.00 L 901.40 330.60 L 899.20 328.30 L 898.50 326.90 L 895.00 317.00 M 895.00 303.00 L 896.10 303.30 L 896.90 304.30 L 904.20 324.90 L 904.90 325.80 L 906.00 326.20 L 927.80 326.70 L 928.70 326.90 L 929.70 328.10 L 929.60 329.70 L 929.00 330.30 L 911.70 343.60 L 911.00 344.50 L 911.00 345.70 L 917.20 366.60 L 917.00 368.20 L 915.70 369.10 L 914.10 368.80 L 896.10 356.50 L 895.00 356.10 L 893.90 356.50 L 875.90 368.80 L 875.00 369.10 L 873.60 368.80 L 872.80 367.50 L 872.80 366.60 L 879.00 345.70 L 879.00 344.50 L 878.30 343.60 L 860.40 329.70 L 860.20 328.90 L 860.70 327.40 L 862.20 326.70 L 884.00 326.20 L 885.10 325.80 L 885.80 324.90 L 893.10 304.30 L 893.90 303.30 L 895.00 303.00 Z" fill="#c00121" fill-rule="nonzero" group-id="1,6" node-id="177" stroke="none" target-height="66.100006" target-width="69.5" target-x="860.2" target-y="303"></path><path d="M 501.60 964.80 L 502.90 963.60 L 504.10 963.60 L 505.10 964.30 L 510.50 979.40 L 511.30 980.40 L 512.40 980.70 L 527.80 981.10 L 529.00 981.50 L 529.70 982.50 L 529.70 983.70 L 529.00 984.70 L 516.70 994.10 L 516.00 995.10 L 516.00 996.30 L 520.40 1011.10 L 520.40 1012.30 L 519.70 1013.30 L 519.10 1013.60 L 517.40 1013.30 L 504.60 1004.50 L 503.50 1004.20 L 502.40 1004.50 L 489.60 1013.30 L 487.90 1013.60 L 486.90 1012.80 L 486.60 1011.10 L 491.00 996.30 L 491.00 995.10 L 490.30 994.10 L 478.00 984.70 L 477.30 983.70 L 477.30 982.50 L 478.00 981.50 L 479.20 981.10 L 494.60 980.70 L 495.80 980.40 L 496.50 979.40 Z" fill="none" group-id="1,7" node-id="181" stroke="none" target-height="50" target-width="52.400024" target-x="477.3" target-y="963.6"></path><path d="M 503.50 974.50 L 501.20 981.10 L 500.20 982.90 L 498.70 984.40 L 496.80 985.40 L 494.80 985.70 L 487.80 985.90 L 493.30 990.10 L 494.80 991.70 L 495.70 993.50 L 496.10 995.60 L 495.80 997.70 L 493.80 1004.40 L 499.50 1000.40 L 501.40 999.50 L 503.50 999.20 L 505.60 999.50 L 507.50 1000.40 L 513.20 1004.40 L 511.20 997.70 L 511.00 995.60 L 511.30 993.50 L 512.20 991.70 L 513.70 990.10 L 519.20 985.90 L 512.20 985.70 L 510.20 985.40 L 508.30 984.40 L 506.80 982.90 L 505.80 981.10 L 503.50 974.50 M 503.50 963.50 L 504.60 963.80 L 505.40 964.80 L 510.50 979.40 L 511.30 980.40 L 512.40 980.70 L 527.80 981.10 L 528.70 981.30 L 529.70 982.50 L 529.60 984.00 L 529.00 984.70 L 516.70 994.10 L 516.00 995.10 L 516.00 996.30 L 520.40 1011.10 L 520.20 1012.70 L 519.00 1013.60 L 517.40 1013.30 L 504.60 1004.50 L 503.50 1004.20 L 502.40 1004.50 L 489.60 1013.30 L 488.80 1013.60 L 487.30 1013.30 L 486.50 1012.00 L 486.60 1011.10 L 491.00 996.30 L 491.00 995.10 L 490.30 994.10 L 477.40 984.00 L 477.20 983.30 L 477.70 981.80 L 479.20 981.10 L 494.60 980.70 L 495.70 980.40 L 496.50 979.40 L 501.60 964.80 L 502.40 963.80 L 503.50 963.50 Z" fill="#c00121" fill-rule="nonzero" group-id="1,7" node-id="183" stroke="none" target-height="50.099976" target-width="52.5" target-x="477.2" target-y="963.5"></path><path d="M 305.00 857.00 L 310.40 877.80 L 332.00 876.50 L 313.70 888.00 L 321.70 908.00 L 305.00 894.30 L 288.30 908.00 L 296.30 888.00 L 278.00 876.50 L 299.60 877.80 Z" fill="#fbb84e" fill-rule="nonzero" group-id="1,8" id="多边形_3" node-id="25" stroke="none" target-height="51" target-width="54" target-x="278" target-y="857"></path><path d="M 56.00 96.50 L 56.70 102.80 L 57.40 105.50 L 58.40 108.40 L 59.80 111.10 L 61.70 113.40 L 64.00 115.30 L 66.70 116.70 L 69.50 117.70 L 72.20 118.30 L 78.60 119.00 L 72.20 119.70 L 69.50 120.40 L 66.70 121.40 L 64.00 122.80 L 61.70 124.70 L 59.80 127.00 L 58.40 129.70 L 57.40 132.50 L 56.70 135.20 L 56.00 141.60 L 55.30 135.20 L 54.70 132.50 L 53.70 129.70 L 52.30 127.00 L 50.40 124.70 L 48.10 122.80 L 45.40 121.40 L 42.50 120.40 L 39.80 119.70 L 33.50 119.00 L 39.80 118.30 L 42.50 117.70 L 45.40 116.70 L 48.10 115.30 L 50.40 113.40 L 52.30 111.10 L 53.70 108.40 L 54.70 105.50 L 55.30 102.80 L 56.00 96.50 Z" fill="#fbb84e" fill-rule="nonzero" group-id="1,9" id="路径_1" node-id="26" stroke="none" target-height="45.100006" target-width="45.1" target-x="33.5" target-y="96.5"></path><path d="M 734.00 -28.00 L 735.10 -17.80 L 737.10 -10.60 L 738.70 -7.00 L 740.70 -3.60 L 743.10 -0.60 L 746.10 1.80 L 749.50 3.80 L 753.10 5.40 L 760.30 7.40 L 770.50 8.50 L 760.30 9.60 L 753.10 11.60 L 749.50 13.20 L 746.10 15.20 L 743.10 17.60 L 740.70 20.60 L 738.70 24.00 L 737.10 27.60 L 735.10 34.80 L 734.00 45.00 L 732.90 34.80 L 730.90 27.60 L 729.30 24.00 L 727.30 20.60 L 724.90 17.60 L 721.90 15.20 L 718.50 13.20 L 714.90 11.60 L 707.70 9.60 L 697.50 8.50 L 707.70 7.40 L 714.90 5.40 L 718.50 3.80 L 721.90 1.80 L 724.90 -0.60 L 727.30 -3.60 L 729.30 -7.00 L 730.90 -10.60 L 732.90 -17.80 L 734.00 -28.00 Z" fill="#fbb84e" fill-rule="nonzero" group-id="1,10" id="路径_2" node-id="27" stroke="none" target-height="73" target-width="73" target-x="697.5" target-y="-28"></path><path d="M 786.20 1024.00 L 787.50 1020.60 L 790.10 1016.40 L 793.30 1013.60 L 796.50 1012.70 L 798.10 1012.90 L 800.10 1013.60 L 802.40 1015.00 L 804.50 1016.80 L 806.90 1019.60 L 809.80 1023.50 L 812.30 1010.10 L 814.20 1003.60 L 818.10 994.10 L 821.60 988.50 L 823.70 986.30 L 825.70 985.00 L 827.80 984.20 L 829.30 984.10 L 831.00 984.40 L 832.70 985.30 L 834.60 986.70 L 836.70 989.00 L 839.20 992.70 L 841.90 997.90 L 844.10 1003.40 L 846.60 1010.50 L 849.30 1019.70 L 851.50 1015.30 L 853.50 1012.30 L 855.20 1010.40 L 857.20 1008.90 L 858.90 1008.30 L 860.50 1008.20 L 863.50 1009.40 L 866.60 1012.80 L 868.00 1015.30 L 869.50 1019.70" fill="none" group-id="1,11" id="路径_5" node-id="28" stroke="#fbb84e" stroke-linecap="round" stroke-width="6" target-height="39.900024" target-width="83.29999" target-x="786.2" target-y="984.1"></path><path d="M 108.80 479.50 L 110.20 476.10 L 112.80 471.90 L 115.90 469.10 L 119.10 468.30 L 120.80 468.40 L 122.80 469.10 L 125.10 470.60 L 127.10 472.40 L 129.60 475.10 L 132.50 479.10 L 133.50 472.30 L 135.00 465.60 L 136.90 459.10 L 140.70 449.60 L 144.30 444.10 L 146.40 441.90 L 148.40 440.50 L 150.40 439.80 L 152.00 439.70 L 153.60 440.00 L 155.40 440.80 L 157.30 442.30 L 159.40 444.60 L 161.80 448.20 L 164.50 453.50 L 166.80 458.90 L 169.30 466.00 L 171.90 475.20 L 174.20 470.80 L 176.10 467.80 L 177.80 466.00 L 179.80 464.50 L 181.60 463.80 L 183.10 463.80 L 186.10 465.00 L 189.30 468.40 L 190.60 470.80 L 192.20 475.20" fill="none" group-id="1,12" id="路径_6" node-id="29" stroke="#fbb84e" stroke-linecap="round" stroke-width="6" target-height="39.799988" target-width="83.399994" target-x="108.8" target-y="439.7"></path><path d="M 469.30 860.30 L 464.70 859.30 L 460.30 857.80 L 456.20 855.90 L 452.40 853.50 L 448.80 850.80 L 445.60 847.60 L 442.70 844.20 L 440.30 840.40 L 438.20 836.40 L 436.60 832.10 L 435.50 827.70 L 434.80 823.00 L 432.80 827.30 L 430.30 831.20 L 427.50 834.70 L 424.30 837.90 L 420.80 840.70 L 417.00 843.10 L 413.00 845.10 L 408.80 846.60 L 404.30 847.70 L 399.80 848.30 L 395.20 848.30 L 390.50 847.90 L 377.50 845.60 L 373.60 844.30 L 369.90 842.70 L 366.40 840.80 L 363.10 838.50 L 357.40 833.10 L 352.80 826.80 L 349.40 819.70 L 347.50 811.90 L 347.10 807.90 L 347.20 803.80 L 348.70 792.80 L 344.90 797.00 L 341.70 800.00 L 338.10 802.70 L 334.30 805.00 L 330.30 806.90 L 326.20 808.50 L 321.90 809.60 L 317.40 810.30 L 312.80 810.50 L 308.40 810.30 L 304.00 809.70 L 299.70 808.70 L 295.50 807.20 L 291.50 805.30 L 287.70 803.10 L 284.00 800.40 L 280.50 797.20 L 277.40 793.80 L 274.80 790.30 L 272.50 786.50 L 270.60 782.40 L 269.10 778.30 L 268.10 774.10 L 267.40 769.80 L 267.10 765.40 L 267.30 761.00 L 267.90 756.70 L 268.90 752.40 L 270.30 748.20 L 272.20 744.10 L 274.50 740.20 L 277.30 736.40 L 322.70 680.30 L 380.40 727.10 L 536.20 751.70 L 603.10 744.70 L 673.40 717.70 L 708.40 674.40 L 764.40 719.90 L 767.90 723.00 L 771.00 726.40 L 773.70 730.00 L 775.90 733.80 L 777.80 737.80 L 779.30 741.90 L 780.40 746.20 L 781.00 750.50 L 781.30 754.90 L 781.10 759.20 L 780.50 763.50 L 779.50 767.90 L 778.10 772.10 L 776.20 776.10 L 773.90 780.10 L 771.10 783.90 L 768.10 787.30 L 764.80 790.30 L 761.30 792.90 L 757.50 795.30 L 753.50 797.20 L 749.30 798.70 L 745.00 799.80 L 740.50 800.50 L 736.00 800.80 L 731.60 800.60 L 727.20 800.00 L 722.90 798.90 L 718.70 797.40 L 714.70 795.60 L 710.80 793.30 L 706.70 790.30 L 707.60 798.40 L 707.00 806.40 L 705.90 811.60 L 704.20 816.50 L 702.00 821.20 L 699.20 825.70 L 695.90 829.70 L 692.20 833.50 L 685.80 838.20 L 678.40 841.80 L 674.10 843.20 L 669.70 844.20 L 665.30 844.70 L 660.90 844.80 L 656.50 844.50 L 652.10 843.80 L 647.80 842.60 L 643.60 840.90 L 639.50 838.90 L 635.80 836.50 L 632.30 833.80 L 629.10 830.70 L 626.20 827.30 L 623.70 823.70 L 621.50 819.80 L 618.40 812.50 L 619.40 824.20 L 618.70 832.20 L 616.40 839.80 L 614.80 843.40 L 610.30 850.20 L 604.60 856.00 L 601.40 858.40 L 594.40 862.20 L 586.80 864.50 L 573.80 866.10 L 569.60 866.30 L 565.50 866.10 L 561.50 865.60 L 553.90 863.20 L 546.90 859.50 L 540.80 854.60 L 538.10 851.70 L 533.70 845.20 L 531.90 841.60 L 530.50 837.80 L 529.50 833.80 L 528.80 829.60 L 527.20 814.40 L 525.10 827.70 L 524.20 831.80 L 522.90 835.70 L 521.40 839.40 L 519.40 842.90 L 517.10 846.20 L 511.80 851.90 L 505.40 856.60 L 501.90 858.40 L 494.40 861.10 L 490.50 861.80 L 486.50 862.20 L 482.40 862.20 L 478.20 861.70 Z" fill="#f9d4c1" fill-rule="nonzero" group-id="2,13" id="联合_7" node-id="31" stroke="none" target-height="191.89996" target-width="514.19995" target-x="267.1" target-y="674.4"></path><path d="M 512.50 776.90 L 500.10 776.60 L 488.00 775.70 L 475.90 774.10 L 464.10 771.90 L 452.30 769.20 L 440.80 765.80 L 429.50 761.90 L 418.40 757.50 L 407.50 752.50 L 397.00 747.00 L 386.70 741.00 L 376.70 734.40 L 367.10 727.40 L 357.80 720.00 L 348.90 712.10 L 340.40 703.70 L 332.20 694.90 L 324.60 685.80 L 317.40 676.20 L 310.60 666.20 L 304.30 655.90 L 298.60 645.20 L 293.30 634.20 L 288.30 621.80 L 279.60 610.70 L 272.00 600.10 L 264.90 589.20 L 258.30 578.00 L 252.10 566.50 L 246.50 554.80 L 241.40 542.90 L 236.70 530.70 L 232.60 518.40 L 229.10 505.90 L 226.00 493.30 L 223.50 480.50 L 221.50 467.60 L 220.10 454.70 L 219.30 441.60 L 219.00 428.40 L 219.30 415.80 L 220.00 403.40 L 221.30 391.10 L 223.00 379.10 L 225.20 367.20 L 227.90 355.30 L 231.00 343.70 L 234.60 332.20 L 238.60 321.00 L 243.00 310.00 L 247.80 299.20 L 253.10 288.60 L 258.70 278.30 L 264.70 268.20 L 271.10 258.30 L 277.80 248.70 L 285.00 239.40 L 292.40 230.40 L 300.20 221.70 L 308.30 213.20 L 316.70 205.10 L 325.40 197.30 L 334.50 189.90 L 343.80 182.80 L 353.40 176.00 L 363.20 169.60 L 373.30 163.60 L 383.60 158.00 L 394.20 152.80 L 405.10 147.90 L 416.10 143.50 L 427.30 139.50 L 438.70 136.00 L 450.30 132.80 L 462.20 130.10 L 474.10 127.90 L 486.20 126.20 L 498.40 125.00 L 510.90 124.20 L 523.50 123.90 L 536.10 124.20 L 548.60 125.00 L 560.80 126.20 L 572.90 127.90 L 584.80 130.10 L 596.70 132.80 L 608.30 136.00 L 619.70 139.50 L 630.90 143.50 L 641.90 147.90 L 652.80 152.80 L 663.40 158.00 L 673.70 163.60 L 683.80 169.60 L 693.60 176.00 L 703.20 182.80 L 712.50 189.90 L 721.60 197.30 L 730.30 205.10 L 738.70 213.20 L 746.80 221.70 L 754.60 230.40 L 762.00 239.40 L 769.20 248.70 L 775.90 258.30 L 782.30 268.20 L 788.30 278.30 L 793.90 288.60 L 799.20 299.20 L 804.00 310.00 L 808.40 321.00 L 812.40 332.20 L 816.00 343.70 L 819.10 355.30 L 821.80 367.20 L 824.00 379.10 L 825.70 391.10 L 827.00 403.40 L 827.70 415.80 L 828.00 428.40 L 827.70 442.30 L 826.80 455.90 L 825.30 469.40 L 823.20 482.70 L 820.50 495.90 L 817.20 509.00 L 813.40 521.80 L 809.10 534.40 L 804.20 546.80 L 798.70 559.00 L 792.70 571.00 L 786.20 582.70 L 779.20 594.00 L 771.60 605.10 L 763.50 615.90 L 755.00 626.30 L 746.00 636.40 L 736.50 646.10 L 726.50 655.40 L 715.20 665.00 L 707.80 676.10 L 700.50 685.90 L 692.70 695.20 L 684.60 704.10 L 676.00 712.60 L 667.10 720.50 L 657.80 728.00 L 648.10 735.00 L 638.20 741.50 L 627.90 747.50 L 617.40 752.90 L 606.50 757.90 L 595.40 762.30 L 584.20 766.10 L 572.70 769.40 L 560.90 772.10 L 549.10 774.20 L 537.10 775.70 L 524.90 776.60 L 512.50 776.90 Z" fill="#f73c3e" fill-rule="nonzero" group-id="2,14,35" node-id="214" stroke="none" target-height="653" target-width="609" target-x="219" target-y="123.9"></path><path d="M 512.50 770.90 L 524.60 770.60 L 536.40 769.70 L 548.10 768.30 L 559.70 766.20 L 571.20 763.50 L 582.40 760.40 L 593.40 756.60 L 604.20 752.30 L 614.70 747.50 L 625.00 742.20 L 635.00 736.40 L 644.70 730.00 L 654.10 723.20 L 663.20 715.90 L 671.90 708.20 L 680.30 699.90 L 688.20 691.30 L 695.80 682.20 L 702.90 672.60 L 710.70 661.00 L 722.50 650.90 L 732.30 641.80 L 741.60 632.30 L 750.40 622.40 L 758.80 612.20 L 766.70 601.60 L 774.10 590.80 L 781.00 579.60 L 787.40 568.20 L 793.30 556.50 L 798.60 544.50 L 803.40 532.30 L 807.70 520.00 L 811.50 507.40 L 814.70 494.50 L 817.30 481.60 L 819.30 468.60 L 820.80 455.40 L 821.70 442.00 L 822.00 428.40 L 821.70 416.10 L 821.00 403.90 L 819.80 391.90 L 818.10 380.00 L 815.90 368.40 L 813.30 356.70 L 810.20 345.30 L 806.70 334.10 L 802.80 323.20 L 798.50 312.40 L 793.70 301.70 L 788.60 291.30 L 783.10 281.20 L 777.20 271.30 L 771.00 261.70 L 764.30 252.20 L 757.30 243.10 L 750.10 234.30 L 742.40 225.70 L 734.50 217.50 L 726.20 209.50 L 717.70 201.90 L 708.80 194.60 L 699.70 187.60 L 690.30 181.00 L 680.60 174.70 L 670.70 168.80 L 660.60 163.30 L 650.20 158.20 L 639.60 153.40 L 628.80 149.10 L 617.80 145.20 L 606.60 141.70 L 595.20 138.70 L 583.60 136.00 L 571.90 133.90 L 560.10 132.20 L 548.10 131.00 L 535.90 130.20 L 523.50 129.90 L 511.10 130.20 L 498.90 131.00 L 486.90 132.20 L 475.10 133.90 L 463.40 136.00 L 451.80 138.70 L 440.40 141.70 L 429.20 145.20 L 418.20 149.10 L 407.40 153.40 L 396.80 158.20 L 386.40 163.30 L 376.30 168.80 L 366.40 174.70 L 356.70 181.00 L 347.30 187.60 L 338.20 194.60 L 329.30 201.90 L 320.80 209.50 L 312.50 217.50 L 304.60 225.70 L 296.90 234.30 L 289.70 243.10 L 282.70 252.20 L 276.00 261.70 L 269.80 271.30 L 263.90 281.20 L 258.40 291.30 L 253.30 301.70 L 248.50 312.40 L 244.20 323.20 L 240.30 334.10 L 236.80 345.30 L 233.70 356.70 L 231.10 368.40 L 228.90 380.00 L 227.20 391.90 L 226.00 403.90 L 225.30 416.10 L 225.00 428.40 L 225.30 441.30 L 226.10 454.10 L 227.50 466.80 L 229.40 479.50 L 231.90 492.00 L 234.90 504.40 L 238.40 516.60 L 242.40 528.70 L 246.90 540.60 L 251.90 552.30 L 257.50 563.80 L 263.50 575.10 L 270.00 586.00 L 276.90 596.70 L 284.40 607.20 L 293.60 618.80 L 298.80 631.80 L 303.90 642.50 L 309.50 652.90 L 315.60 663.00 L 322.20 672.70 L 329.30 682.10 L 336.80 691.00 L 344.70 699.60 L 353.00 707.70 L 361.70 715.40 L 370.70 722.70 L 380.10 729.50 L 389.90 735.90 L 399.90 741.70 L 410.20 747.10 L 420.80 752.00 L 431.60 756.30 L 442.60 760.10 L 453.80 763.30 L 465.30 766.10 L 476.90 768.20 L 488.60 769.70 L 500.50 770.60 L 512.50 770.90 M 512.50 782.90 L 502.00 782.70 L 491.60 782.10 L 481.50 781.00 L 471.40 779.50 L 461.60 777.70 L 449.30 774.70 L 437.30 771.20 L 425.70 767.20 L 414.30 762.50 L 403.10 757.30 L 392.30 751.60 L 381.80 745.30 L 371.70 738.60 L 361.90 731.30 L 352.50 723.60 L 343.50 715.50 L 334.90 706.90 L 326.70 698.00 L 319.00 688.60 L 311.80 678.80 L 305.00 668.70 L 298.70 658.20 L 293.00 647.50 L 287.70 636.30 L 283.00 624.90 L 275.00 614.70 L 267.50 604.20 L 260.30 593.30 L 253.60 582.10 L 247.40 570.60 L 241.70 558.90 L 236.40 546.90 L 231.60 534.60 L 227.40 522.10 L 223.60 509.30 L 220.40 496.30 L 217.80 483.10 L 215.70 469.70 L 214.20 456.20 L 213.30 442.40 L 213.00 428.40 L 213.30 415.50 L 214.00 402.80 L 215.30 390.30 L 217.10 378.00 L 219.30 365.90 L 222.00 353.80 L 225.20 341.90 L 228.80 330.20 L 232.90 318.80 L 237.40 307.60 L 242.30 296.50 L 247.70 285.70 L 253.40 275.20 L 259.50 264.90 L 266.00 254.80 L 272.90 245.00 L 280.20 235.60 L 287.70 226.40 L 295.70 217.50 L 303.90 208.90 L 312.50 200.60 L 321.40 192.70 L 330.60 185.10 L 340.10 177.90 L 349.90 171.00 L 359.90 164.50 L 370.20 158.40 L 380.80 152.60 L 391.60 147.30 L 402.60 142.30 L 413.90 137.90 L 425.30 133.80 L 436.90 130.20 L 448.80 127.00 L 460.90 124.30 L 473.10 122.00 L 485.40 120.30 L 497.90 119.00 L 510.60 118.20 L 523.50 117.90 L 536.40 118.20 L 549.10 119.00 L 561.60 120.30 L 573.90 122.00 L 586.10 124.30 L 598.20 127.00 L 610.10 130.20 L 621.70 133.80 L 633.10 137.90 L 644.40 142.30 L 655.40 147.30 L 666.20 152.60 L 676.80 158.40 L 687.10 164.50 L 697.10 171.00 L 706.90 177.90 L 716.40 185.10 L 725.60 192.70 L 734.50 200.60 L 743.10 208.90 L 751.30 217.50 L 759.30 226.40 L 766.80 235.60 L 774.10 245.00 L 781.00 254.80 L 787.50 264.90 L 793.60 275.20 L 799.30 285.70 L 804.70 296.50 L 809.60 307.60 L 814.10 318.80 L 818.20 330.20 L 821.80 341.90 L 825.00 353.80 L 827.70 365.90 L 829.90 378.00 L 831.70 390.30 L 833.00 402.80 L 833.70 415.50 L 834.00 428.40 L 833.80 440.10 L 833.10 451.60 L 832.10 463.00 L 830.70 474.20 L 828.80 485.30 L 825.90 499.00 L 822.50 512.50 L 818.50 525.70 L 813.90 538.70 L 808.70 551.40 L 803.00 563.80 L 796.80 575.90 L 790.10 587.70 L 782.90 599.20 L 775.20 610.30 L 767.00 621.10 L 758.40 631.50 L 749.40 641.50 L 739.90 651.10 L 730.10 660.30 L 719.80 669.00 L 713.00 679.20 L 705.70 688.90 L 698.00 698.20 L 689.90 707.20 L 681.30 715.70 L 672.30 723.80 L 662.90 731.50 L 653.10 738.70 L 643.00 745.40 L 632.50 751.70 L 621.70 757.40 L 610.60 762.60 L 599.20 767.20 L 587.50 771.30 L 575.60 774.80 L 563.30 777.70 L 553.50 779.50 L 543.50 781.00 L 533.30 782.10 L 523.00 782.70 L 512.50 782.90 Z" fill="#91012e" fill-rule="nonzero" group-id="2,14,35" node-id="216" stroke="none" target-height="665" target-width="621" target-x="213" target-y="117.9"></path><g clip-path="url(#clip-path)" group-id="2,14,36" node-id="220"><path d="M 512.00 739.90 L 495.40 739.70 L 478.90 739.10 L 462.50 738.00 L 446.00 736.40 L 429.60 734.40 L 414.00 732.10 L 398.60 729.40 L 383.30 726.20 L 368.00 722.70 L 352.80 718.60 L 338.60 714.50 L 324.60 709.90 L 310.70 704.90 L 296.90 699.50 L 283.30 693.70 L 270.80 687.80 L 258.50 681.60 L 246.40 675.00 L 234.50 668.00 L 222.80 660.60 L 212.20 653.30 L 201.90 645.70 L 191.90 637.60 L 182.20 629.20 L 172.90 620.50 L 164.50 611.90 L 156.50 603.10 L 149.00 593.90 L 141.90 584.30 L 135.10 574.40 L 130.20 566.40 L 125.70 558.20 L 121.50 549.80 L 117.70 541.20 L 114.30 532.50 L 111.30 523.60 L 108.80 514.70 L 106.70 505.70 L 105.10 496.70 L 103.90 487.50 L 103.20 478.20 L 103.00 468.90 L 103.20 460.10 L 103.90 451.20 L 104.90 442.40 L 106.40 433.70 L 108.40 425.00 L 110.70 416.40 L 113.40 407.80 L 116.60 399.30 L 120.30 390.80 L 124.30 382.30 L 127.80 394.50 L 131.90 406.30 L 136.50 418.00 L 141.60 429.50 L 147.30 440.70 L 153.50 451.60 L 160.20 462.20 L 167.40 472.50 L 175.20 482.70 L 183.40 492.60 L 192.00 502.00 L 201.00 511.10 L 210.30 519.90 L 220.00 528.20 L 230.00 536.10 L 240.50 543.60 L 251.60 551.10 L 262.90 558.00 L 274.60 564.50 L 286.40 570.60 L 298.50 576.20 L 310.80 581.40 L 323.30 586.00 L 336.00 590.20 L 349.50 594.10 L 363.10 597.50 L 376.80 600.40 L 390.60 602.80 L 404.50 604.60 L 418.40 605.90 L 432.40 606.70 L 446.50 606.90 L 460.20 606.70 L 473.70 606.00 L 487.00 604.80 L 500.10 603.10 L 513.00 601.10 L 525.90 598.50 L 538.60 595.50 L 551.00 592.10 L 563.10 588.30 L 575.00 584.20 L 586.80 579.50 L 598.40 574.50 L 609.60 569.20 L 620.50 563.50 L 631.20 557.40 L 641.60 551.00 L 651.80 544.20 L 661.50 537.10 L 671.00 529.70 L 680.10 522.10 L 688.90 514.00 L 697.40 505.70 L 705.50 497.10 L 713.20 488.30 L 720.50 479.20 L 727.40 469.80 L 734.00 460.20 L 740.10 450.40 L 745.70 440.30 L 751.00 430.00 L 755.80 419.50 L 760.10 408.90 L 764.00 398.00 L 767.40 387.00 L 770.30 375.70 L 772.70 364.40 L 774.50 352.90 L 775.90 341.30 L 776.70 329.50 L 777.00 317.40 L 776.70 305.60 L 775.90 293.80 L 774.60 282.10 L 772.70 270.40 L 770.20 258.80 L 783.40 266.20 L 796.20 274.00 L 808.60 282.40 L 820.80 291.30 L 832.60 300.70 L 841.30 308.20 L 849.80 316.00 L 857.90 324.20 L 865.60 332.80 L 873.00 341.60 L 880.10 350.70 L 886.30 359.50 L 892.00 368.60 L 897.30 377.90 L 902.20 387.50 L 906.50 397.30 L 910.40 407.30 L 913.60 417.30 L 916.20 427.40 L 918.30 437.60 L 919.80 448.00 L 920.70 458.40 L 921.00 468.90 L 920.80 478.20 L 920.10 487.50 L 918.90 496.70 L 917.30 505.70 L 915.20 514.70 L 912.70 523.60 L 909.70 532.50 L 906.30 541.20 L 902.50 549.80 L 898.30 558.20 L 893.80 566.40 L 888.90 574.40 L 882.10 584.30 L 875.00 593.90 L 867.50 603.10 L 859.50 611.90 L 851.10 620.50 L 841.80 629.30 L 832.10 637.70 L 822.10 645.70 L 811.80 653.30 L 801.20 660.60 L 789.50 668.00 L 777.60 675.00 L 765.50 681.60 L 753.20 687.80 L 740.70 693.70 L 727.10 699.50 L 713.30 704.90 L 699.40 709.90 L 685.40 714.50 L 671.20 718.60 L 656.00 722.70 L 640.70 726.20 L 625.40 729.40 L 610.00 732.10 L 594.40 734.40 L 578.00 736.40 L 561.50 738.00 L 545.10 739.10 L 528.60 739.70 L 512.00 739.90 Z" fill="#e20d33" fill-rule="nonzero" group-id="2,14,36,66" id="减去_8" node-id="37" stroke="none" target-height="481.10004" target-width="818" target-x="103" target-y="258.8"></path></g><path d="M 283.00 624.90 L 274.70 614.30 L 267.00 603.50 L 259.70 592.30 L 252.90 580.90 L 246.60 569.20 L 240.90 557.30 L 235.70 545.10 L 231.00 532.80 L 226.80 520.20 L 223.10 507.50 L 220.10 494.60 L 217.50 481.60 L 215.50 468.40 L 214.10 455.20 L 213.30 441.90 L 213.00 428.40 L 213.30 415.50 L 214.00 402.80 L 215.30 390.30 L 217.10 378.00 L 219.30 365.90 L 222.00 353.80 L 225.20 341.90 L 228.80 330.20 L 232.90 318.80 L 237.40 307.60 L 242.30 296.50 L 247.70 285.70 L 253.40 275.20 L 259.50 264.90 L 266.00 254.80 L 272.90 245.00 L 280.20 235.60 L 287.70 226.40 L 295.70 217.50 L 303.90 208.90 L 312.50 200.60 L 321.40 192.70 L 330.60 185.10 L 340.10 177.90 L 349.90 171.00 L 359.90 164.50 L 370.20 158.40 L 380.80 152.60 L 391.60 147.30 L 402.60 142.30 L 413.90 137.90 L 425.30 133.80 L 436.90 130.20 L 448.80 127.00 L 460.90 124.30 L 473.10 122.00 L 485.40 120.30 L 497.90 119.00 L 510.60 118.20 L 523.50 117.90 L 536.40 118.20 L 549.10 119.00 L 561.60 120.30 L 573.90 122.00 L 586.10 124.30 L 598.20 127.00 L 610.10 130.20 L 621.70 133.80 L 633.10 137.90 L 644.40 142.30 L 655.40 147.30 L 666.20 152.60 L 676.80 158.40 L 687.10 164.50 L 697.10 171.00 L 706.90 177.90 L 716.40 185.10 L 725.60 192.70 L 734.50 200.60 L 743.10 208.90 L 751.30 217.50 L 759.30 226.40 L 766.80 235.60 L 774.10 245.00 L 781.00 254.80 L 787.50 264.90 L 793.60 275.20 L 799.30 285.70 L 804.70 296.50 L 809.60 307.60 L 814.10 318.80 L 818.20 330.20 L 821.80 341.90 L 825.00 353.80 L 827.70 365.90 L 829.90 378.00 L 831.70 390.30 L 833.00 402.80 L 833.70 415.50 L 834.00 428.40 L 833.70 442.50 L 832.80 456.30 L 831.20 470.00 L 829.10 483.60 L 826.40 497.20 L 823.00 510.50 L 819.10 523.60 L 814.70 536.50 L 809.60 549.20 L 804.10 561.60 L 797.90 573.80 L 791.30 585.80 L 784.10 597.40 L 776.40 608.70 L 768.20 619.70 L 759.50 630.40 L 750.30 640.60 L 740.60 650.50 L 730.40 660.00 L 719.80 669.00 L 712.70 679.50 L 705.30 689.50 L 697.40 699.10 L 689.00 708.10 L 680.20 716.80 L 671.00 725.00 L 661.50 732.60 L 651.60 739.80 L 641.30 746.50 L 630.80 752.60 L 619.90 758.20 L 608.80 763.30 L 597.40 767.80 L 585.90 771.80 L 574.10 775.10 L 562.00 777.90 L 549.90 780.10 L 537.60 781.70 L 525.10 782.60 L 512.50 782.90 L 502.00 782.70 L 491.60 782.10 L 481.50 781.00 L 471.40 779.50 L 461.60 777.70 L 449.30 774.70 L 437.30 771.20 L 425.70 767.20 L 414.30 762.50 L 403.10 757.30 L 392.30 751.60 L 381.80 745.30 L 371.70 738.60 L 361.90 731.30 L 352.50 723.60 L 343.50 715.50 L 334.90 706.90 L 326.70 698.00 L 319.00 688.60 L 311.80 678.80 L 305.00 668.70 L 298.70 658.20 L 293.00 647.50 L 287.70 636.30 L 283.00 624.90 Z" fill="none" group-id="2,14,37" node-id="226" stroke="none" target-height="665" target-width="621" target-x="213" target-y="117.9"></path><path d="M 512.50 770.90 L 524.60 770.60 L 536.40 769.70 L 548.10 768.30 L 559.70 766.20 L 571.20 763.50 L 582.40 760.40 L 593.40 756.60 L 604.20 752.30 L 614.70 747.50 L 625.00 742.20 L 635.00 736.40 L 644.70 730.00 L 654.10 723.20 L 663.20 715.90 L 671.90 708.20 L 680.30 699.90 L 688.20 691.30 L 695.80 682.20 L 702.90 672.60 L 710.70 661.00 L 722.50 650.90 L 732.30 641.80 L 741.60 632.30 L 750.40 622.40 L 758.80 612.20 L 766.70 601.60 L 774.10 590.80 L 781.00 579.60 L 787.40 568.20 L 793.30 556.50 L 798.60 544.50 L 803.40 532.30 L 807.70 520.00 L 811.50 507.40 L 814.70 494.50 L 817.30 481.60 L 819.30 468.60 L 820.80 455.40 L 821.70 442.00 L 822.00 428.40 L 821.70 416.10 L 821.00 403.90 L 819.80 391.90 L 818.10 380.00 L 815.90 368.40 L 813.30 356.70 L 810.20 345.30 L 806.70 334.10 L 802.80 323.20 L 798.50 312.40 L 793.70 301.70 L 788.60 291.30 L 783.10 281.20 L 777.20 271.30 L 771.00 261.70 L 764.30 252.20 L 757.30 243.10 L 750.10 234.30 L 742.40 225.70 L 734.50 217.50 L 726.20 209.50 L 717.70 201.90 L 708.80 194.60 L 699.70 187.60 L 690.30 181.00 L 680.60 174.70 L 670.70 168.80 L 660.60 163.30 L 650.20 158.20 L 639.60 153.40 L 628.80 149.10 L 617.80 145.20 L 606.60 141.70 L 595.20 138.70 L 583.60 136.00 L 571.90 133.90 L 560.10 132.20 L 548.10 131.00 L 535.90 130.20 L 523.50 129.90 L 511.10 130.20 L 498.90 131.00 L 486.90 132.20 L 475.10 133.90 L 463.40 136.00 L 451.80 138.70 L 440.40 141.70 L 429.20 145.20 L 418.20 149.10 L 407.40 153.40 L 396.80 158.20 L 386.40 163.30 L 376.30 168.80 L 366.40 174.70 L 356.70 181.00 L 347.30 187.60 L 338.20 194.60 L 329.30 201.90 L 320.80 209.50 L 312.50 217.50 L 304.60 225.70 L 296.90 234.30 L 289.70 243.10 L 282.70 252.20 L 276.00 261.70 L 269.80 271.30 L 263.90 281.20 L 258.40 291.30 L 253.30 301.70 L 248.50 312.40 L 244.20 323.20 L 240.30 334.10 L 236.80 345.30 L 233.70 356.70 L 231.10 368.40 L 228.90 380.00 L 227.20 391.90 L 226.00 403.90 L 225.30 416.10 L 225.00 428.40 L 225.30 441.30 L 226.10 454.10 L 227.50 466.80 L 229.40 479.50 L 231.90 492.00 L 234.90 504.40 L 238.40 516.60 L 242.40 528.70 L 246.90 540.60 L 251.90 552.30 L 257.50 563.80 L 263.50 575.10 L 270.00 586.00 L 276.90 596.70 L 284.40 607.20 L 293.60 618.80 L 298.80 631.80 L 303.90 642.50 L 309.50 652.90 L 315.60 663.00 L 322.20 672.70 L 329.30 682.10 L 336.80 691.00 L 344.70 699.60 L 353.00 707.70 L 361.70 715.40 L 370.70 722.70 L 380.10 729.50 L 389.90 735.90 L 399.90 741.70 L 410.20 747.10 L 420.80 752.00 L 431.60 756.30 L 442.60 760.10 L 453.80 763.30 L 465.30 766.10 L 476.90 768.20 L 488.60 769.70 L 500.50 770.60 L 512.50 770.90 M 512.50 782.90 L 502.00 782.70 L 491.60 782.10 L 481.50 781.00 L 471.40 779.50 L 461.60 777.70 L 449.30 774.70 L 437.30 771.20 L 425.70 767.20 L 414.30 762.50 L 403.10 757.30 L 392.30 751.60 L 381.80 745.30 L 371.70 738.60 L 361.90 731.30 L 352.50 723.60 L 343.50 715.50 L 334.90 706.90 L 326.70 698.00 L 319.00 688.60 L 311.80 678.80 L 305.00 668.70 L 298.70 658.20 L 293.00 647.50 L 287.70 636.30 L 283.00 624.90 L 275.00 614.70 L 267.50 604.20 L 260.30 593.30 L 253.60 582.10 L 247.40 570.60 L 241.70 558.90 L 236.40 546.90 L 231.60 534.60 L 227.40 522.10 L 223.60 509.30 L 220.40 496.30 L 217.80 483.10 L 215.70 469.70 L 214.20 456.20 L 213.30 442.40 L 213.00 428.40 L 213.30 415.50 L 214.00 402.80 L 215.30 390.30 L 217.10 378.00 L 219.30 365.90 L 222.00 353.80 L 225.20 341.90 L 228.80 330.20 L 232.90 318.80 L 237.40 307.60 L 242.30 296.50 L 247.70 285.70 L 253.40 275.20 L 259.50 264.90 L 266.00 254.80 L 272.90 245.00 L 280.20 235.60 L 287.70 226.40 L 295.70 217.50 L 303.90 208.90 L 312.50 200.60 L 321.40 192.70 L 330.60 185.10 L 340.10 177.90 L 349.90 171.00 L 359.90 164.50 L 370.20 158.40 L 380.80 152.60 L 391.60 147.30 L 402.60 142.30 L 413.90 137.90 L 425.30 133.80 L 436.90 130.20 L 448.80 127.00 L 460.90 124.30 L 473.10 122.00 L 485.40 120.30 L 497.90 119.00 L 510.60 118.20 L 523.50 117.90 L 536.40 118.20 L 549.10 119.00 L 561.60 120.30 L 573.90 122.00 L 586.10 124.30 L 598.20 127.00 L 610.10 130.20 L 621.70 133.80 L 633.10 137.90 L 644.40 142.30 L 655.40 147.30 L 666.20 152.60 L 676.80 158.40 L 687.10 164.50 L 697.10 171.00 L 706.90 177.90 L 716.40 185.10 L 725.60 192.70 L 734.50 200.60 L 743.10 208.90 L 751.30 217.50 L 759.30 226.40 L 766.80 235.60 L 774.10 245.00 L 781.00 254.80 L 787.50 264.90 L 793.60 275.20 L 799.30 285.70 L 804.70 296.50 L 809.60 307.60 L 814.10 318.80 L 818.20 330.20 L 821.80 341.90 L 825.00 353.80 L 827.70 365.90 L 829.90 378.00 L 831.70 390.30 L 833.00 402.80 L 833.70 415.50 L 834.00 428.40 L 833.80 440.10 L 833.10 451.60 L 832.10 463.00 L 830.70 474.20 L 828.80 485.30 L 825.90 499.00 L 822.50 512.50 L 818.50 525.70 L 813.90 538.70 L 808.70 551.40 L 803.00 563.80 L 796.80 575.90 L 790.10 587.70 L 782.90 599.20 L 775.20 610.30 L 767.00 621.10 L 758.40 631.50 L 749.40 641.50 L 739.90 651.10 L 730.10 660.30 L 719.80 669.00 L 713.00 679.20 L 705.70 688.90 L 698.00 698.20 L 689.90 707.20 L 681.30 715.70 L 672.30 723.80 L 662.90 731.50 L 653.10 738.70 L 643.00 745.40 L 632.50 751.70 L 621.70 757.40 L 610.60 762.60 L 599.20 767.20 L 587.50 771.30 L 575.60 774.80 L 563.30 777.70 L 553.50 779.50 L 543.50 781.00 L 533.30 782.10 L 523.00 782.70 L 512.50 782.90 Z" fill="#91012e" fill-rule="nonzero" group-id="2,14,37" node-id="228" stroke="none" target-height="665" target-width="621" target-x="213" target-y="117.9"></path><path d="M 471.00 224.90 L 553.00 224.90 L 557.00 225.20 L 564.60 226.70 L 568.20 228.00 L 572.70 230.30 L 576.80 233.10 L 580.60 236.40 L 583.90 240.10 L 586.70 244.20 L 588.90 248.80 L 590.20 252.30 L 591.80 259.90 L 592.00 263.90 L 592.00 300.90 L 432.00 300.90 L 432.20 259.90 L 433.80 252.30 L 435.10 248.80 L 437.30 244.20 L 440.10 240.10 L 443.40 236.40 L 447.20 233.10 L 451.30 230.30 L 455.80 228.00 L 459.40 226.70 L 467.00 225.20 L 471.00 224.90 Z" fill="#f69082" fill-rule="nonzero" group-id="2,15,38" node-id="234" stroke="none" target-height="76" target-width="160" target-x="432" target-y="224.9"></path><path d="M 471.00 230.90 L 553.00 230.90 L 557.50 231.30 L 561.80 232.10 L 565.80 233.50 L 569.70 235.50 L 573.20 237.80 L 576.30 240.60 L 579.10 243.80 L 581.50 247.30 L 583.40 251.10 L 584.80 255.10 L 585.70 259.40 L 586.00 263.90 L 586.00 294.90 L 438.00 294.90 L 438.00 263.90 L 438.30 259.40 L 439.20 255.10 L 440.60 251.10 L 442.50 247.30 L 444.90 243.80 L 447.70 240.60 L 450.80 237.80 L 454.30 235.50 L 458.20 233.50 L 462.20 232.10 L 466.50 231.30 L 471.00 230.90 Z" fill="none" group-id="2,15,38" node-id="236" stroke="#960532" stroke-linecap="butt" stroke-width="12" target-height="64" target-width="148" target-x="438" target-y="230.9"></path><path d="M 545.00 224.90 L 553.00 224.90 L 560.90 225.80 L 568.20 228.00 L 572.70 230.30 L 576.80 233.10 L 580.60 236.40 L 583.90 240.10 L 586.70 244.20 L 588.90 248.80 L 591.20 256.00 L 592.00 263.90 L 592.00 300.90 L 545.00 300.90 L 545.00 224.90 Z" fill="#f33849" fill-rule="nonzero" group-id="2,15,39" id="矩形_18" node-id="45" stroke="none" target-height="76" target-width="47" target-x="545" target-y="224.9"></path><path d="M 471.00 224.90 L 553.00 224.90 L 557.00 225.20 L 564.60 226.70 L 568.20 228.00 L 572.70 230.30 L 576.80 233.10 L 580.60 236.40 L 583.90 240.10 L 586.70 244.20 L 588.90 248.80 L 590.20 252.30 L 591.80 259.90 L 592.00 263.90 L 592.00 300.90 L 432.00 300.90 L 432.20 259.90 L 433.80 252.30 L 435.10 248.80 L 437.30 244.20 L 440.10 240.10 L 443.40 236.40 L 447.20 233.10 L 451.30 230.30 L 455.80 228.00 L 459.40 226.70 L 467.00 225.20 L 471.00 224.90 Z" fill="none" group-id="2,15,40" node-id="244" stroke="none" target-height="76" target-width="160" target-x="432" target-y="224.9"></path><path d="M 471.00 230.90 L 553.00 230.90 L 557.50 231.30 L 561.80 232.10 L 565.80 233.50 L 569.70 235.50 L 573.20 237.80 L 576.30 240.60 L 579.10 243.80 L 581.50 247.30 L 583.40 251.10 L 584.80 255.10 L 585.70 259.40 L 586.00 263.90 L 586.00 294.90 L 438.00 294.90 L 438.00 263.90 L 438.30 259.40 L 439.20 255.10 L 440.60 251.10 L 442.50 247.30 L 444.90 243.80 L 447.70 240.60 L 450.80 237.80 L 454.30 235.50 L 458.20 233.50 L 462.20 232.10 L 466.50 231.30 L 471.00 230.90 Z" fill="none" group-id="2,15,40" node-id="246" stroke="#960532" stroke-linecap="butt" stroke-width="12" target-height="64" target-width="148" target-x="438" target-y="230.9"></path><path d="M 421.00 288.90 L 602.00 288.90 L 606.00 289.20 L 613.60 290.70 L 617.20 292.00 L 621.70 294.30 L 625.80 297.10 L 629.60 300.40 L 632.90 304.10 L 635.70 308.20 L 637.90 312.80 L 640.20 320.00 L 640.80 323.90 L 641.00 351.90 L 382.00 351.90 L 382.20 323.90 L 383.80 316.30 L 385.10 312.80 L 387.30 308.20 L 390.10 304.10 L 393.40 300.40 L 397.20 297.10 L 401.30 294.30 L 405.80 292.00 L 409.40 290.70 L 417.00 289.20 L 421.00 288.90 Z" fill="#f69082" fill-rule="nonzero" group-id="2,16,41" node-id="252" stroke="none" target-height="63" target-width="259" target-x="382" target-y="288.9"></path><path d="M 421.00 294.90 L 602.00 294.90 L 606.50 295.30 L 610.80 296.10 L 614.80 297.50 L 618.70 299.50 L 622.20 301.80 L 625.30 304.60 L 628.10 307.80 L 630.50 311.30 L 632.40 315.10 L 633.80 319.10 L 634.70 323.40 L 635.00 327.90 L 635.00 345.90 L 388.00 345.90 L 388.00 327.90 L 388.30 323.40 L 389.20 319.10 L 390.60 315.10 L 392.50 311.30 L 394.90 307.80 L 397.70 304.60 L 400.80 301.80 L 404.30 299.50 L 408.20 297.50 L 412.20 296.10 L 416.50 295.30 L 421.00 294.90 Z" fill="none" group-id="2,16,41" node-id="254" stroke="#960532" stroke-linecap="butt" stroke-width="12" target-height="51" target-width="247" target-x="388" target-y="294.9"></path><path d="M 593.00 288.90 L 602.00 288.90 L 609.90 289.80 L 617.20 292.00 L 621.70 294.30 L 625.80 297.10 L 629.60 300.40 L 632.90 304.10 L 635.70 308.20 L 637.90 312.80 L 640.20 320.00 L 641.00 327.90 L 641.00 351.90 L 593.00 351.90 L 593.00 288.90 Z" fill="#f33849" fill-rule="nonzero" group-id="2,16,42" id="矩形_18-2" node-id="53" stroke="none" target-height="63" target-width="48" target-x="593" target-y="288.9"></path><path d="M 421.00 288.90 L 602.00 288.90 L 606.00 289.20 L 613.60 290.70 L 617.20 292.00 L 621.70 294.30 L 625.80 297.10 L 629.60 300.40 L 632.90 304.10 L 635.70 308.20 L 637.90 312.80 L 640.20 320.00 L 640.80 323.90 L 641.00 351.90 L 382.00 351.90 L 382.20 323.90 L 383.80 316.30 L 385.10 312.80 L 387.30 308.20 L 390.10 304.10 L 393.40 300.40 L 397.20 297.10 L 401.30 294.30 L 405.80 292.00 L 409.40 290.70 L 417.00 289.20 L 421.00 288.90 Z" fill="none" group-id="2,16,43" node-id="262" stroke="none" target-height="63" target-width="259" target-x="382" target-y="288.9"></path><path d="M 421.00 294.90 L 602.00 294.90 L 606.50 295.30 L 610.80 296.10 L 614.80 297.50 L 618.70 299.50 L 622.20 301.80 L 625.30 304.60 L 628.10 307.80 L 630.50 311.30 L 632.40 315.10 L 633.80 319.10 L 634.70 323.40 L 635.00 327.90 L 635.00 345.90 L 388.00 345.90 L 388.00 327.90 L 388.30 323.40 L 389.20 319.10 L 390.60 315.10 L 392.50 311.30 L 394.90 307.80 L 397.70 304.60 L 400.80 301.80 L 404.30 299.50 L 408.20 297.50 L 412.20 296.10 L 416.50 295.30 L 421.00 294.90 Z" fill="none" group-id="2,16,43" node-id="264" stroke="#960532" stroke-linecap="butt" stroke-width="12" target-height="51" target-width="247" target-x="388" target-y="294.9"></path><path d="M 371.00 339.90 L 653.00 339.90 L 660.90 340.80 L 668.20 343.00 L 672.70 345.30 L 676.80 348.10 L 680.60 351.40 L 683.90 355.10 L 686.70 359.20 L 688.90 363.80 L 691.20 371.00 L 691.80 374.90 L 692.00 402.90 L 332.00 402.90 L 332.20 374.90 L 333.80 367.30 L 335.10 363.80 L 337.30 359.20 L 340.10 355.10 L 343.40 351.40 L 347.20 348.10 L 351.30 345.30 L 355.80 343.00 L 359.40 341.70 L 367.00 340.20 L 371.00 339.90 Z" fill="#f69082" fill-rule="nonzero" group-id="2,17,44" node-id="270" stroke="none" target-height="63" target-width="360" target-x="332" target-y="339.9"></path><path d="M 371.00 345.90 L 653.00 345.90 L 657.50 346.30 L 661.80 347.10 L 665.80 348.50 L 669.70 350.50 L 673.20 352.80 L 676.30 355.60 L 679.10 358.80 L 681.50 362.30 L 683.40 366.10 L 684.80 370.10 L 685.70 374.40 L 686.00 378.90 L 686.00 396.90 L 338.00 396.90 L 338.00 378.90 L 338.30 374.40 L 339.20 370.10 L 340.60 366.10 L 342.50 362.30 L 344.90 358.80 L 347.70 355.60 L 350.80 352.80 L 354.30 350.50 L 358.20 348.50 L 362.20 347.10 L 366.50 346.30 L 371.00 345.90 Z" fill="none" group-id="2,17,44" node-id="272" stroke="#960532" stroke-linecap="butt" stroke-width="12" target-height="51" target-width="348" target-x="338" target-y="345.9"></path><path d="M 643.00 339.90 L 653.00 339.90 L 660.90 340.80 L 668.20 343.00 L 672.70 345.30 L 676.80 348.10 L 680.60 351.40 L 683.90 355.10 L 686.70 359.20 L 688.90 363.80 L 691.20 371.00 L 692.00 378.90 L 692.00 402.90 L 643.00 402.90 L 643.00 339.90 Z" fill="#f33849" fill-rule="nonzero" group-id="2,17,45" id="矩形_18-3" node-id="61" stroke="none" target-height="63" target-width="49" target-x="643" target-y="339.9"></path><path d="M 371.00 339.90 L 653.00 339.90 L 660.90 340.80 L 668.20 343.00 L 672.70 345.30 L 676.80 348.10 L 680.60 351.40 L 683.90 355.10 L 686.70 359.20 L 688.90 363.80 L 691.20 371.00 L 691.80 374.90 L 692.00 402.90 L 332.00 402.90 L 332.20 374.90 L 333.80 367.30 L 335.10 363.80 L 337.30 359.20 L 340.10 355.10 L 343.40 351.40 L 347.20 348.10 L 351.30 345.30 L 355.80 343.00 L 359.40 341.70 L 367.00 340.20 L 371.00 339.90 Z" fill="none" group-id="2,17,46" node-id="280" stroke="none" target-height="63" target-width="360" target-x="332" target-y="339.9"></path><path d="M 371.00 345.90 L 653.00 345.90 L 657.50 346.30 L 661.80 347.10 L 665.80 348.50 L 669.70 350.50 L 673.20 352.80 L 676.30 355.60 L 679.10 358.80 L 681.50 362.30 L 683.40 366.10 L 684.80 370.10 L 685.70 374.40 L 686.00 378.90 L 686.00 396.90 L 338.00 396.90 L 338.00 378.90 L 338.30 374.40 L 339.20 370.10 L 340.60 366.10 L 342.50 362.30 L 344.90 358.80 L 347.70 355.60 L 350.80 352.80 L 354.30 350.50 L 358.20 348.50 L 362.20 347.10 L 366.50 346.30 L 371.00 345.90 Z" fill="none" group-id="2,17,46" node-id="282" stroke="#960532" stroke-linecap="butt" stroke-width="12" target-height="51" target-width="348" target-x="338" target-y="345.9"></path><path d="M 327.00 391.90 L 697.00 391.90 L 704.90 392.80 L 712.20 395.00 L 716.70 397.30 L 720.80 400.10 L 724.60 403.40 L 727.90 407.10 L 730.70 411.20 L 732.90 415.80 L 735.20 423.00 L 735.80 426.90 L 736.00 454.90 L 288.00 454.90 L 288.20 426.90 L 289.80 419.30 L 291.10 415.80 L 293.30 411.20 L 296.10 407.10 L 299.40 403.40 L 303.20 400.10 L 307.30 397.30 L 311.80 395.00 L 315.40 393.70 L 323.00 392.20 L 327.00 391.90 Z" fill="#f69082" fill-rule="nonzero" group-id="2,18,47" node-id="288" stroke="none" target-height="63" target-width="448" target-x="288" target-y="391.9"></path><path d="M 327.00 397.90 L 697.00 397.90 L 701.50 398.30 L 705.80 399.10 L 709.80 400.50 L 713.70 402.50 L 717.20 404.80 L 720.30 407.60 L 723.10 410.80 L 725.50 414.30 L 727.40 418.10 L 728.80 422.10 L 729.70 426.40 L 730.00 430.90 L 730.00 448.90 L 294.00 448.90 L 294.00 430.90 L 294.30 426.40 L 295.20 422.10 L 296.60 418.10 L 298.50 414.30 L 300.90 410.80 L 303.70 407.60 L 306.80 404.80 L 310.30 402.50 L 314.20 400.50 L 318.20 399.10 L 322.50 398.30 L 327.00 397.90 Z" fill="none" group-id="2,18,47" node-id="290" stroke="#960532" stroke-linecap="butt" stroke-width="12" target-height="51" target-width="436" target-x="294" target-y="397.9"></path><path d="M 687.00 391.90 L 697.00 391.90 L 704.90 392.80 L 712.20 395.00 L 716.70 397.30 L 720.80 400.10 L 724.60 403.40 L 727.90 407.10 L 730.70 411.20 L 732.90 415.80 L 735.20 423.00 L 736.00 430.90 L 736.00 454.90 L 687.00 454.90 L 687.00 391.90 Z" fill="#f33849" fill-rule="nonzero" group-id="2,18,48" id="矩形_18-4" node-id="69" stroke="none" target-height="63" target-width="49" target-x="687" target-y="391.9"></path><path d="M 327.00 391.90 L 697.00 391.90 L 704.90 392.80 L 712.20 395.00 L 716.70 397.30 L 720.80 400.10 L 724.60 403.40 L 727.90 407.10 L 730.70 411.20 L 732.90 415.80 L 735.20 423.00 L 735.80 426.90 L 736.00 454.90 L 288.00 454.90 L 288.20 426.90 L 289.80 419.30 L 291.10 415.80 L 293.30 411.20 L 296.10 407.10 L 299.40 403.40 L 303.20 400.10 L 307.30 397.30 L 311.80 395.00 L 315.40 393.70 L 323.00 392.20 L 327.00 391.90 Z" fill="none" group-id="2,18,49" node-id="298" stroke="none" target-height="63" target-width="448" target-x="288" target-y="391.9"></path><path d="M 327.00 397.90 L 697.00 397.90 L 701.50 398.30 L 705.80 399.10 L 709.80 400.50 L 713.70 402.50 L 717.20 404.80 L 720.30 407.60 L 723.10 410.80 L 725.50 414.30 L 727.40 418.10 L 728.80 422.10 L 729.70 426.40 L 730.00 430.90 L 730.00 448.90 L 294.00 448.90 L 294.00 430.90 L 294.30 426.40 L 295.20 422.10 L 296.60 418.10 L 298.50 414.30 L 300.90 410.80 L 303.70 407.60 L 306.80 404.80 L 310.30 402.50 L 314.20 400.50 L 318.20 399.10 L 322.50 398.30 L 327.00 397.90 Z" fill="none" group-id="2,18,49" node-id="300" stroke="#960532" stroke-linecap="butt" stroke-width="12" target-height="51" target-width="436" target-x="294" target-y="397.9"></path><path d="M 294.00 440.90 L 730.00 440.90 L 734.00 441.20 L 741.60 442.70 L 745.20 444.00 L 749.70 446.30 L 753.80 449.10 L 757.60 452.40 L 760.90 456.10 L 763.70 460.20 L 765.90 464.80 L 767.20 468.30 L 768.80 475.90 L 769.00 504.90 L 255.00 504.90 L 255.20 475.90 L 256.80 468.30 L 258.10 464.80 L 260.30 460.20 L 263.10 456.10 L 266.40 452.40 L 270.20 449.10 L 274.30 446.30 L 278.80 444.00 L 282.40 442.70 L 290.00 441.20 L 294.00 440.90 Z" fill="#f2b3a0" fill-rule="nonzero" group-id="2,19,50" node-id="306" stroke="none" target-height="64" target-width="514" target-x="255" target-y="440.9"></path><path d="M 294.00 446.90 L 730.00 446.90 L 734.50 447.30 L 738.80 448.10 L 742.80 449.50 L 746.70 451.50 L 750.20 453.80 L 753.30 456.60 L 756.10 459.80 L 758.50 463.30 L 760.40 467.10 L 761.80 471.10 L 762.70 475.40 L 763.00 479.90 L 763.00 498.90 L 261.00 498.90 L 261.00 479.90 L 261.30 475.40 L 262.20 471.10 L 263.60 467.10 L 265.50 463.30 L 267.90 459.80 L 270.70 456.60 L 273.80 453.80 L 277.30 451.50 L 281.20 449.50 L 285.20 448.10 L 289.50 447.30 L 294.00 446.90 Z" fill="none" group-id="2,19,50" node-id="308" stroke="#960532" stroke-linecap="butt" stroke-width="12" target-height="52" target-width="502" target-x="261" target-y="446.9"></path><path d="M 720.00 440.90 L 730.00 440.90 L 737.90 441.80 L 745.20 444.00 L 749.70 446.30 L 753.80 449.10 L 757.60 452.40 L 760.90 456.10 L 763.70 460.20 L 765.90 464.80 L 768.20 472.00 L 769.00 479.90 L 769.00 504.90 L 720.00 504.90 L 720.00 440.90 Z" fill="#f67065" fill-rule="nonzero" group-id="2,19,51" id="矩形_18-5" node-id="77" stroke="none" target-height="64" target-width="49" target-x="720" target-y="440.9"></path><path d="M 294.00 440.90 L 730.00 440.90 L 734.00 441.20 L 741.60 442.70 L 745.20 444.00 L 749.70 446.30 L 753.80 449.10 L 757.60 452.40 L 760.90 456.10 L 763.70 460.20 L 765.90 464.80 L 767.20 468.30 L 768.80 475.90 L 769.00 504.90 L 255.00 504.90 L 255.20 475.90 L 256.80 468.30 L 258.10 464.80 L 260.30 460.20 L 263.10 456.10 L 266.40 452.40 L 270.20 449.10 L 274.30 446.30 L 278.80 444.00 L 282.40 442.70 L 290.00 441.20 L 294.00 440.90 Z" fill="none" group-id="2,19,52" node-id="316" stroke="none" target-height="64" target-width="514" target-x="255" target-y="440.9"></path><path d="M 294.00 446.90 L 730.00 446.90 L 734.50 447.30 L 738.80 448.10 L 742.80 449.50 L 746.70 451.50 L 750.20 453.80 L 753.30 456.60 L 756.10 459.80 L 758.50 463.30 L 760.40 467.10 L 761.80 471.10 L 762.70 475.40 L 763.00 479.90 L 763.00 498.90 L 261.00 498.90 L 261.00 479.90 L 261.30 475.40 L 262.20 471.10 L 263.60 467.10 L 265.50 463.30 L 267.90 459.80 L 270.70 456.60 L 273.80 453.80 L 277.30 451.50 L 281.20 449.50 L 285.20 448.10 L 289.50 447.30 L 294.00 446.90 Z" fill="none" group-id="2,19,52" node-id="318" stroke="#960532" stroke-linecap="butt" stroke-width="12" target-height="52" target-width="502" target-x="261" target-y="446.9"></path><path d="M 268.00 493.90 L 756.00 493.90 L 760.00 494.20 L 767.60 495.70 L 771.20 497.00 L 775.70 499.30 L 779.80 502.10 L 783.60 505.40 L 786.90 509.10 L 789.70 513.20 L 791.90 517.80 L 793.20 521.30 L 794.80 528.90 L 795.00 556.90 L 229.00 556.90 L 229.20 528.90 L 230.80 521.30 L 232.10 517.80 L 234.30 513.20 L 237.10 509.10 L 240.40 505.40 L 244.20 502.10 L 248.30 499.30 L 252.80 497.00 L 256.40 495.70 L 264.00 494.20 L 268.00 493.90 Z" fill="#fcda8d" fill-rule="nonzero" group-id="2,20,53" node-id="324" stroke="none" target-height="63.00003" target-width="566" target-x="229" target-y="493.9"></path><path d="M 268.00 499.90 L 756.00 499.90 L 760.50 500.30 L 764.80 501.10 L 768.80 502.50 L 772.70 504.50 L 776.20 506.80 L 779.30 509.60 L 782.10 512.80 L 784.50 516.30 L 786.40 520.10 L 787.80 524.10 L 788.70 528.40 L 789.00 532.90 L 789.00 550.90 L 235.00 550.90 L 235.00 532.90 L 235.30 528.40 L 236.20 524.10 L 237.60 520.10 L 239.50 516.30 L 241.90 512.80 L 244.70 509.60 L 247.80 506.80 L 251.30 504.50 L 255.20 502.50 L 259.20 501.10 L 263.50 500.30 L 268.00 499.90 Z" fill="none" group-id="2,20,53" node-id="326" stroke="#960532" stroke-linecap="butt" stroke-width="12" target-height="51.00003" target-width="554" target-x="235" target-y="499.9"></path><path d="M 746.00 493.90 L 756.00 493.90 L 763.90 494.80 L 771.20 497.00 L 775.70 499.30 L 779.80 502.10 L 783.60 505.40 L 786.90 509.10 L 789.70 513.20 L 791.90 517.80 L 794.20 525.00 L 795.00 532.90 L 795.00 556.90 L 746.00 556.90 L 746.00 493.90 Z" fill="#e20d33" fill-rule="nonzero" group-id="2,20,54" id="矩形_18-6" node-id="85" stroke="none" target-height="63.00003" target-width="49" target-x="746" target-y="493.9"></path><path d="M 268.00 493.90 L 756.00 493.90 L 760.00 494.20 L 767.60 495.70 L 771.20 497.00 L 775.70 499.30 L 779.80 502.10 L 783.60 505.40 L 786.90 509.10 L 789.70 513.20 L 791.90 517.80 L 793.20 521.30 L 794.80 528.90 L 795.00 556.90 L 229.00 556.90 L 229.20 528.90 L 230.80 521.30 L 232.10 517.80 L 234.30 513.20 L 237.10 509.10 L 240.40 505.40 L 244.20 502.10 L 248.30 499.30 L 252.80 497.00 L 256.40 495.70 L 264.00 494.20 L 268.00 493.90 Z" fill="none" group-id="2,20,55" node-id="334" stroke="none" target-height="63.00003" target-width="566" target-x="229" target-y="493.9"></path><path d="M 268.00 499.90 L 756.00 499.90 L 760.50 500.30 L 764.80 501.10 L 768.80 502.50 L 772.70 504.50 L 776.20 506.80 L 779.30 509.60 L 782.10 512.80 L 784.50 516.30 L 786.40 520.10 L 787.80 524.10 L 788.70 528.40 L 789.00 532.90 L 789.00 550.90 L 235.00 550.90 L 235.00 532.90 L 235.30 528.40 L 236.20 524.10 L 237.60 520.10 L 239.50 516.30 L 241.90 512.80 L 244.70 509.60 L 247.80 506.80 L 251.30 504.50 L 255.20 502.50 L 259.20 501.10 L 263.50 500.30 L 268.00 499.90 Z" fill="none" group-id="2,20,55" node-id="336" stroke="#960532" stroke-linecap="butt" stroke-width="12" target-height="51.00003" target-width="554" target-x="235" target-y="499.9"></path><path d="M 551.00 224.40 L 550.20 232.30 L 548.00 239.40 L 545.70 243.90 L 543.00 248.00 L 539.70 251.70 L 536.00 254.90 L 532.00 257.70 L 527.50 259.90 L 520.30 262.20 L 512.50 262.90 L 504.70 262.20 L 497.50 259.90 L 493.00 257.70 L 489.00 254.90 L 485.30 251.70 L 482.00 248.00 L 479.30 243.90 L 477.00 239.40 L 474.80 232.30 L 474.00 224.40 L 474.80 216.60 L 477.00 209.50 L 479.30 205.00 L 482.00 200.90 L 485.30 197.20 L 489.00 194.00 L 493.00 191.20 L 497.50 189.00 L 504.70 186.70 L 512.50 185.90 L 520.30 186.70 L 527.50 189.00 L 532.00 191.20 L 536.00 194.00 L 539.70 197.20 L 543.00 200.90 L 545.70 205.00 L 548.00 209.50 L 550.20 216.60 L 551.00 224.40 Z" fill="#4aefe7" fill-rule="nonzero" group-id="2,21" node-id="341" stroke="none" target-height="77" target-width="77" target-x="474" target-y="185.9"></path><path d="M 545.00 224.40 L 544.70 228.90 L 543.80 233.10 L 542.40 237.10 L 540.50 240.90 L 538.20 244.30 L 535.50 247.40 L 532.40 250.20 L 528.90 252.50 L 525.20 254.40 L 521.20 255.80 L 517.00 256.60 L 512.50 256.90 L 508.00 256.60 L 503.80 255.80 L 499.80 254.40 L 496.10 252.50 L 492.60 250.20 L 489.50 247.40 L 486.80 244.30 L 484.50 240.90 L 482.60 237.10 L 481.20 233.10 L 480.30 228.90 L 480.00 224.40 L 480.30 220.00 L 481.20 215.80 L 482.60 211.80 L 484.50 208.00 L 486.80 204.60 L 489.50 201.50 L 492.60 198.70 L 496.10 196.40 L 499.80 194.50 L 503.80 193.10 L 508.00 192.30 L 512.50 191.90 L 517.00 192.30 L 521.20 193.10 L 525.20 194.50 L 528.90 196.40 L 532.40 198.70 L 535.50 201.50 L 538.20 204.60 L 540.50 208.00 L 542.40 211.80 L 543.80 215.80 L 544.70 220.00 L 545.00 224.40 Z" fill="none" group-id="2,21" node-id="343" stroke="#900431" stroke-linecap="butt" stroke-width="12" target-height="65" target-width="65" target-x="480" target-y="191.9"></path><path d="M 796.10 643.90 L 208.90 643.90 L 208.00 643.40 L 208.20 642.30 L 501.80 322.60 L 503.20 322.60 L 796.80 642.30 L 797.00 643.40 L 796.10 643.90 Z" fill="#f9be35" fill-rule="nonzero" group-id="2,22" node-id="347" stroke="none" target-height="321.30002" target-width="589" target-x="208" target-y="322.6"></path><path d="M 502.50 330.70 L 220.30 637.90 L 784.70 637.90 L 502.50 330.70 M 502.50 316.30 L 505.30 316.90 L 507.70 318.60 L 801.20 638.20 L 802.40 639.90 L 802.90 641.50 L 803.10 643.30 L 802.80 645.00 L 802.10 646.50 L 801.00 647.90 L 799.70 649.00 L 798.00 649.70 L 796.10 649.90 L 208.90 649.90 L 207.00 649.70 L 205.30 649.00 L 204.00 647.90 L 202.90 646.50 L 202.20 645.00 L 201.90 643.30 L 202.10 641.50 L 202.60 639.90 L 203.80 638.20 L 497.30 318.60 L 499.70 316.90 L 502.50 316.30 Z" fill="#950532" fill-rule="nonzero" group-id="2,22" node-id="349" stroke="none" target-height="333.60004" target-width="601.19995" target-x="201.9" target-y="316.3"></path><path d="M 226.90 649.90 L 208.90 649.90 L 206.90 649.70 L 205.10 648.80 L 203.60 647.50 L 202.50 645.80 L 202.00 643.80 L 202.00 641.80 L 202.60 639.90 L 203.80 638.20 L 497.30 318.60 L 499.70 316.90 L 502.50 316.30 L 505.30 316.90 L 507.70 318.60 L 519.50 331.40 L 226.90 649.90 Z" fill="#f8e56e" fill-rule="nonzero" group-id="2,23" id="减去_9" node-id="95" stroke="none" target-height="333.60004" target-width="317.5" target-x="202" target-y="316.3"></path><path d="M 497.30 318.60 L 499.70 316.90 L 502.50 316.30 L 505.30 316.90 L 507.70 318.60 L 801.20 638.20 L 802.40 639.90 L 803.00 641.80 L 803.00 643.80 L 802.50 645.80 L 801.40 647.50 L 799.90 648.80 L 798.10 649.60 L 796.10 649.90 L 208.90 649.90 L 206.90 649.60 L 205.10 648.80 L 203.60 647.50 L 202.50 645.80 L 202.00 643.80 L 202.00 641.80 L 202.60 639.90 L 203.80 638.20 Z" fill="none" group-id="2,24" node-id="357" stroke="none" target-height="333.60004" target-width="601" target-x="202" target-y="316.3"></path><path d="M 502.50 330.70 L 220.30 637.90 L 784.70 637.90 L 502.50 330.70 M 502.50 316.30 L 505.30 316.90 L 507.70 318.60 L 801.20 638.20 L 802.40 639.90 L 802.90 641.50 L 803.10 643.30 L 802.80 645.00 L 802.10 646.50 L 801.00 647.90 L 799.70 649.00 L 798.00 649.70 L 796.10 649.90 L 208.90 649.90 L 207.00 649.70 L 205.30 649.00 L 204.00 647.90 L 202.90 646.50 L 202.20 645.00 L 201.90 643.30 L 202.10 641.50 L 202.60 639.90 L 203.80 638.20 L 497.30 318.60 L 499.70 316.90 L 502.50 316.30 Z" fill="#950532" fill-rule="nonzero" group-id="2,24" node-id="359" stroke="none" target-height="333.60004" target-width="601.19995" target-x="201.9" target-y="316.3"></path><path d="M 720.80 648.90 L 288.20 648.90 L 287.30 648.40 L 287.40 647.30 L 503.70 394.10 L 505.30 394.10 L 721.60 647.30 L 721.70 648.40 L 720.80 648.90 Z" fill="#f73a3e" fill-rule="nonzero" group-id="2,25" node-id="363" stroke="none" target-height="254.80002" target-width="434.40002" target-x="287.3" target-y="394.1"></path><path d="M 504.50 402.40 L 299.00 642.90 L 710.00 642.90 L 504.50 402.40 M 504.50 387.70 L 507.40 388.30 L 509.80 390.20 L 726.10 643.40 L 727.20 645.10 L 727.70 646.70 L 727.80 648.40 L 727.50 650.10 L 725.70 653.00 L 724.40 654.00 L 722.80 654.70 L 720.80 654.90 L 288.20 654.90 L 286.20 654.70 L 284.60 654.00 L 283.30 653.00 L 281.50 650.10 L 281.20 648.40 L 281.30 646.70 L 281.80 645.10 L 282.90 643.40 L 499.20 390.20 L 501.60 388.30 L 504.50 387.70 Z" fill="#950532" fill-rule="nonzero" group-id="2,25" node-id="365" stroke="none" target-height="267.2" target-width="446.59998" target-x="281.2" target-y="387.7"></path><path d="M 305.50 654.90 L 288.20 654.90 L 286.20 654.70 L 284.40 653.90 L 282.90 652.60 L 281.80 650.90 L 281.20 648.90 L 281.20 647.00 L 281.80 645.10 L 282.90 643.40 L 499.20 390.20 L 501.60 388.40 L 504.50 387.70 L 507.40 388.40 L 509.80 390.20 L 726.10 643.40 L 727.20 645.10 L 727.80 647.00 L 727.80 648.90 L 727.20 650.90 L 726.10 652.60 L 724.60 653.90 L 722.80 654.70 L 720.80 654.90 L 703.50 654.90 L 509.80 428.20 L 507.40 426.40 L 504.50 425.70 L 501.60 426.40 L 499.20 428.20 L 305.50 654.90 Z" fill="#e20d33" fill-rule="nonzero" group-id="2,26" id="减去_10" node-id="102" stroke="none" target-height="267.2" target-width="446.59998" target-x="281.2" target-y="387.7"></path><path d="M 499.20 390.20 L 501.60 388.40 L 504.50 387.70 L 507.40 388.40 L 509.80 390.20 L 726.10 643.40 L 727.20 645.10 L 727.70 647.00 L 727.70 648.90 L 727.20 650.90 L 726.10 652.60 L 724.60 653.80 L 722.80 654.70 L 720.80 654.90 L 288.20 654.90 L 286.20 654.70 L 284.40 653.80 L 282.90 652.60 L 281.80 650.90 L 281.30 648.90 L 281.30 647.00 L 281.80 645.10 L 282.90 643.40 Z" fill="none" group-id="2,27" node-id="373" stroke="none" target-height="267.2" target-width="446.40002" target-x="281.3" target-y="387.7"></path><path d="M 504.50 402.40 L 299.00 642.90 L 710.00 642.90 L 504.50 402.40 M 504.50 387.70 L 507.40 388.30 L 509.80 390.20 L 726.10 643.40 L 727.20 645.10 L 727.70 646.70 L 727.80 648.40 L 727.50 650.10 L 725.70 653.00 L 724.40 654.00 L 722.80 654.70 L 720.80 654.90 L 288.20 654.90 L 286.20 654.70 L 284.60 654.00 L 283.30 653.00 L 281.50 650.10 L 281.20 648.40 L 281.30 646.70 L 281.80 645.10 L 282.90 643.40 L 499.20 390.20 L 501.60 388.30 L 504.50 387.70 Z" fill="#950532" fill-rule="nonzero" group-id="2,27" node-id="375" stroke="none" target-height="267.2" target-width="446.59998" target-x="281.2" target-y="387.7"></path><path d="M 569.90 574.90 L 447.10 574.90 L 446.20 574.40 L 446.30 573.30 L 507.70 492.00 L 509.30 492.00 L 570.70 573.30 L 570.80 574.40 L 569.90 574.90 Z" fill="#f6cd40" fill-rule="nonzero" group-id="2,28" node-id="379" stroke="none" target-height="82.900024" target-width="124.599976" target-x="446.2" target-y="492"></path><path d="M 508.50 500.90 L 457.10 568.90 L 559.90 568.90 L 508.50 500.90 M 508.50 485.60 L 511.60 486.30 L 514.10 488.30 L 575.50 569.70 L 576.50 571.40 L 576.90 573.00 L 576.50 576.30 L 574.70 579.10 L 573.40 580.10 L 571.80 580.70 L 569.90 580.90 L 447.10 580.90 L 445.20 580.70 L 443.60 580.10 L 441.20 577.80 L 440.10 574.70 L 440.10 573.00 L 440.50 571.40 L 441.50 569.70 L 502.90 488.30 L 505.40 486.30 L 508.50 485.60 Z" fill="#e20c32" fill-rule="nonzero" group-id="2,28" node-id="381" stroke="none" target-height="95.30002" target-width="136.80002" target-x="440.1" target-y="485.6"></path><path d="M 466.00 543.90 L 470.30 544.20 L 474.30 544.80 L 478.20 545.80 L 482.00 547.20 L 488.90 551.00 L 492.10 553.30 L 497.60 558.90 L 502.00 565.40 L 503.80 569.00 L 505.20 572.70 L 506.20 576.60 L 506.80 580.70 L 507.00 584.90 L 507.00 649.90 L 425.00 649.90 L 425.00 584.90 L 425.20 580.70 L 425.80 576.60 L 426.80 572.70 L 428.20 569.00 L 430.00 565.40 L 434.40 558.90 L 439.90 553.30 L 443.10 551.00 L 450.00 547.20 L 453.80 545.80 L 457.70 544.80 L 461.70 544.20 L 466.00 543.90 Z" fill="#f6cd40" fill-rule="nonzero" group-id="2,29" node-id="385" stroke="none" target-height="106" target-width="82" target-x="425" target-y="543.9"></path><path d="M 466.00 549.90 L 470.80 550.30 L 475.30 551.20 L 479.60 552.70 L 483.70 554.70 L 487.40 557.20 L 490.70 560.20 L 493.70 563.60 L 496.20 567.30 L 498.20 571.30 L 499.70 575.60 L 500.70 580.10 L 501.00 584.90 L 501.00 643.90 L 431.00 643.90 L 431.00 584.90 L 431.30 580.10 L 432.30 575.60 L 433.80 571.30 L 435.80 567.30 L 438.30 563.60 L 441.30 560.20 L 444.60 557.20 L 448.30 554.70 L 452.40 552.70 L 456.70 551.20 L 461.20 550.30 L 466.00 549.90 Z" fill="none" group-id="2,29" node-id="387" stroke="#e20c32" stroke-linecap="butt" stroke-width="12" target-height="94" target-width="70" target-x="431" target-y="549.9"></path><path d="M 537.00 543.90 L 541.30 544.20 L 545.30 544.80 L 549.20 545.80 L 553.00 547.20 L 559.90 551.00 L 563.10 553.30 L 568.60 558.90 L 573.00 565.40 L 574.80 569.00 L 576.20 572.70 L 577.20 576.60 L 577.80 580.70 L 578.00 584.90 L 578.00 649.90 L 496.00 649.90 L 496.00 584.90 L 496.20 580.70 L 496.80 576.60 L 497.80 572.70 L 499.20 569.00 L 501.00 565.40 L 505.40 558.90 L 510.90 553.30 L 514.10 551.00 L 521.00 547.20 L 524.80 545.80 L 528.70 544.80 L 532.70 544.20 L 537.00 543.90 Z" fill="#f6cd40" fill-rule="nonzero" group-id="2,30" node-id="391" stroke="none" target-height="106" target-width="82" target-x="496" target-y="543.9"></path><path d="M 537.00 549.90 L 541.80 550.30 L 546.30 551.20 L 550.60 552.70 L 554.70 554.70 L 558.40 557.20 L 561.70 560.20 L 564.70 563.60 L 567.20 567.30 L 569.20 571.30 L 570.70 575.60 L 571.70 580.10 L 572.00 584.90 L 572.00 643.90 L 502.00 643.90 L 502.00 584.90 L 502.30 580.10 L 503.30 575.60 L 504.80 571.30 L 506.80 567.30 L 509.30 563.60 L 512.30 560.20 L 515.60 557.20 L 519.30 554.70 L 523.40 552.70 L 527.70 551.20 L 532.20 550.30 L 537.00 549.90 Z" fill="none" group-id="2,30" node-id="393" stroke="#e20c32" stroke-linecap="butt" stroke-width="12" target-height="94" target-width="70" target-x="502" target-y="549.9"></path><path d="M 210.00 530.90 L 366.00 530.90 L 368.10 531.20 L 370.00 532.00 L 371.70 533.30 L 372.90 534.90 L 373.70 536.80 L 374.00 538.90 L 374.00 646.90 L 373.70 649.10 L 372.90 651.00 L 371.70 652.60 L 370.00 653.90 L 368.10 654.70 L 366.00 654.90 L 210.00 654.90 L 207.90 654.70 L 206.00 653.90 L 204.30 652.60 L 203.10 651.00 L 202.30 649.10 L 202.00 646.90 L 202.00 538.90 L 202.30 536.80 L 203.10 534.90 L 204.30 533.30 L 206.00 532.00 L 207.90 531.20 L 210.00 530.90 Z" fill="#f6cd40" fill-rule="nonzero" group-id="2,31,56" node-id="398" stroke="none" target-height="124" target-width="172" target-x="202" target-y="530.9"></path><path d="M 210.00 536.90 L 366.00 536.90 L 367.40 537.50 L 368.00 538.90 L 368.00 646.90 L 367.80 647.70 L 366.80 648.80 L 210.00 648.90 L 208.60 648.40 L 208.00 646.90 L 208.00 538.90 L 208.60 537.50 L 210.00 536.90 Z" fill="none" group-id="2,31,56" node-id="400" stroke="#930230" stroke-linecap="butt" stroke-width="12" target-height="112" target-width="160" target-x="208" target-y="536.9"></path><path d="M 245.00 559.90 L 332.00 559.90 L 334.10 560.20 L 336.00 561.00 L 337.70 562.30 L 338.90 563.90 L 339.70 565.80 L 340.00 567.90 L 340.00 618.90 L 339.70 621.10 L 338.90 623.00 L 337.70 624.60 L 336.00 625.90 L 334.10 626.70 L 332.00 626.90 L 245.00 626.90 L 242.90 626.70 L 241.00 625.90 L 239.30 624.60 L 238.10 623.00 L 237.30 621.10 L 237.00 618.90 L 237.00 567.90 L 237.30 565.80 L 238.10 563.90 L 239.30 562.30 L 241.00 561.00 L 242.90 560.20 L 245.00 559.90 Z" fill="#f6cd40" fill-rule="nonzero" group-id="2,31,57" node-id="404" stroke="none" target-height="67" target-width="103" target-x="237" target-y="559.9"></path><path d="M 245.00 565.90 L 332.80 566.10 L 333.80 567.20 L 334.00 567.90 L 334.00 618.90 L 333.80 619.70 L 332.80 620.80 L 244.20 620.80 L 243.20 619.70 L 243.00 618.90 L 243.00 567.90 L 243.60 566.50 L 245.00 565.90 Z" fill="none" group-id="2,31,57" node-id="406" stroke="#f73c3e" stroke-linecap="butt" stroke-width="12" target-height="54.899963" target-width="91" target-x="243" target-y="565.9"></path><path d="M 274.00 559.90 L 275.40 560.10 L 277.50 561.40 L 278.80 563.60 L 279.00 564.90 L 279.00 621.90 L 278.80 623.30 L 277.50 625.50 L 275.40 626.80 L 274.00 626.90 L 272.60 626.80 L 270.50 625.50 L 269.20 623.30 L 269.00 621.90 L 269.00 564.90 L 269.20 563.60 L 270.50 561.40 L 272.60 560.10 L 274.00 559.90 Z" fill="#f73c3e" fill-rule="nonzero" group-id="2,31,58" id="矩形_24" node-id="122" stroke="none" target-height="67" target-width="10" target-x="269" target-y="559.9"></path><path d="M 304.00 559.90 L 305.40 560.10 L 307.50 561.40 L 308.80 563.60 L 309.00 564.90 L 309.00 621.90 L 308.80 623.30 L 307.50 625.50 L 305.40 626.80 L 304.00 626.90 L 302.60 626.80 L 300.50 625.50 L 299.20 623.30 L 299.00 621.90 L 299.00 564.90 L 299.20 563.60 L 300.50 561.40 L 302.60 560.10 L 304.00 559.90 Z" fill="#f73c3e" fill-rule="nonzero" group-id="2,31,59" id="矩形_25" node-id="123" stroke="none" target-height="67" target-width="10" target-x="299" target-y="559.9"></path><path d="M 337.20 593.40 L 337.00 594.80 L 335.70 597.00 L 333.50 598.30 L 332.20 598.40 L 247.00 598.40 L 244.50 597.80 L 242.70 596.00 L 242.20 594.80 L 242.00 593.40 L 242.70 590.90 L 244.50 589.10 L 247.00 588.40 L 332.20 588.40 L 333.50 588.60 L 335.70 589.90 L 337.00 592.10 L 337.20 593.40 Z" fill="#f73c3e" fill-rule="nonzero" group-id="2,31,60" id="矩形_26" node-id="124" stroke="none" target-height="10" target-width="95.20001" target-x="242" target-y="588.4"></path><path d="M 644.00 530.90 L 800.00 530.90 L 802.10 531.20 L 804.00 532.00 L 805.70 533.30 L 806.90 534.90 L 807.70 536.80 L 808.00 538.90 L 808.00 646.90 L 807.70 649.10 L 806.90 651.00 L 805.70 652.60 L 804.00 653.90 L 802.10 654.70 L 800.00 654.90 L 644.00 654.90 L 641.90 654.70 L 640.00 653.90 L 638.30 652.60 L 637.10 651.00 L 636.30 649.10 L 636.00 646.90 L 636.00 538.90 L 636.30 536.80 L 637.10 534.90 L 638.30 533.30 L 640.00 532.00 L 641.90 531.20 L 644.00 530.90 Z" fill="#f6cd40" fill-rule="nonzero" group-id="2,32,61" node-id="424" stroke="none" target-height="124" target-width="172" target-x="636" target-y="530.9"></path><path d="M 644.00 536.90 L 800.00 536.90 L 801.40 537.50 L 802.00 538.90 L 802.00 646.90 L 801.40 648.40 L 800.00 648.90 L 644.00 648.90 L 642.60 648.40 L 642.00 646.90 L 642.00 538.90 L 642.60 537.50 L 644.00 536.90 Z" fill="none" group-id="2,32,61" node-id="426" stroke="#930230" stroke-linecap="butt" stroke-width="12" target-height="112" target-width="160" target-x="642" target-y="536.9"></path><path d="M 679.00 559.90 L 766.00 559.90 L 768.10 560.20 L 770.00 561.00 L 771.70 562.30 L 772.90 563.90 L 773.70 565.80 L 774.00 567.90 L 774.00 618.90 L 773.70 621.10 L 772.90 623.00 L 771.70 624.60 L 770.00 625.90 L 768.10 626.70 L 766.00 626.90 L 679.00 626.90 L 676.90 626.70 L 675.00 625.90 L 673.30 624.60 L 672.10 623.00 L 671.30 621.10 L 671.00 618.90 L 671.00 567.90 L 671.30 565.80 L 672.10 563.90 L 673.30 562.30 L 675.00 561.00 L 676.90 560.20 L 679.00 559.90 Z" fill="#f6cd40" fill-rule="nonzero" group-id="2,32,62" node-id="430" stroke="none" target-height="67" target-width="103" target-x="671" target-y="559.9"></path><path d="M 679.00 565.90 L 766.80 566.10 L 767.80 567.20 L 768.00 567.90 L 768.00 618.90 L 767.40 620.40 L 766.00 620.90 L 678.20 620.80 L 677.20 619.70 L 677.00 618.90 L 677.00 567.90 L 677.60 566.50 L 679.00 565.90 Z" fill="none" group-id="2,32,62" node-id="432" stroke="#f73c3e" stroke-linecap="butt" stroke-width="12" target-height="55" target-width="91" target-x="677" target-y="565.9"></path><path d="M 708.00 559.90 L 709.40 560.10 L 711.50 561.40 L 712.80 563.60 L 713.00 564.90 L 713.00 621.90 L 712.30 624.50 L 710.50 626.30 L 709.40 626.80 L 708.00 626.90 L 705.50 626.30 L 703.70 624.50 L 703.00 621.90 L 703.00 564.90 L 703.20 563.60 L 704.50 561.40 L 706.60 560.10 L 708.00 559.90 Z" fill="#f73c3e" fill-rule="nonzero" group-id="2,32,63" id="矩形_24-2" node-id="132" stroke="none" target-height="67" target-width="10" target-x="703" target-y="559.9"></path><path d="M 738.00 559.90 L 739.40 560.10 L 741.50 561.40 L 742.80 563.60 L 743.00 564.90 L 743.00 621.90 L 742.30 624.50 L 740.50 626.30 L 739.40 626.80 L 738.00 626.90 L 735.50 626.30 L 733.70 624.50 L 733.00 621.90 L 733.00 564.90 L 733.20 563.60 L 734.50 561.40 L 736.60 560.10 L 738.00 559.90 Z" fill="#f73c3e" fill-rule="nonzero" group-id="2,32,64" id="矩形_25-2" node-id="133" stroke="none" target-height="67" target-width="10" target-x="733" target-y="559.9"></path><path d="M 771.20 593.40 L 771.00 594.80 L 769.70 597.00 L 767.50 598.30 L 766.20 598.40 L 681.00 598.40 L 679.60 598.30 L 677.50 597.00 L 676.20 594.80 L 676.00 593.40 L 676.20 592.10 L 677.50 589.90 L 679.60 588.60 L 681.00 588.40 L 766.20 588.40 L 767.50 588.60 L 769.70 589.90 L 771.00 592.10 L 771.20 593.40 Z" fill="#f73c3e" fill-rule="nonzero" group-id="2,32,65" id="矩形_26-2" node-id="134" stroke="none" target-height="10" target-width="95.20001" target-x="676" target-y="588.4"></path><path d="M 800.80 677.90 L 207.30 677.90 L 184.90 642.90 L 823.90 642.90 L 800.80 677.90 Z" fill="#a90633" fill-rule="nonzero" group-id="2,33" node-id="449" stroke="none" target-height="35" target-width="639" target-x="184.9" target-y="642.9"></path><path d="M 195.90 648.90 L 210.60 671.90 L 797.50 671.90 L 812.70 648.90 L 195.90 648.90 M 174.00 636.90 L 835.00 636.90 L 804.00 683.90 L 204.00 683.90 L 174.00 636.90 Z" fill="#960532" fill-rule="nonzero" group-id="2,33" node-id="451" stroke="none" target-height="47" target-width="661" target-x="174" target-y="636.9"></path><path d="M 821.90 713.90 L 182.90 713.90 L 205.30 678.90 L 798.80 678.90 L 821.90 713.90 Z" fill="#f77065" fill-rule="nonzero" group-id="2,34" node-id="455" stroke="none" target-height="35" target-width="639" target-x="182.9" target-y="678.9"></path><path d="M 810.70 707.90 L 795.50 684.90 L 208.60 684.90 L 193.90 707.90 L 810.70 707.90 M 833.00 719.90 L 172.00 719.90 L 202.00 672.90 L 802.00 672.90 L 833.00 719.90 Z" fill="#960532" fill-rule="nonzero" group-id="2,34" node-id="457" stroke="none" target-height="47" target-width="661" target-x="172" target-y="672.9"></path></g></svg>