<?xml version="1.0" standalone="no"?><!DOCTYPE svg PUBLIC "-//W3C//DTD SVG 1.1//EN" "http://www.w3.org/Graphics/SVG/1.1/DTD/svg11.dtd"><svg t="1737183714191" class="icon" viewBox="0 0 1024 1024" version="1.1" xmlns="http://www.w3.org/2000/svg" p-id="1829" xmlns:xlink="http://www.w3.org/1999/xlink" width="200" height="200"><path d="M780.899556 126.407111c130.901333 136.718222 152.049778 273.450667 63.459555 410.168889l2.915556-4.935111c-40.675556 70.414222-109.724444 114.204444-184.376889 125.269333a296.291556 296.291556 0 0 1-37.546667 110.876445c-78.563556 136.049778-247.011556 185.841778-376.248889 111.217777-129.251556-74.609778-170.353778-245.390222-91.804444-381.44 48.355556-83.768889 130.816-134.826667 217.201778-144.298666a255.786667 255.786667 0 0 1 29.368888-77.624889c63.857778-110.634667 197.831111-155.548444 313.400889-111.061333l18.204445-32.426667a28.472889 28.472889 0 0 1 45.425778-5.745778z" fill="#E6AC57" p-id="1830"></path><path d="M751.374222 137.728c76.302222 97.991111 76.302222 179.370667 13.696 287.800889a226.289778 226.289778 0 0 1-163.271111 110.933333 262.343111 262.343111 0 0 1-33.265778 98.204445c-69.546667 120.462222-242.858667 158.876444-333.184 98.488889-85.020444-62.933333-104.078222-132.280889-34.517333-252.757334 24.604444-42.638222 68.920889-60.444444 112.881778-76.202666l9.742222-3.484445c24.334222-8.647111 48.099556-17.180444 67.868444-29.496889 2.56-1.592889 4.963556-3.356444 7.253334-5.262222 11.335111-34.944 32.853333-73.201778 56.817778-114.716444 41.102222-71.196444 178.360889-53.930667 252.174222-63.36 38.613333-4.935111 40.163556-37.731556 43.804444-50.147556z" fill="#FFCF6D" p-id="1831"></path><path d="M662.897778 656.910222a296.291556 296.291556 0 0 1-37.546667 110.876445c-78.563556 136.049778-247.011556 185.841778-376.248889 111.217777-129.251556-74.609778-170.353778-245.390222-91.804444-381.44 48.355556-83.768889 130.816-134.826667 217.201778-144.298666a255.786667 255.786667 0 0 1 29.368888-77.624889c63.857778-110.634667 197.831111-155.548444 313.400889-111.061333l18.204445-32.426667a28.472889 28.472889 0 0 1 45.425778-5.745778c129.351111 135.111111 151.537778 270.222222 66.545777 405.333333l-0.170666-0.099555c-40.675556 70.414222-109.724444 114.204444-184.376889 125.269333z m102.727111-462.378666l-0.227556 0.398222a56.888889 56.888889 0 0 1-65.820444 23.722666l-2.744889-0.981333c-90.737778-34.929778-194.531556 1.251556-243.697778 86.414222a198.883556 198.883556 0 0 0-22.855111 60.387556 56.888889 56.888889 0 0 1-49.592889 45.354667c-70.855111 7.751111-136.064 50.275556-174.122666 116.195555-63.146667 109.368889-30.478222 245.148444 70.968888 303.729778 101.461333 58.567111 235.377778 18.986667 298.538667-90.410667a239.402667 239.402667 0 0 0 30.392889-89.6 56.888889 56.888889 0 0 1 48.099556-49.109333 198.584889 198.584889 0 0 0 140.572444-92.643556l3.128889-5.219555c0.967111-1.678222 1.991111-3.271111 3.043555-4.764445l0.924445-1.294222c60.544-99.683556 50.915556-195.512889-33.550222-298.496l-3.057778-3.697778z" fill="#191919" p-id="1832"></path><path d="M380.273778 496.028444a14.222222 14.222222 0 0 1-6.883556 18.901334 202.993778 202.993778 0 0 0-39.068444 23.864889 229.006222 229.006222 0 0 0 23.125333 23.096889c8.234667-7.025778 16.782222-13.226667 25.699556-18.56a14.222222 14.222222 0 0 1 14.634666 24.391111c-5.987556 3.598222-11.804444 7.651556-17.493333 12.188444 4.167111 3.015111 8.504889 6.030222 13.027556 9.045333a14.222222 14.222222 0 0 1-15.786667 23.665778c-6.4-4.280889-12.515556-8.576-18.289778-12.871111-6.229333 6.826667-12.259556 14.336-18.062222 22.528 5.319111 3.982222 10.979556 7.950222 16.938667 11.932445a14.222222 14.222222 0 0 1-15.786667 23.665777c-5.731556-3.84-11.221333-7.68-16.455111-11.52-2.844444 5.020444-5.646222 10.24-8.391111 15.658667a14.222222 14.222222 0 0 1-25.372445-12.842667c3.640889-7.210667 7.409778-14.122667 11.306667-20.750222a252.16 252.16 0 0 1-13.525333-12.558222 291.043556 291.043556 0 0 1-11.776-12.529778 240.981333 240.981333 0 0 0-14.392889 27.761778c-2.944 6.712889-4.721778 11.605333-5.489778 14.094222a14.222222 14.222222 0 1 1-27.192889-8.362667c1.080889-3.484444 3.228444-9.386667 6.613333-17.123555 5.546667-12.700444 12.615111-26.069333 21.361778-39.537778-5.134222-6.613333-10.439111-13.752889-15.900444-21.404444a14.222222 14.222222 0 1 1 23.153777-16.526223c3.470222 4.864 6.869333 9.514667 10.197334 13.923556 5.845333-7.281778 12.088889-14.222222 18.716444-20.764444a464.369778 464.369778 0 0 1-12.686222-18.147556 14.222222 14.222222 0 1 1 23.665778-15.772444c3.512889 5.276444 7.011556 10.296889 10.481778 15.061333a229.816889 229.816889 0 0 1 44.743111-27.406222 14.222222 14.222222 0 0 1 18.887111 6.897777z m-67.171556 61.724445c-6.584889 6.670222-12.728889 13.767111-18.474666 21.233778 5.404444 6.328889 10.524444 11.918222 15.374222 16.782222 2.844444 2.844444 5.873778 5.688889 9.059555 8.561778 5.774222-8.064 11.790222-15.573333 18.033778-22.499556a241.095111 241.095111 0 0 1-23.992889-24.064z" fill="#D19845" p-id="1833"></path><path d="M622.051556 282.695111a14.222222 14.222222 0 0 1-6.883556 18.901333 202.88 202.88 0 0 0-39.068444 23.879112c3.655111 4.209778 7.281778 8.106667 10.88 11.690666a14.222222 14.222222 0 1 1-20.110223 20.110222c-3.982222-3.982222-7.978667-8.263111-11.975111-12.842666a237.226667 237.226667 0 0 0-28.913778 35.84 14.222222 14.222222 0 0 1-23.722666-15.701334 267.463111 267.463111 0 0 1 34.702222-42.510222 471.153778 471.153778 0 0 1-12.686222-18.147555 14.222222 14.222222 0 1 1 23.665778-15.772445c3.512889 5.290667 7.011556 10.311111 10.496 15.075556a228.309333 228.309333 0 0 1 44.728888-27.420445 14.222222 14.222222 0 0 1 18.887112 6.897778z" fill="#FFFFFF" p-id="1834"></path></svg>