<?xml version="1.0" standalone="no"?><!DOCTYPE svg PUBLIC "-//W3C//DTD SVG 1.1//EN" "http://www.w3.org/Graphics/SVG/1.1/DTD/svg11.dtd"><svg height="1024" node-id="1" sillyvg="true" template-height="1024" template-width="1024" version="1.1" viewBox="0 0 1024 1024" width="1024" xmlns="http://www.w3.org/2000/svg" xmlns:xlink="http://www.w3.org/1999/xlink"><defs node-id="79"><clipPath id="clip-礼盒" node-id="7"><path d="M 0.00 0.00 L 1024.00 0.00 L 1024.00 1024.00 L 0.00 1024.00 Z" fill="#000000" fill-rule="nonzero" node-id="82" stroke="none" target-height="1024" target-width="1024" target-x="0" target-y="0"></path></clipPath><clipPath id="clip-path" node-id="3"><path d="M 531.00 132.20 L 854.80 456.00 L 858.50 460.10 L 861.70 464.40 L 864.30 468.90 L 866.50 473.60 L 868.20 478.50 L 869.40 483.40 L 870.10 488.40 L 870.40 493.50 L 870.10 498.60 L 869.40 503.60 L 868.20 508.50 L 866.50 513.40 L 864.30 518.10 L 861.70 522.60 L 858.50 526.90 L 854.80 531.00 L 531.00 854.80 L 526.90 858.50 L 522.60 861.70 L 518.10 864.30 L 513.40 866.50 L 508.50 868.20 L 503.60 869.40 L 498.60 870.10 L 493.50 870.40 L 488.40 870.10 L 483.40 869.40 L 478.50 868.20 L 473.60 866.50 L 468.90 864.30 L 464.40 861.70 L 460.10 858.50 L 456.00 854.80 L 132.20 531.00 L 128.50 526.90 L 125.30 522.60 L 122.70 518.10 L 120.50 513.40 L 118.80 508.50 L 117.60 503.60 L 116.90 498.60 L 116.60 493.50 L 116.90 488.40 L 117.60 483.40 L 118.80 478.50 L 120.50 473.60 L 122.70 468.90 L 125.30 464.40 L 128.50 460.10 L 132.20 456.00 L 456.00 132.20 L 460.10 128.50 L 464.40 125.30 L 468.90 122.70 L 473.60 120.50 L 478.50 118.80 L 483.40 117.60 L 488.40 116.90 L 493.50 116.60 L 498.60 116.90 L 503.60 117.60 L 508.50 118.80 L 513.40 120.50 L 518.10 122.70 L 522.60 125.30 L 526.90 128.50 L 531.00 132.20 Z" fill="#000000" fill-rule="nonzero" id="矩形_48" node-id="4" stroke="none" target-height="753.80005" target-width="753.80005" target-x="116.6" target-y="116.6"></path></clipPath><clipPath id="clip-path-2" node-id="5"><path d="M 619.00 397.00 L 619.00 590.00 L 618.80 594.00 L 618.00 597.80 L 616.80 601.30 L 615.10 604.70 L 613.00 607.80 L 610.50 610.50 L 607.80 613.00 L 604.70 615.10 L 601.30 616.80 L 597.80 618.00 L 594.00 618.80 L 590.00 619.00 L 397.00 619.00 L 393.00 618.80 L 389.20 618.00 L 385.70 616.80 L 382.30 615.10 L 379.20 613.00 L 376.50 610.50 L 374.00 607.80 L 371.90 604.70 L 370.20 601.30 L 369.00 597.80 L 368.20 594.00 L 368.00 590.00 L 368.00 397.00 L 368.20 393.00 L 369.00 389.20 L 370.20 385.70 L 371.90 382.30 L 374.00 379.20 L 376.50 376.50 L 379.20 374.00 L 382.30 371.90 L 385.70 370.20 L 389.20 369.00 L 393.00 368.20 L 397.00 368.00 L 590.00 368.00 L 594.00 368.20 L 597.80 369.00 L 601.30 370.20 L 604.70 371.90 L 607.80 374.00 L 610.50 376.50 L 613.00 379.20 L 615.10 382.30 L 616.80 385.70 L 618.00 389.20 L 618.80 393.00 L 619.00 397.00 Z" fill="#000000" fill-rule="nonzero" id="矩形_52" node-id="6" stroke="none" target-height="251" target-width="251" target-x="368" target-y="368"></path></clipPath></defs><g clip-path="url(#clip-礼盒)" id="礼盒" node-id="9"><path d="M 0.00 0.00 L 1024.00 0.00 L 1024.00 1024.00 L 0.00 1024.00 Z" fill="#fff9e6" fill-rule="nonzero" node-id="93" stroke="none" target-height="1024" target-width="1024" target-x="0" target-y="0"></path><path d="M 185.10 95.70 L 185.80 94.70 L 187.00 94.30 L 188.20 94.70 L 188.90 95.70 L 195.80 116.40 L 196.30 117.20 L 197.10 117.70 L 217.80 124.60 L 219.10 125.90 L 219.10 127.10 L 217.80 128.40 L 197.10 135.30 L 196.30 135.80 L 195.80 136.60 L 188.90 157.30 L 187.60 158.60 L 186.40 158.60 L 185.10 157.30 L 178.20 136.60 L 177.70 135.80 L 176.90 135.30 L 156.20 128.40 L 154.90 127.10 L 154.90 125.90 L 156.20 124.60 L 176.90 117.70 L 177.70 117.20 L 178.20 116.40 Z" fill="none" group-id="1,3" node-id="97" stroke="none" target-height="64.3" target-width="64.20001" target-x="154.9" target-y="94.3"></path><path d="M 187.00 109.00 L 183.90 118.30 L 183.10 120.00 L 181.90 121.40 L 180.50 122.60 L 178.80 123.40 L 169.50 126.50 L 178.80 129.60 L 180.50 130.40 L 181.90 131.60 L 183.10 133.00 L 183.90 134.70 L 187.00 144.00 L 190.10 134.70 L 190.90 133.00 L 192.10 131.60 L 193.50 130.40 L 195.20 129.60 L 204.50 126.50 L 195.20 123.40 L 193.50 122.60 L 192.10 121.40 L 190.90 120.00 L 190.10 118.30 L 187.00 109.00 M 187.00 94.30 L 188.10 94.70 L 188.90 95.70 L 195.80 116.40 L 196.30 117.20 L 197.10 117.70 L 217.80 124.60 L 218.60 125.10 L 219.20 126.50 L 218.60 127.90 L 217.80 128.40 L 197.10 135.30 L 196.30 135.80 L 195.80 136.60 L 188.90 157.30 L 188.40 158.10 L 187.00 158.70 L 185.60 158.10 L 185.10 157.30 L 178.20 136.60 L 177.70 135.80 L 176.90 135.30 L 156.20 128.40 L 155.40 127.90 L 154.80 126.50 L 155.40 125.10 L 156.20 124.60 L 176.90 117.70 L 177.70 117.20 L 178.20 116.40 L 185.10 95.70 L 185.90 94.70 L 187.00 94.30 Z" fill="#c00121" fill-rule="nonzero" group-id="1,3" node-id="99" stroke="none" target-height="64.399994" target-width="64.399994" target-x="154.8" target-y="94.3"></path><path d="M 78.60 838.50 L 75.00 832.60 L 69.80 826.30 L 63.40 821.10 L 57.60 817.50 L 63.40 813.90 L 69.80 808.70 L 75.00 802.40 L 78.60 796.50 L 82.10 802.40 L 87.40 808.70 L 93.70 813.90 L 99.60 817.50 L 93.70 821.10 L 87.40 826.30 L 82.10 832.60 L 78.60 838.50 Z" fill="#fbb84e" fill-rule="nonzero" group-id="1,4" node-id="103" stroke="none" target-height="42" target-width="42" target-x="57.6" target-y="796.5"></path><path d="M 78.60 800.50 L 75.30 805.30 L 71.20 810.10 L 66.40 814.30 L 61.60 817.50 L 66.40 820.70 L 71.20 824.90 L 75.30 829.70 L 78.60 834.50 L 81.80 829.70 L 85.90 824.90 L 90.80 820.70 L 95.50 817.50 L 90.80 814.30 L 85.90 810.10 L 81.80 805.30 L 78.60 800.50 M 78.60 792.00 L 82.70 799.60 L 86.50 804.80 L 88.80 807.30 L 91.30 809.60 L 96.50 813.40 L 104.10 817.50 L 96.50 821.60 L 91.30 825.40 L 88.80 827.70 L 86.50 830.20 L 82.70 835.40 L 78.60 843.00 L 74.40 835.40 L 70.70 830.20 L 68.40 827.70 L 65.90 825.40 L 60.70 821.60 L 53.10 817.50 L 60.70 813.40 L 65.90 809.60 L 68.40 807.30 L 70.70 804.80 L 74.40 799.60 L 78.60 792.00 Z" fill="#c00121" fill-rule="nonzero" group-id="1,4" node-id="105" stroke="none" target-height="51" target-width="51" target-x="53.1" target-y="792"></path><path d="M 895.00 831.00 L 899.10 838.60 L 902.90 843.80 L 905.20 846.30 L 907.70 848.60 L 912.90 852.40 L 920.50 856.50 L 912.90 860.60 L 907.70 864.40 L 905.20 866.70 L 902.90 869.20 L 899.10 874.40 L 895.00 882.00 L 890.90 874.40 L 887.10 869.20 L 884.80 866.70 L 882.30 864.40 L 877.10 860.60 L 869.50 856.50 L 877.10 852.40 L 882.30 848.60 L 884.80 846.30 L 887.10 843.80 L 890.90 838.60 L 895.00 831.00 Z" fill="none" group-id="1,5" node-id="109" stroke="none" target-height="51" target-width="51" target-x="869.5" target-y="831"></path><path d="M 895.00 843.20 L 892.30 846.90 L 889.00 850.50 L 885.40 853.80 L 881.70 856.50 L 885.40 859.20 L 889.00 862.50 L 892.30 866.10 L 895.00 869.80 L 897.70 866.10 L 901.00 862.50 L 904.60 859.20 L 908.30 856.50 L 904.60 853.80 L 901.00 850.50 L 897.70 846.90 L 895.00 843.20 M 895.00 831.00 L 899.10 838.60 L 902.90 843.80 L 905.20 846.30 L 907.70 848.60 L 912.90 852.40 L 920.50 856.50 L 912.90 860.60 L 907.70 864.40 L 905.20 866.70 L 902.90 869.20 L 899.10 874.40 L 895.00 882.00 L 890.90 874.40 L 887.10 869.20 L 884.80 866.70 L 882.30 864.40 L 877.10 860.60 L 869.50 856.50 L 877.10 852.40 L 882.30 848.60 L 884.80 846.30 L 887.10 843.80 L 890.90 838.60 L 895.00 831.00 Z" fill="#c00121" fill-rule="nonzero" group-id="1,5" node-id="111" stroke="none" target-height="51" target-width="51" target-x="869.5" target-y="831"></path><path d="M 913.50 364.70 L 897.80 354.00 L 896.50 353.30 L 895.00 353.10 L 893.50 353.30 L 892.20 354.00 L 876.50 364.70 L 881.90 346.60 L 882.10 345.10 L 881.90 343.60 L 881.20 342.30 L 880.20 341.20 L 865.10 329.70 L 884.10 329.20 L 885.60 328.90 L 886.90 328.20 L 887.90 327.20 L 888.70 325.90 L 895.00 308.00 L 901.30 325.90 L 902.10 327.20 L 903.10 328.20 L 904.40 328.90 L 905.90 329.20 L 924.90 329.70 L 909.80 341.20 L 908.80 342.30 L 908.10 343.60 L 907.90 345.10 L 908.10 346.60 L 913.50 364.70 Z" fill="#fbb84e" fill-rule="nonzero" group-id="1,6" node-id="115" stroke="none" target-height="56.700012" target-width="59.80005" target-x="865.1" target-y="308"></path><path d="M 895.00 317.00 L 891.50 326.90 L 890.80 328.30 L 888.60 330.60 L 885.80 332.00 L 884.20 332.20 L 873.70 332.40 L 882.00 338.80 L 883.20 339.90 L 884.70 342.70 L 885.10 345.80 L 884.80 347.40 L 881.80 357.50 L 890.50 351.50 L 891.90 350.70 L 895.00 350.10 L 898.10 350.70 L 899.50 351.50 L 908.20 357.50 L 905.20 347.40 L 904.90 345.80 L 905.30 342.70 L 906.80 339.90 L 908.00 338.80 L 916.30 332.40 L 905.80 332.20 L 904.20 332.00 L 901.40 330.60 L 899.20 328.30 L 898.50 326.90 L 895.00 317.00 M 895.00 303.00 L 896.10 303.30 L 896.90 304.30 L 904.20 324.90 L 904.90 325.80 L 906.00 326.20 L 927.80 326.70 L 928.70 326.90 L 929.70 328.10 L 929.60 329.70 L 929.00 330.30 L 911.70 343.60 L 911.00 344.50 L 911.00 345.70 L 917.20 366.60 L 917.00 368.20 L 915.70 369.10 L 914.10 368.80 L 896.10 356.50 L 895.00 356.10 L 893.90 356.50 L 875.90 368.80 L 875.00 369.10 L 873.60 368.80 L 872.80 367.50 L 872.80 366.60 L 879.00 345.70 L 879.00 344.50 L 878.30 343.60 L 860.40 329.70 L 860.20 328.90 L 860.70 327.40 L 862.20 326.70 L 884.00 326.20 L 885.10 325.80 L 885.80 324.90 L 893.10 304.30 L 893.90 303.30 L 895.00 303.00 Z" fill="#c00121" fill-rule="nonzero" group-id="1,6" node-id="117" stroke="none" target-height="66.100006" target-width="69.5" target-x="860.2" target-y="303"></path><path d="M 501.60 964.80 L 502.90 963.60 L 504.10 963.60 L 505.10 964.30 L 510.50 979.40 L 511.30 980.40 L 512.40 980.70 L 527.80 981.10 L 529.00 981.50 L 529.70 982.50 L 529.70 983.70 L 529.00 984.70 L 516.70 994.10 L 516.00 995.10 L 516.00 996.30 L 520.40 1011.10 L 520.40 1012.30 L 519.70 1013.30 L 519.10 1013.60 L 517.40 1013.30 L 504.60 1004.50 L 503.50 1004.20 L 502.40 1004.50 L 489.60 1013.30 L 487.90 1013.60 L 486.90 1012.80 L 486.60 1011.10 L 491.00 996.30 L 491.00 995.10 L 490.30 994.10 L 478.00 984.70 L 477.30 983.70 L 477.30 982.50 L 478.00 981.50 L 479.20 981.10 L 494.60 980.70 L 495.80 980.40 L 496.50 979.40 Z" fill="none" group-id="1,7" node-id="121" stroke="none" target-height="50" target-width="52.400024" target-x="477.3" target-y="963.6"></path><path d="M 503.50 974.50 L 501.20 981.10 L 500.20 982.90 L 498.70 984.40 L 496.80 985.40 L 494.80 985.70 L 487.80 985.90 L 493.30 990.10 L 494.80 991.70 L 495.70 993.50 L 496.10 995.60 L 495.80 997.70 L 493.80 1004.40 L 499.50 1000.40 L 501.40 999.50 L 503.50 999.20 L 505.60 999.50 L 507.50 1000.40 L 513.20 1004.40 L 511.20 997.70 L 511.00 995.60 L 511.30 993.50 L 512.20 991.70 L 513.70 990.10 L 519.20 985.90 L 512.20 985.70 L 510.20 985.40 L 508.30 984.40 L 506.80 982.90 L 505.80 981.10 L 503.50 974.50 M 503.50 963.50 L 504.60 963.80 L 505.40 964.80 L 510.50 979.40 L 511.30 980.40 L 512.40 980.70 L 527.80 981.10 L 528.70 981.30 L 529.70 982.50 L 529.60 984.00 L 529.00 984.70 L 516.70 994.10 L 516.00 995.10 L 516.00 996.30 L 520.40 1011.10 L 520.20 1012.70 L 519.00 1013.60 L 517.40 1013.30 L 504.60 1004.50 L 503.50 1004.20 L 502.40 1004.50 L 489.60 1013.30 L 488.80 1013.60 L 487.30 1013.30 L 486.50 1012.00 L 486.60 1011.10 L 491.00 996.30 L 491.00 995.10 L 490.30 994.10 L 477.40 984.00 L 477.20 983.30 L 477.70 981.80 L 479.20 981.10 L 494.60 980.70 L 495.70 980.40 L 496.50 979.40 L 501.60 964.80 L 502.40 963.80 L 503.50 963.50 Z" fill="#c00121" fill-rule="nonzero" group-id="1,7" node-id="123" stroke="none" target-height="50.099976" target-width="52.5" target-x="477.2" target-y="963.5"></path><path d="M 305.00 857.00 L 310.40 877.80 L 332.00 876.50 L 313.70 888.00 L 321.70 908.00 L 305.00 894.30 L 288.30 908.00 L 296.30 888.00 L 278.00 876.50 L 299.60 877.80 Z" fill="#fbb84e" fill-rule="nonzero" group-id="1,8" id="多边形_3" node-id="27" stroke="none" target-height="51" target-width="54" target-x="278" target-y="857"></path><path d="M 56.00 96.50 L 56.70 102.80 L 57.40 105.50 L 58.40 108.40 L 59.80 111.10 L 61.70 113.40 L 64.00 115.30 L 66.70 116.70 L 69.50 117.70 L 72.20 118.30 L 78.60 119.00 L 72.20 119.70 L 69.50 120.40 L 66.70 121.40 L 64.00 122.80 L 61.70 124.70 L 59.80 127.00 L 58.40 129.70 L 57.40 132.50 L 56.70 135.20 L 56.00 141.60 L 55.30 135.20 L 54.70 132.50 L 53.70 129.70 L 52.30 127.00 L 50.40 124.70 L 48.10 122.80 L 45.40 121.40 L 42.50 120.40 L 39.80 119.70 L 33.50 119.00 L 39.80 118.30 L 42.50 117.70 L 45.40 116.70 L 48.10 115.30 L 50.40 113.40 L 52.30 111.10 L 53.70 108.40 L 54.70 105.50 L 55.30 102.80 L 56.00 96.50 Z" fill="#fbb84e" fill-rule="nonzero" group-id="1,9" id="路径_1" node-id="28" stroke="none" target-height="45.100006" target-width="45.1" target-x="33.5" target-y="96.5"></path><path d="M 734.00 -28.00 L 735.10 -17.80 L 737.10 -10.60 L 738.70 -7.00 L 740.70 -3.60 L 743.10 -0.60 L 746.10 1.80 L 749.50 3.80 L 753.10 5.40 L 760.30 7.40 L 770.50 8.50 L 760.30 9.60 L 753.10 11.60 L 749.50 13.20 L 746.10 15.20 L 743.10 17.60 L 740.70 20.60 L 738.70 24.00 L 737.10 27.60 L 735.10 34.80 L 734.00 45.00 L 732.90 34.80 L 730.90 27.60 L 729.30 24.00 L 727.30 20.60 L 724.90 17.60 L 721.90 15.20 L 718.50 13.20 L 714.90 11.60 L 707.70 9.60 L 697.50 8.50 L 707.70 7.40 L 714.90 5.40 L 718.50 3.80 L 721.90 1.80 L 724.90 -0.60 L 727.30 -3.60 L 729.30 -7.00 L 730.90 -10.60 L 732.90 -17.80 L 734.00 -28.00 Z" fill="#fbb84e" fill-rule="nonzero" group-id="1,10" id="路径_2" node-id="29" stroke="none" target-height="73" target-width="73" target-x="697.5" target-y="-28"></path><path d="M 786.20 1024.00 L 787.50 1020.60 L 790.10 1016.40 L 793.30 1013.60 L 796.50 1012.70 L 798.10 1012.90 L 800.10 1013.60 L 802.40 1015.00 L 804.50 1016.80 L 806.90 1019.60 L 809.80 1023.50 L 812.30 1010.10 L 814.20 1003.60 L 818.10 994.10 L 821.60 988.50 L 823.70 986.30 L 825.70 985.00 L 827.80 984.20 L 829.30 984.10 L 831.00 984.40 L 832.70 985.30 L 834.60 986.70 L 836.70 989.00 L 839.20 992.70 L 841.90 997.90 L 844.10 1003.40 L 846.60 1010.50 L 849.30 1019.70 L 851.50 1015.30 L 853.50 1012.30 L 855.20 1010.40 L 857.20 1008.90 L 858.90 1008.30 L 860.50 1008.20 L 863.50 1009.40 L 866.60 1012.80 L 868.00 1015.30 L 869.50 1019.70" fill="none" group-id="1,11" id="路径_5" node-id="30" stroke="#fbb84e" stroke-linecap="round" stroke-width="6" target-height="39.900024" target-width="83.29999" target-x="786.2" target-y="984.1"></path><path d="M 108.80 479.50 L 110.20 476.10 L 112.80 471.90 L 115.90 469.10 L 119.10 468.30 L 120.80 468.40 L 122.80 469.10 L 125.10 470.60 L 127.10 472.40 L 129.60 475.10 L 132.50 479.10 L 133.50 472.30 L 135.00 465.60 L 136.90 459.10 L 140.70 449.60 L 144.30 444.10 L 146.40 441.90 L 148.40 440.50 L 150.40 439.80 L 152.00 439.70 L 153.60 440.00 L 155.40 440.80 L 157.30 442.30 L 159.40 444.60 L 161.80 448.20 L 164.50 453.50 L 166.80 458.90 L 169.30 466.00 L 171.90 475.20 L 174.20 470.80 L 176.10 467.80 L 177.80 466.00 L 179.80 464.50 L 181.60 463.80 L 183.10 463.80 L 186.10 465.00 L 189.30 468.40 L 190.60 470.80 L 192.20 475.20" fill="none" group-id="1,12" id="路径_6" node-id="31" stroke="#fbb84e" stroke-linecap="round" stroke-width="6" target-height="39.799988" target-width="83.399994" target-x="108.8" target-y="439.7"></path><path d="M 568.00 169.20 L 891.80 493.00 L 895.50 497.10 L 898.70 501.40 L 901.30 505.90 L 903.50 510.60 L 905.20 515.50 L 906.40 520.40 L 907.10 525.40 L 907.40 530.50 L 907.10 535.60 L 906.40 540.60 L 905.20 545.50 L 903.50 550.40 L 901.30 555.10 L 898.70 559.60 L 895.50 563.90 L 891.80 568.00 L 568.00 891.80 L 563.90 895.50 L 559.60 898.70 L 555.10 901.30 L 550.40 903.50 L 545.50 905.20 L 540.60 906.40 L 535.60 907.10 L 530.50 907.40 L 525.40 907.10 L 520.40 906.40 L 515.50 905.20 L 510.60 903.50 L 505.90 901.30 L 501.40 898.70 L 497.10 895.50 L 493.00 891.80 L 169.20 568.00 L 165.50 563.90 L 162.30 559.60 L 159.70 555.10 L 157.50 550.40 L 155.80 545.50 L 154.60 540.60 L 153.90 535.60 L 153.60 530.50 L 153.90 525.40 L 154.60 520.40 L 155.80 515.50 L 157.50 510.60 L 159.70 505.90 L 162.30 501.40 L 165.50 497.10 L 169.20 493.00 L 493.00 169.20 L 497.10 165.50 L 501.40 162.30 L 505.90 159.70 L 510.60 157.50 L 515.50 155.80 L 520.40 154.60 L 525.40 153.90 L 530.50 153.60 L 535.60 153.90 L 540.60 154.60 L 545.50 155.80 L 550.40 157.50 L 555.10 159.70 L 559.60 162.30 L 563.90 165.50 L 568.00 169.20 Z" fill="#f9d4c1" fill-rule="nonzero" group-id="2,13" id="矩形_56" node-id="33" stroke="none" target-height="753.80005" target-width="753.80005" target-x="153.6" target-y="153.6"></path><path d="M 531.00 132.20 L 854.80 456.00 L 858.50 460.10 L 861.70 464.40 L 864.30 468.90 L 866.50 473.60 L 868.20 478.50 L 869.40 483.40 L 870.10 488.40 L 870.40 493.50 L 870.10 498.60 L 869.40 503.60 L 868.20 508.50 L 866.50 513.40 L 864.30 518.10 L 861.70 522.60 L 858.50 526.90 L 854.80 531.00 L 531.00 854.80 L 526.90 858.50 L 522.60 861.70 L 518.10 864.30 L 513.40 866.50 L 508.50 868.20 L 503.60 869.40 L 498.60 870.10 L 493.50 870.40 L 488.40 870.10 L 483.40 869.40 L 478.50 868.20 L 473.60 866.50 L 468.90 864.30 L 464.40 861.70 L 460.10 858.50 L 456.00 854.80 L 132.20 531.00 L 128.50 526.90 L 125.30 522.60 L 122.70 518.10 L 120.50 513.40 L 118.80 508.50 L 117.60 503.60 L 116.90 498.60 L 116.60 493.50 L 116.90 488.40 L 117.60 483.40 L 118.80 478.50 L 120.50 473.60 L 122.70 468.90 L 125.30 464.40 L 128.50 460.10 L 132.20 456.00 L 456.00 132.20 L 460.10 128.50 L 464.40 125.30 L 468.90 122.70 L 473.60 120.50 L 478.50 118.80 L 483.40 117.60 L 488.40 116.90 L 493.50 116.60 L 498.60 116.90 L 503.60 117.60 L 508.50 118.80 L 513.40 120.50 L 518.10 122.70 L 522.60 125.30 L 526.90 128.50 L 531.00 132.20 Z" fill="#53c3a8" fill-rule="nonzero" group-id="2,14" node-id="153" stroke="none" target-height="753.80005" target-width="753.80005" target-x="116.6" target-y="116.6"></path><path d="M 526.70 136.40 L 850.60 460.30 L 853.90 463.90 L 856.60 467.70 L 859.00 471.70 L 860.90 475.80 L 862.40 480.20 L 863.50 484.50 L 864.10 489.00 L 864.40 493.50 L 864.10 498.00 L 863.50 502.50 L 862.40 506.80 L 860.90 511.20 L 859.00 515.30 L 856.60 519.30 L 853.90 523.10 L 850.60 526.70 L 526.70 850.60 L 523.10 853.90 L 519.30 856.60 L 515.30 859.00 L 511.20 860.90 L 506.80 862.40 L 502.50 863.50 L 498.00 864.10 L 493.50 864.40 L 489.00 864.10 L 484.50 863.50 L 480.20 862.40 L 475.80 860.90 L 471.70 859.00 L 467.70 856.60 L 463.90 853.90 L 460.30 850.60 L 136.40 526.70 L 133.10 523.10 L 130.40 519.30 L 128.00 515.30 L 126.10 511.20 L 124.60 506.80 L 123.50 502.50 L 122.90 498.00 L 122.60 493.50 L 122.90 489.00 L 123.50 484.50 L 124.60 480.20 L 126.10 475.80 L 128.00 471.70 L 130.40 467.70 L 133.10 463.90 L 136.40 460.30 L 460.30 136.40 L 463.90 133.10 L 467.70 130.40 L 471.70 128.00 L 475.80 126.10 L 480.20 124.60 L 484.50 123.50 L 489.00 122.90 L 493.50 122.60 L 498.00 122.90 L 502.50 123.50 L 506.80 124.60 L 511.20 126.10 L 515.30 128.00 L 519.30 130.40 L 523.10 133.10 L 526.70 136.40 Z" fill="none" group-id="2,14" node-id="155" stroke="#2d082b" stroke-linecap="butt" stroke-width="12" target-height="741.80005" target-width="741.80005" target-x="122.6" target-y="122.6"></path><g clip-path="url(#clip-path)" group-id="2,15" id="蒙版组_23" node-id="37"><path d="M 826.90 408.00 L 488.60 744.60 L 492.60 931.40 L 920.70 503.40 Z" fill="#268c80" fill-rule="nonzero" group-id="2,15" id="路径_138" node-id="38" stroke="none" target-height="523.4" target-width="432.1" target-x="488.6" target-y="408"></path><path d="M 154.00 552.80 L 132.20 531.00 L 128.60 527.10 L 125.50 522.90 L 122.90 518.50 L 120.70 513.80 L 118.90 508.90 L 117.70 503.90 L 116.90 498.80 L 116.60 493.50 L 116.90 488.20 L 117.70 483.10 L 118.90 478.10 L 120.70 473.20 L 122.90 468.50 L 125.50 464.10 L 128.60 459.90 L 132.20 456.00 L 456.00 132.20 L 459.60 128.90 L 463.30 126.10 L 467.30 123.60 L 471.30 121.50 L 480.00 118.40 L 488.90 116.80 L 498.00 116.80 L 507.00 118.40 L 511.40 119.70 L 515.70 121.50 L 519.80 123.60 L 523.90 126.20 L 519.90 127.70 L 512.30 131.50 L 505.40 136.50 L 502.20 139.40 L 158.60 483.00 L 155.20 486.70 L 152.30 490.60 L 149.80 494.70 L 147.60 498.90 L 145.90 503.30 L 144.60 507.80 L 143.70 512.40 L 143.20 517.10 L 143.10 521.80 L 143.40 526.40 L 144.10 531.00 L 145.30 535.70 L 146.80 540.10 L 148.80 544.50 L 151.20 548.70 L 154.00 552.80 Z" fill="#c1f8f6" fill-rule="nonzero" group-id="2,15,24" id="减去_27" node-id="39" stroke="none" target-height="436" target-width="407.30002" target-x="116.6" target-y="116.8"></path><path d="M 290.60 249.50 L 737.50 696.40 L 696.40 737.50 L 249.50 290.60 Z" fill="#f3cb47" fill-rule="nonzero" group-id="2,15,25" node-id="165" stroke="none" target-height="488" target-width="488" target-x="249.5" target-y="249.5"></path><path d="M 290.60 255.20 L 731.80 696.40 L 696.40 731.80 L 255.20 290.60 Z" fill="none" group-id="2,15,25" node-id="167" stroke="#2d082b" stroke-linecap="butt" stroke-width="8" target-height="476.59998" target-width="476.59998" target-x="255.2" target-y="255.2"></path><path d="M 737.50 290.60 L 290.60 737.50 L 249.50 696.40 L 696.40 249.50 Z" fill="#f3cb47" fill-rule="nonzero" group-id="2,15,26" node-id="171" stroke="none" target-height="488" target-width="488" target-x="249.5" target-y="249.5"></path><path d="M 731.80 290.60 L 290.60 731.80 L 255.20 696.40 L 696.40 255.20 Z" fill="none" group-id="2,15,26" node-id="173" stroke="#2d082b" stroke-linecap="butt" stroke-width="8" target-height="476.59998" target-width="476.59998" target-x="255.2" target-y="255.2"></path></g><path d="M 531.00 132.20 L 854.80 456.00 L 858.50 460.10 L 861.70 464.40 L 864.30 468.90 L 866.50 473.60 L 868.20 478.50 L 869.40 483.40 L 870.10 488.40 L 870.40 493.50 L 870.10 498.60 L 869.40 503.60 L 868.20 508.50 L 866.50 513.40 L 864.30 518.10 L 861.70 522.60 L 858.50 526.90 L 854.80 531.00 L 531.00 854.80 L 526.90 858.50 L 522.60 861.70 L 518.10 864.30 L 513.40 866.50 L 508.50 868.20 L 503.60 869.40 L 498.60 870.10 L 493.50 870.40 L 488.40 870.10 L 483.40 869.40 L 478.50 868.20 L 473.60 866.50 L 468.90 864.30 L 464.40 861.70 L 460.10 858.50 L 456.00 854.80 L 132.20 531.00 L 128.50 526.90 L 125.30 522.60 L 122.70 518.10 L 120.50 513.40 L 118.80 508.50 L 117.60 503.60 L 116.90 498.60 L 116.60 493.50 L 116.90 488.40 L 117.60 483.40 L 118.80 478.50 L 120.50 473.60 L 122.70 468.90 L 125.30 464.40 L 128.50 460.10 L 132.20 456.00 L 456.00 132.20 L 460.10 128.50 L 464.40 125.30 L 468.90 122.70 L 473.60 120.50 L 478.50 118.80 L 483.40 117.60 L 488.40 116.90 L 493.50 116.60 L 498.60 116.90 L 503.60 117.60 L 508.50 118.80 L 513.40 120.50 L 518.10 122.70 L 522.60 125.30 L 526.90 128.50 L 531.00 132.20 Z" fill="none" group-id="2,16" node-id="178" stroke="none" target-height="753.80005" target-width="753.80005" target-x="116.6" target-y="116.6"></path><path d="M 526.70 136.40 L 850.60 460.30 L 853.90 463.90 L 856.60 467.70 L 859.00 471.70 L 860.90 475.80 L 862.40 480.20 L 863.50 484.50 L 864.10 489.00 L 864.40 493.50 L 864.10 498.00 L 863.50 502.50 L 862.40 506.80 L 860.90 511.20 L 859.00 515.30 L 856.60 519.30 L 853.90 523.10 L 850.60 526.70 L 526.70 850.60 L 523.10 853.90 L 519.30 856.60 L 515.30 859.00 L 511.20 860.90 L 506.80 862.40 L 502.50 863.50 L 498.00 864.10 L 493.50 864.40 L 489.00 864.10 L 484.50 863.50 L 480.20 862.40 L 475.80 860.90 L 471.70 859.00 L 467.70 856.60 L 463.90 853.90 L 460.30 850.60 L 136.40 526.70 L 133.10 523.10 L 130.40 519.30 L 128.00 515.30 L 126.10 511.20 L 124.60 506.80 L 123.50 502.50 L 122.90 498.00 L 122.60 493.50 L 122.90 489.00 L 123.50 484.50 L 124.60 480.20 L 126.10 475.80 L 128.00 471.70 L 130.40 467.70 L 133.10 463.90 L 136.40 460.30 L 460.30 136.40 L 463.90 133.10 L 467.70 130.40 L 471.70 128.00 L 475.80 126.10 L 480.20 124.60 L 484.50 123.50 L 489.00 122.90 L 493.50 122.60 L 498.00 122.90 L 502.50 123.50 L 506.80 124.60 L 511.20 126.10 L 515.30 128.00 L 519.30 130.40 L 523.10 133.10 L 526.70 136.40 Z" fill="none" group-id="2,16" node-id="180" stroke="#2d082b" stroke-linecap="butt" stroke-width="12" target-height="741.80005" target-width="741.80005" target-x="122.6" target-y="122.6"></path><path d="M 514.00 241.10 L 745.90 473.00 L 748.60 476.00 L 750.70 479.20 L 752.30 482.60 L 753.50 486.20 L 754.20 489.80 L 754.40 493.50 L 754.20 497.20 L 753.50 500.80 L 752.30 504.40 L 750.70 507.80 L 748.60 511.00 L 745.90 514.00 L 514.00 745.90 L 511.00 748.60 L 507.80 750.70 L 504.40 752.30 L 500.80 753.50 L 497.20 754.20 L 493.50 754.40 L 489.80 754.20 L 486.20 753.50 L 482.60 752.30 L 479.20 750.70 L 476.00 748.60 L 473.00 745.90 L 241.10 514.00 L 238.40 511.00 L 236.30 507.80 L 234.70 504.40 L 233.50 500.80 L 232.80 497.20 L 232.60 493.50 L 232.80 489.80 L 233.50 486.20 L 234.70 482.60 L 236.30 479.20 L 238.40 476.00 L 241.10 473.00 L 473.00 241.10 L 476.00 238.40 L 479.20 236.30 L 482.60 234.70 L 486.20 233.50 L 489.80 232.80 L 493.50 232.60 L 497.20 232.80 L 500.80 233.50 L 504.40 234.70 L 507.80 236.30 L 511.00 238.40 L 514.00 241.10 Z" fill="#1f8e81" fill-rule="nonzero" group-id="2,17" node-id="184" stroke="none" target-height="521.80005" target-width="521.80005" target-x="232.6" target-y="232.6"></path><path d="M 509.80 245.30 L 741.70 477.20 L 743.80 479.70 L 746.80 484.80 L 748.20 490.60 L 748.20 496.40 L 746.80 502.20 L 745.50 504.80 L 741.70 509.80 L 509.80 741.70 L 507.30 743.80 L 504.80 745.50 L 502.20 746.80 L 499.30 747.70 L 493.50 748.40 L 487.70 747.70 L 484.80 746.80 L 479.70 743.80 L 477.20 741.70 L 245.30 509.80 L 243.20 507.30 L 240.20 502.20 L 238.80 496.40 L 238.80 490.60 L 240.20 484.80 L 241.50 482.20 L 245.30 477.20 L 477.20 245.30 L 479.70 243.20 L 484.80 240.20 L 487.70 239.30 L 493.50 238.60 L 499.30 239.30 L 502.20 240.20 L 507.30 243.20 L 509.80 245.30 Z" fill="none" group-id="2,17" node-id="186" stroke="#2d082b" stroke-linecap="butt" stroke-width="12" target-height="509.80002" target-width="509.40002" target-x="238.8" target-y="238.6"></path><path d="M 619.00 397.00 L 619.00 590.00 L 618.80 594.00 L 618.00 597.80 L 616.80 601.30 L 615.10 604.70 L 613.00 607.80 L 610.50 610.50 L 607.80 613.00 L 604.70 615.10 L 601.30 616.80 L 597.80 618.00 L 594.00 618.80 L 590.00 619.00 L 397.00 619.00 L 393.00 618.80 L 389.20 618.00 L 385.70 616.80 L 382.30 615.10 L 379.20 613.00 L 376.50 610.50 L 374.00 607.80 L 371.90 604.70 L 370.20 601.30 L 369.00 597.80 L 368.20 594.00 L 368.00 590.00 L 368.00 397.00 L 368.20 393.00 L 369.00 389.20 L 370.20 385.70 L 371.90 382.30 L 374.00 379.20 L 376.50 376.50 L 379.20 374.00 L 382.30 371.90 L 385.70 370.20 L 389.20 369.00 L 393.00 368.20 L 397.00 368.00 L 590.00 368.00 L 594.00 368.20 L 597.80 369.00 L 601.30 370.20 L 604.70 371.90 L 607.80 374.00 L 610.50 376.50 L 613.00 379.20 L 615.10 382.30 L 616.80 385.70 L 618.00 389.20 L 618.80 393.00 L 619.00 397.00 Z" fill="#f4e399" fill-rule="nonzero" group-id="2,18,27" node-id="191" stroke="none" target-height="251" target-width="251" target-x="368" target-y="368"></path><path d="M 613.00 397.00 L 613.00 590.00 L 612.80 593.20 L 612.20 596.20 L 611.20 599.00 L 608.20 604.10 L 604.10 608.20 L 599.00 611.20 L 596.20 612.20 L 590.00 613.00 L 397.00 613.00 L 393.80 612.80 L 390.80 612.20 L 388.00 611.20 L 382.90 608.20 L 378.80 604.10 L 377.10 601.60 L 374.80 596.20 L 374.20 593.20 L 374.00 590.00 L 374.00 397.00 L 374.20 393.80 L 375.80 388.00 L 378.80 382.90 L 382.90 378.80 L 388.00 375.80 L 390.80 374.80 L 397.00 374.00 L 590.00 374.00 L 593.20 374.20 L 596.20 374.80 L 599.00 375.80 L 601.60 377.10 L 604.10 378.80 L 608.20 382.90 L 611.20 388.00 L 612.20 390.80 L 612.80 393.80 L 613.00 397.00 Z" fill="none" group-id="2,18,27" node-id="193" stroke="#2d082b" stroke-linecap="butt" stroke-width="12" target-height="239" target-width="239" target-x="374" target-y="374"></path><g clip-path="url(#clip-path-2)" group-id="2,18,28" id="蒙版组_24" node-id="56"><path d="M 512.10 346.00 L 282.60 531.90 L 399.80 665.90 L 641.00 655.90 L 624.30 337.60 Z" fill="#f5ca4b" fill-rule="nonzero" group-id="2,18,28" id="路径_139" node-id="57" stroke="none" target-height="328.30002" target-width="358.4" target-x="282.6" target-y="337.6"></path><path d="M 585.40 398.30 L 356.00 584.30 L 473.20 718.20 L 714.40 708.20 L 697.60 390.00 Z" fill="#eeb758" fill-rule="nonzero" group-id="2,18,28,31" id="路径_140" node-id="58" stroke="none" target-height="328.2" target-width="358.40002" target-x="356" target-y="390"></path><path d="M 637.50 477.30 L 408.00 663.30 L 525.30 797.20 L 766.40 787.20 L 749.70 469.00 Z" fill="#efa231" fill-rule="nonzero" group-id="2,18,28,32" id="路径_141" node-id="59" stroke="none" target-height="328.2" target-width="358.40002" target-x="408" target-y="469"></path></g><path d="M 392.00 618.60 L 385.30 616.60 L 382.30 615.10 L 377.00 611.10 L 372.80 606.10 L 371.10 603.20 L 368.80 596.90 L 368.20 593.60 L 368.00 590.00 L 368.00 397.00 L 368.20 393.10 L 369.00 389.40 L 370.20 385.90 L 371.80 382.50 L 373.90 379.30 L 376.50 376.50 L 379.30 373.90 L 382.50 371.80 L 385.90 370.20 L 389.40 369.00 L 393.10 368.20 L 397.00 368.00 L 590.00 368.00 L 593.50 368.20 L 599.90 369.70 L 602.90 370.90 L 606.60 373.20 L 609.90 375.80 L 612.80 379.00 L 614.70 381.70 L 617.50 387.60 L 618.40 391.00 L 402.00 391.00 L 398.50 391.60 L 395.50 393.30 L 393.30 395.90 L 392.60 397.50 L 392.00 401.00 Z" fill="#fffffe" fill-rule="nonzero" group-id="2,18,29" id="减去_28" node-id="60" stroke="none" target-height="250.59998" target-width="250.40002" target-x="368" target-y="368"></path><path d="M 619.00 397.00 L 619.00 590.00 L 618.80 594.00 L 618.00 597.80 L 616.80 601.30 L 615.10 604.70 L 613.00 607.80 L 610.50 610.50 L 607.80 613.00 L 604.70 615.10 L 601.30 616.80 L 597.80 618.00 L 594.00 618.80 L 590.00 619.00 L 397.00 619.00 L 393.00 618.80 L 389.20 618.00 L 385.70 616.80 L 382.30 615.10 L 379.20 613.00 L 376.50 610.50 L 374.00 607.80 L 371.90 604.70 L 370.20 601.30 L 369.00 597.80 L 368.20 594.00 L 368.00 590.00 L 368.00 397.00 L 368.20 393.00 L 369.00 389.20 L 370.20 385.70 L 371.90 382.30 L 374.00 379.20 L 376.50 376.50 L 379.20 374.00 L 382.30 371.90 L 385.70 370.20 L 389.20 369.00 L 393.00 368.20 L 397.00 368.00 L 590.00 368.00 L 594.00 368.20 L 597.80 369.00 L 601.30 370.20 L 604.70 371.90 L 607.80 374.00 L 610.50 376.50 L 613.00 379.20 L 615.10 382.30 L 616.80 385.70 L 618.00 389.20 L 618.80 393.00 L 619.00 397.00 Z" fill="none" group-id="2,18,30" node-id="212" stroke="none" target-height="251" target-width="251" target-x="368" target-y="368"></path><path d="M 613.00 397.00 L 613.00 590.00 L 612.80 593.20 L 612.20 596.20 L 611.20 599.00 L 608.20 604.10 L 604.10 608.20 L 599.00 611.20 L 596.20 612.20 L 590.00 613.00 L 397.00 613.00 L 393.80 612.80 L 390.80 612.20 L 388.00 611.20 L 382.90 608.20 L 378.80 604.10 L 377.10 601.60 L 374.80 596.20 L 374.20 593.20 L 374.00 590.00 L 374.00 397.00 L 374.20 393.80 L 375.80 388.00 L 378.80 382.90 L 382.90 378.80 L 388.00 375.80 L 390.80 374.80 L 397.00 374.00 L 590.00 374.00 L 593.20 374.20 L 596.20 374.80 L 599.00 375.80 L 601.60 377.10 L 604.10 378.80 L 608.20 382.90 L 611.20 388.00 L 612.20 390.80 L 612.80 393.80 L 613.00 397.00 Z" fill="none" group-id="2,18,30" node-id="214" stroke="#2d082b" stroke-linecap="butt" stroke-width="12" target-height="239" target-width="239" target-x="374" target-y="374"></path><path d="M 493.50 368.00 L 493.50 613.30" fill="none" group-id="2" id="路径_142" node-id="64" stroke="#2d082b" stroke-linecap="butt" stroke-width="12" target-height="245.29999" target-width="0" target-x="493.5" target-y="368"></path><path d="M 619.00 493.50 L 373.70 493.50" fill="none" group-id="2,19" id="路径_143" node-id="65" stroke="#2d082b" stroke-linecap="butt" stroke-width="12" target-height="0" target-width="245.29999" target-x="373.7" target-y="493.5"></path><path d="M 496.30 701.10 L 494.80 696.40 L 493.00 692.40 L 491.00 688.80 L 488.90 685.70 L 486.50 683.10 L 483.80 680.70 L 480.80 678.50 L 477.20 676.60 L 473.10 674.80 L 468.50 673.20 L 473.10 671.70 L 477.20 669.90 L 480.80 667.90 L 483.80 665.70 L 486.50 663.40 L 488.90 660.70 L 491.00 657.60 L 493.00 654.10 L 494.80 650.00 L 496.30 645.30 L 497.90 650.00 L 499.70 654.10 L 501.70 657.60 L 503.80 660.70 L 506.20 663.40 L 508.90 665.70 L 511.90 667.90 L 515.50 669.90 L 519.60 671.70 L 524.20 673.20 L 519.60 674.80 L 515.50 676.60 L 511.90 678.50 L 508.90 680.70 L 506.20 683.10 L 503.80 685.70 L 501.70 688.80 L 499.70 692.40 L 497.90 696.40 L 496.30 701.10 Z" fill="#fbb84e" fill-rule="nonzero" group-id="2,20" node-id="224" stroke="none" target-height="55.799988" target-width="55.700012" target-x="468.5" target-y="645.3"></path><path d="M 496.30 654.00 L 493.00 660.10 L 488.60 665.50 L 483.20 669.90 L 477.10 673.20 L 483.20 676.60 L 488.60 680.90 L 493.00 686.40 L 496.30 692.50 L 499.70 686.40 L 504.10 680.90 L 509.50 676.60 L 515.60 673.20 L 509.50 669.90 L 504.10 665.50 L 499.70 660.10 L 496.30 654.00 M 496.30 625.30 L 497.10 634.50 L 497.80 638.70 L 500.40 648.20 L 502.50 652.90 L 504.10 655.90 L 508.30 661.20 L 513.60 665.40 L 516.60 667.10 L 521.40 669.10 L 530.90 671.70 L 535.00 672.40 L 544.20 673.20 L 535.00 674.00 L 530.90 674.70 L 521.40 677.30 L 516.60 679.30 L 513.60 681.00 L 508.30 685.20 L 504.10 690.50 L 502.50 693.50 L 500.40 698.20 L 497.80 707.70 L 497.10 711.90 L 496.30 721.10 L 495.60 711.90 L 494.90 707.70 L 492.30 698.20 L 490.20 693.50 L 488.60 690.50 L 484.40 685.20 L 479.10 681.00 L 476.00 679.30 L 471.30 677.30 L 461.80 674.70 L 457.70 674.00 L 448.50 673.20 L 457.70 672.40 L 461.80 671.70 L 471.30 669.10 L 476.00 667.10 L 479.10 665.40 L 484.40 661.20 L 488.60 655.90 L 490.20 652.90 L 492.30 648.20 L 494.90 638.70 L 495.60 634.50 L 496.30 625.30 Z" fill="#2f1033" fill-rule="nonzero" group-id="2,20" node-id="226" stroke="none" target-height="95.79999" target-width="95.70001" target-x="448.5" target-y="625.3"></path><path d="M 496.30 348.00 L 494.80 343.30 L 493.00 339.20 L 491.00 335.70 L 488.90 332.60 L 486.50 329.90 L 483.80 327.60 L 480.80 325.40 L 477.20 323.40 L 473.10 321.60 L 468.50 320.10 L 473.10 318.50 L 477.20 316.70 L 480.80 314.80 L 483.80 312.60 L 486.50 310.20 L 488.90 307.60 L 491.00 304.50 L 493.00 300.90 L 494.80 296.90 L 496.30 292.20 L 497.90 296.90 L 499.70 300.90 L 501.70 304.50 L 503.80 307.60 L 506.20 310.20 L 508.90 312.60 L 511.90 314.80 L 515.50 316.70 L 519.60 318.50 L 524.20 320.10 L 519.60 321.60 L 515.50 323.40 L 511.90 325.40 L 508.90 327.60 L 506.20 329.90 L 503.80 332.60 L 501.70 335.70 L 499.70 339.20 L 497.90 343.30 L 496.30 348.00 Z" fill="#fbb84e" fill-rule="nonzero" group-id="2,21" node-id="230" stroke="none" target-height="55.799988" target-width="55.700012" target-x="468.5" target-y="292.2"></path><path d="M 496.30 300.80 L 493.00 306.90 L 488.60 312.40 L 483.20 316.70 L 477.10 320.10 L 483.20 323.40 L 488.60 327.80 L 493.00 333.20 L 496.30 339.30 L 499.70 333.20 L 504.10 327.80 L 509.50 323.40 L 515.60 320.10 L 509.50 316.70 L 504.10 312.40 L 499.70 306.90 L 496.30 300.80 M 496.30 272.20 L 497.10 281.40 L 497.80 285.60 L 500.40 295.10 L 502.50 299.80 L 504.10 302.80 L 508.30 308.10 L 513.60 312.30 L 516.60 314.00 L 521.40 316.00 L 530.90 318.60 L 535.00 319.30 L 544.20 320.10 L 535.00 320.80 L 530.90 321.60 L 521.40 324.20 L 516.60 326.20 L 513.60 327.90 L 508.30 332.10 L 504.10 337.40 L 502.50 340.40 L 500.40 345.10 L 497.80 354.60 L 497.10 358.80 L 496.30 368.00 L 495.60 358.80 L 494.90 354.60 L 492.30 345.10 L 490.20 340.40 L 488.60 337.40 L 484.40 332.10 L 479.10 327.90 L 476.00 326.20 L 471.30 324.20 L 461.80 321.60 L 457.70 320.80 L 448.50 320.10 L 457.70 319.30 L 461.80 318.60 L 471.30 316.00 L 476.00 314.00 L 479.10 312.30 L 484.40 308.10 L 488.60 302.80 L 490.20 299.80 L 492.30 295.10 L 494.90 285.60 L 495.60 281.40 L 496.30 272.20 Z" fill="#2f1033" fill-rule="nonzero" group-id="2,21" node-id="232" stroke="none" target-height="95.79999" target-width="95.70001" target-x="448.5" target-y="272.2"></path><path d="M 307.30 518.50 L 305.80 513.90 L 304.00 509.80 L 302.00 506.20 L 299.90 503.20 L 297.50 500.50 L 294.80 498.10 L 291.80 496.00 L 288.20 494.00 L 284.10 492.20 L 279.50 490.70 L 284.10 489.10 L 288.20 487.30 L 291.80 485.30 L 294.80 483.20 L 297.50 480.80 L 299.90 478.10 L 302.00 475.10 L 304.00 471.50 L 305.80 467.40 L 307.30 462.80 L 308.90 467.40 L 310.70 471.50 L 312.70 475.10 L 314.80 478.10 L 317.20 480.80 L 319.90 483.20 L 322.90 485.30 L 326.50 487.30 L 330.60 489.10 L 335.20 490.70 L 330.60 492.20 L 326.50 494.00 L 322.90 496.00 L 319.90 498.10 L 317.20 500.50 L 314.80 503.20 L 312.70 506.20 L 310.70 509.80 L 308.90 513.90 L 307.30 518.50 Z" fill="#fbb84e" fill-rule="nonzero" group-id="2,22" node-id="236" stroke="none" target-height="55.700012" target-width="55.700012" target-x="279.5" target-y="462.8"></path><path d="M 307.30 471.40 L 304.00 477.50 L 299.60 482.90 L 294.20 487.30 L 288.10 490.70 L 294.20 494.00 L 299.60 498.40 L 304.00 503.80 L 307.30 509.90 L 310.70 503.80 L 315.10 498.40 L 320.50 494.00 L 326.60 490.70 L 320.50 487.30 L 315.10 482.90 L 310.70 477.50 L 307.30 471.40 M 307.30 442.80 L 308.10 452.00 L 308.80 456.10 L 311.40 465.60 L 313.50 470.30 L 315.10 473.40 L 319.30 478.70 L 324.60 482.90 L 327.60 484.50 L 332.40 486.60 L 341.90 489.20 L 346.00 489.90 L 355.20 490.70 L 346.00 491.40 L 341.90 492.10 L 332.40 494.70 L 327.60 496.80 L 324.60 498.40 L 319.30 502.60 L 315.10 507.90 L 313.50 511.00 L 311.40 515.70 L 308.80 525.20 L 308.10 529.30 L 307.30 538.50 L 306.60 529.30 L 305.90 525.20 L 303.30 515.70 L 301.20 511.00 L 299.60 507.90 L 295.40 502.60 L 290.10 498.40 L 287.00 496.80 L 282.30 494.70 L 272.80 492.10 L 268.70 491.40 L 259.50 490.70 L 268.70 489.90 L 272.80 489.20 L 282.30 486.60 L 287.00 484.50 L 290.10 482.90 L 295.40 478.70 L 299.60 473.40 L 301.20 470.30 L 303.30 465.60 L 305.90 456.10 L 306.60 452.00 L 307.30 442.80 Z" fill="#2f1033" fill-rule="nonzero" group-id="2,22" node-id="238" stroke="none" target-height="95.70001" target-width="95.70001" target-x="259.5" target-y="442.8"></path><path d="M 677.30 518.50 L 675.80 513.90 L 674.00 509.80 L 672.00 506.20 L 669.90 503.20 L 667.50 500.50 L 664.80 498.10 L 661.80 496.00 L 658.20 494.00 L 654.10 492.20 L 649.50 490.70 L 654.10 489.10 L 658.20 487.30 L 661.80 485.30 L 664.80 483.20 L 667.50 480.80 L 669.90 478.10 L 672.00 475.10 L 674.00 471.50 L 675.80 467.40 L 677.30 462.80 L 678.90 467.40 L 680.70 471.50 L 682.70 475.10 L 684.80 478.10 L 687.20 480.80 L 689.90 483.20 L 692.90 485.30 L 696.50 487.30 L 700.60 489.10 L 705.20 490.70 L 700.60 492.20 L 696.50 494.00 L 692.90 496.00 L 689.90 498.10 L 687.20 500.50 L 684.80 503.20 L 682.70 506.20 L 680.70 509.80 L 678.90 513.90 L 677.30 518.50 Z" fill="#fbb84e" fill-rule="nonzero" group-id="2,23" node-id="242" stroke="none" target-height="55.700012" target-width="55.700012" target-x="649.5" target-y="462.8"></path><path d="M 677.30 471.40 L 674.00 477.50 L 669.60 482.90 L 664.20 487.30 L 658.10 490.70 L 664.20 494.00 L 669.60 498.40 L 674.00 503.80 L 677.30 509.90 L 680.70 503.80 L 685.10 498.40 L 690.50 494.00 L 696.60 490.70 L 690.50 487.30 L 685.10 482.90 L 680.70 477.50 L 677.30 471.40 M 677.30 442.80 L 678.10 452.00 L 678.80 456.10 L 681.40 465.60 L 683.50 470.30 L 685.10 473.40 L 689.30 478.70 L 694.60 482.90 L 697.60 484.50 L 702.40 486.60 L 711.90 489.20 L 716.00 489.90 L 725.20 490.70 L 716.00 491.40 L 711.90 492.10 L 702.40 494.70 L 697.60 496.80 L 694.60 498.40 L 689.30 502.60 L 685.10 507.90 L 683.50 511.00 L 681.40 515.70 L 678.80 525.20 L 678.10 529.30 L 677.30 538.50 L 676.60 529.30 L 675.90 525.20 L 673.30 515.70 L 671.20 511.00 L 669.60 507.90 L 665.40 502.60 L 660.10 498.40 L 657.00 496.80 L 652.30 494.70 L 642.80 492.10 L 638.70 491.40 L 629.50 490.70 L 638.70 489.90 L 642.80 489.20 L 652.30 486.60 L 657.00 484.50 L 660.10 482.90 L 665.40 478.70 L 669.60 473.40 L 671.20 470.30 L 673.30 465.60 L 675.90 456.10 L 676.60 452.00 L 677.30 442.80 Z" fill="#2f1033" fill-rule="nonzero" group-id="2,23" node-id="244" stroke="none" target-height="95.70001" target-width="95.70001" target-x="629.5" target-y="442.8"></path></g></svg>