<?xml version="1.0" standalone="no"?><!DOCTYPE svg PUBLIC "-//W3C//DTD SVG 1.1//EN" "http://www.w3.org/Graphics/SVG/1.1/DTD/svg11.dtd"><svg t="1737183710009" class="icon" viewBox="0 0 1024 1024" version="1.1" xmlns="http://www.w3.org/2000/svg" p-id="1506" xmlns:xlink="http://www.w3.org/1999/xlink" width="200" height="200"><path d="M583.111111 113.777778h-56.888889c-56.888889 47.402667-85.333333 123.264-85.333333 227.555555 0 156.444444 152.888889 106.666667 113.777778 0-26.069333-71.111111-16.597333-146.958222 28.444444-227.555555z" fill="#89AD05" p-id="1507"></path><path d="M526.222222 85.333333h56.888889c21.717333 0 35.413333 23.367111 24.832 42.325334-40.078222 71.722667-49.137778 137.386667-28.373333 198.784l1.806222 5.091555c23.665778 64.568889-7.836444 126.008889-63.715556 136.433778C458.012444 479.104 412.444444 427.079111 412.444444 341.333333c0-112.071111 31.459556-195.982222 95.573334-249.400889A28.444444 28.444444 0 0 1 526.222222 85.333333z m10.752 56.888889l-2.816 2.688C491.249778 186.865778 469.333333 251.719111 469.333333 341.333333c0 53.731556 18.104889 74.396444 37.888 70.698667 19.427556-3.612444 31.857778-26.766222 21.816889-57.784889l-3.000889-8.533333c-21.717333-63.331556-18.360889-129.792 9.386667-198.414222l2.104889-5.077334h-0.554667z" fill="#191919" p-id="1508"></path><path d="M696.888889 256c109.966222 0 199.111111 89.144889 199.111111 199.111111 0 4.935111-0.184889 9.827556-0.540444 14.663111-1.052444 70.954667-9.713778 139.278222-26.026667 205.013334-22.641778 91.306667-70.641778 160.042667-144.014222 206.250666l3.726222-2.389333A184.035556 184.035556 0 0 1 625.777778 910.222222a184.092444 184.092444 0 0 1-113.777778-39.139555A184.092444 184.092444 0 0 1 398.222222 910.222222a184.035556 184.035556 0 0 1-103.367111-31.573333l3.726222 2.389333c-73.372444-46.208-121.372444-114.958222-144.014222-206.250666-16.312889-65.735111-24.974222-134.058667-26.026667-205.013334C128.184889 464.938667 128 460.046222 128 455.111111c0-109.966222 89.144889-199.111111 199.111111-199.111111 33.379556 0 64.824889 8.206222 92.444445 22.727111A198.115556 198.115556 0 0 1 512 256c33.379556 0 64.824889 8.206222 92.444444 22.727111A198.115556 198.115556 0 0 1 696.888889 256z" fill="#539207" p-id="1509"></path><path d="M495.217778 284.444444l329.244444 42.709334c0 76.188444-8.718222 149.404444-26.140444 219.633778-22.641778 91.306667-70.641778 160.042667-144.014222 206.250666l3.640888-2.332444A184.035556 184.035556 0 0 1 554.666667 782.222222c-42.24 0-81.152-14.165333-112.284445-37.987555A134.670222 134.670222 0 0 1 348.444444 782.222222a134.599111 134.599111 0 0 1-89.130666-33.564444c-49.464889-33.536-82.104889-81.92-97.905778-145.123556-12.117333-48.440889-18.488889-98.816-19.128889-151.153778A192.924444 192.924444 0 0 1 142.222222 448v-4.451556C144.64 363.136 210.574222 298.666667 291.555556 298.666667c24.746667 0 48.071111 6.016 68.636444 16.668444A120.391111 120.391111 0 0 1 440.888889 284.444444c19.541333 0 37.987556 4.636444 54.328889 12.856889V284.444444z" fill="#89AD05" p-id="1510"></path><path d="M154.567111 674.787556C138.24 609.052444 129.592889 540.728889 128.540444 469.76 128.184889 464.938667 128 460.046222 128 455.111111c0-109.966222 89.144889-199.111111 199.111111-199.111111 33.379556 0 64.824889 8.206222 92.444445 22.727111A198.115556 198.115556 0 0 1 512 256c33.379556 0 64.824889 8.206222 92.444444 22.727111A198.115556 198.115556 0 0 1 696.888889 256c109.966222 0 199.111111 89.144889 199.111111 199.111111 0 4.935111-0.184889 9.827556-0.540444 14.663111-1.052444 70.954667-9.713778 139.278222-26.026667 205.013334-22.044444 88.888889-68.124444 156.416-138.282667 202.552888l-1.991111 1.308445A184.035556 184.035556 0 0 1 625.777778 910.222222a184.092444 184.092444 0 0 1-113.777778-39.139555A184.092444 184.092444 0 0 1 398.222222 910.222222c-36.266667 0-70.115556-10.453333-98.659555-28.501333l-6.712889-4.380445c-70.144-46.136889-116.238222-113.664-138.282667-202.552888zM696.888889 312.888889a141.198222 141.198222 0 0 0-65.962667 16.184889l-26.453333 13.909333-26.467556-13.895111A141.340444 141.340444 0 0 0 512 312.888889a141.198222 141.198222 0 0 0-65.962667 16.184889l-26.453333 13.909333-26.467556-13.895111A141.340444 141.340444 0 0 0 327.111111 312.888889c-78.549333 0-142.222222 63.672889-142.222222 142.222222 0 3.541333 0.128 7.011556 0.384 10.424889l0.128 1.706667 0.028444 1.706666c0.981333 66.645333 9.102222 130.673778 24.348445 192.142223 18.688 75.320889 56.448 130.645333 113.834666 168.391111l4.366223 2.816 2.958222 1.948444a126.961778 126.961778 0 0 0 62.122667 18.986667L398.222222 853.333333c29.013333 0 56.405333-9.614222 78.734222-27.064889L512 798.862222l35.043556 27.392A127.189333 127.189333 0 0 0 625.777778 853.333333a127.146667 127.146667 0 0 0 67.285333-19.086222l6.826667-4.423111c57.884444-38.087111 95.644444-93.411556 114.346666-168.732444 14.222222-57.372444 22.243556-116.963556 24.035556-178.858667l0.327111-15.004445 0.142222-1.706666A139.52 139.52 0 0 0 839.111111 455.111111c0-78.549333-63.672889-142.222222-142.222222-142.222222z" fill="#191919" p-id="1511"></path><path d="M412.088889 399.018667c-2.702222 9.500444-5.048889 19.427556-7.011556 29.752889m-7.139555 71.537777c-0.426667 22.613333 0.782222 46.179556 3.740444 70.286223 4.977778 40.504889 14.421333 78.350222 27.107556 111.744" fill="#D8D8D8" p-id="1512"></path><path d="M398.421333 395.121778a14.222222 14.222222 0 0 1 27.349334 7.793778c-2.588444 9.102222-4.835556 18.631111-6.712889 28.515555a14.222222 14.222222 0 0 1-27.946667-5.319111c2.033778-10.709333 4.48-21.048889 7.310222-30.990222z m-1.891555 91.036444l1.664-0.056889a14.222222 14.222222 0 0 1 13.952 14.478223 488.874667 488.874667 0 0 0 3.655111 68.266666c4.736 38.584889 13.724444 75.392 26.282667 108.444445a14.222222 14.222222 0 1 1-26.595556 10.097777c-13.368889-35.2-22.912-74.24-27.932444-115.057777a517.304889 517.304889 0 0 1-3.84-72.277334 14.222222 14.222222 0 0 1 12.814222-13.895111z" fill="#FFFFFF" p-id="1513"></path><path d="M558.222222 782.222222c54.513778-7.111111 86.513778-111.402667 96-312.888889 18.958222 142.222222 14.222222 248.888889-14.222222 320l-81.777778-7.111111z" fill="#539207" p-id="1514"></path></svg>