<?xml version="1.0" standalone="no"?><!DOCTYPE svg PUBLIC "-//W3C//DTD SVG 1.1//EN" "http://www.w3.org/Graphics/SVG/1.1/DTD/svg11.dtd"><svg t="1737183705617" class="icon" viewBox="0 0 1024 1024" version="1.1" xmlns="http://www.w3.org/2000/svg" p-id="1189" xmlns:xlink="http://www.w3.org/1999/xlink" width="200" height="200"><path d="M834.521797 189.239641c50.283149 50.283149 90.821424 192.534177 27.655732 304.213051-24.890159 44.017869-74.278268 77.174577-129.911544 96.26206 5.018258 4.113162 9.714704 8.367116 14.049112 12.701523 61.094026 61.094026 30.702891 135.673992 0.533002 175.900512-40.528218 40.528218-111.276608 67.087777-209.107503 29.03349l-83.369461 83.168328c-47.990237 47.427066-151.010353 30.531928-235.124004-40.045499-87.25132-73.212265-121.142162-176.453626-75.706309-230.618634a80.981333 80.981333 0 0 1 2.483987-2.8058l70.014257-83.852179c-31.366628-11.213142-61.838216-28.671451-86.497073-53.330308C71.475013 411.742575 104.943477 309.446537 144.818014 263.839721c72.910566-72.910566 196.657395-24.58846 242.53574 21.289885 14.059168 14.059168 22.70787 38.738138 26.871315 67.25874a209.294222 209.294222 0 0 1 56.266843-7.894454c15.356474-71.070203 44.570983-137.494242 74.901779-167.825038 66.856475-66.856475 238.844957-37.712362 289.128106 12.570787z" fill="#FFCF6D" p-id="1190"></path><path d="M394.664924 789.338853l110.220662-92.460654c61.637084 14.230131 107.857354 14.230131 138.670868 0.010057 30.813514-14.220075 46.210214-40.296916 46.220271-78.220467l0-64.000392C801.184069 436.139959 830.820957 319.995941 778.667275 206.215232c85.330504 32.010253 88.890551 92.450598 88.880494 192.001176 0 66.373757-58.06698 128.000784-174.221054 184.881082 52.143625 80.603888 60.450402 141.044233 24.890159 181.351204-35.54013 40.286859-100.73726 45.023532-195.561223 14.220075l-85.330504 85.330504-42.660223-74.66042z" fill="#E6AC57" p-id="1191"></path><path d="M790.282683 379.179208c20.817224 21.561414 37.430776 45.797892 48.855107 70.939466a14.222222 14.222222 0 0 1-25.905878 11.766257c-10.066686-22.154755-24.829819-43.696056-43.414471-62.944446a237.44 237.44 0 0 0-33.025972-28.520602 14.222222 14.222222 0 0 1 16.482816-23.180531c13.043449 9.282269 25.463387 19.99258 37.008398 31.939856z m-308.416722 265.977744a361.671111 361.671111 0 0 1 71.784223 133.129665 14.222222 14.222222 0 1 1-27.30375 7.954794 333.226667 333.226667 0 0 0-66.162567-122.680826 14.222222 14.222222 0 0 1 20.525581-19.620485l1.146456 1.206795z m-65.991605-60.84261a14.222222 14.222222 0 1 1-16.583383 23.120192c-7.995021-5.742336-16.241457-11.112576-24.678969-16.090608a14.222222 14.222222 0 1 1 14.47149-24.487893 361.927111 361.927111 0 0 1 26.790862 17.458309z m330.581534-124.58153c14.431264 14.934095 25.956161 31.74878 33.890842 49.23726a14.222222 14.222222 0 1 1-25.895821 11.7562 148.337778 148.337778 0 0 0-28.450206-41.242239c-6.788225-7.029584-14.079282-13.294865-21.702207-18.725445a14.222222 14.222222 0 1 1 16.502929-23.160418c9.050967 6.436243 17.659442 13.837923 25.654463 22.134642zM325.073046 338.701273c-14.682679 14.682679-26.509276 31.296232-34.745656 48.623805a14.222222 14.222222 0 0 0 25.694689 12.218805 148.337778 148.337778 0 0 1 29.164226-40.729351c6.908905-6.908905 14.290471-13.063562 22.003906-18.343292a14.222222 14.222222 0 1 0-16.080551-23.462118 184.277333 184.277333 0 0 0-26.036614 21.692151z m-60.641478 8.065417c-18.956747 7.552529-33.136595 31.286175-32.663933 50.202696a14.222222 14.222222 0 0 0 28.369752 1.055946l0.070397-1.800137c-0.191076-7.451963 7.361453-20.093146 14.773189-23.039739a14.222222 14.222222 0 1 0-10.539348-26.428823z m250.239119-23.301211C543.161119 332.727635 569.20779 346.304085 591.101073 363.169053a14.222222 14.222222 0 0 1-17.33763 22.546964c-19.298673-14.833529-42.438978-26.931655-67.882251-35.198204a14.222222 14.222222 0 1 1 8.789495-27.052334z" fill="#D19845" p-id="1192"></path><path d="M166.67107 669.33309a170.666667 71.111111 45 1 0 241.359115 241.359115 170.666667 71.111111 45 1 0-241.359115-241.359115Z" fill="#FCE586" p-id="1193"></path><path d="M834.531556 189.240889c50.275556 50.289778 90.808889 192.540444 27.648 304.213333-24.888889 44.017778-74.268444 77.169778-129.905778 96.256 5.006222 4.124444 9.713778 8.362667 14.051555 12.700445 61.098667 61.098667 30.705778 135.68 0.540445 175.900444-40.533333 40.533333-111.303111 67.086222-209.109334 29.041778l-83.370666 83.171555C406.385778 937.955556 303.36 921.059556 219.249778 850.488889 132.010667 777.244444 98.133333 674.019556 143.559111 619.861333c0.796444-0.967111 1.621333-1.905778 2.474667-2.816l70.016-83.854222c-31.374222-11.207111-61.838222-28.657778-86.513778-53.333333-58.055111-68.124444-24.590222-170.410667 15.288889-216.021334 72.903111-72.903111 196.650667-24.590222 242.531555 21.290667 14.065778 14.065778 22.698667 38.741333 26.88 67.271111a209.294222 209.294222 0 0 1 56.277334-7.907555c15.345778-71.054222 44.558222-137.486222 74.894222-167.822223 66.844444-66.844444 238.833778-37.703111 289.123556 12.572445z m-40.234667 40.234667c-36.977778-36.977778-172.032-49.208889-208.668445-12.572445-20.949333 20.935111-46.122667 77.582222-59.52 139.591111a56.888889 56.888889 0 0 1-52.337777 44.8l-3.072 0.085334a152.462222 152.462222 0 0 0-35.228445 4.252444l-5.745778 1.507556a56.888889 56.888889 0 0 1-71.779555-46.506667c-1.564444-10.723556-3.825778-19.854222-6.513778-26.794667-1.905778-4.963556-3.626667-7.808-4.295111-8.476444-40.760889-40.760889-122.737778-56.945778-160.028444-23.253334l-0.839112 0.796445-0.796444 0.952889c-31.473778 38.314667-41.116444 102.257778-14.506667 136.789333l0.568889 0.682667 2.275556 2.204444c15.217778 14.051556 34.133333 25.528889 55.495111 33.891556l5.888 2.204444c37.262222 13.312 49.877333 59.662222 24.519111 90.026667l-70.016 83.854222-2.56 2.915556c-20.622222 24.590222 2.446222 94.876444 68.693333 150.471111 63.985778 53.688889 135.68 65.763556 158.378667 43.349333l83.370667-83.171555a56.888889 56.888889 0 0 1 60.8-12.743112c63.061333 24.533333 111.047111 16.853333 143.288889-11.576888l2.176-1.991112 2.062222-2.958222c23.04-33.962667 25.998222-67.114667 2.474666-92.771555l-2.275555-2.389334a131.726222 131.726222 0 0 0-6.428445-6.001777l-3.498666-2.958223c-33.735111-27.690667-24.874667-81.137778 15.146666-96.853333l2.488889-0.924444c46.791111-16.056889 82.773333-42.040889 98.844445-70.456889 42.993778-76.003556 25.216-192.412444-18.346667-235.975111z" fill="#191919" p-id="1194"></path><path d="M366.364444 748.714667c33.991111 34.005333 58.638222 74.154667 70.883556 114.702222a21.333333 21.333333 0 1 1-40.846222 12.330667c-10.168889-33.649778-31.075556-67.712-60.216889-96.853334-28.984889-29.013333-62.862222-49.848889-96.355556-60.060444a21.333333 21.333333 0 0 1 12.458667-40.817778c40.334222 12.316444 80.241778 36.864 114.062222 70.698667z" fill="#191919" p-id="1195"></path></svg>