<?xml version="1.0" standalone="no"?><!DOCTYPE svg PUBLIC "-//W3C//DTD SVG 1.1//EN" "http://www.w3.org/Graphics/SVG/1.1/DTD/svg11.dtd"><svg t="1737183712226" class="icon" viewBox="0 0 1024 1024" version="1.1" xmlns="http://www.w3.org/2000/svg" p-id="1664" xmlns:xlink="http://www.w3.org/1999/xlink" width="200" height="200"><path d="M413.937778 810.666667c32.696889 18.602667 65.379556 27.904 98.062222 27.904 32.682667 0 65.365333-9.301333 98.062222-27.904l39.395556-227.029334a42.624 42.624 0 0 0-21.546667-44.657777C595.057778 520.974222 556.416 512 512 512s-83.057778 8.988444-115.911111 26.965333a42.624 42.624 0 0 0-21.560889 44.672L413.937778 810.666667z" fill="#E8B785" p-id="1665"></path><path d="M371.271111 782.222222c32.696889 18.602667 65.379556 27.904 98.062222 27.904 32.682667 0 65.365333-9.301333 98.062223-27.904l39.395555-227.029333a42.624 42.624 0 0 0-21.546667-44.657778C552.391111 492.529778 513.749333 483.555556 469.333333 483.555556s-83.057778 8.988444-115.911111 26.965333a42.624 42.624 0 0 0-21.560889 44.672L371.271111 782.222222z" fill="#FFE8D0" p-id="1666"></path><path d="M512 895.459556c-42.951111 0-85.233778-12.032-126.193778-35.356445a56.888889 56.888889 0 0 1-27.918222-39.708444l-39.395556-227.029334a99.527111 99.527111 0 0 1 50.318223-104.305777C410.410667 466.289778 458.410667 455.111111 512 455.111111c53.575111 0 101.589333 11.178667 143.217778 33.962667a99.498667 99.498667 0 0 1 50.304 104.248889l-39.409778 227.072a56.888889 56.888889 0 0 1-27.918222 39.708444c-40.96 23.324444-83.256889 35.356444-126.193778 35.356445z m0-56.888889c32.682667 0 65.365333-9.301333 98.062222-27.904l39.395556-227.029334a42.624 42.624 0 0 0-21.546667-44.657777C595.057778 520.974222 556.416 512 512 512s-83.057778 8.988444-115.911111 26.965333a42.624 42.624 0 0 0-21.560889 44.672L413.937778 810.666667c32.696889 18.602667 65.379556 27.904 98.062222 27.904z" fill="#191919" p-id="1667"></path><path d="M512 696.888889c182.328889 0 355.555556-38.072889 355.555556-208.725333S689.777778 199.111111 512 199.111111s-355.555556 118.4-355.555556 289.052445C156.444444 658.830222 329.671111 696.888889 512 696.888889z" fill="#944F2F" p-id="1668"></path><path d="M440.888889 625.777778c182.328889 0 355.555556-38.072889 355.555555-208.725334S608 170.666667 455.111111 170.666667 131.555556 327.111111 131.555556 444.444444 258.56 625.777778 440.888889 625.777778z" fill="#A66633" p-id="1669"></path><path d="M556.643556 201.614222l-3.285334 2.816a467.811556 467.811556 0 0 0-35.896889 34.631111 244.280889 244.280889 0 0 1 172.572445 83.157334 489.870222 489.870222 0 0 0-209.265778-38.528 467.384889 467.384889 0 0 0-66.673778 131.811555 288 288 0 0 1-0.583111-18.275555c0-39.125333 8.248889-76.302222 23.125333-109.852445a482.417778 482.417778 0 0 0-101.589333 24.547556l-4.096 1.521778a243.342222 243.342222 0 0 1 53.76-42.012445 242.844444 242.844444 0 0 1 76.913778-28.515555 269.411556 269.411556 0 0 1 38.087111-43.918223c18.702222-0.440889 37.688889 0.426667 56.931556 2.616889z" fill="#FFF3D7" p-id="1670"></path><path d="M499.939556 198.784a269.909333 269.909333 0 0 0-38.328889 44.131556 242.844444 242.844444 0 0 0-76.899556 28.515555 243.342222 243.342222 0 0 0-53.76 42.012445l4.096-1.521778a482.204444 482.204444 0 0 1 101.589333-24.547556 270.492444 270.492444 0 0 0-23.125333 109.852445c0 6.144 0.199111 12.231111 0.597333 18.275555l1.28-3.982222a467.399111 467.399111 0 0 1 65.379556-127.829333 489.870222 489.870222 0 0 1 209.265778 38.528 244.209778 244.209778 0 0 0-172.586667-83.143111c12.330667-13.226667 25.415111-25.742222 39.182222-37.461334 12.373333 1.450667 25.016889 3.441778 37.930667 5.973334l-6.912 5.376-6.926222 5.589333-1.991111 1.635555 6.641777 1.934223a272.170667 272.170667 0 0 1 121.955556 76.771555l4.124444 4.622222c19.854222 22.755556-4.721778 56.675556-32.526222 44.899556a461.681778 461.681778 0 0 0-180.238222-36.622222l-2.887111 0.028444-2.275556 3.370667a438.485333 438.485333 0 0 0-48.142222 96.483555l-2.915555 8.533334-1.28 3.982222c-9.571556 29.866667-53.376 24.504889-55.466667-6.812444a300.928 300.928 0 0 1 7.537778-90.112l0.824889-3.256889-2.104889 0.497777c-12.743111 3.072-25.344 6.684444-37.774223 10.865778l-9.287111 3.228445-4.096 1.507555c-28.344889 10.496-51.342222-24.604444-30.364444-46.392889a271.786667 271.786667 0 0 1 60.017778-46.933333 271.786667 271.786667 0 0 1 71.011555-28.600889l3.498667-0.824889c3.868444-5.134222 7.879111-10.140444 12.046222-14.976l-1.92 0.284445a331.804444 331.804444 0 0 1 39.168-3.740445z" fill="#191919" p-id="1671"></path><path d="M512 142.222222C294.229333 142.222222 99.555556 290.958222 99.555556 488.163556c0 103.153778 51.527111 177.578667 142.222222 219.904C311.111111 740.423111 400.782222 753.777778 512 753.777778s200.888889-13.354667 270.222222-45.710222c90.695111-42.325333 142.222222-116.750222 142.222222-219.904C924.444444 290.958222 729.770667 142.222222 512 142.222222z m0 56.888889c177.777778 0 355.555556 118.4 355.555556 289.052445C867.555556 657.123556 697.784889 696.120889 517.461333 696.888889L512 696.888889c-182.328889 0-355.555556-38.072889-355.555556-208.725333S334.222222 199.111111 512 199.111111z" fill="#191919" p-id="1672"></path><path d="M232.618667 436.337778a14.222222 14.222222 0 0 1 26.481777 10.368 162.389333 162.389333 0 0 0-11.235555 59.576889 14.222222 14.222222 0 1 1-28.444445 0c0-24.277333 4.494222-47.729778 13.198223-69.959111z m37.162666-60.871111a14.222222 14.222222 0 1 1 21.518223 18.588444c-3.569778 4.138667-6.940444 8.376889-10.097778 12.714667a14.222222 14.222222 0 1 1-22.983111-16.782222c3.626667-4.963556 7.480889-9.813333 11.562666-14.535112z" fill="#FFFFFF" p-id="1673"></path></svg>