<?xml version="1.0" standalone="no"?><!DOCTYPE svg PUBLIC "-//W3C//DTD SVG 1.1//EN" "http://www.w3.org/Graphics/SVG/1.1/DTD/svg11.dtd"><svg height="1024" node-id="1" sillyvg="true" template-height="1024" template-width="1024" version="1.1" viewBox="0 0 1024 1024" width="1024" xmlns="http://www.w3.org/2000/svg" xmlns:xlink="http://www.w3.org/1999/xlink"><defs node-id="99"><linearGradient gradientUnits="objectBoundingBox" id="linear-gradient" node-id="3" spreadMethod="pad" x1="0" x2="1" y1="0.5" y2="0.539"><stop offset="0" stop-color="#b4ecd7"></stop><stop offset="1" stop-color="#59c793"></stop></linearGradient><clipPath id="clip-绣球" node-id="6"><path d="M 0.00 0.00 L 1024.00 0.00 L 1024.00 1024.00 L 0.00 1024.00 Z" fill="#000000" fill-rule="nonzero" node-id="108" stroke="none" target-height="1024" target-width="1024" target-x="0" target-y="0"></path></clipPath></defs><g clip-path="url(#clip-绣球)" id="绣球" node-id="8"><path d="M 0.00 0.00 L 1024.00 0.00 L 1024.00 1024.00 L 0.00 1024.00 Z" fill="#fff9e6" fill-rule="nonzero" node-id="113" stroke="none" target-height="1024" target-width="1024" target-x="0" target-y="0"></path><path d="M 185.10 95.70 L 185.80 94.70 L 187.00 94.30 L 188.20 94.70 L 188.90 95.70 L 195.80 116.40 L 196.30 117.20 L 197.10 117.70 L 217.80 124.60 L 219.10 125.90 L 219.10 127.10 L 217.80 128.40 L 197.10 135.30 L 196.30 135.80 L 195.80 136.60 L 188.90 157.30 L 187.60 158.60 L 186.40 158.60 L 185.10 157.30 L 178.20 136.60 L 177.70 135.80 L 176.90 135.30 L 156.20 128.40 L 154.90 127.10 L 154.90 125.90 L 156.20 124.60 L 176.90 117.70 L 177.70 117.20 L 178.20 116.40 Z" fill="none" group-id="1,4" node-id="117" stroke="none" target-height="64.3" target-width="64.20001" target-x="154.9" target-y="94.3"></path><path d="M 187.00 109.00 L 183.90 118.30 L 183.10 120.00 L 181.90 121.40 L 180.50 122.60 L 178.80 123.40 L 169.50 126.50 L 178.80 129.60 L 180.50 130.40 L 181.90 131.60 L 183.10 133.00 L 183.90 134.70 L 187.00 144.00 L 190.10 134.70 L 190.90 133.00 L 192.10 131.60 L 193.50 130.40 L 195.20 129.60 L 204.50 126.50 L 195.20 123.40 L 193.50 122.60 L 192.10 121.40 L 190.90 120.00 L 190.10 118.30 L 187.00 109.00 M 187.00 94.30 L 188.10 94.70 L 188.90 95.70 L 195.80 116.40 L 196.30 117.20 L 197.10 117.70 L 217.80 124.60 L 218.60 125.10 L 219.20 126.50 L 218.60 127.90 L 217.80 128.40 L 197.10 135.30 L 196.30 135.80 L 195.80 136.60 L 188.90 157.30 L 188.40 158.10 L 187.00 158.70 L 185.60 158.10 L 185.10 157.30 L 178.20 136.60 L 177.70 135.80 L 176.90 135.30 L 156.20 128.40 L 155.40 127.90 L 154.80 126.50 L 155.40 125.10 L 156.20 124.60 L 176.90 117.70 L 177.70 117.20 L 178.20 116.40 L 185.10 95.70 L 185.90 94.70 L 187.00 94.30 Z" fill="#c00121" fill-rule="nonzero" group-id="1,4" node-id="119" stroke="none" target-height="64.399994" target-width="64.399994" target-x="154.8" target-y="94.3"></path><path d="M 78.60 838.50 L 75.00 832.60 L 69.80 826.30 L 63.40 821.10 L 57.60 817.50 L 63.40 813.90 L 69.80 808.70 L 75.00 802.40 L 78.60 796.50 L 82.10 802.40 L 87.40 808.70 L 93.70 813.90 L 99.60 817.50 L 93.70 821.10 L 87.40 826.30 L 82.10 832.60 L 78.60 838.50 Z" fill="#fbb84e" fill-rule="nonzero" group-id="1,5" node-id="123" stroke="none" target-height="42" target-width="42" target-x="57.6" target-y="796.5"></path><path d="M 78.60 800.50 L 75.30 805.30 L 71.20 810.10 L 66.40 814.30 L 61.60 817.50 L 66.40 820.70 L 71.20 824.90 L 75.30 829.70 L 78.60 834.50 L 81.80 829.70 L 85.90 824.90 L 90.80 820.70 L 95.50 817.50 L 90.80 814.30 L 85.90 810.10 L 81.80 805.30 L 78.60 800.50 M 78.60 792.00 L 82.70 799.60 L 86.50 804.80 L 88.80 807.30 L 91.30 809.60 L 96.50 813.40 L 104.10 817.50 L 96.50 821.60 L 91.30 825.40 L 88.80 827.70 L 86.50 830.20 L 82.70 835.40 L 78.60 843.00 L 74.40 835.40 L 70.70 830.20 L 68.40 827.70 L 65.90 825.40 L 60.70 821.60 L 53.10 817.50 L 60.70 813.40 L 65.90 809.60 L 68.40 807.30 L 70.70 804.80 L 74.40 799.60 L 78.60 792.00 Z" fill="#c00121" fill-rule="nonzero" group-id="1,5" node-id="125" stroke="none" target-height="51" target-width="51" target-x="53.1" target-y="792"></path><path d="M 895.00 831.00 L 899.10 838.60 L 902.90 843.80 L 905.20 846.30 L 907.70 848.60 L 912.90 852.40 L 920.50 856.50 L 912.90 860.60 L 907.70 864.40 L 905.20 866.70 L 902.90 869.20 L 899.10 874.40 L 895.00 882.00 L 890.90 874.40 L 887.10 869.20 L 884.80 866.70 L 882.30 864.40 L 877.10 860.60 L 869.50 856.50 L 877.10 852.40 L 882.30 848.60 L 884.80 846.30 L 887.10 843.80 L 890.90 838.60 L 895.00 831.00 Z" fill="none" group-id="1,6" node-id="129" stroke="none" target-height="51" target-width="51" target-x="869.5" target-y="831"></path><path d="M 895.00 843.20 L 892.30 846.90 L 889.00 850.50 L 885.40 853.80 L 881.70 856.50 L 885.40 859.20 L 889.00 862.50 L 892.30 866.10 L 895.00 869.80 L 897.70 866.10 L 901.00 862.50 L 904.60 859.20 L 908.30 856.50 L 904.60 853.80 L 901.00 850.50 L 897.70 846.90 L 895.00 843.20 M 895.00 831.00 L 899.10 838.60 L 902.90 843.80 L 905.20 846.30 L 907.70 848.60 L 912.90 852.40 L 920.50 856.50 L 912.90 860.60 L 907.70 864.40 L 905.20 866.70 L 902.90 869.20 L 899.10 874.40 L 895.00 882.00 L 890.90 874.40 L 887.10 869.20 L 884.80 866.70 L 882.30 864.40 L 877.10 860.60 L 869.50 856.50 L 877.10 852.40 L 882.30 848.60 L 884.80 846.30 L 887.10 843.80 L 890.90 838.60 L 895.00 831.00 Z" fill="#c00121" fill-rule="nonzero" group-id="1,6" node-id="131" stroke="none" target-height="51" target-width="51" target-x="869.5" target-y="831"></path><path d="M 913.50 364.70 L 897.80 354.00 L 896.50 353.30 L 895.00 353.10 L 893.50 353.30 L 892.20 354.00 L 876.50 364.70 L 881.90 346.60 L 882.10 345.10 L 881.90 343.60 L 881.20 342.30 L 880.20 341.20 L 865.10 329.70 L 884.10 329.20 L 885.60 328.90 L 886.90 328.20 L 887.90 327.20 L 888.70 325.90 L 895.00 308.00 L 901.30 325.90 L 902.10 327.20 L 903.10 328.20 L 904.40 328.90 L 905.90 329.20 L 924.90 329.70 L 909.80 341.20 L 908.80 342.30 L 908.10 343.60 L 907.90 345.10 L 908.10 346.60 L 913.50 364.70 Z" fill="#fbb84e" fill-rule="nonzero" group-id="1,7" node-id="135" stroke="none" target-height="56.700012" target-width="59.80005" target-x="865.1" target-y="308"></path><path d="M 895.00 317.00 L 891.50 326.90 L 890.80 328.30 L 888.60 330.60 L 885.80 332.00 L 884.20 332.20 L 873.70 332.40 L 882.00 338.80 L 883.20 339.90 L 884.70 342.70 L 885.10 345.80 L 884.80 347.40 L 881.80 357.50 L 890.50 351.50 L 891.90 350.70 L 895.00 350.10 L 898.10 350.70 L 899.50 351.50 L 908.20 357.50 L 905.20 347.40 L 904.90 345.80 L 905.30 342.70 L 906.80 339.90 L 908.00 338.80 L 916.30 332.40 L 905.80 332.20 L 904.20 332.00 L 901.40 330.60 L 899.20 328.30 L 898.50 326.90 L 895.00 317.00 M 895.00 303.00 L 896.10 303.30 L 896.90 304.30 L 904.20 324.90 L 904.90 325.80 L 906.00 326.20 L 927.80 326.70 L 928.70 326.90 L 929.70 328.10 L 929.60 329.70 L 929.00 330.30 L 911.70 343.60 L 911.00 344.50 L 911.00 345.70 L 917.20 366.60 L 917.00 368.20 L 915.70 369.10 L 914.10 368.80 L 896.10 356.50 L 895.00 356.10 L 893.90 356.50 L 875.90 368.80 L 875.00 369.10 L 873.60 368.80 L 872.80 367.50 L 872.80 366.60 L 879.00 345.70 L 879.00 344.50 L 878.30 343.60 L 860.40 329.70 L 860.20 328.90 L 860.70 327.40 L 862.20 326.70 L 884.00 326.20 L 885.10 325.80 L 885.80 324.90 L 893.10 304.30 L 893.90 303.30 L 895.00 303.00 Z" fill="#c00121" fill-rule="nonzero" group-id="1,7" node-id="137" stroke="none" target-height="66.100006" target-width="69.5" target-x="860.2" target-y="303"></path><path d="M 501.60 964.80 L 502.90 963.60 L 504.10 963.60 L 505.10 964.30 L 510.50 979.40 L 511.30 980.40 L 512.40 980.70 L 527.80 981.10 L 529.00 981.50 L 529.70 982.50 L 529.70 983.70 L 529.00 984.70 L 516.70 994.10 L 516.00 995.10 L 516.00 996.30 L 520.40 1011.10 L 520.40 1012.30 L 519.70 1013.30 L 519.10 1013.60 L 517.40 1013.30 L 504.60 1004.50 L 503.50 1004.20 L 502.40 1004.50 L 489.60 1013.30 L 487.90 1013.60 L 486.90 1012.80 L 486.60 1011.10 L 491.00 996.30 L 491.00 995.10 L 490.30 994.10 L 478.00 984.70 L 477.30 983.70 L 477.30 982.50 L 478.00 981.50 L 479.20 981.10 L 494.60 980.70 L 495.80 980.40 L 496.50 979.40 Z" fill="none" group-id="1,8" node-id="141" stroke="none" target-height="50" target-width="52.400024" target-x="477.3" target-y="963.6"></path><path d="M 503.50 974.50 L 501.20 981.10 L 500.20 982.90 L 498.70 984.40 L 496.80 985.40 L 494.80 985.70 L 487.80 985.90 L 493.30 990.10 L 494.80 991.70 L 495.70 993.50 L 496.10 995.60 L 495.80 997.70 L 493.80 1004.40 L 499.50 1000.40 L 501.40 999.50 L 503.50 999.20 L 505.60 999.50 L 507.50 1000.40 L 513.20 1004.40 L 511.20 997.70 L 511.00 995.60 L 511.30 993.50 L 512.20 991.70 L 513.70 990.10 L 519.20 985.90 L 512.20 985.70 L 510.20 985.40 L 508.30 984.40 L 506.80 982.90 L 505.80 981.10 L 503.50 974.50 M 503.50 963.50 L 504.60 963.80 L 505.40 964.80 L 510.50 979.40 L 511.30 980.40 L 512.40 980.70 L 527.80 981.10 L 528.70 981.30 L 529.70 982.50 L 529.60 984.00 L 529.00 984.70 L 516.70 994.10 L 516.00 995.10 L 516.00 996.30 L 520.40 1011.10 L 520.20 1012.70 L 519.00 1013.60 L 517.40 1013.30 L 504.60 1004.50 L 503.50 1004.20 L 502.40 1004.50 L 489.60 1013.30 L 488.80 1013.60 L 487.30 1013.30 L 486.50 1012.00 L 486.60 1011.10 L 491.00 996.30 L 491.00 995.10 L 490.30 994.10 L 477.40 984.00 L 477.20 983.30 L 477.70 981.80 L 479.20 981.10 L 494.60 980.70 L 495.70 980.40 L 496.50 979.40 L 501.60 964.80 L 502.40 963.80 L 503.50 963.50 Z" fill="#c00121" fill-rule="nonzero" group-id="1,8" node-id="143" stroke="none" target-height="50.099976" target-width="52.5" target-x="477.2" target-y="963.5"></path><path d="M 305.00 857.00 L 310.40 877.80 L 332.00 876.50 L 313.70 888.00 L 321.70 908.00 L 305.00 894.30 L 288.30 908.00 L 296.30 888.00 L 278.00 876.50 L 299.60 877.80 Z" fill="#fbb84e" fill-rule="nonzero" group-id="1,9" id="多边形_3" node-id="26" stroke="none" target-height="51" target-width="54" target-x="278" target-y="857"></path><path d="M 56.00 96.50 L 56.70 102.80 L 57.40 105.50 L 58.40 108.40 L 59.80 111.10 L 61.70 113.40 L 64.00 115.30 L 66.70 116.70 L 69.50 117.70 L 72.20 118.30 L 78.60 119.00 L 72.20 119.70 L 69.50 120.40 L 66.70 121.40 L 64.00 122.80 L 61.70 124.70 L 59.80 127.00 L 58.40 129.70 L 57.40 132.50 L 56.70 135.20 L 56.00 141.60 L 55.30 135.20 L 54.70 132.50 L 53.70 129.70 L 52.30 127.00 L 50.40 124.70 L 48.10 122.80 L 45.40 121.40 L 42.50 120.40 L 39.80 119.70 L 33.50 119.00 L 39.80 118.30 L 42.50 117.70 L 45.40 116.70 L 48.10 115.30 L 50.40 113.40 L 52.30 111.10 L 53.70 108.40 L 54.70 105.50 L 55.30 102.80 L 56.00 96.50 Z" fill="#fbb84e" fill-rule="nonzero" group-id="1,10" id="路径_1" node-id="27" stroke="none" target-height="45.100006" target-width="45.1" target-x="33.5" target-y="96.5"></path><path d="M 734.00 -28.00 L 735.10 -17.80 L 737.10 -10.60 L 738.70 -7.00 L 740.70 -3.60 L 743.10 -0.60 L 746.10 1.80 L 749.50 3.80 L 753.10 5.40 L 760.30 7.40 L 770.50 8.50 L 760.30 9.60 L 753.10 11.60 L 749.50 13.20 L 746.10 15.20 L 743.10 17.60 L 740.70 20.60 L 738.70 24.00 L 737.10 27.60 L 735.10 34.80 L 734.00 45.00 L 732.90 34.80 L 730.90 27.60 L 729.30 24.00 L 727.30 20.60 L 724.90 17.60 L 721.90 15.20 L 718.50 13.20 L 714.90 11.60 L 707.70 9.60 L 697.50 8.50 L 707.70 7.40 L 714.90 5.40 L 718.50 3.80 L 721.90 1.80 L 724.90 -0.60 L 727.30 -3.60 L 729.30 -7.00 L 730.90 -10.60 L 732.90 -17.80 L 734.00 -28.00 Z" fill="#fbb84e" fill-rule="nonzero" group-id="1,11" id="路径_2" node-id="28" stroke="none" target-height="73" target-width="73" target-x="697.5" target-y="-28"></path><path d="M 786.20 1024.00 L 787.50 1020.60 L 790.10 1016.40 L 793.30 1013.60 L 796.50 1012.70 L 798.10 1012.90 L 800.10 1013.60 L 802.40 1015.00 L 804.50 1016.80 L 806.90 1019.60 L 809.80 1023.50 L 812.30 1010.10 L 814.20 1003.60 L 818.10 994.10 L 821.60 988.50 L 823.70 986.30 L 825.70 985.00 L 827.80 984.20 L 829.30 984.10 L 831.00 984.40 L 832.70 985.30 L 834.60 986.70 L 836.70 989.00 L 839.20 992.70 L 841.90 997.90 L 844.10 1003.40 L 846.60 1010.50 L 849.30 1019.70 L 851.50 1015.30 L 853.50 1012.30 L 855.20 1010.40 L 857.20 1008.90 L 858.90 1008.30 L 860.50 1008.20 L 863.50 1009.40 L 866.60 1012.80 L 868.00 1015.30 L 869.50 1019.70" fill="none" group-id="1,12" id="路径_5" node-id="29" stroke="#fbb84e" stroke-linecap="round" stroke-width="6" target-height="39.900024" target-width="83.29999" target-x="786.2" target-y="984.1"></path><path d="M 108.80 479.50 L 110.20 476.10 L 112.80 471.90 L 115.90 469.10 L 119.10 468.30 L 120.80 468.40 L 122.80 469.10 L 125.10 470.60 L 127.10 472.40 L 129.60 475.10 L 132.50 479.10 L 133.50 472.30 L 135.00 465.60 L 136.90 459.10 L 140.70 449.60 L 144.30 444.10 L 146.40 441.90 L 148.40 440.50 L 150.40 439.80 L 152.00 439.70 L 153.60 440.00 L 155.40 440.80 L 157.30 442.30 L 159.40 444.60 L 161.80 448.20 L 164.50 453.50 L 166.80 458.90 L 169.30 466.00 L 171.90 475.20 L 174.20 470.80 L 176.10 467.80 L 177.80 466.00 L 179.80 464.50 L 181.60 463.80 L 183.10 463.80 L 186.10 465.00 L 189.30 468.40 L 190.60 470.80 L 192.20 475.20" fill="none" group-id="1,13" id="路径_6" node-id="30" stroke="#fbb84e" stroke-linecap="round" stroke-width="6" target-height="39.799988" target-width="83.399994" target-x="108.8" target-y="439.7"></path><path d="M 905.00 523.00 L 904.70 537.60 L 903.80 552.10 L 902.40 566.50 L 900.40 580.80 L 897.90 594.90 L 894.80 609.00 L 891.10 622.90 L 887.00 636.60 L 882.30 650.10 L 877.10 663.40 L 871.30 676.60 L 865.10 689.50 L 858.30 702.10 L 851.10 714.50 L 843.30 726.60 L 835.10 738.40 L 826.40 749.90 L 817.30 761.10 L 807.60 771.90 L 797.50 782.50 L 786.90 792.60 L 776.10 802.30 L 764.90 811.40 L 753.40 820.10 L 741.60 828.30 L 729.50 836.10 L 717.10 843.30 L 704.50 850.10 L 691.60 856.30 L 678.40 862.10 L 665.10 867.30 L 651.60 872.00 L 637.90 876.10 L 624.00 879.80 L 609.90 882.90 L 595.80 885.40 L 581.50 887.40 L 567.10 888.80 L 552.60 889.70 L 538.00 890.00 L 523.40 889.70 L 508.90 888.80 L 494.50 887.40 L 480.20 885.40 L 466.10 882.90 L 452.00 879.80 L 438.10 876.10 L 424.40 872.00 L 410.90 867.30 L 397.60 862.10 L 384.40 856.30 L 371.50 850.10 L 358.90 843.30 L 346.50 836.10 L 334.40 828.30 L 322.60 820.10 L 311.10 811.40 L 299.90 802.30 L 289.10 792.60 L 278.50 782.50 L 268.40 771.90 L 258.70 761.10 L 249.60 749.90 L 240.90 738.40 L 232.70 726.60 L 224.90 714.50 L 217.70 702.10 L 210.90 689.50 L 204.70 676.60 L 198.90 663.40 L 193.70 650.10 L 189.00 636.60 L 184.90 622.90 L 181.20 609.00 L 178.10 594.90 L 175.60 580.80 L 173.60 566.50 L 172.20 552.10 L 171.30 537.60 L 171.00 523.00 L 171.30 508.40 L 172.20 493.90 L 173.60 479.50 L 175.60 465.20 L 178.10 451.10 L 181.20 437.00 L 184.90 423.10 L 189.00 409.40 L 193.70 395.90 L 198.90 382.60 L 204.70 369.40 L 210.90 356.50 L 217.70 343.90 L 224.90 331.50 L 232.70 319.40 L 240.90 307.60 L 249.60 296.10 L 258.70 284.90 L 268.40 274.10 L 278.50 263.50 L 289.10 253.40 L 299.90 243.70 L 311.10 234.60 L 322.60 225.90 L 334.40 217.70 L 346.50 209.90 L 358.90 202.70 L 371.50 195.90 L 384.40 189.70 L 397.60 183.90 L 410.90 178.70 L 424.40 174.00 L 438.10 169.90 L 452.00 166.20 L 466.10 163.10 L 480.20 160.60 L 494.50 158.60 L 508.90 157.20 L 523.40 156.30 L 538.00 156.00 L 552.60 156.30 L 567.10 157.20 L 581.50 158.60 L 595.80 160.60 L 609.90 163.10 L 624.00 166.20 L 637.90 169.90 L 651.60 174.00 L 665.10 178.70 L 678.40 183.90 L 691.60 189.70 L 704.50 195.90 L 717.10 202.70 L 729.50 209.90 L 741.60 217.70 L 753.40 225.90 L 764.90 234.60 L 776.10 243.70 L 786.90 253.40 L 797.50 263.50 L 807.60 274.10 L 817.30 284.90 L 826.40 296.10 L 835.10 307.60 L 843.30 319.40 L 851.10 331.50 L 858.30 343.90 L 865.10 356.50 L 871.30 369.40 L 877.10 382.60 L 882.30 395.90 L 887.00 409.40 L 891.10 423.10 L 894.80 437.00 L 897.90 451.10 L 900.40 465.20 L 902.40 479.50 L 903.80 493.90 L 904.70 508.40 L 905.00 523.00 Z" fill="#f9d4c1" fill-rule="nonzero" group-id="2,14" id="椭圆_86" node-id="32" stroke="none" target-height="734" target-width="734" target-x="171" target-y="156"></path><path d="M 854.00 502.00 L 853.70 516.60 L 852.80 531.10 L 851.40 545.50 L 849.40 559.80 L 846.90 573.90 L 843.80 588.00 L 840.10 601.90 L 836.00 615.60 L 831.30 629.10 L 826.10 642.40 L 820.30 655.60 L 814.10 668.50 L 807.30 681.10 L 800.10 693.50 L 792.30 705.60 L 784.10 717.40 L 775.40 728.90 L 766.30 740.10 L 756.60 750.90 L 746.50 761.50 L 735.90 771.60 L 725.10 781.30 L 713.90 790.40 L 702.40 799.10 L 690.60 807.30 L 678.50 815.10 L 666.10 822.30 L 653.50 829.10 L 640.60 835.30 L 627.40 841.10 L 614.10 846.30 L 600.60 851.00 L 586.90 855.10 L 573.00 858.80 L 558.90 861.90 L 544.80 864.40 L 530.50 866.40 L 516.10 867.80 L 501.60 868.70 L 487.00 869.00 L 472.40 868.70 L 457.90 867.80 L 443.50 866.40 L 429.20 864.40 L 415.10 861.90 L 401.00 858.80 L 387.10 855.10 L 373.40 851.00 L 359.90 846.30 L 346.60 841.10 L 333.40 835.30 L 320.50 829.10 L 307.90 822.30 L 295.50 815.10 L 283.40 807.30 L 271.60 799.10 L 260.10 790.40 L 248.90 781.30 L 238.10 771.60 L 227.50 761.50 L 217.40 750.90 L 207.70 740.10 L 198.60 728.90 L 189.90 717.40 L 181.70 705.60 L 173.90 693.50 L 166.70 681.10 L 159.90 668.50 L 153.70 655.60 L 147.90 642.40 L 142.70 629.10 L 138.00 615.60 L 133.90 601.90 L 130.20 588.00 L 127.10 573.90 L 124.60 559.80 L 122.60 545.50 L 121.20 531.10 L 120.30 516.60 L 120.00 502.00 L 120.30 487.40 L 121.20 472.90 L 122.60 458.50 L 124.60 444.20 L 127.10 430.10 L 130.20 416.00 L 133.90 402.10 L 138.00 388.40 L 142.70 374.90 L 147.90 361.60 L 153.70 348.40 L 159.90 335.50 L 166.70 322.90 L 173.90 310.50 L 181.70 298.40 L 189.90 286.60 L 198.60 275.10 L 207.70 263.90 L 217.40 253.10 L 227.50 242.50 L 238.10 232.40 L 248.90 222.70 L 260.10 213.60 L 271.60 204.90 L 283.40 196.70 L 295.50 188.90 L 307.90 181.70 L 320.50 174.90 L 333.40 168.70 L 346.60 162.90 L 359.90 157.70 L 373.40 153.00 L 387.10 148.90 L 401.00 145.20 L 415.10 142.10 L 429.20 139.60 L 443.50 137.60 L 457.90 136.20 L 472.40 135.30 L 487.00 135.00 L 501.60 135.30 L 516.10 136.20 L 530.50 137.60 L 544.80 139.60 L 558.90 142.10 L 573.00 145.20 L 586.90 148.90 L 600.60 153.00 L 614.10 157.70 L 627.40 162.90 L 640.60 168.70 L 653.50 174.90 L 666.10 181.70 L 678.50 188.90 L 690.60 196.70 L 702.40 204.90 L 713.90 213.60 L 725.10 222.70 L 735.90 232.40 L 746.50 242.50 L 756.60 253.10 L 766.30 263.90 L 775.40 275.10 L 784.10 286.60 L 792.30 298.40 L 800.10 310.50 L 807.30 322.90 L 814.10 335.50 L 820.30 348.40 L 826.10 361.60 L 831.30 374.90 L 836.00 388.40 L 840.10 402.10 L 843.80 416.00 L 846.90 430.10 L 849.40 444.20 L 851.40 458.50 L 852.80 472.90 L 853.70 487.40 L 854.00 502.00 Z" fill="#f24753" fill-rule="nonzero" group-id="2,15" node-id="173" stroke="none" target-height="734" target-width="734" target-x="120" target-y="135"></path><path d="M 848.00 502.00 L 847.70 517.00 L 846.80 531.80 L 845.30 546.30 L 843.30 560.60 L 840.70 574.80 L 837.50 588.80 L 833.80 602.60 L 829.60 616.20 L 824.90 629.50 L 819.60 642.50 L 813.90 655.40 L 807.70 668.00 L 801.00 680.20 L 793.90 692.20 L 786.30 703.80 L 778.30 715.20 L 769.90 726.30 L 761.10 736.90 L 751.90 747.30 L 742.30 757.30 L 732.30 766.90 L 721.90 776.10 L 711.30 784.90 L 700.20 793.30 L 688.80 801.30 L 677.20 808.90 L 665.20 816.00 L 653.00 822.70 L 640.40 828.90 L 627.50 834.60 L 614.50 839.90 L 601.20 844.60 L 587.60 848.80 L 573.80 852.50 L 559.80 855.70 L 545.60 858.30 L 531.30 860.30 L 516.80 861.80 L 502.00 862.70 L 487.00 863.00 L 472.00 862.70 L 457.20 861.80 L 442.70 860.30 L 428.40 858.30 L 414.20 855.70 L 400.20 852.50 L 386.40 848.80 L 372.80 844.60 L 359.50 839.90 L 346.50 834.60 L 333.60 828.90 L 321.00 822.70 L 308.80 816.00 L 296.80 808.90 L 285.20 801.30 L 273.80 793.30 L 262.70 784.90 L 252.10 776.10 L 241.70 766.90 L 231.70 757.30 L 222.10 747.30 L 212.90 736.90 L 204.10 726.30 L 195.70 715.20 L 187.70 703.80 L 180.10 692.20 L 173.00 680.20 L 166.30 668.00 L 160.10 655.40 L 154.40 642.50 L 149.10 629.50 L 144.40 616.20 L 140.20 602.60 L 136.50 588.80 L 133.30 574.80 L 130.70 560.60 L 128.70 546.30 L 127.20 531.80 L 126.30 517.00 L 126.00 502.00 L 126.30 487.00 L 127.20 472.20 L 128.70 457.70 L 130.70 443.40 L 133.30 429.20 L 136.50 415.20 L 140.20 401.40 L 144.40 387.80 L 149.10 374.50 L 154.40 361.50 L 160.10 348.60 L 166.30 336.00 L 173.00 323.80 L 180.10 311.80 L 187.70 300.20 L 195.70 288.80 L 204.10 277.70 L 212.90 267.10 L 222.10 256.70 L 231.70 246.70 L 241.70 237.10 L 252.10 227.90 L 262.70 219.10 L 273.80 210.70 L 285.20 202.70 L 296.80 195.10 L 308.80 188.00 L 321.00 181.30 L 333.60 175.10 L 346.50 169.40 L 359.50 164.10 L 372.80 159.40 L 386.40 155.20 L 400.20 151.50 L 414.20 148.30 L 428.40 145.70 L 442.70 143.70 L 457.20 142.20 L 472.00 141.30 L 487.00 141.00 L 502.00 141.30 L 516.80 142.20 L 531.30 143.70 L 545.60 145.70 L 559.80 148.30 L 573.80 151.50 L 587.60 155.20 L 601.20 159.40 L 614.50 164.10 L 627.50 169.40 L 640.40 175.10 L 653.00 181.30 L 665.20 188.00 L 677.20 195.10 L 688.80 202.70 L 700.20 210.70 L 711.30 219.10 L 721.90 227.90 L 732.30 237.10 L 742.30 246.70 L 751.90 256.70 L 761.10 267.10 L 769.90 277.70 L 778.30 288.80 L 786.30 300.20 L 793.90 311.80 L 801.00 323.80 L 807.70 336.00 L 813.90 348.60 L 819.60 361.50 L 824.90 374.50 L 829.60 387.80 L 833.80 401.40 L 837.50 415.20 L 840.70 429.20 L 843.30 443.40 L 845.30 457.70 L 846.80 472.20 L 847.70 487.00 L 848.00 502.00 Z" fill="none" group-id="2,15" node-id="175" stroke="#300d35" stroke-linecap="butt" stroke-width="12" target-height="722" target-width="722" target-x="126" target-y="141"></path><path d="M 487.00 869.00 L 473.90 868.80 L 460.80 868.10 L 447.80 866.90 L 434.80 865.30 L 421.90 863.20 L 409.50 860.80 L 397.20 857.90 L 385.10 854.70 L 373.10 851.00 L 361.30 846.90 L 349.60 842.40 L 338.10 837.50 L 326.70 832.20 L 315.60 826.60 L 304.60 820.50 L 293.80 814.10 L 283.30 807.30 L 273.00 800.20 L 262.90 792.70 L 253.00 784.80 L 243.50 776.60 L 234.40 768.20 L 225.50 759.50 L 216.90 750.50 L 208.70 741.30 L 200.80 731.70 L 193.20 722.00 L 185.90 711.90 L 179.00 701.70 L 172.40 691.10 L 166.20 680.40 L 160.40 669.50 L 154.90 658.40 L 149.80 647.00 L 145.00 635.40 L 140.60 623.50 L 136.60 611.50 L 133.00 599.30 L 129.90 587.00 L 127.20 574.60 L 143.00 572.60 L 158.60 570.20 L 174.20 567.20 L 189.70 563.70 L 205.00 559.60 L 221.30 554.70 L 237.40 549.30 L 253.30 543.40 L 269.10 537.10 L 284.70 530.20 L 301.00 522.50 L 317.10 514.20 L 333.10 505.40 L 349.00 496.00 L 364.70 486.10 L 380.10 475.90 L 395.20 465.10 L 410.20 453.80 L 425.00 441.90 L 439.60 429.60 L 452.80 417.80 L 465.50 405.90 L 477.80 393.70 L 489.70 381.30 L 501.20 368.70 L 512.50 355.70 L 523.20 342.60 L 533.50 329.40 L 543.40 316.00 L 552.80 302.50 L 561.90 288.60 L 570.50 274.60 L 578.50 260.60 L 586.10 246.60 L 593.20 232.40 L 599.90 218.00 L 606.00 203.60 L 611.70 189.20 L 616.70 174.70 L 621.30 160.30 L 635.30 166.20 L 648.80 172.50 L 662.00 179.30 L 674.90 186.50 L 687.30 194.30 L 699.50 202.60 L 711.30 211.30 L 722.60 220.40 L 733.60 229.90 L 744.10 239.90 L 754.30 250.30 L 764.00 261.00 L 773.20 272.00 L 782.00 283.50 L 790.40 295.20 L 798.30 307.30 L 805.70 319.70 L 812.60 332.40 L 819.00 345.30 L 825.00 358.60 L 830.40 372.00 L 835.20 385.70 L 839.50 399.60 L 843.30 413.70 L 846.60 428.10 L 849.20 442.60 L 851.30 457.10 L 852.80 471.90 L 853.70 486.90 L 854.00 502.00 L 853.80 514.50 L 853.20 527.00 L 852.10 539.50 L 850.30 554.40 L 847.90 569.00 L 845.00 583.30 L 841.50 597.40 L 837.50 611.30 L 832.90 625.00 L 827.90 638.50 L 822.30 651.60 L 816.30 664.50 L 809.80 677.10 L 802.70 689.50 L 795.30 701.50 L 787.40 713.20 L 779.10 724.60 L 770.30 735.60 L 761.10 746.30 L 751.60 756.60 L 741.60 766.60 L 731.30 776.10 L 720.60 785.30 L 709.60 794.10 L 698.20 802.40 L 686.50 810.30 L 674.50 817.70 L 662.10 824.80 L 649.50 831.30 L 636.60 837.30 L 623.50 842.90 L 610.00 847.90 L 596.30 852.50 L 582.40 856.50 L 568.30 860.00 L 554.00 862.90 L 539.40 865.30 L 524.50 867.10 L 512.00 868.20 L 499.50 868.80 L 487.00 869.00 Z" fill="#e72c3b" fill-rule="nonzero" group-id="2,16" id="减去_29" node-id="36" stroke="none" target-height="708.7" target-width="726.8" target-x="127.2" target-y="160.3"></path><path d="M 487.00 869.00 L 472.00 868.70 L 457.00 867.80 L 442.00 866.30 L 426.90 864.10 L 412.10 861.30 L 397.40 857.90 L 383.00 854.00 L 368.70 849.40 L 354.60 844.30 L 340.80 838.60 L 327.30 832.40 L 314.00 825.70 L 301.00 818.40 L 288.30 810.50 L 275.90 802.20 L 263.90 793.40 L 252.30 784.10 L 240.90 774.30 L 230.00 764.00 L 219.50 753.30 L 209.50 742.20 L 199.80 730.50 L 190.50 718.40 L 205.30 716.00 L 220.40 713.10 L 235.70 709.40 L 251.40 705.10 L 266.80 700.30 L 282.40 695.00 L 298.20 688.90 L 314.20 682.30 L 329.90 675.20 L 345.70 667.60 L 361.60 659.30 L 377.60 650.50 L 393.30 641.30 L 408.90 631.60 L 424.50 621.30 L 440.10 610.50 L 455.40 599.40 L 470.50 587.70 L 485.50 575.60 L 500.40 563.00 L 515.70 549.30 L 530.50 535.50 L 544.70 521.40 L 558.40 507.20 L 571.80 492.60 L 584.60 477.90 L 596.70 463.10 L 608.30 448.20 L 619.50 433.00 L 630.00 417.80 L 639.90 402.60 L 649.10 387.50 L 658.00 372.00 L 666.10 356.70 L 673.40 341.50 L 680.10 326.60 L 685.10 314.20 L 693.70 290.20 L 700.40 266.80 L 703.10 254.90 L 705.30 243.30 L 707.00 231.90 L 708.30 220.70 L 709.00 209.70 L 719.90 218.40 L 730.50 227.40 L 740.60 236.70 L 750.40 246.50 L 759.90 256.60 L 768.90 267.00 L 777.60 277.80 L 785.80 288.90 L 793.70 300.30 L 801.00 312.00 L 808.00 324.00 L 814.50 336.30 L 820.10 347.80 L 825.30 359.50 L 830.10 371.40 L 834.40 383.30 L 838.30 395.50 L 841.80 407.80 L 844.80 420.20 L 847.50 432.60 L 849.60 445.20 L 851.40 458.00 L 852.70 471.50 L 853.60 485.10 L 854.00 498.70 L 853.90 512.30 L 853.20 525.90 L 852.10 539.50 L 850.30 554.40 L 847.90 569.00 L 845.00 583.30 L 841.50 597.40 L 837.50 611.30 L 832.90 625.00 L 827.90 638.50 L 822.30 651.60 L 816.30 664.50 L 809.80 677.10 L 802.70 689.50 L 795.30 701.50 L 787.40 713.20 L 779.10 724.60 L 770.30 735.60 L 761.10 746.30 L 751.60 756.60 L 741.60 766.60 L 731.30 776.10 L 720.60 785.30 L 709.60 794.10 L 698.20 802.40 L 686.50 810.30 L 674.50 817.70 L 662.10 824.80 L 649.50 831.30 L 636.60 837.30 L 623.50 842.90 L 610.00 847.90 L 596.30 852.50 L 582.40 856.50 L 568.30 860.00 L 554.00 862.90 L 539.40 865.30 L 524.50 867.10 L 512.00 868.20 L 499.50 868.80 L 487.00 869.00 Z" fill="#d3222e" fill-rule="nonzero" group-id="2,17" id="减去_30" node-id="37" stroke="none" target-height="659.3" target-width="663.5" target-x="190.5" target-y="209.7"></path><path d="M 487.00 869.00 L 473.40 868.80 L 459.90 868.00 L 446.40 866.80 L 432.90 865.00 L 419.50 862.80 L 406.60 860.20 L 393.90 857.10 L 381.40 853.60 L 368.90 849.60 L 356.60 845.20 L 344.50 840.30 L 332.60 835.00 L 320.80 829.30 L 309.30 823.20 L 297.90 816.60 L 287.00 809.80 L 276.40 802.60 L 266.00 795.00 L 255.90 787.10 L 246.00 778.80 L 260.00 781.30 L 274.00 783.40 L 288.10 785.00 L 302.20 786.10 L 316.30 786.80 L 330.50 787.00 L 346.60 786.70 L 362.40 785.80 L 378.00 784.40 L 393.50 782.50 L 408.70 780.00 L 423.90 776.90 L 438.80 773.40 L 453.60 769.30 L 468.00 764.80 L 482.30 759.70 L 496.40 754.20 L 510.30 748.10 L 523.80 741.70 L 537.10 734.80 L 550.10 727.50 L 562.90 719.70 L 575.40 711.50 L 587.50 702.90 L 599.40 693.90 L 610.90 684.40 L 622.20 674.70 L 633.00 664.50 L 643.50 654.00 L 653.70 643.20 L 663.40 631.90 L 672.90 620.40 L 681.90 608.50 L 690.50 596.40 L 698.70 583.90 L 706.50 571.10 L 713.80 558.10 L 720.70 544.80 L 727.10 531.30 L 733.20 517.40 L 738.70 503.30 L 743.80 489.00 L 748.30 474.60 L 752.40 459.80 L 755.90 444.90 L 759.00 429.70 L 761.50 414.50 L 763.40 399.00 L 764.80 383.40 L 765.70 367.60 L 766.00 351.50 L 765.30 326.00 L 763.10 300.60 L 759.40 275.40 L 754.20 250.40 L 763.40 260.60 L 772.20 271.00 L 780.50 281.70 L 788.50 292.70 L 796.00 304.00 L 803.20 315.60 L 809.90 327.40 L 816.10 339.50 L 821.90 351.80 L 827.30 364.30 L 832.30 377.30 L 836.70 390.50 L 840.70 403.80 L 844.20 417.20 L 847.10 430.90 L 849.20 442.50 L 852.20 465.90 L 853.20 477.90 L 854.00 502.00 L 853.80 514.50 L 853.20 527.00 L 852.10 539.50 L 850.30 554.40 L 847.90 569.00 L 845.00 583.30 L 841.50 597.40 L 837.50 611.30 L 832.90 625.00 L 827.90 638.50 L 822.30 651.60 L 816.30 664.50 L 809.80 677.10 L 802.70 689.50 L 795.30 701.50 L 787.40 713.20 L 779.10 724.60 L 770.30 735.60 L 761.10 746.30 L 751.60 756.60 L 741.60 766.60 L 731.30 776.10 L 720.60 785.30 L 709.60 794.10 L 698.20 802.40 L 686.50 810.30 L 674.50 817.70 L 662.10 824.80 L 649.50 831.30 L 636.60 837.30 L 623.50 842.90 L 610.00 847.90 L 596.30 852.50 L 582.40 856.50 L 568.30 860.00 L 554.00 862.90 L 539.40 865.30 L 524.50 867.10 L 512.00 868.20 L 499.50 868.80 L 487.00 869.00 Z" fill="#af1f2f" fill-rule="nonzero" group-id="2,18" id="减去_31" node-id="38" stroke="none" target-height="618.6" target-width="608" target-x="246" target-y="250.4"></path><path d="M 854.00 502.00 L 853.70 516.60 L 852.80 531.10 L 851.40 545.50 L 849.40 559.80 L 846.90 573.90 L 843.80 588.00 L 840.10 601.90 L 836.00 615.60 L 831.30 629.10 L 826.10 642.40 L 820.30 655.60 L 814.10 668.50 L 807.30 681.10 L 800.10 693.50 L 792.30 705.60 L 784.10 717.40 L 775.40 728.90 L 766.30 740.10 L 756.60 750.90 L 746.50 761.50 L 735.90 771.60 L 725.10 781.30 L 713.90 790.40 L 702.40 799.10 L 690.60 807.30 L 678.50 815.10 L 666.10 822.30 L 653.50 829.10 L 640.60 835.30 L 627.40 841.10 L 614.10 846.30 L 600.60 851.00 L 586.90 855.10 L 573.00 858.80 L 558.90 861.90 L 544.80 864.40 L 530.50 866.40 L 516.10 867.80 L 501.60 868.70 L 487.00 869.00 L 472.40 868.70 L 457.90 867.80 L 443.50 866.40 L 429.20 864.40 L 415.10 861.90 L 401.00 858.80 L 387.10 855.10 L 373.40 851.00 L 359.90 846.30 L 346.60 841.10 L 333.40 835.30 L 320.50 829.10 L 307.90 822.30 L 295.50 815.10 L 283.40 807.30 L 271.60 799.10 L 260.10 790.40 L 248.90 781.30 L 238.10 771.60 L 227.50 761.50 L 217.40 750.90 L 207.70 740.10 L 198.60 728.90 L 189.90 717.40 L 181.70 705.60 L 173.90 693.50 L 166.70 681.10 L 159.90 668.50 L 153.70 655.60 L 147.90 642.40 L 142.70 629.10 L 138.00 615.60 L 133.90 601.90 L 130.20 588.00 L 127.10 573.90 L 124.60 559.80 L 122.60 545.50 L 121.20 531.10 L 120.30 516.60 L 120.00 502.00 L 120.30 487.40 L 121.20 472.90 L 122.60 458.50 L 124.60 444.20 L 127.10 430.10 L 130.20 416.00 L 133.90 402.10 L 138.00 388.40 L 142.70 374.90 L 147.90 361.60 L 153.70 348.40 L 159.90 335.50 L 166.70 322.90 L 173.90 310.50 L 181.70 298.40 L 189.90 286.60 L 198.60 275.10 L 207.70 263.90 L 217.40 253.10 L 227.50 242.50 L 238.10 232.40 L 248.90 222.70 L 260.10 213.60 L 271.60 204.90 L 283.40 196.70 L 295.50 188.90 L 307.90 181.70 L 320.50 174.90 L 333.40 168.70 L 346.60 162.90 L 359.90 157.70 L 373.40 153.00 L 387.10 148.90 L 401.00 145.20 L 415.10 142.10 L 429.20 139.60 L 443.50 137.60 L 457.90 136.20 L 472.40 135.30 L 487.00 135.00 L 501.60 135.30 L 516.10 136.20 L 530.50 137.60 L 544.80 139.60 L 558.90 142.10 L 573.00 145.20 L 586.90 148.90 L 600.60 153.00 L 614.10 157.70 L 627.40 162.90 L 640.60 168.70 L 653.50 174.90 L 666.10 181.70 L 678.50 188.90 L 690.60 196.70 L 702.40 204.90 L 713.90 213.60 L 725.10 222.70 L 735.90 232.40 L 746.50 242.50 L 756.60 253.10 L 766.30 263.90 L 775.40 275.10 L 784.10 286.60 L 792.30 298.40 L 800.10 310.50 L 807.30 322.90 L 814.10 335.50 L 820.30 348.40 L 826.10 361.60 L 831.30 374.90 L 836.00 388.40 L 840.10 402.10 L 843.80 416.00 L 846.90 430.10 L 849.40 444.20 L 851.40 458.50 L 852.80 472.90 L 853.70 487.40 L 854.00 502.00 Z" fill="none" group-id="2,19" node-id="191" stroke="none" target-height="734" target-width="734" target-x="120" target-y="135"></path><path d="M 848.00 502.00 L 847.70 517.00 L 846.80 531.80 L 845.30 546.30 L 843.30 560.60 L 840.70 574.80 L 837.50 588.80 L 833.80 602.60 L 829.60 616.20 L 824.90 629.50 L 819.60 642.50 L 813.90 655.40 L 807.70 668.00 L 801.00 680.20 L 793.90 692.20 L 786.30 703.80 L 778.30 715.20 L 769.90 726.30 L 761.10 736.90 L 751.90 747.30 L 742.30 757.30 L 732.30 766.90 L 721.90 776.10 L 711.30 784.90 L 700.20 793.30 L 688.80 801.30 L 677.20 808.90 L 665.20 816.00 L 653.00 822.70 L 640.40 828.90 L 627.50 834.60 L 614.50 839.90 L 601.20 844.60 L 587.60 848.80 L 573.80 852.50 L 559.80 855.70 L 545.60 858.30 L 531.30 860.30 L 516.80 861.80 L 502.00 862.70 L 487.00 863.00 L 472.00 862.70 L 457.20 861.80 L 442.70 860.30 L 428.40 858.30 L 414.20 855.70 L 400.20 852.50 L 386.40 848.80 L 372.80 844.60 L 359.50 839.90 L 346.50 834.60 L 333.60 828.90 L 321.00 822.70 L 308.80 816.00 L 296.80 808.90 L 285.20 801.30 L 273.80 793.30 L 262.70 784.90 L 252.10 776.10 L 241.70 766.90 L 231.70 757.30 L 222.10 747.30 L 212.90 736.90 L 204.10 726.30 L 195.70 715.20 L 187.70 703.80 L 180.10 692.20 L 173.00 680.20 L 166.30 668.00 L 160.10 655.40 L 154.40 642.50 L 149.10 629.50 L 144.40 616.20 L 140.20 602.60 L 136.50 588.80 L 133.30 574.80 L 130.70 560.60 L 128.70 546.30 L 127.20 531.80 L 126.30 517.00 L 126.00 502.00 L 126.30 487.00 L 127.20 472.20 L 128.70 457.70 L 130.70 443.40 L 133.30 429.20 L 136.50 415.20 L 140.20 401.40 L 144.40 387.80 L 149.10 374.50 L 154.40 361.50 L 160.10 348.60 L 166.30 336.00 L 173.00 323.80 L 180.10 311.80 L 187.70 300.20 L 195.70 288.80 L 204.10 277.70 L 212.90 267.10 L 222.10 256.70 L 231.70 246.70 L 241.70 237.10 L 252.10 227.90 L 262.70 219.10 L 273.80 210.70 L 285.20 202.70 L 296.80 195.10 L 308.80 188.00 L 321.00 181.30 L 333.60 175.10 L 346.50 169.40 L 359.50 164.10 L 372.80 159.40 L 386.40 155.20 L 400.20 151.50 L 414.20 148.30 L 428.40 145.70 L 442.70 143.70 L 457.20 142.20 L 472.00 141.30 L 487.00 141.00 L 502.00 141.30 L 516.80 142.20 L 531.30 143.70 L 545.60 145.70 L 559.80 148.30 L 573.80 151.50 L 587.60 155.20 L 601.20 159.40 L 614.50 164.10 L 627.50 169.40 L 640.40 175.10 L 653.00 181.30 L 665.20 188.00 L 677.20 195.10 L 688.80 202.70 L 700.20 210.70 L 711.30 219.10 L 721.90 227.90 L 732.30 237.10 L 742.30 246.70 L 751.90 256.70 L 761.10 267.10 L 769.90 277.70 L 778.30 288.80 L 786.30 300.20 L 793.90 311.80 L 801.00 323.80 L 807.70 336.00 L 813.90 348.60 L 819.60 361.50 L 824.90 374.50 L 829.60 387.80 L 833.80 401.40 L 837.50 415.20 L 840.70 429.20 L 843.30 443.40 L 845.30 457.70 L 846.80 472.20 L 847.70 487.00 L 848.00 502.00 Z" fill="none" group-id="2,19" node-id="193" stroke="#300d35" stroke-linecap="butt" stroke-width="12" target-height="722" target-width="722" target-x="126" target-y="141"></path><path d="M 487.60 220.80 L 481.50 226.90 L 477.30 230.50 L 455.20 247.60 L 439.60 260.60 L 432.50 267.40 L 428.10 272.20 L 424.20 277.00 L 421.00 281.80 L 418.90 285.60 L 417.30 289.30 L 416.10 293.10 L 415.30 296.80 L 413.90 313.90 L 413.60 332.90 L 413.80 351.50 L 415.30 383.20 L 559.10 378.40 L 560.30 349.80 L 560.40 332.40 L 560.00 314.10 L 558.80 296.80 L 558.10 292.80 L 556.90 288.90 L 555.40 285.10 L 553.40 281.40 L 550.30 276.60 L 546.70 271.90 L 542.50 267.30 L 535.70 260.80 L 528.30 254.40 L 498.60 231.40 L 494.30 227.70 L 487.60 220.80 Z" fill="#f8cb48" fill-rule="nonzero" group-id="3,20,22" id="路径_148" node-id="45" stroke="#390128" stroke-linecap="butt" stroke-width="12" target-height="162.40001" target-width="146.80002" target-x="413.6" target-y="220.8"></path><path d="M 487.00 274.30 L 491.50 274.60 L 495.70 275.50 L 499.70 276.90 L 503.50 278.80 L 506.90 281.10 L 510.00 283.90 L 512.80 287.00 L 515.10 290.40 L 517.00 294.20 L 518.40 298.20 L 519.20 302.40 L 519.50 306.80 L 519.50 344.80 L 519.20 349.30 L 518.40 353.50 L 517.00 357.50 L 515.10 361.30 L 512.80 364.70 L 510.00 367.80 L 506.90 370.60 L 503.50 372.90 L 499.70 374.80 L 495.70 376.20 L 491.50 377.00 L 487.00 377.30 L 482.60 377.00 L 478.40 376.20 L 474.40 374.80 L 470.60 372.90 L 467.20 370.60 L 464.10 367.80 L 461.30 364.70 L 459.00 361.30 L 457.10 357.50 L 455.70 353.50 L 454.90 349.30 L 454.50 344.80 L 454.50 306.80 L 454.90 302.40 L 455.70 298.20 L 457.10 294.20 L 459.00 290.40 L 461.30 287.00 L 464.10 283.90 L 467.20 281.10 L 470.60 278.80 L 474.40 276.90 L 478.40 275.50 L 482.60 274.60 L 487.00 274.30 Z" fill="#f8cb48" fill-rule="nonzero" group-id="3,20,22,35" node-id="202" stroke="none" target-height="103" target-width="65" target-x="454.5" target-y="274.3"></path><path d="M 487.00 280.30 L 490.70 280.60 L 494.10 281.30 L 497.40 282.40 L 500.40 284.00 L 503.20 285.90 L 505.80 288.10 L 508.00 290.60 L 509.90 293.40 L 511.50 296.50 L 512.60 299.80 L 513.30 303.20 L 513.50 306.80 L 513.50 344.80 L 513.30 348.50 L 512.60 351.90 L 511.50 355.20 L 509.90 358.20 L 508.00 361.00 L 505.80 363.60 L 503.20 365.80 L 500.40 367.70 L 497.40 369.30 L 494.10 370.40 L 490.70 371.10 L 487.00 371.30 L 483.40 371.10 L 480.00 370.40 L 476.70 369.30 L 473.70 367.70 L 470.90 365.80 L 468.30 363.60 L 466.10 361.00 L 464.20 358.20 L 462.60 355.20 L 461.50 351.90 L 460.80 348.50 L 460.50 344.80 L 460.50 306.80 L 460.80 303.20 L 461.50 299.80 L 462.60 296.50 L 464.20 293.40 L 466.10 290.60 L 468.30 288.10 L 470.90 285.90 L 473.70 284.00 L 476.70 282.40 L 480.00 281.30 L 483.40 280.60 L 487.00 280.30 Z" fill="none" group-id="3,20,22,35" node-id="204" stroke="#390128" stroke-linecap="butt" stroke-width="12" target-height="91" target-width="53" target-x="460.5" target-y="280.3"></path><path d="M 486.40 783.20 L 492.50 777.10 L 496.70 773.50 L 518.80 756.40 L 534.40 743.40 L 541.50 736.60 L 546.00 731.80 L 549.80 727.00 L 553.00 722.20 L 555.10 718.40 L 556.80 714.70 L 557.90 710.90 L 558.70 707.20 L 560.10 690.10 L 560.40 671.10 L 560.20 652.50 L 558.70 620.80 L 414.90 625.60 L 413.70 654.20 L 413.60 671.60 L 414.00 689.90 L 415.30 707.20 L 416.00 711.20 L 417.10 715.10 L 418.60 718.90 L 420.60 722.60 L 423.70 727.40 L 427.30 732.10 L 431.50 736.70 L 438.30 743.20 L 445.70 749.60 L 475.40 772.60 L 479.70 776.30 L 486.40 783.20 Z" fill="#f2cc49" fill-rule="nonzero" group-id="3,20,23" id="路径_148-2" node-id="50" stroke="#390128" stroke-linecap="butt" stroke-width="12" target-height="162.40002" target-width="146.80002" target-x="413.6" target-y="620.8"></path><path d="M 487.00 729.70 L 482.50 729.40 L 478.30 728.50 L 474.30 727.10 L 470.50 725.20 L 467.10 722.90 L 464.00 720.10 L 461.20 717.00 L 458.90 713.60 L 457.00 709.80 L 455.60 705.80 L 454.80 701.60 L 454.50 697.20 L 454.50 659.20 L 454.80 654.70 L 455.60 650.50 L 457.00 646.50 L 458.90 642.70 L 461.20 639.30 L 464.00 636.20 L 467.10 633.40 L 470.50 631.10 L 474.30 629.20 L 478.30 627.80 L 482.50 627.00 L 487.00 626.70 L 491.40 627.00 L 495.60 627.80 L 499.60 629.20 L 503.40 631.10 L 506.80 633.40 L 509.90 636.20 L 512.70 639.30 L 515.00 642.70 L 516.90 646.50 L 518.30 650.50 L 519.10 654.70 L 519.50 659.20 L 519.50 697.20 L 519.10 701.60 L 518.30 705.80 L 516.90 709.80 L 515.00 713.60 L 512.70 717.00 L 509.90 720.10 L 506.80 722.90 L 503.40 725.20 L 499.60 727.10 L 495.60 728.50 L 491.40 729.40 L 487.00 729.70 Z" fill="#ebb755" fill-rule="nonzero" group-id="3,20,23,36" node-id="211" stroke="none" target-height="103" target-width="65" target-x="454.5" target-y="626.7"></path><path d="M 487.00 723.70 L 483.30 723.40 L 479.90 722.70 L 476.60 721.60 L 473.60 720.00 L 470.80 718.10 L 468.20 715.90 L 466.00 713.40 L 464.10 710.60 L 462.50 707.50 L 461.40 704.20 L 460.70 700.80 L 460.50 697.20 L 460.50 659.20 L 460.70 655.50 L 461.40 652.10 L 462.50 648.80 L 464.10 645.80 L 466.00 643.00 L 468.20 640.40 L 470.80 638.20 L 473.60 636.30 L 476.60 634.70 L 479.90 633.60 L 483.30 632.90 L 487.00 632.70 L 490.60 632.90 L 494.00 633.60 L 497.30 634.70 L 500.30 636.30 L 503.10 638.20 L 505.70 640.40 L 507.90 643.00 L 509.80 645.80 L 511.40 648.80 L 512.50 652.10 L 513.20 655.50 L 513.50 659.20 L 513.50 697.20 L 513.20 700.80 L 512.50 704.20 L 511.40 707.50 L 509.80 710.60 L 507.90 713.40 L 505.70 715.90 L 503.10 718.10 L 500.30 720.00 L 497.30 721.60 L 494.00 722.70 L 490.60 723.40 L 487.00 723.70 Z" fill="none" group-id="3,20,23,36" node-id="213" stroke="#390128" stroke-linecap="butt" stroke-width="12" target-height="91" target-width="53" target-x="460.5" target-y="632.7"></path><path d="M 768.20 502.60 L 762.10 496.50 L 758.50 492.30 L 741.40 470.20 L 728.40 454.60 L 721.60 447.50 L 716.80 443.10 L 712.00 439.20 L 707.20 436.00 L 703.40 433.90 L 699.70 432.20 L 695.90 431.10 L 692.20 430.30 L 675.10 428.90 L 656.10 428.60 L 637.50 428.80 L 605.80 430.30 L 610.60 574.10 L 639.20 575.30 L 656.60 575.40 L 674.90 575.00 L 692.20 573.80 L 696.20 573.10 L 700.10 571.90 L 703.90 570.40 L 707.60 568.40 L 712.40 565.30 L 717.10 561.70 L 721.70 557.50 L 728.20 550.70 L 734.60 543.30 L 757.60 513.60 L 761.30 509.30 L 768.20 502.60 Z" fill="#f0a12a" fill-rule="nonzero" group-id="3,20,24" id="路径_148-3" node-id="55" stroke="#390128" stroke-linecap="butt" stroke-width="12" target-height="146.80002" target-width="162.40002" target-x="605.8" target-y="428.6"></path><path d="M 714.70 502.00 L 714.40 506.50 L 713.50 510.70 L 712.10 514.70 L 710.20 518.50 L 707.90 521.90 L 705.10 525.00 L 702.00 527.80 L 698.60 530.10 L 694.80 532.00 L 690.80 533.40 L 686.60 534.20 L 682.20 534.50 L 644.20 534.50 L 639.70 534.20 L 635.50 533.40 L 631.50 532.00 L 627.70 530.10 L 624.30 527.80 L 621.20 525.00 L 618.40 521.90 L 616.10 518.50 L 614.20 514.70 L 612.80 510.70 L 612.00 506.50 L 611.70 502.00 L 612.00 497.60 L 612.80 493.40 L 614.20 489.40 L 616.10 485.60 L 618.40 482.20 L 621.20 479.10 L 624.30 476.30 L 627.70 474.00 L 631.50 472.10 L 635.50 470.70 L 639.70 469.90 L 644.20 469.50 L 682.20 469.50 L 686.60 469.90 L 690.80 470.70 L 694.80 472.10 L 698.60 474.00 L 702.00 476.30 L 705.10 479.10 L 707.90 482.20 L 710.20 485.60 L 712.10 489.40 L 713.50 493.40 L 714.40 497.60 L 714.70 502.00 Z" fill="#dfad77" fill-rule="nonzero" group-id="3,20,24,37" node-id="220" stroke="none" target-height="65" target-width="103" target-x="611.7" target-y="469.5"></path><path d="M 708.70 502.00 L 708.40 505.70 L 707.70 509.10 L 706.60 512.40 L 705.00 515.40 L 703.10 518.20 L 700.90 520.80 L 698.40 523.00 L 695.60 524.90 L 692.50 526.50 L 689.20 527.60 L 685.80 528.30 L 682.20 528.50 L 644.20 528.50 L 640.50 528.30 L 637.10 527.60 L 633.80 526.50 L 630.80 524.90 L 628.00 523.00 L 625.40 520.80 L 623.20 518.20 L 621.30 515.40 L 619.70 512.40 L 618.60 509.10 L 617.90 505.70 L 617.70 502.00 L 617.90 498.40 L 618.60 495.00 L 619.70 491.70 L 621.30 488.70 L 623.20 485.90 L 625.40 483.30 L 628.00 481.10 L 630.80 479.20 L 633.80 477.60 L 637.10 476.50 L 640.50 475.80 L 644.20 475.50 L 682.20 475.50 L 685.80 475.80 L 689.20 476.50 L 692.50 477.60 L 695.60 479.20 L 698.40 481.10 L 700.90 483.30 L 703.10 485.90 L 705.00 488.70 L 706.60 491.70 L 707.70 495.00 L 708.40 498.40 L 708.70 502.00 Z" fill="none" group-id="3,20,24,37" node-id="222" stroke="#390128" stroke-linecap="butt" stroke-width="12" target-height="53" target-width="91" target-x="617.7" target-y="475.5"></path><path d="M 205.80 501.40 L 211.90 507.50 L 215.50 511.70 L 232.60 533.80 L 245.60 549.40 L 252.40 556.50 L 257.20 560.90 L 262.00 564.80 L 266.80 568.00 L 270.60 570.10 L 274.30 571.80 L 278.10 572.90 L 281.80 573.70 L 298.90 575.10 L 317.90 575.40 L 336.50 575.20 L 368.20 573.70 L 363.40 429.90 L 334.80 428.70 L 317.40 428.60 L 299.10 429.00 L 281.80 430.20 L 277.80 430.90 L 273.90 432.10 L 270.10 433.60 L 266.40 435.60 L 261.60 438.70 L 256.90 442.30 L 252.30 446.50 L 245.80 453.30 L 239.40 460.70 L 216.40 490.40 L 212.70 494.70 L 205.80 501.40 Z" fill="#f3df3f" fill-rule="nonzero" group-id="3,20,25" id="路径_148-4" node-id="60" stroke="#390128" stroke-linecap="butt" stroke-width="12" target-height="146.80002" target-width="162.40001" target-x="205.8" target-y="428.6"></path><path d="M 259.30 502.00 L 259.60 497.50 L 260.50 493.30 L 261.90 489.30 L 263.80 485.50 L 266.10 482.10 L 268.90 479.00 L 272.00 476.20 L 275.40 473.90 L 279.20 472.00 L 283.20 470.60 L 287.40 469.80 L 291.80 469.50 L 329.80 469.50 L 334.30 469.80 L 338.50 470.60 L 342.50 472.00 L 346.30 473.90 L 349.70 476.20 L 352.80 479.00 L 355.60 482.10 L 357.90 485.50 L 359.80 489.30 L 361.20 493.30 L 362.00 497.50 L 362.30 502.00 L 362.00 506.40 L 361.20 510.60 L 359.80 514.60 L 357.90 518.40 L 355.60 521.80 L 352.80 524.90 L 349.70 527.70 L 346.30 530.00 L 342.50 531.90 L 338.50 533.30 L 334.30 534.10 L 329.80 534.50 L 291.80 534.50 L 287.40 534.10 L 283.20 533.30 L 279.20 531.90 L 275.40 530.00 L 272.00 527.70 L 268.90 524.90 L 266.10 521.80 L 263.80 518.40 L 261.90 514.60 L 260.50 510.60 L 259.60 506.40 L 259.30 502.00 Z" fill="#f3df3f" fill-rule="nonzero" group-id="3,20,25,38" node-id="229" stroke="none" target-height="65" target-width="103" target-x="259.3" target-y="469.5"></path><path d="M 265.30 502.00 L 265.60 498.30 L 266.30 494.90 L 267.40 491.60 L 269.00 488.60 L 270.90 485.80 L 273.10 483.20 L 275.60 481.00 L 278.40 479.10 L 281.50 477.50 L 284.80 476.40 L 288.20 475.70 L 291.80 475.50 L 329.80 475.50 L 333.50 475.70 L 336.90 476.40 L 340.20 477.50 L 343.20 479.10 L 346.00 481.00 L 348.60 483.20 L 350.80 485.80 L 352.70 488.60 L 354.30 491.60 L 355.40 494.90 L 356.10 498.30 L 356.30 502.00 L 356.10 505.60 L 355.40 509.00 L 354.30 512.30 L 352.70 515.30 L 350.80 518.10 L 348.60 520.70 L 346.00 522.90 L 343.20 524.80 L 340.20 526.40 L 336.90 527.50 L 333.50 528.20 L 329.80 528.50 L 291.80 528.50 L 288.20 528.20 L 284.80 527.50 L 281.50 526.40 L 278.40 524.80 L 275.60 522.90 L 273.10 520.70 L 270.90 518.10 L 269.00 515.30 L 267.40 512.30 L 266.30 509.00 L 265.60 505.60 L 265.30 502.00 Z" fill="none" group-id="3,20,25,38" node-id="231" stroke="#390128" stroke-linecap="butt" stroke-width="12" target-height="53" target-width="91" target-x="265.3" target-y="475.5"></path><path d="M 664.50 502.30 L 664.30 512.20 L 663.50 521.90 L 662.20 531.30 L 660.40 540.60 L 658.20 549.70 L 655.40 558.70 L 652.30 567.40 L 648.70 575.90 L 644.70 584.10 L 640.20 592.20 L 635.40 600.00 L 630.20 607.50 L 624.60 614.70 L 618.70 621.60 L 612.40 628.20 L 605.80 634.50 L 598.90 640.40 L 591.70 646.00 L 584.20 651.20 L 576.40 656.00 L 568.40 660.50 L 560.10 664.50 L 551.60 668.10 L 542.90 671.20 L 533.90 674.00 L 524.80 676.20 L 515.50 678.00 L 506.10 679.30 L 496.40 680.10 L 486.50 680.30 L 476.70 680.10 L 467.00 679.30 L 457.60 678.00 L 448.30 676.20 L 439.20 674.00 L 430.20 671.20 L 421.50 668.10 L 413.00 664.50 L 404.70 660.50 L 396.70 656.00 L 388.90 651.20 L 381.40 646.00 L 374.20 640.40 L 367.30 634.50 L 360.70 628.20 L 354.40 621.60 L 348.50 614.70 L 342.90 607.50 L 337.70 600.00 L 332.90 592.20 L 328.40 584.10 L 324.40 575.90 L 320.80 567.40 L 317.70 558.70 L 314.90 549.70 L 312.70 540.60 L 310.90 531.30 L 309.60 521.90 L 308.80 512.20 L 308.50 502.30 L 308.80 492.50 L 309.60 482.80 L 310.90 473.30 L 312.70 464.10 L 314.90 455.00 L 317.70 446.00 L 320.80 437.30 L 324.40 428.80 L 328.40 420.50 L 332.90 412.50 L 337.70 404.70 L 342.90 397.20 L 348.50 390.00 L 354.40 383.10 L 360.70 376.50 L 367.30 370.20 L 374.20 364.30 L 381.40 358.70 L 388.90 353.50 L 396.70 348.60 L 404.70 344.20 L 413.00 340.20 L 421.50 336.60 L 430.20 333.40 L 439.20 330.70 L 448.30 328.40 L 457.60 326.70 L 467.00 325.40 L 476.70 324.60 L 486.50 324.30 L 496.40 324.60 L 506.10 325.40 L 515.50 326.70 L 524.80 328.40 L 533.90 330.70 L 542.90 333.40 L 551.60 336.60 L 560.10 340.20 L 568.40 344.20 L 576.40 348.60 L 584.20 353.50 L 591.70 358.70 L 598.90 364.30 L 605.80 370.20 L 612.40 376.50 L 618.70 383.10 L 624.60 390.00 L 630.20 397.20 L 635.40 404.70 L 640.20 412.50 L 644.70 420.50 L 648.70 428.80 L 652.30 437.30 L 655.40 446.00 L 658.20 455.00 L 660.40 464.10 L 662.20 473.30 L 663.50 482.80 L 664.30 492.50 L 664.50 502.30 Z" fill="url(#linear-gradient)" fill-rule="nonzero" group-id="3,21,26" node-id="238" stroke="none" target-height="356" target-width="356" target-x="308.5" target-y="324.3"></path><path d="M 658.50 502.30 L 658.30 511.90 L 657.50 521.20 L 656.30 530.30 L 654.60 539.30 L 652.40 548.10 L 649.80 556.80 L 646.70 565.20 L 643.20 573.40 L 639.40 581.40 L 635.10 589.10 L 630.40 596.70 L 625.30 603.90 L 620.00 610.90 L 614.20 617.60 L 608.20 624.00 L 601.80 630.00 L 595.10 635.80 L 588.20 641.10 L 580.90 646.20 L 573.40 650.90 L 565.60 655.10 L 557.60 659.00 L 549.40 662.50 L 541.00 665.50 L 532.30 668.20 L 523.50 670.40 L 514.60 672.10 L 505.40 673.30 L 496.10 674.10 L 486.50 674.30 L 477.00 674.10 L 467.70 673.30 L 458.50 672.10 L 449.60 670.40 L 440.80 668.20 L 432.10 665.50 L 423.70 662.50 L 415.50 659.00 L 407.50 655.10 L 399.70 650.90 L 392.20 646.20 L 384.90 641.10 L 378.00 635.80 L 371.30 630.00 L 364.90 624.00 L 358.80 617.60 L 353.10 610.90 L 347.80 603.90 L 342.70 596.70 L 338.00 589.10 L 333.70 581.40 L 329.90 573.40 L 326.40 565.20 L 323.30 556.80 L 320.70 548.10 L 318.50 539.30 L 316.80 530.30 L 315.60 521.20 L 314.80 511.90 L 314.50 502.30 L 314.80 492.80 L 315.60 483.50 L 316.80 474.30 L 318.50 465.40 L 320.70 456.60 L 323.30 447.90 L 326.40 439.50 L 329.90 431.30 L 333.70 423.30 L 338.00 415.50 L 342.70 408.00 L 347.80 400.70 L 353.10 393.80 L 358.80 387.10 L 364.90 380.70 L 371.30 374.60 L 378.00 368.90 L 384.90 363.50 L 392.20 358.50 L 399.70 353.80 L 407.50 349.50 L 415.50 345.70 L 423.70 342.20 L 432.10 339.10 L 440.80 336.50 L 449.60 334.30 L 458.50 332.60 L 467.70 331.40 L 477.00 330.60 L 486.50 330.30 L 496.10 330.60 L 505.40 331.40 L 514.60 332.60 L 523.50 334.30 L 532.30 336.50 L 541.00 339.10 L 549.40 342.20 L 557.60 345.70 L 565.60 349.50 L 573.40 353.80 L 580.90 358.50 L 588.20 363.50 L 595.10 368.90 L 601.80 374.60 L 608.20 380.70 L 614.20 387.10 L 620.00 393.80 L 625.30 400.70 L 630.40 408.00 L 635.10 415.50 L 639.40 423.30 L 643.20 431.30 L 646.70 439.50 L 649.80 447.90 L 652.40 456.60 L 654.60 465.40 L 656.30 474.30 L 657.50 483.50 L 658.30 492.80 L 658.50 502.30 Z" fill="none" group-id="3,21,26" node-id="240" stroke="#280e34" stroke-linecap="butt" stroke-width="12" target-height="344" target-width="344" target-x="314.5" target-y="330.3"></path><path d="M 625.50 502.30 L 625.20 512.00 L 624.30 521.30 L 622.70 530.40 L 620.60 539.30 L 617.90 548.00 L 614.60 556.50 L 610.80 564.60 L 606.60 572.50 L 601.80 580.10 L 596.60 587.30 L 590.90 594.10 L 584.80 600.60 L 578.30 606.70 L 571.50 612.40 L 564.30 617.60 L 556.70 622.40 L 548.80 626.60 L 540.70 630.40 L 532.30 633.60 L 523.50 636.40 L 514.60 638.50 L 505.50 640.10 L 496.20 641.00 L 486.50 641.30 L 476.90 641.00 L 467.60 640.10 L 458.50 638.50 L 449.60 636.40 L 440.80 633.60 L 432.40 630.40 L 424.30 626.60 L 416.40 622.40 L 408.80 617.60 L 401.60 612.40 L 394.80 606.70 L 388.30 600.60 L 382.20 594.10 L 376.50 587.30 L 371.30 580.10 L 366.50 572.50 L 362.20 564.60 L 358.50 556.50 L 355.20 548.00 L 352.50 539.30 L 350.40 530.40 L 348.80 521.30 L 347.90 512.00 L 347.50 502.30 L 347.90 492.70 L 348.80 483.40 L 350.40 474.30 L 352.50 465.40 L 355.20 456.60 L 358.50 448.20 L 362.20 440.00 L 366.50 432.20 L 371.30 424.60 L 376.50 417.40 L 382.20 410.50 L 388.30 404.00 L 394.80 398.00 L 401.60 392.30 L 408.80 387.10 L 416.40 382.30 L 424.30 378.00 L 432.40 374.30 L 440.80 371.00 L 449.60 368.30 L 458.50 366.20 L 467.60 364.60 L 476.90 363.70 L 486.50 363.30 L 496.20 363.70 L 505.50 364.60 L 514.60 366.20 L 523.50 368.30 L 532.30 371.00 L 540.70 374.30 L 548.80 378.00 L 556.70 382.30 L 564.30 387.10 L 571.50 392.30 L 578.30 398.00 L 584.80 404.00 L 590.90 410.50 L 596.60 417.40 L 601.80 424.60 L 606.60 432.20 L 610.80 440.00 L 614.60 448.20 L 617.90 456.60 L 620.60 465.40 L 622.70 474.30 L 624.30 483.40 L 625.20 492.70 L 625.50 502.30 Z" fill="#51c3a7" fill-rule="nonzero" group-id="3,21,27" node-id="244" stroke="none" target-height="278" target-width="278" target-x="347.5" target-y="363.3"></path><path d="M 619.50 502.30 L 619.20 511.50 L 618.30 520.50 L 616.80 529.20 L 614.80 537.70 L 612.20 546.10 L 609.10 554.10 L 605.50 561.90 L 601.40 569.50 L 596.80 576.70 L 591.80 583.60 L 586.40 590.20 L 580.60 596.40 L 574.40 602.20 L 567.80 607.60 L 560.90 612.60 L 553.70 617.20 L 546.20 621.30 L 538.40 624.90 L 530.30 628.00 L 521.90 630.60 L 513.40 632.60 L 504.70 634.10 L 495.80 635.00 L 486.50 635.30 L 477.30 635.00 L 468.40 634.10 L 459.70 632.60 L 451.20 630.60 L 442.80 628.00 L 434.70 624.90 L 426.90 621.30 L 419.40 617.20 L 412.20 612.60 L 405.30 607.60 L 398.70 602.20 L 392.50 596.40 L 386.70 590.20 L 381.30 583.60 L 376.30 576.70 L 371.70 569.50 L 367.60 561.90 L 364.00 554.10 L 360.90 546.10 L 358.30 537.70 L 356.30 529.20 L 354.80 520.50 L 353.90 511.50 L 353.50 502.30 L 353.90 493.10 L 354.80 484.20 L 356.30 475.50 L 358.30 467.00 L 360.90 458.60 L 364.00 450.50 L 367.60 442.70 L 371.70 435.20 L 376.30 427.90 L 381.30 421.10 L 386.70 414.50 L 392.50 408.30 L 398.70 402.50 L 405.30 397.10 L 412.20 392.10 L 419.40 387.50 L 426.90 383.40 L 434.70 379.80 L 442.80 376.70 L 451.20 374.10 L 459.70 372.00 L 468.40 370.60 L 477.30 369.70 L 486.50 369.30 L 495.80 369.70 L 504.70 370.60 L 513.40 372.00 L 521.90 374.10 L 530.30 376.70 L 538.40 379.80 L 546.20 383.40 L 553.70 387.50 L 560.90 392.10 L 567.80 397.10 L 574.40 402.50 L 580.60 408.30 L 586.40 414.50 L 591.80 421.10 L 596.80 427.90 L 601.40 435.20 L 605.50 442.70 L 609.10 450.50 L 612.20 458.60 L 614.80 467.00 L 616.80 475.50 L 618.30 484.20 L 619.20 493.10 L 619.50 502.30 Z" fill="none" group-id="3,21,27" node-id="246" stroke="#280e34" stroke-linecap="butt" stroke-width="12" target-height="266" target-width="266" target-x="353.5" target-y="369.3"></path><path d="M 487.00 637.00 L 487.00 367.50" fill="none" group-id="3,21,28" id="路径_149" node-id="71" stroke="#280e34" stroke-linecap="butt" stroke-width="12" target-height="269.5" target-width="0" target-x="487" target-y="367.5"></path><path d="M 352.80 491.30 L 621.30 491.30" fill="none" group-id="3,21,29" id="路径_150" node-id="72" stroke="#280e34" stroke-linecap="butt" stroke-width="12" target-height="0" target-width="268.5" target-x="352.8" target-y="491.3"></path><path d="M 352.80 528.30 L 621.30 528.30" fill="none" group-id="3,21,30" id="路径_151" node-id="73" stroke="#280e34" stroke-linecap="butt" stroke-width="12" target-height="0" target-width="268.5" target-x="352.8" target-y="528.3"></path><path d="M 425.50 434.30 L 537.50 434.30 L 537.50 491.30 L 425.50 491.30 Z" fill="#53c5aa" fill-rule="nonzero" group-id="3,21,31,39" node-id="263" stroke="none" target-height="57" target-width="112" target-x="425.5" target-y="434.3"></path><path d="M 431.50 440.30 L 531.50 440.30 L 531.50 485.30 L 431.50 485.30 Z" fill="none" group-id="3,21,31,39" node-id="265" stroke="#280e34" stroke-linecap="butt" stroke-width="12" target-height="45" target-width="100" target-x="431.5" target-y="440.3"></path><path d="M 481.50 418.30 L 487.70 419.20 L 490.50 420.10 L 495.60 423.10 L 499.70 427.30 L 501.40 429.70 L 503.70 435.20 L 504.50 441.30 L 504.50 491.30 L 458.50 491.30 L 458.50 441.30 L 458.80 438.20 L 459.40 435.20 L 461.70 429.70 L 463.40 427.30 L 467.50 423.10 L 472.60 420.10 L 475.40 419.20 L 478.40 418.60 L 481.50 418.30 Z" fill="#53c5aa" fill-rule="nonzero" group-id="3,21,31,40" node-id="269" stroke="none" target-height="73" target-width="46" target-x="458.5" target-y="418.3"></path><path d="M 481.50 424.30 L 484.70 424.60 L 487.50 425.40 L 490.10 426.70 L 492.50 428.30 L 494.50 430.40 L 496.20 432.80 L 497.50 435.40 L 498.30 438.20 L 498.50 441.30 L 498.50 485.30 L 464.50 485.30 L 464.50 441.30 L 464.80 438.20 L 465.60 435.40 L 466.90 432.80 L 468.60 430.40 L 470.60 428.30 L 473.00 426.70 L 475.60 425.40 L 478.40 424.60 L 481.50 424.30 Z" fill="none" group-id="3,21,31,40" node-id="271" stroke="#280e34" stroke-linecap="butt" stroke-width="12" target-height="61" target-width="34" target-x="464.5" target-y="424.3"></path><path d="M 416.80 426.70 L 430.40 438.40" fill="none" group-id="3,21,31" id="路径_152" node-id="81" stroke="#280e34" stroke-linecap="round" stroke-width="12" target-height="11.699982" target-width="13.600006" target-x="416.8" target-y="426.7"></path><path d="M 546.40 426.70 L 532.90 438.40" fill="none" group-id="3,21,31,41" id="路径_153" node-id="82" stroke="#280e34" stroke-linecap="round" stroke-width="12" target-height="11.699982" target-width="13.5" target-x="532.9" target-y="426.7"></path><path d="M 537.70 578.30 L 425.70 578.30 L 425.70 521.30 L 537.70 521.30 Z" fill="#53c5aa" fill-rule="nonzero" group-id="3,21,32,42" node-id="282" stroke="none" target-height="57" target-width="112" target-x="425.7" target-y="521.3"></path><path d="M 531.70 572.30 L 431.70 572.30 L 431.70 527.30 L 531.70 527.30 Z" fill="none" group-id="3,21,32,42" node-id="284" stroke="#280e34" stroke-linecap="butt" stroke-width="12" target-height="45" target-width="100" target-x="431.7" target-y="527.3"></path><path d="M 481.70 594.30 L 475.50 593.50 L 472.70 592.50 L 467.60 589.50 L 463.50 585.40 L 461.80 582.90 L 459.50 577.50 L 458.70 571.30 L 458.70 521.30 L 504.70 521.30 L 504.70 571.30 L 503.90 577.50 L 501.50 582.90 L 499.90 585.40 L 495.80 589.50 L 490.60 592.50 L 487.90 593.50 L 481.70 594.30 Z" fill="#53c5aa" fill-rule="nonzero" group-id="3,21,32,43" node-id="288" stroke="none" target-height="73" target-width="46" target-x="458.7" target-y="521.3"></path><path d="M 481.70 588.30 L 478.60 588.00 L 475.70 587.30 L 473.10 586.00 L 470.70 584.30 L 468.70 582.30 L 467.00 579.90 L 465.80 577.30 L 465.00 574.40 L 464.70 571.30 L 464.70 527.30 L 498.70 527.30 L 498.70 571.30 L 498.40 574.40 L 497.60 577.30 L 496.40 579.90 L 494.70 582.30 L 492.70 584.30 L 490.30 586.00 L 487.60 587.30 L 484.80 588.00 L 481.70 588.30 Z" fill="none" group-id="3,21,32,43" node-id="290" stroke="#280e34" stroke-linecap="butt" stroke-width="12" target-height="61" target-width="34" target-x="464.7" target-y="527.3"></path><path d="M 546.40 586.00 L 532.90 574.30" fill="none" group-id="3,21,32" id="路径_152-2" node-id="90" stroke="#280e34" stroke-linecap="round" stroke-width="12" target-height="11.700012" target-width="13.5" target-x="532.9" target-y="574.3"></path><path d="M 416.90 586.00 L 430.40 574.30" fill="none" group-id="3,21,32,44" id="路径_153-2" node-id="91" stroke="#280e34" stroke-linecap="round" stroke-width="12" target-height="11.700012" target-width="13.5" target-x="416.9" target-y="574.3"></path><path d="M 422.00 479.30 L 550.00 479.30 L 553.80 479.60 L 557.40 480.30 L 560.80 481.50 L 563.90 483.10 L 566.90 485.10 L 569.50 487.40 L 571.80 490.00 L 573.80 492.90 L 575.40 496.10 L 576.60 499.50 L 577.30 503.10 L 577.50 506.80 L 577.30 510.60 L 576.60 514.20 L 575.40 517.50 L 573.80 520.70 L 571.80 523.60 L 569.50 526.30 L 566.90 528.60 L 563.90 530.60 L 560.80 532.20 L 557.40 533.40 L 553.80 534.10 L 550.00 534.30 L 422.00 534.30 L 418.30 534.10 L 414.70 533.40 L 411.30 532.20 L 408.20 530.60 L 405.20 528.60 L 402.60 526.30 L 400.30 523.60 L 398.30 520.70 L 396.70 517.50 L 395.50 514.20 L 394.80 510.60 L 394.50 506.80 L 394.80 503.10 L 395.50 499.50 L 396.70 496.10 L 398.30 492.90 L 400.30 490.00 L 402.60 487.40 L 405.20 485.10 L 408.20 483.10 L 411.30 481.50 L 414.70 480.30 L 418.30 479.60 L 422.00 479.30 Z" fill="#53c5aa" fill-rule="nonzero" group-id="3,21,33" node-id="300" stroke="none" target-height="55" target-width="183" target-x="394.5" target-y="479.3"></path><path d="M 422.00 485.30 L 550.00 485.30 L 555.80 486.10 L 560.90 488.30 L 563.90 490.40 L 566.50 493.00 L 568.60 496.00 L 570.80 501.10 L 571.30 503.90 L 571.50 506.80 L 571.30 509.80 L 570.80 512.60 L 568.60 517.70 L 566.50 520.70 L 563.90 523.30 L 560.90 525.40 L 558.40 526.70 L 553.00 528.10 L 550.00 528.30 L 422.00 528.30 L 416.30 527.60 L 411.20 525.40 L 408.20 523.30 L 405.60 520.70 L 403.50 517.70 L 401.30 512.60 L 400.80 509.80 L 400.50 506.80 L 400.80 503.90 L 401.30 501.10 L 403.50 496.00 L 405.60 493.00 L 408.20 490.40 L 411.20 488.30 L 413.70 487.00 L 419.10 485.60 L 422.00 485.30 Z" fill="none" group-id="3,21,33" node-id="302" stroke="#280e34" stroke-linecap="butt" stroke-width="12" target-height="43" target-width="171" target-x="400.5" target-y="485.3"></path><path d="M 446.50 479.30 L 525.50 479.30 L 525.50 534.30 L 446.50 534.30 Z" fill="#53c5aa" fill-rule="nonzero" group-id="3,21,34" node-id="306" stroke="none" target-height="55" target-width="79" target-x="446.5" target-y="479.3"></path><path d="M 452.50 485.30 L 519.50 485.30 L 519.50 528.30 L 452.50 528.30 Z" fill="none" group-id="3,21,34" node-id="308" stroke="#280e34" stroke-linecap="butt" stroke-width="12" target-height="43" target-width="67" target-x="452.5" target-y="485.3"></path></g></svg>