<?xml version="1.0" standalone="no"?><!DOCTYPE svg PUBLIC "-//W3C//DTD SVG 1.1//EN" "http://www.w3.org/Graphics/SVG/1.1/DTD/svg11.dtd"><svg t="1737183708135" class="icon" viewBox="0 0 1024 1024" version="1.1" xmlns="http://www.w3.org/2000/svg" p-id="1347" xmlns:xlink="http://www.w3.org/1999/xlink" width="200" height="200"><path d="M512 85.333333c26.24 0 52.48 3.413333 78.734222 10.225778a28.444444 28.444444 0 0 1 19.768889 18.417778l18.389333 54.286222a142.222222 142.222222 0 0 0 46.990223 66.304l20.878222 16.355556C831.772444 309.333333 924.444444 429.767111 924.444444 568.888889c0 196.366222-184.661333 355.555556-412.444444 355.555555S99.555556 765.255111 99.555556 568.888889c0-139.107556 92.672-259.555556 227.697777-317.980445l20.864-16.341333a142.222222 142.222222 0 0 0 46.990223-66.304l18.389333-54.286222a28.444444 28.444444 0 0 1 19.768889-18.417778C459.505778 88.732444 485.745778 85.333333 512 85.333333z" fill="#A13BB2" p-id="1348"></path><path d="M519.111111 113.777778c21.276444 0 42.567111 2.702222 63.857778 8.106666 9.358222 2.389333 16.867556 9.372444 19.953778 18.531556l12.956444 38.855111a142.222222 142.222222 0 0 0 46.364445 66.275556L711.111111 284.444444h-58.140444c104.348444 53.276444 174.293333 151.182222 174.293333 263.111112 0 168.874667-159.189333 305.777778-355.555556 305.777777s-355.555556-136.903111-355.555555-305.777777c0-135.992889 103.224889-251.249778 245.959111-290.986667l13.880889-11.022222a142.222222 142.222222 0 0 0 46.350222-66.275556l12.956445-38.855111a28.501333 28.501333 0 0 1 19.968-18.545778C476.544 116.48 497.834667 113.777778 519.111111 113.777778z" fill="#BB5CCB" p-id="1349"></path><path d="M512 85.333333c26.24 0 52.48 3.413333 78.734222 10.225778a28.444444 28.444444 0 0 1 19.768889 18.417778l18.389333 54.286222a142.222222 142.222222 0 0 0 46.990223 66.304l20.878222 16.355556C831.772444 309.333333 924.444444 429.767111 924.444444 568.888889c0 196.366222-184.661333 355.555556-412.444444 355.555555S99.555556 765.255111 99.555556 568.888889c0-139.107556 92.672-259.555556 227.697777-317.980445l20.864-16.341333a142.222222 142.222222 0 0 0 46.990223-66.304l18.389333-54.286222a28.444444 28.444444 0 0 1 19.768889-18.417778C459.505778 88.732444 485.745778 85.333333 512 85.333333z m0 56.888889c-14.250667 0-28.529778 1.237333-42.851556 3.726222l-6.869333 1.28-13.297778 39.296a199.111111 199.111111 0 0 1-61.269333 89.173334l-4.508444 3.655111-26.624 20.849778-6.727112 2.915555C231.296 354.417778 156.444444 456.846222 156.444444 568.888889c0 162.915556 157.468444 298.666667 355.555556 298.666667s355.555556-135.751111 355.555556-298.666667c0-112.042667-74.851556-214.471111-193.393778-265.756445l-6.727111-2.915555-26.624-20.864a199.111111 199.111111 0 0 1-65.792-92.828445l-13.326223-39.310222-6.826666-1.265778c-11.946667-2.076444-23.850667-3.271111-35.740445-3.626666L512 142.222222z" fill="#191919" p-id="1350"></path><path d="M512 839.111111c-189.624889-87.025778-284.444444-184.206222-284.444444-291.555555S322.375111 343.025778 512 256c189.624889 87.025778 284.444444 184.206222 284.444444 291.555556S701.624889 752.085333 512 839.111111z" fill="#CB71D7" p-id="1351"></path><path d="M512 825.856C369.777778 744.775111 298.666667 654.222222 298.666667 554.183111c0-100.024889 71.111111-190.577778 213.333333-271.672889 142.222222 81.080889 213.333333 171.648 213.333333 271.672889 0 100.024889-71.111111 190.577778-213.333333 271.672889z" fill="#D68ADF" p-id="1352"></path><path d="M512 772.835556c-94.819556-65.251556-142.222222-138.140444-142.222222-218.652445 0-80.512 47.402667-153.400889 142.222222-218.666667 94.819556 65.265778 142.222222 138.154667 142.222222 218.666667 0 80.497778-47.402667 153.400889-142.222222 218.666667z" fill="#E4ADEA" p-id="1353"></path><path d="M512 733.084444c-47.402667-51.413333-71.111111-108.842667-71.111111-172.273777s23.708444-120.860444 71.111111-172.288c47.402667 51.427556 71.111111 108.856889 71.111111 172.288 0 63.431111-23.708444 120.860444-71.111111 172.273777z" fill="#EFCEF3" p-id="1354"></path></svg>