<?xml version="1.0" standalone="no"?><!DOCTYPE svg PUBLIC "-//W3C//DTD SVG 1.1//EN" "http://www.w3.org/Graphics/SVG/1.1/DTD/svg11.dtd"><svg t="1737183715756" class="icon" viewBox="0 0 1024 1024" version="1.1" xmlns="http://www.w3.org/2000/svg" p-id="1984" xmlns:xlink="http://www.w3.org/1999/xlink" width="200" height="200"><path d="M341.333333 237.141333l20.536889-40.604444A282.737778 282.737778 0 0 1 419.555556 119.068444 122.865778 122.865778 0 0 1 504.120889 85.333333h15.758222c31.459556 0 61.724444 12.088889 84.565333 33.735111a282.737778 282.737778 0 0 1 57.685334 77.468445L682.666667 237.141333a423.395556 423.395556 0 0 1 45.411555 178.830223L739.555556 810.666667H284.444444l11.477334-394.695111A423.395556 423.395556 0 0 1 341.333333 237.141333z" fill="#FCB21F" p-id="1985"></path><path d="M330.666667 225.237333l17.379555-38.968889a255.530667 255.530667 0 0 1 46.179556-69.845333A97.365333 97.365333 0 0 1 465.550222 85.333333h7.566222c27.064889 0 52.906667 11.264 71.324445 31.089778a255.530667 255.530667 0 0 1 46.179555 69.845333l17.379556 38.968889a426.524444 426.524444 0 0 1 36.835556 162.801778L654.222222 753.777778H284.444444l9.386667-365.738667a426.524444 426.524444 0 0 1 36.835556-162.801778z" fill="#FFDC4A" p-id="1986"></path><path d="M523.349333 56.888889h-22.698666c-35.939556 0-70.798222 12.231111-98.858667 34.673778a281.813333 281.813333 0 0 0-65.607111 75.064889l-19.242667 32.071111A349.240889 349.240889 0 0 0 267.377778 366.350222L255.004444 725.333333h513.991112l-12.373334-358.983111a349.240889 349.240889 0 0 0-49.564444-167.651555l-19.242667-32.071111a281.813333 281.813333 0 0 0-65.607111-75.064889A158.250667 158.250667 0 0 0 523.377778 56.888889z m0 56.888889c23.025778 0 45.354667 7.822222 63.331556 22.215111a224.924444 224.924444 0 0 1 52.352 59.904l19.242667 32.071111 3.555555 6.115556a292.352 292.352 0 0 1 37.930667 134.215111L710.115556 668.444444H313.870222l10.368-300.145777a292.352 292.352 0 0 1 41.486222-140.330667l19.242667-32.071111a224.924444 224.924444 0 0 1 52.352-59.904A101.361778 101.361778 0 0 1 500.650667 113.777778h22.698666z" fill="#191919" p-id="1987"></path><path d="M384 540.444444v-135.111111c1.28-37.12 7.736889-72.704 19.655111-106.666666m17.92-41.955556c3.783111-7.438222 7.850667-14.791111 12.202667-22.044444" fill="#D8D8D8" p-id="1988"></path><path d="M408.362667 285.240889a14.222222 14.222222 0 0 1 8.704 18.133333A342.684444 342.684444 0 0 0 398.222222 405.333333v33.550223c8.775111 1.336889 17.066667 2.005333 24.888889 2.005333H426.666667v-21.333333a14.222222 14.222222 0 0 1 28.444444 0V440.888889h24.888889a14.222222 14.222222 0 0 1 0 28.444444H455.111111v28.444445h24.888889a14.222222 14.222222 0 0 1 0 28.444444H455.111111v28.444445a14.222222 14.222222 0 0 1-28.444444 0v-28.444445h-3.555556c-7.964444 0-16.270222-0.568889-24.888889-1.706666V540.444444a14.222222 14.222222 0 0 1-28.444444 0v-21.475555c-8.362667-2.133333-17.009778-4.693333-25.912889-7.722667a14.222222 14.222222 0 1 1 9.159111-26.936889c5.731556 1.948444 11.320889 3.697778 16.768 5.219556v-27.448889c-8.391111-2.133333-17.024-4.693333-25.927111-7.722667a14.222222 14.222222 0 1 1 9.159111-26.936889c5.731556 1.948444 11.320889 3.697778 16.768 5.219556v-27.790222c1.336889-38.798222 8.106667-75.761778 20.437333-110.890667a14.222222 14.222222 0 0 1 18.133334-8.718222zM398.222222 467.626667v28.16c8.760889 1.336889 17.052444 2.005333 24.874667 2.005333H426.666667v-28.444444h-3.555556c-7.964444 0-16.270222-0.568889-24.888889-1.706667z m42.851556-245.134223a14.222222 14.222222 0 0 1 4.878222 19.498667c-4.167111 6.968889-8.078222 14.023111-11.704889 21.162667a14.222222 14.222222 0 0 1-25.358222-12.871111c3.925333-7.751111 8.163556-15.388444 12.686222-22.912a14.222222 14.222222 0 0 1 19.498667-4.878223z" fill="#FCB21F" p-id="1989"></path><path d="M440.888889 554.666667v-135.111111" fill="#D8D8D8" p-id="1990"></path><path d="M227.555556 625.777778h156.444444c86.4 0 156.444444 70.044444 156.444444 156.444444v156.444445h-99.555555c-117.816889 0-213.333333-95.516444-213.333333-213.333334v-99.555555z" fill="#52A90F" p-id="1991"></path><path d="M227.555556 625.777778h156.444444c86.4 0 156.444444 70.044444 156.444444 156.444444v71.111111h-99.555555c-117.816889 0-213.333333-95.516444-213.333333-213.333333v-14.222222z" fill="#93DA22" p-id="1992"></path><path d="M384 597.333333H227.555556a28.444444 28.444444 0 0 0-28.444445 28.444445v99.555555c0 133.532444 108.245333 241.777778 241.777778 241.777778h99.555555a28.444444 28.444444 0 0 0 28.444445-28.444444V782.222222c0-102.115556-82.773333-184.888889-184.888889-184.888889z m-128 56.888889h128l3.768889 0.056889A128 128 0 0 1 512 782.222222v128h-71.111111c-102.115556 0-184.888889-82.773333-184.888889-184.888889v-71.111111z" fill="#191919" p-id="1993"></path><path d="M483.555556 938.666667h99.555555c117.816889 0 213.333333-95.516444 213.333333-213.333334v-99.555555H640c-86.4 0-156.444444 70.044444-156.444444 156.444444" fill="#52A90F" p-id="1994"></path><path d="M483.555556 853.333333h99.555555c117.816889 0 213.333333-69.461333 213.333333-155.164444V625.777778H640c-86.4 0-156.444444 50.944-156.444444 113.777778" fill="#93DA22" p-id="1995"></path><path d="M768 725.333333c0 102.115556-82.773333 184.888889-184.888889 184.888889h-99.555555a28.444444 28.444444 0 1 0 0 56.888889h99.555555c133.532444 0 241.777778-108.245333 241.777778-241.777778v-99.555555a28.444444 28.444444 0 0 0-28.444445-28.444445H640c-102.115556 0-184.888889 82.773333-184.888889 184.888889a28.444444 28.444444 0 1 0 56.888889 0 128 128 0 0 1 128-128h128v71.111111z" fill="#191919" p-id="1996"></path></svg>