<?xml version="1.0" standalone="no"?><!DOCTYPE svg PUBLIC "-//W3C//DTD SVG 1.1//EN" "http://www.w3.org/Graphics/SVG/1.1/DTD/svg11.dtd"><svg height="1024" node-id="1" sillyvg="true" template-height="1024" template-width="1024" version="1.1" viewBox="0 0 1024 1024" width="1024" xmlns="http://www.w3.org/2000/svg" xmlns:xlink="http://www.w3.org/1999/xlink"><defs node-id="68"><clipPath id="clip-玉兔" node-id="7"><path d="M 0.00 0.00 L 1024.00 0.00 L 1024.00 1024.00 L 0.00 1024.00 Z" fill="#000000" fill-rule="nonzero" node-id="71" stroke="none" target-height="1024" target-width="1024" target-x="0" target-y="0"></path></clipPath><clipPath id="clip-path_4" node-id="3"><path d="M 551.60 108.30 L 838.30 455.20 L 840.40 458.30 L 842.00 461.60 L 843.10 465.00 L 843.80 468.50 L 844.00 472.10 L 843.80 475.70 L 843.10 479.20 L 842.00 482.70 L 840.40 486.00 L 838.30 489.00 L 835.80 492.00 L 555.00 862.70 L 552.10 865.30 L 549.00 867.30 L 545.80 868.90 L 542.30 870.00 L 538.80 870.70 L 535.20 870.90 L 531.60 870.70 L 528.10 870.00 L 524.60 868.90 L 521.40 867.30 L 518.30 865.30 L 515.40 862.70 L 226.90 492.00 L 224.40 489.00 L 222.30 486.00 L 220.70 482.70 L 219.60 479.20 L 218.90 475.70 L 218.70 472.10 L 218.90 468.50 L 219.60 465.00 L 220.70 461.60 L 222.30 458.30 L 224.40 455.20 L 512.00 108.30 L 514.90 105.80 L 518.00 103.70 L 521.20 102.10 L 524.70 101.00 L 528.20 100.30 L 531.80 100.10 L 535.40 100.30 L 538.90 101.00 L 542.40 102.10 L 545.60 103.70 L 548.70 105.80 L 551.60 108.30 Z" fill="#000000" fill-rule="nonzero" id="路径_11" node-id="4" stroke="none" target-height="770.80005" target-width="625.3" target-x="218.7" target-y="100.1"></path></clipPath><clipPath id="clip-path_3" node-id="3"><path d="M 551.60 108.30 L 838.30 455.20 L 840.40 458.30 L 842.00 461.60 L 843.10 465.00 L 843.80 468.50 L 844.00 472.10 L 843.80 475.70 L 843.10 479.20 L 842.00 482.70 L 840.40 486.00 L 838.30 489.00 L 835.80 492.00 L 555.00 862.70 L 552.10 865.30 L 549.00 867.30 L 545.80 868.90 L 542.30 870.00 L 538.80 870.70 L 535.20 870.90 L 531.60 870.70 L 528.10 870.00 L 524.60 868.90 L 521.40 867.30 L 518.30 865.30 L 515.40 862.70 L 226.90 492.00 L 224.40 489.00 L 222.30 486.00 L 220.70 482.70 L 219.60 479.20 L 218.90 475.70 L 218.70 472.10 L 218.90 468.50 L 219.60 465.00 L 220.70 461.60 L 222.30 458.30 L 224.40 455.20 L 512.00 108.30 L 514.90 105.80 L 518.00 103.70 L 521.20 102.10 L 524.70 101.00 L 528.20 100.30 L 531.80 100.10 L 535.40 100.30 L 538.90 101.00 L 542.40 102.10 L 545.60 103.70 L 548.70 105.80 L 551.60 108.30 Z" fill="#000000" fill-rule="nonzero" id="路径_11" node-id="4" stroke="none" target-height="770.80005" target-width="625.3" target-x="218.7" target-y="100.1"></path></clipPath><clipPath id="clip-path" node-id="3"><path d="M 415.20 19.80 L 701.90 366.70 L 703.90 369.80 L 705.50 373.10 L 706.70 376.60 L 707.30 380.10 L 707.60 383.70 L 707.30 387.20 L 706.70 390.80 L 705.50 394.20 L 703.90 397.50 L 701.90 400.60 L 699.30 403.50 L 418.60 774.30 L 415.70 776.80 L 412.60 778.80 L 409.30 780.40 L 405.80 781.60 L 402.30 782.20 L 398.70 782.50 L 395.20 782.20 L 391.60 781.60 L 388.20 780.40 L 384.90 778.80 L 381.80 776.80 L 378.90 774.30 L 90.50 403.50 L 87.90 400.60 L 85.90 397.50 L 84.30 394.20 L 83.10 390.80 L 82.50 387.20 L 82.20 383.70 L 82.50 380.10 L 83.10 376.60 L 84.30 373.10 L 85.90 369.80 L 87.90 366.70 L 375.50 19.80 L 378.40 17.30 L 381.50 15.30 L 384.80 13.70 L 388.30 12.50 L 391.80 11.80 L 395.40 11.60 L 398.90 11.80 L 402.50 12.50 L 405.90 13.70 L 409.20 15.30 L 412.30 17.30 L 415.20 19.80 Z" fill="#000000" fill-rule="nonzero" id="路径_11" node-id="4" stroke="none" target-height="770.9" target-width="625.39996" target-x="82.2" target-y="11.6"></path></clipPath><clipPath id="clip-path-3" node-id="5"><path d="M 703.30 523.30 L 724.50 522.50 L 734.70 522.70 L 742.80 523.60 L 746.00 524.80 L 746.50 525.40 L 746.70 526.70 L 746.70 530.40 L 745.70 540.60 L 744.50 546.90 L 741.30 559.00 L 737.40 569.30 L 732.10 579.20 L 728.80 584.00 L 725.20 588.60 L 721.10 592.80 L 716.50 596.70 L 712.90 599.20 L 708.90 601.50 L 704.50 603.50 L 699.80 605.30 L 695.10 606.50 L 689.90 607.40 L 684.20 608.00 L 678.10 608.00 L 678.80 622.90 L 678.70 631.00 L 677.40 647.20 L 674.60 663.70 L 672.70 671.70 L 670.40 679.70 L 667.60 687.50 L 664.50 694.80 L 661.00 701.80 L 658.00 706.90 L 651.50 716.10 L 647.80 720.10 L 643.90 723.90 L 639.80 727.30 L 635.40 730.20 L 630.70 732.80 L 619.10 721.20 L 611.80 727.70 L 605.80 732.50 L 599.00 737.60 L 584.40 747.10 L 570.40 754.60 L 562.90 758.00 L 554.90 761.10 L 546.40 764.00 L 537.80 766.30 L 528.90 768.00 L 519.50 769.20 L 512.50 769.70 L 505.30 769.70 L 498.00 769.20 L 490.40 768.20 L 483.10 766.70 L 475.50 764.70 L 467.90 761.90 L 460.00 758.50 L 454.00 755.50 L 441.80 747.90 L 429.10 738.00 L 421.10 730.90 L 414.00 723.80 L 407.60 716.90 L 401.90 710.10 L 396.90 703.50 L 392.10 696.30 L 387.90 689.30 L 384.20 682.40 L 381.20 675.60 L 378.60 669.00 L 376.40 662.10 L 374.70 655.20 L 373.40 648.60 L 372.60 642.00 L 372.20 635.50 L 372.20 627.40 L 372.80 619.40 L 374.00 611.60 L 375.70 604.00 L 377.90 596.50 L 380.50 589.20 L 383.60 582.10 L 387.10 575.30 L 391.00 568.60 L 395.20 562.30 L 399.70 556.20 L 404.50 550.30 L 414.90 539.50 L 425.90 530.10 L 431.00 526.40 L 436.30 523.20 L 441.90 520.20 L 447.60 517.70 L 455.50 514.80 L 463.50 512.40 L 471.80 510.60 L 480.20 509.20 L 488.70 508.30 L 497.10 507.90 L 513.90 508.10 L 522.10 508.80 L 537.80 510.90 L 545.10 512.30 L 558.90 515.80 L 564.90 517.70 L 575.70 521.90 L 583.90 526.20 L 586.70 528.30 L 588.60 530.10 L 588.60 517.10 L 589.10 511.90 L 590.00 506.60 L 591.50 501.30 L 592.80 497.90 L 596.50 491.60 L 598.90 488.90 L 601.70 486.40 L 605.10 484.10 L 608.70 482.40 L 613.00 481.00 L 618.10 480.10 L 623.30 479.80 L 628.80 479.90 L 634.60 480.60 L 646.30 483.20 L 658.10 487.30 L 669.40 492.60 L 674.80 495.60 L 684.60 502.10 L 693.10 509.20 L 696.40 512.70 L 699.50 516.40 L 701.80 519.90 L 703.30 523.30 Z" fill="#000000" fill-rule="nonzero" id="路径_29" node-id="6" stroke="none" target-height="289.90002" target-width="374.5" target-x="372.2" target-y="479.8"></path></clipPath></defs><g clip-path="url(#clip-玉兔)" id="玉兔" node-id="9"><path d="M 0.00 0.00 L 1024.00 0.00 L 1024.00 1024.00 L 0.00 1024.00 Z" fill="#fff9e6" fill-rule="nonzero" node-id="82" stroke="none" target-height="1024" target-width="1024" target-x="0" target-y="0"></path><path d="M 185.10 95.70 L 185.80 94.70 L 187.00 94.30 L 188.20 94.70 L 188.90 95.70 L 195.80 116.40 L 196.30 117.20 L 197.10 117.70 L 217.80 124.60 L 219.10 125.90 L 219.10 127.10 L 217.80 128.40 L 197.10 135.30 L 196.30 135.80 L 195.80 136.60 L 188.90 157.30 L 187.60 158.60 L 186.40 158.60 L 185.10 157.30 L 178.20 136.60 L 177.70 135.80 L 176.90 135.30 L 156.20 128.40 L 154.90 127.10 L 154.90 125.90 L 156.20 124.60 L 176.90 117.70 L 177.70 117.20 L 178.20 116.40 Z" fill="none" group-id="1,3" node-id="86" stroke="none" target-height="64.3" target-width="64.20001" target-x="154.9" target-y="94.3"></path><path d="M 187.00 109.00 L 183.90 118.30 L 183.10 120.00 L 181.90 121.40 L 180.50 122.60 L 178.80 123.40 L 169.50 126.50 L 178.80 129.60 L 180.50 130.40 L 181.90 131.60 L 183.10 133.00 L 183.90 134.70 L 187.00 144.00 L 190.10 134.70 L 190.90 133.00 L 192.10 131.60 L 193.50 130.40 L 195.20 129.60 L 204.50 126.50 L 195.20 123.40 L 193.50 122.60 L 192.10 121.40 L 190.90 120.00 L 190.10 118.30 L 187.00 109.00 M 187.00 94.30 L 188.10 94.70 L 188.90 95.70 L 195.80 116.40 L 196.30 117.20 L 197.10 117.70 L 217.80 124.60 L 218.60 125.10 L 219.20 126.50 L 218.60 127.90 L 217.80 128.40 L 197.10 135.30 L 196.30 135.80 L 195.80 136.60 L 188.90 157.30 L 188.40 158.10 L 187.00 158.70 L 185.60 158.10 L 185.10 157.30 L 178.20 136.60 L 177.70 135.80 L 176.90 135.30 L 156.20 128.40 L 155.40 127.90 L 154.80 126.50 L 155.40 125.10 L 156.20 124.60 L 176.90 117.70 L 177.70 117.20 L 178.20 116.40 L 185.10 95.70 L 185.90 94.70 L 187.00 94.30 Z" fill="#c00121" fill-rule="nonzero" group-id="1,3" node-id="88" stroke="none" target-height="64.399994" target-width="64.399994" target-x="154.8" target-y="94.3"></path><path d="M 78.60 838.50 L 75.00 832.60 L 69.80 826.30 L 63.40 821.10 L 57.60 817.50 L 63.40 813.90 L 69.80 808.70 L 75.00 802.40 L 78.60 796.50 L 82.10 802.40 L 87.40 808.70 L 93.70 813.90 L 99.60 817.50 L 93.70 821.10 L 87.40 826.30 L 82.10 832.60 L 78.60 838.50 Z" fill="#fbb84e" fill-rule="nonzero" group-id="1,4" node-id="92" stroke="none" target-height="42" target-width="42" target-x="57.6" target-y="796.5"></path><path d="M 78.60 800.50 L 75.30 805.30 L 71.20 810.10 L 66.40 814.30 L 61.60 817.50 L 66.40 820.70 L 71.20 824.90 L 75.30 829.70 L 78.60 834.50 L 81.80 829.70 L 85.90 824.90 L 90.80 820.70 L 95.50 817.50 L 90.80 814.30 L 85.90 810.10 L 81.80 805.30 L 78.60 800.50 M 78.60 792.00 L 82.70 799.60 L 86.50 804.80 L 88.80 807.30 L 91.30 809.60 L 96.50 813.40 L 104.10 817.50 L 96.50 821.60 L 91.30 825.40 L 88.80 827.70 L 86.50 830.20 L 82.70 835.40 L 78.60 843.00 L 74.40 835.40 L 70.70 830.20 L 68.40 827.70 L 65.90 825.40 L 60.70 821.60 L 53.10 817.50 L 60.70 813.40 L 65.90 809.60 L 68.40 807.30 L 70.70 804.80 L 74.40 799.60 L 78.60 792.00 Z" fill="#c00121" fill-rule="nonzero" group-id="1,4" node-id="94" stroke="none" target-height="51" target-width="51" target-x="53.1" target-y="792"></path><path d="M 895.00 831.00 L 899.10 838.60 L 902.90 843.80 L 905.20 846.30 L 907.70 848.60 L 912.90 852.40 L 920.50 856.50 L 912.90 860.60 L 907.70 864.40 L 905.20 866.70 L 902.90 869.20 L 899.10 874.40 L 895.00 882.00 L 890.90 874.40 L 887.10 869.20 L 884.80 866.70 L 882.30 864.40 L 877.10 860.60 L 869.50 856.50 L 877.10 852.40 L 882.30 848.60 L 884.80 846.30 L 887.10 843.80 L 890.90 838.60 L 895.00 831.00 Z" fill="none" group-id="1,5" node-id="98" stroke="none" target-height="51" target-width="51" target-x="869.5" target-y="831"></path><path d="M 895.00 843.20 L 892.30 846.90 L 889.00 850.50 L 885.40 853.80 L 881.70 856.50 L 885.40 859.20 L 889.00 862.50 L 892.30 866.10 L 895.00 869.80 L 897.70 866.10 L 901.00 862.50 L 904.60 859.20 L 908.30 856.50 L 904.60 853.80 L 901.00 850.50 L 897.70 846.90 L 895.00 843.20 M 895.00 831.00 L 899.10 838.60 L 902.90 843.80 L 905.20 846.30 L 907.70 848.60 L 912.90 852.40 L 920.50 856.50 L 912.90 860.60 L 907.70 864.40 L 905.20 866.70 L 902.90 869.20 L 899.10 874.40 L 895.00 882.00 L 890.90 874.40 L 887.10 869.20 L 884.80 866.70 L 882.30 864.40 L 877.10 860.60 L 869.50 856.50 L 877.10 852.40 L 882.30 848.60 L 884.80 846.30 L 887.10 843.80 L 890.90 838.60 L 895.00 831.00 Z" fill="#c00121" fill-rule="nonzero" group-id="1,5" node-id="100" stroke="none" target-height="51" target-width="51" target-x="869.5" target-y="831"></path><path d="M 913.50 364.70 L 897.80 354.00 L 896.50 353.30 L 895.00 353.10 L 893.50 353.30 L 892.20 354.00 L 876.50 364.70 L 881.90 346.60 L 882.10 345.10 L 881.90 343.60 L 881.20 342.30 L 880.20 341.20 L 865.10 329.70 L 884.10 329.20 L 885.60 328.90 L 886.90 328.20 L 887.90 327.20 L 888.70 325.90 L 895.00 308.00 L 901.30 325.90 L 902.10 327.20 L 903.10 328.20 L 904.40 328.90 L 905.90 329.20 L 924.90 329.70 L 909.80 341.20 L 908.80 342.30 L 908.10 343.60 L 907.90 345.10 L 908.10 346.60 L 913.50 364.70 Z" fill="#fbb84e" fill-rule="nonzero" group-id="1,6" node-id="104" stroke="none" target-height="56.700012" target-width="59.80005" target-x="865.1" target-y="308"></path><path d="M 895.00 317.00 L 891.50 326.90 L 890.80 328.30 L 888.60 330.60 L 885.80 332.00 L 884.20 332.20 L 873.70 332.40 L 882.00 338.80 L 883.20 339.90 L 884.70 342.70 L 885.10 345.80 L 884.80 347.40 L 881.80 357.50 L 890.50 351.50 L 891.90 350.70 L 895.00 350.10 L 898.10 350.70 L 899.50 351.50 L 908.20 357.50 L 905.20 347.40 L 904.90 345.80 L 905.30 342.70 L 906.80 339.90 L 908.00 338.80 L 916.30 332.40 L 905.80 332.20 L 904.20 332.00 L 901.40 330.60 L 899.20 328.30 L 898.50 326.90 L 895.00 317.00 M 895.00 303.00 L 896.10 303.30 L 896.90 304.30 L 904.20 324.90 L 904.90 325.80 L 906.00 326.20 L 927.80 326.70 L 928.70 326.90 L 929.70 328.10 L 929.60 329.70 L 929.00 330.30 L 911.70 343.60 L 911.00 344.50 L 911.00 345.70 L 917.20 366.60 L 917.00 368.20 L 915.70 369.10 L 914.10 368.80 L 896.10 356.50 L 895.00 356.10 L 893.90 356.50 L 875.90 368.80 L 875.00 369.10 L 873.60 368.80 L 872.80 367.50 L 872.80 366.60 L 879.00 345.70 L 879.00 344.50 L 878.30 343.60 L 860.40 329.70 L 860.20 328.90 L 860.70 327.40 L 862.20 326.70 L 884.00 326.20 L 885.10 325.80 L 885.80 324.90 L 893.10 304.30 L 893.90 303.30 L 895.00 303.00 Z" fill="#c00121" fill-rule="nonzero" group-id="1,6" node-id="106" stroke="none" target-height="66.100006" target-width="69.5" target-x="860.2" target-y="303"></path><path d="M 501.60 964.80 L 502.90 963.60 L 504.10 963.60 L 505.10 964.30 L 510.50 979.40 L 511.30 980.40 L 512.40 980.70 L 527.80 981.10 L 529.00 981.50 L 529.70 982.50 L 529.70 983.70 L 529.00 984.70 L 516.70 994.10 L 516.00 995.10 L 516.00 996.30 L 520.40 1011.10 L 520.40 1012.30 L 519.70 1013.30 L 519.10 1013.60 L 517.40 1013.30 L 504.60 1004.50 L 503.50 1004.20 L 502.40 1004.50 L 489.60 1013.30 L 487.90 1013.60 L 486.90 1012.80 L 486.60 1011.10 L 491.00 996.30 L 491.00 995.10 L 490.30 994.10 L 478.00 984.70 L 477.30 983.70 L 477.30 982.50 L 478.00 981.50 L 479.20 981.10 L 494.60 980.70 L 495.80 980.40 L 496.50 979.40 Z" fill="none" group-id="1,7" node-id="110" stroke="none" target-height="50" target-width="52.400024" target-x="477.3" target-y="963.6"></path><path d="M 503.50 974.50 L 501.20 981.10 L 500.20 982.90 L 498.70 984.40 L 496.80 985.40 L 494.80 985.70 L 487.80 985.90 L 493.30 990.10 L 494.80 991.70 L 495.70 993.50 L 496.10 995.60 L 495.80 997.70 L 493.80 1004.40 L 499.50 1000.40 L 501.40 999.50 L 503.50 999.20 L 505.60 999.50 L 507.50 1000.40 L 513.20 1004.40 L 511.20 997.70 L 511.00 995.60 L 511.30 993.50 L 512.20 991.70 L 513.70 990.10 L 519.20 985.90 L 512.20 985.70 L 510.20 985.40 L 508.30 984.40 L 506.80 982.90 L 505.80 981.10 L 503.50 974.50 M 503.50 963.50 L 504.60 963.80 L 505.40 964.80 L 510.50 979.40 L 511.30 980.40 L 512.40 980.70 L 527.80 981.10 L 528.70 981.30 L 529.70 982.50 L 529.60 984.00 L 529.00 984.70 L 516.70 994.10 L 516.00 995.10 L 516.00 996.30 L 520.40 1011.10 L 520.20 1012.70 L 519.00 1013.60 L 517.40 1013.30 L 504.60 1004.50 L 503.50 1004.20 L 502.40 1004.50 L 489.60 1013.30 L 488.80 1013.60 L 487.30 1013.30 L 486.50 1012.00 L 486.60 1011.10 L 491.00 996.30 L 491.00 995.10 L 490.30 994.10 L 477.40 984.00 L 477.20 983.30 L 477.70 981.80 L 479.20 981.10 L 494.60 980.70 L 495.70 980.40 L 496.50 979.40 L 501.60 964.80 L 502.40 963.80 L 503.50 963.50 Z" fill="#c00121" fill-rule="nonzero" group-id="1,7" node-id="112" stroke="none" target-height="50.099976" target-width="52.5" target-x="477.2" target-y="963.5"></path><path d="M 305.00 857.00 L 310.40 877.80 L 332.00 876.50 L 313.70 888.00 L 321.70 908.00 L 305.00 894.30 L 288.30 908.00 L 296.30 888.00 L 278.00 876.50 L 299.60 877.80 Z" fill="#fbb84e" fill-rule="nonzero" group-id="1,8" id="多边形_3" node-id="27" stroke="none" target-height="51" target-width="54" target-x="278" target-y="857"></path><path d="M 56.00 96.50 L 56.70 102.80 L 57.40 105.50 L 58.40 108.40 L 59.80 111.10 L 61.70 113.40 L 64.00 115.30 L 66.70 116.70 L 69.50 117.70 L 72.20 118.30 L 78.60 119.00 L 72.20 119.70 L 69.50 120.40 L 66.70 121.40 L 64.00 122.80 L 61.70 124.70 L 59.80 127.00 L 58.40 129.70 L 57.40 132.50 L 56.70 135.20 L 56.00 141.60 L 55.30 135.20 L 54.70 132.50 L 53.70 129.70 L 52.30 127.00 L 50.40 124.70 L 48.10 122.80 L 45.40 121.40 L 42.50 120.40 L 39.80 119.70 L 33.50 119.00 L 39.80 118.30 L 42.50 117.70 L 45.40 116.70 L 48.10 115.30 L 50.40 113.40 L 52.30 111.10 L 53.70 108.40 L 54.70 105.50 L 55.30 102.80 L 56.00 96.50 Z" fill="#fbb84e" fill-rule="nonzero" group-id="1,9" id="路径_1" node-id="28" stroke="none" target-height="45.100006" target-width="45.1" target-x="33.5" target-y="96.5"></path><path d="M 734.00 -28.00 L 735.10 -17.80 L 737.10 -10.60 L 738.70 -7.00 L 740.70 -3.60 L 743.10 -0.60 L 746.10 1.80 L 749.50 3.80 L 753.10 5.40 L 760.30 7.40 L 770.50 8.50 L 760.30 9.60 L 753.10 11.60 L 749.50 13.20 L 746.10 15.20 L 743.10 17.60 L 740.70 20.60 L 738.70 24.00 L 737.10 27.60 L 735.10 34.80 L 734.00 45.00 L 732.90 34.80 L 730.90 27.60 L 729.30 24.00 L 727.30 20.60 L 724.90 17.60 L 721.90 15.20 L 718.50 13.20 L 714.90 11.60 L 707.70 9.60 L 697.50 8.50 L 707.70 7.40 L 714.90 5.40 L 718.50 3.80 L 721.90 1.80 L 724.90 -0.60 L 727.30 -3.60 L 729.30 -7.00 L 730.90 -10.60 L 732.90 -17.80 L 734.00 -28.00 Z" fill="#fbb84e" fill-rule="nonzero" group-id="1,10" id="路径_2" node-id="29" stroke="none" target-height="73" target-width="73" target-x="697.5" target-y="-28"></path><path d="M 786.20 1024.00 L 787.50 1020.60 L 790.10 1016.40 L 793.30 1013.60 L 796.50 1012.70 L 798.10 1012.90 L 800.10 1013.60 L 802.40 1015.00 L 804.50 1016.80 L 806.90 1019.60 L 809.80 1023.50 L 812.30 1010.10 L 814.20 1003.60 L 818.10 994.10 L 821.60 988.50 L 823.70 986.30 L 825.70 985.00 L 827.80 984.20 L 829.30 984.10 L 831.00 984.40 L 832.70 985.30 L 834.60 986.70 L 836.70 989.00 L 839.20 992.70 L 841.90 997.90 L 844.10 1003.40 L 846.60 1010.50 L 849.30 1019.70 L 851.50 1015.30 L 853.50 1012.30 L 855.20 1010.40 L 857.20 1008.90 L 858.90 1008.30 L 860.50 1008.20 L 863.50 1009.40 L 866.60 1012.80 L 868.00 1015.30 L 869.50 1019.70" fill="none" group-id="1,11" id="路径_5" node-id="30" stroke="#fbb84e" stroke-linecap="round" stroke-width="6" target-height="39.900024" target-width="83.29999" target-x="786.2" target-y="984.1"></path><path d="M 108.80 479.50 L 110.20 476.10 L 112.80 471.90 L 115.90 469.10 L 119.10 468.30 L 120.80 468.40 L 122.80 469.10 L 125.10 470.60 L 127.10 472.40 L 129.60 475.10 L 132.50 479.10 L 133.50 472.30 L 135.00 465.60 L 136.90 459.10 L 140.70 449.60 L 144.30 444.10 L 146.40 441.90 L 148.40 440.50 L 150.40 439.80 L 152.00 439.70 L 153.60 440.00 L 155.40 440.80 L 157.30 442.30 L 159.40 444.60 L 161.80 448.20 L 164.50 453.50 L 166.80 458.90 L 169.30 466.00 L 171.90 475.20 L 174.20 470.80 L 176.10 467.80 L 177.80 466.00 L 179.80 464.50 L 181.60 463.80 L 183.10 463.80 L 186.10 465.00 L 189.30 468.40 L 190.60 470.80 L 192.20 475.20" fill="none" group-id="1,12" id="路径_6" node-id="31" stroke="#fbb84e" stroke-linecap="round" stroke-width="6" target-height="39.799988" target-width="83.399994" target-x="108.8" target-y="439.7"></path><path d="M 552.50 142.70 L 853.40 506.70 L 855.50 509.90 L 857.20 513.40 L 858.40 517.00 L 859.10 520.70 L 859.30 524.50 L 859.10 528.20 L 858.40 531.90 L 857.20 535.50 L 855.50 539.00 L 853.40 542.20 L 850.70 545.30 L 556.10 934.30 L 553.00 937.00 L 549.80 939.10 L 546.40 940.80 L 542.70 942.00 L 539.00 942.70 L 535.30 942.90 L 531.50 942.70 L 527.80 942.00 L 524.20 940.80 L 520.80 939.10 L 517.50 937.00 L 514.50 934.30 L 211.80 545.30 L 209.10 542.20 L 207.00 539.00 L 205.30 535.50 L 204.10 531.90 L 203.40 528.20 L 203.20 524.40 L 203.40 520.70 L 204.10 517.00 L 205.30 513.40 L 207.00 509.90 L 209.10 506.70 L 510.90 142.70 L 514.00 140.00 L 517.20 137.90 L 520.60 136.20 L 524.30 135.00 L 528.00 134.30 L 531.70 134.10 L 535.50 134.30 L 539.20 135.00 L 542.80 136.20 L 546.20 137.90 L 549.50 140.00 L 552.50 142.70 Z" fill="#f9d4c1" fill-rule="nonzero" group-id="2,13" id="路径_32" node-id="33" stroke="none" target-height="808.80005" target-width="656.1" target-x="203.2" target-y="134.1"></path><path d="M 552.50 89.70 L 853.40 453.70 L 855.50 456.90 L 857.20 460.40 L 858.40 464.00 L 859.10 467.70 L 859.30 471.50 L 859.10 475.20 L 858.40 478.90 L 857.20 482.50 L 855.50 486.00 L 853.40 489.20 L 850.70 492.30 L 556.10 881.30 L 553.00 884.00 L 549.80 886.10 L 546.40 887.80 L 542.70 889.00 L 539.00 889.70 L 535.30 889.90 L 531.50 889.70 L 527.80 889.00 L 524.20 887.80 L 520.80 886.10 L 517.50 884.00 L 514.50 881.30 L 211.80 492.30 L 209.10 489.20 L 207.00 486.00 L 205.30 482.50 L 204.10 478.90 L 203.40 475.20 L 203.20 471.50 L 203.40 467.70 L 204.10 464.00 L 205.30 460.40 L 207.00 456.90 L 209.10 453.70 L 510.90 89.70 L 514.00 87.00 L 517.20 84.90 L 520.60 83.20 L 524.30 82.00 L 528.00 81.30 L 531.70 81.10 L 535.50 81.30 L 539.20 82.00 L 542.80 83.20 L 546.20 84.90 L 549.50 87.00 L 552.50 89.70 Z" fill="#c00020" fill-rule="nonzero" group-id="2,14" id="路径_7" node-id="34" stroke="none" target-height="808.80005" target-width="656.1" target-x="203.2" target-y="81.1"></path><path d="M 551.60 108.30 L 838.30 455.20 L 840.40 458.30 L 842.00 461.60 L 843.10 465.00 L 843.80 468.50 L 844.00 472.10 L 843.80 475.70 L 843.10 479.20 L 842.00 482.70 L 840.40 486.00 L 838.30 489.00 L 835.80 492.00 L 555.00 862.70 L 552.10 865.30 L 549.00 867.30 L 545.80 868.90 L 542.30 870.00 L 538.80 870.70 L 535.20 870.90 L 531.60 870.70 L 528.10 870.00 L 524.60 868.90 L 521.40 867.30 L 518.30 865.30 L 515.40 862.70 L 226.90 492.00 L 224.40 489.00 L 222.30 486.00 L 220.70 482.70 L 219.60 479.20 L 218.90 475.70 L 218.70 472.10 L 218.90 468.50 L 219.60 465.00 L 220.70 461.60 L 222.30 458.30 L 224.40 455.20 L 512.00 108.30 L 514.90 105.80 L 518.00 103.70 L 521.20 102.10 L 524.70 101.00 L 528.20 100.30 L 531.80 100.10 L 535.40 100.30 L 538.90 101.00 L 542.40 102.10 L 545.60 103.70 L 548.70 105.80 L 551.60 108.30 Z" fill="#f20d2d" fill-rule="nonzero" group-id="2,15" id="路径_8" node-id="35" stroke="none" target-height="770.80005" target-width="625.3" target-x="218.7" target-y="100.1"></path><g clip-path="url(#clip-path_3)" group-id="2,16" id="蒙版组_2" node-id="36"><path d="M 406.70 250.80 L 417.10 246.50 L 428.00 242.50 L 441.00 238.70 L 447.80 237.10 L 459.10 235.50 L 467.50 235.50 L 471.50 235.90 L 475.10 236.80 L 478.30 238.10 L 473.60 243.40 L 471.00 245.70 L 457.40 255.70 L 449.50 263.00 L 443.20 270.90 L 440.40 275.40 L 437.60 280.80 L 434.90 287.30 L 432.60 293.90 L 430.40 301.90 L 425.70 323.50 L 411.70 374.70 L 408.40 388.40 L 406.60 397.60 L 403.90 416.90 L 403.20 426.80 L 403.10 437.00 L 403.50 447.60 L 404.30 455.40 L 405.50 463.60 L 407.10 472.00 L 409.20 480.70 L 411.70 489.20 L 414.70 498.00 L 418.40 507.20 L 422.70 516.80 L 425.30 521.50 L 428.20 525.90 L 431.50 530.00 L 435.30 534.00 L 439.50 537.80 L 445.10 542.00 L 451.20 546.00 L 458.00 549.70 L 465.40 553.20 L 480.80 558.90 L 498.20 563.60 L 510.10 566.00 L 522.60 568.10 L 535.70 569.70 L 562.20 571.80 L 575.80 572.30 L 603.00 572.40 L 636.30 571.00 L 655.10 569.50 L 673.50 567.50 L 689.90 565.40 L 705.60 562.90 L 718.60 560.40 L 730.60 557.60 L 739.10 555.20 L 744.40 553.30 L 747.40 551.70 L 749.10 550.50 L 778.40 519.80 L 788.90 507.60 L 793.40 502.00 L 795.30 498.80 L 796.70 495.50 L 797.50 491.90 L 797.90 488.10 L 797.80 484.30 L 797.30 480.20 L 795.20 472.10 L 793.60 468.10 L 790.90 462.10 L 787.70 456.50 L 784.10 451.20 L 631.20 258.70 L 560.30 170.40 L 541.10 147.60 L 530.80 138.50 L 526.80 135.50 L 523.00 133.30 L 520.30 132.30 L 517.50 131.80 L 514.40 131.80 L 511.40 132.30 L 507.90 133.50 L 503.70 135.70 L 500.80 137.80 L 496.10 142.10 L 484.90 154.10 L 471.40 169.80 L 456.60 187.60 L 428.30 223.10 L 406.70 250.80 Z" fill="#fb5348" fill-rule="nonzero" group-id="2,16,27" id="路径_10" node-id="37" stroke="none" target-height="440.60004" target-width="394.80002" target-x="403.1" target-y="131.8"></path><path d="M 797.70 798.00 L 797.30 807.30 L 796.50 816.40 L 795.00 825.30 L 793.00 834.10 L 790.40 842.80 L 787.30 851.30 L 783.70 859.60 L 779.60 867.80 L 775.00 875.90 L 769.80 883.80 L 764.30 891.40 L 758.30 898.80 L 751.90 906.10 L 744.90 913.20 L 737.50 920.10 L 729.90 926.60 L 721.80 932.80 L 713.40 938.90 L 704.50 944.70 L 695.10 950.30 L 685.70 955.50 L 675.90 960.30 L 665.70 964.90 L 655.20 969.30 L 644.30 973.30 L 633.40 976.90 L 622.20 980.20 L 610.70 983.10 L 598.80 985.70 L 586.70 988.00 L 574.60 989.80 L 562.30 991.30 L 549.70 992.30 L 537.00 992.90 L 523.90 993.20 L 510.90 992.90 L 498.10 992.30 L 485.50 991.30 L 473.20 989.80 L 461.10 988.00 L 449.00 985.70 L 437.20 983.10 L 425.70 980.20 L 414.50 976.90 L 403.50 973.30 L 392.60 969.30 L 382.10 964.90 L 371.90 960.30 L 362.10 955.50 L 352.70 950.30 L 343.40 944.70 L 334.50 938.90 L 326.00 932.80 L 317.90 926.60 L 310.30 920.10 L 302.90 913.20 L 295.90 906.10 L 289.50 898.80 L 283.50 891.40 L 278.00 883.80 L 272.80 875.90 L 268.20 867.80 L 264.10 859.60 L 260.50 851.30 L 257.40 842.80 L 254.80 834.10 L 252.80 825.30 L 251.40 816.40 L 250.50 807.30 L 250.20 798.00 L 250.50 788.80 L 251.40 779.70 L 252.80 770.80 L 254.80 762.00 L 257.40 753.30 L 260.50 744.80 L 264.10 736.40 L 268.20 728.20 L 272.80 720.20 L 278.00 712.20 L 283.50 704.60 L 289.50 697.20 L 295.90 690.00 L 302.90 682.90 L 310.30 676.00 L 317.90 669.50 L 326.00 663.20 L 334.50 657.20 L 343.40 651.40 L 352.70 645.80 L 362.10 640.60 L 371.90 635.70 L 382.10 631.10 L 392.60 626.80 L 403.50 622.80 L 414.50 619.10 L 425.70 615.90 L 437.20 612.90 L 449.00 610.30 L 461.10 608.10 L 473.20 606.20 L 485.50 604.80 L 498.10 603.80 L 510.90 603.10 L 523.90 602.90 L 537.00 603.10 L 549.70 603.80 L 562.30 604.80 L 574.60 606.20 L 586.70 608.10 L 598.80 610.30 L 610.70 612.90 L 622.20 615.90 L 633.40 619.10 L 644.30 622.80 L 655.20 626.80 L 665.70 631.10 L 675.90 635.70 L 685.70 640.60 L 695.10 645.80 L 704.50 651.40 L 713.40 657.20 L 721.80 663.20 L 729.90 669.50 L 737.50 676.00 L 744.90 682.90 L 751.90 690.00 L 758.30 697.20 L 764.30 704.60 L 769.80 712.20 L 775.00 720.20 L 779.60 728.20 L 783.70 736.40 L 787.30 744.80 L 790.40 753.30 L 793.00 762.00 L 795.00 770.80 L 796.50 779.70 L 797.30 788.80 L 797.70 798.00 Z" fill="#c00020" fill-rule="nonzero" group-id="2,16,28" id="椭圆_1" node-id="38" stroke="none" target-height="390.3" target-width="547.5" target-x="250.2" target-y="602.9"></path></g><g clip-path="url(#clip-path_4)" group-id="2,17" id="蒙版组_3" node-id="39"><path d="M 406.70 250.80 L 417.10 246.50 L 428.00 242.50 L 441.00 238.70 L 447.80 237.10 L 459.10 235.50 L 467.50 235.50 L 471.50 235.90 L 475.10 236.80 L 478.30 238.10 L 473.60 243.40 L 471.00 245.70 L 457.40 255.70 L 449.50 263.00 L 443.20 270.90 L 440.40 275.40 L 437.60 280.80 L 434.90 287.30 L 432.60 293.90 L 430.40 301.90 L 425.70 323.50 L 411.70 374.70 L 408.40 388.40 L 406.60 397.60 L 403.90 416.90 L 403.20 426.80 L 403.10 437.00 L 403.50 447.60 L 404.30 455.40 L 405.50 463.60 L 407.10 472.00 L 409.20 480.70 L 411.70 489.20 L 414.70 498.00 L 418.40 507.20 L 422.70 516.80 L 425.30 521.50 L 428.20 525.90 L 431.50 530.00 L 435.30 534.00 L 439.50 537.80 L 445.10 542.00 L 451.20 546.00 L 458.00 549.70 L 465.40 553.20 L 480.80 558.90 L 498.20 563.60 L 510.10 566.00 L 522.60 568.10 L 535.70 569.70 L 562.20 571.80 L 575.80 572.30 L 603.00 572.40 L 636.30 571.00 L 655.10 569.50 L 673.50 567.50 L 689.90 565.40 L 705.60 562.90 L 718.60 560.40 L 730.60 557.60 L 739.10 555.20 L 744.40 553.30 L 747.40 551.70 L 749.10 550.50 L 778.40 519.80 L 788.90 507.60 L 793.40 502.00 L 795.30 498.80 L 796.70 495.50 L 797.50 491.90 L 797.90 488.10 L 797.80 484.30 L 797.30 480.20 L 795.20 472.10 L 793.60 468.10 L 790.90 462.10 L 787.70 456.50 L 784.10 451.20 L 631.20 258.70 L 560.30 170.40 L 541.10 147.60 L 530.80 138.50 L 526.80 135.50 L 523.00 133.30 L 520.30 132.30 L 517.50 131.80 L 514.40 131.80 L 511.40 132.30 L 507.90 133.50 L 503.70 135.70 L 500.80 137.80 L 496.10 142.10 L 484.90 154.10 L 471.40 169.80 L 456.60 187.60 L 428.30 223.10 L 406.70 250.80 Z" fill="#fb5348" fill-rule="nonzero" group-id="2,17,29" id="路径_12" node-id="40" stroke="none" target-height="440.60004" target-width="394.80002" target-x="403.1" target-y="131.8"></path><path d="M 797.70 798.00 L 797.30 807.30 L 796.50 816.40 L 795.00 825.30 L 793.00 834.10 L 790.40 842.80 L 787.30 851.30 L 783.70 859.60 L 779.60 867.80 L 775.00 875.90 L 769.80 883.80 L 764.30 891.40 L 758.30 898.80 L 751.90 906.10 L 744.90 913.20 L 737.50 920.10 L 729.90 926.60 L 721.80 932.80 L 713.40 938.90 L 704.50 944.70 L 695.10 950.30 L 685.70 955.50 L 675.90 960.30 L 665.70 964.90 L 655.20 969.30 L 644.30 973.30 L 633.40 976.90 L 622.20 980.20 L 610.70 983.10 L 598.80 985.70 L 586.70 988.00 L 574.60 989.80 L 562.30 991.30 L 549.70 992.30 L 537.00 992.90 L 523.90 993.20 L 510.90 992.90 L 498.10 992.30 L 485.50 991.30 L 473.20 989.80 L 461.10 988.00 L 449.00 985.70 L 437.20 983.10 L 425.70 980.20 L 414.50 976.90 L 403.50 973.30 L 392.60 969.30 L 382.10 964.90 L 371.90 960.30 L 362.10 955.50 L 352.70 950.30 L 343.40 944.70 L 334.50 938.90 L 326.00 932.80 L 317.90 926.60 L 310.30 920.10 L 302.90 913.20 L 295.90 906.10 L 289.50 898.80 L 283.50 891.40 L 278.00 883.80 L 272.80 875.90 L 268.20 867.80 L 264.10 859.60 L 260.50 851.30 L 257.40 842.80 L 254.80 834.10 L 252.80 825.30 L 251.40 816.40 L 250.50 807.30 L 250.20 798.00 L 250.50 788.80 L 251.40 779.70 L 252.80 770.80 L 254.80 762.00 L 257.40 753.30 L 260.50 744.80 L 264.10 736.40 L 268.20 728.20 L 272.80 720.20 L 278.00 712.20 L 283.50 704.60 L 289.50 697.20 L 295.90 690.00 L 302.90 682.90 L 310.30 676.00 L 317.90 669.50 L 326.00 663.20 L 334.50 657.20 L 343.40 651.40 L 352.70 645.80 L 362.10 640.60 L 371.90 635.70 L 382.10 631.10 L 392.60 626.80 L 403.50 622.80 L 414.50 619.10 L 425.70 615.90 L 437.20 612.90 L 449.00 610.30 L 461.10 608.10 L 473.20 606.20 L 485.50 604.80 L 498.10 603.80 L 510.90 603.10 L 523.90 602.90 L 537.00 603.10 L 549.70 603.80 L 562.30 604.80 L 574.60 606.20 L 586.70 608.10 L 598.80 610.30 L 610.70 612.90 L 622.20 615.90 L 633.40 619.10 L 644.30 622.80 L 655.20 626.80 L 665.70 631.10 L 675.90 635.70 L 685.70 640.60 L 695.10 645.80 L 704.50 651.40 L 713.40 657.20 L 721.80 663.20 L 729.90 669.50 L 737.50 676.00 L 744.90 682.90 L 751.90 690.00 L 758.30 697.20 L 764.30 704.60 L 769.80 712.20 L 775.00 720.20 L 779.60 728.20 L 783.70 736.40 L 787.30 744.80 L 790.40 753.30 L 793.00 762.00 L 795.00 770.80 L 796.50 779.70 L 797.30 788.80 L 797.70 798.00 Z" fill="#c00020" fill-rule="nonzero" group-id="2,17,30" id="椭圆_2" node-id="41" stroke="none" target-height="390.3" target-width="547.5" target-x="250.2" target-y="602.9"></path></g><path d="M 551.60 108.30 L 838.30 455.20 L 840.40 458.30 L 842.00 461.60 L 843.10 465.00 L 843.80 468.50 L 844.00 472.10 L 843.80 475.70 L 843.10 479.20 L 842.00 482.70 L 840.40 486.00 L 838.30 489.00 L 835.80 492.00 L 555.00 862.70 L 552.10 865.30 L 549.00 867.30 L 545.80 868.90 L 542.30 870.00 L 538.80 870.70 L 535.20 870.90 L 531.60 870.70 L 528.10 870.00 L 524.60 868.90 L 521.40 867.30 L 518.30 865.30 L 515.40 862.70 L 226.90 492.00 L 224.40 489.00 L 222.30 486.00 L 220.70 482.70 L 219.60 479.20 L 218.90 475.70 L 218.70 472.10 L 218.90 468.50 L 219.60 465.00 L 220.70 461.60 L 222.30 458.30 L 224.40 455.20 L 512.00 108.30 L 514.90 105.80 L 518.00 103.70 L 521.20 102.10 L 524.70 101.00 L 528.20 100.30 L 531.80 100.10 L 535.40 100.30 L 538.90 101.00 L 542.40 102.10 L 545.60 103.70 L 548.70 105.80 L 551.60 108.30 Z" fill="none" group-id="2,18" node-id="170" stroke="none" target-height="770.80005" target-width="625.3" target-x="218.7" target-y="100.1"></path><path d="M 544.30 115.10 L 541.70 113.10 L 539.00 111.60 L 536.20 110.60 L 533.20 110.10 L 530.20 110.00 L 527.30 110.50 L 524.50 111.40 L 522.00 112.80 L 519.70 114.70 L 231.90 461.90 L 230.30 464.60 L 229.30 467.50 L 228.80 470.60 L 228.80 473.60 L 229.30 476.70 L 230.30 479.60 L 231.90 482.30 L 522.80 856.00 L 525.30 858.00 L 527.90 859.40 L 530.80 860.40 L 533.70 860.90 L 536.60 860.90 L 539.60 860.40 L 542.40 859.40 L 545.00 858.00 L 547.50 856.10 L 828.20 485.40 L 830.80 482.30 L 832.40 479.60 L 833.40 476.70 L 833.90 473.60 L 833.80 470.50 L 833.20 467.30 L 832.10 464.30 L 830.40 461.40 L 544.30 115.10 M 551.60 108.30 L 838.30 455.20 L 840.40 458.30 L 842.00 461.60 L 843.10 465.00 L 843.80 468.50 L 844.00 472.10 L 843.80 475.70 L 843.10 479.20 L 842.00 482.70 L 840.40 486.00 L 838.30 489.00 L 835.80 492.00 L 555.00 862.70 L 552.10 865.20 L 549.00 867.30 L 545.80 868.90 L 542.30 870.00 L 538.80 870.70 L 535.20 870.90 L 531.60 870.70 L 528.10 870.00 L 524.60 868.90 L 521.40 867.30 L 518.30 865.20 L 515.40 862.70 L 226.90 492.00 L 224.40 489.00 L 222.30 486.00 L 220.70 482.70 L 219.60 479.20 L 218.90 475.70 L 218.70 472.10 L 218.90 468.50 L 219.60 465.00 L 220.70 461.60 L 222.30 458.30 L 224.40 455.20 L 512.00 108.30 L 514.90 105.80 L 518.00 103.70 L 521.20 102.10 L 524.70 101.00 L 528.20 100.30 L 531.80 100.10 L 535.40 100.30 L 538.90 101.00 L 542.40 102.10 L 545.60 103.70 L 548.70 105.80 L 551.60 108.30 Z" fill="#ffffff" fill-rule="nonzero" group-id="2,18" node-id="172" stroke="none" target-height="770.80005" target-width="625.3" target-x="218.7" target-y="100.1"></path><path d="M 533.90 202.90 L 502.60 236.60 L 520.10 276.10 L 546.00 276.10 L 566.10 235.90 Z" fill="#ffffff" fill-rule="nonzero" group-id="2,19,31" id="路径_15" node-id="46" stroke="#c00020" stroke-linecap="butt" stroke-width="8" target-height="73.20001" target-width="63.49997" target-x="502.6" target-y="202.9"></path><path d="M 534.80 406.20 L 566.10 372.60 L 548.60 333.10 L 522.70 333.10 L 502.60 373.20 Z" fill="#ffffff" fill-rule="nonzero" group-id="2,19,32" id="路径_16" node-id="47" stroke="#c00020" stroke-linecap="butt" stroke-width="8" target-height="73.100006" target-width="63.49997" target-x="502.6" target-y="333.1"></path><path d="M 636.00 304.10 L 602.30 272.90 L 562.80 290.30 L 562.80 316.20 L 603.00 336.30 Z" fill="#ffffff" fill-rule="nonzero" group-id="2,19,33" id="路径_17" node-id="48" stroke="#c00020" stroke-linecap="butt" stroke-width="8" target-height="63.399994" target-width="73.20001" target-x="562.8" target-y="272.9"></path><path d="M 432.70 305.00 L 466.40 336.30 L 505.90 318.80 L 505.90 292.90 L 465.70 272.90 Z" fill="#ffffff" fill-rule="nonzero" group-id="2,19,34" id="路径_18" node-id="49" stroke="#c00020" stroke-linecap="butt" stroke-width="8" target-height="63.399994" target-width="73.19998" target-x="432.7" target-y="272.9"></path><path d="M 606.60 376.20 L 604.90 330.20 L 564.60 314.70 L 546.30 333.00 L 560.50 375.60 Z" fill="#ffffff" fill-rule="nonzero" group-id="2,19,35" id="路径_19" node-id="50" stroke="#c00020" stroke-linecap="butt" stroke-width="8" target-height="61.5" target-width="60.299988" target-x="546.3" target-y="314.7"></path><path d="M 462.20 233.00 L 463.80 278.90 L 504.10 294.50 L 522.40 276.20 L 508.30 233.60 Z" fill="#ffffff" fill-rule="nonzero" group-id="2,19,36" id="路径_20" node-id="51" stroke="#c00020" stroke-linecap="butt" stroke-width="8" target-height="61.5" target-width="60.200012" target-x="462.2" target-y="233"></path><path d="M 462.80 376.80 L 508.70 375.10 L 524.30 334.80 L 506.00 316.50 L 463.40 330.70 Z" fill="#ffffff" fill-rule="nonzero" group-id="2,19,37" id="路径_21" node-id="52" stroke="#c00020" stroke-linecap="butt" stroke-width="8" target-height="60.299988" target-width="61.5" target-x="462.8" target-y="316.5"></path><path d="M 605.90 232.40 L 560.00 234.10 L 544.40 274.40 L 562.70 292.70 L 605.30 278.50 Z" fill="#ffffff" fill-rule="nonzero" group-id="2,19,38" id="路径_22" node-id="53" stroke="#c00020" stroke-linecap="butt" stroke-width="8" target-height="60.30002" target-width="61.5" target-x="544.4" target-y="232.4"></path><path d="M 573.30 304.30 L 572.50 312.30 L 570.20 319.70 L 566.50 326.50 L 561.60 332.40 L 555.80 337.20 L 549.00 340.90 L 541.60 343.20 L 533.50 344.00 L 529.40 343.80 L 521.60 342.30 L 514.50 339.20 L 508.20 335.00 L 502.80 329.60 L 498.50 323.20 L 495.50 316.10 L 493.90 308.40 L 493.70 304.30 L 493.90 300.10 L 495.50 292.40 L 498.50 285.30 L 502.80 279.00 L 508.20 273.50 L 511.20 271.30 L 518.00 267.60 L 525.40 265.30 L 533.50 264.50 L 541.60 265.30 L 549.00 267.60 L 555.80 271.30 L 561.60 276.10 L 566.50 282.00 L 570.20 288.80 L 572.50 296.20 L 573.30 304.30 Z" fill="#fbc852" fill-rule="nonzero" group-id="2,19,39" node-id="209" stroke="none" target-height="79.5" target-width="79.599976" target-x="493.7" target-y="264.5"></path><path d="M 569.30 304.30 L 568.90 309.20 L 568.00 313.80 L 566.50 318.20 L 564.40 322.30 L 561.80 326.10 L 558.80 329.60 L 555.40 332.60 L 551.60 335.10 L 547.40 337.20 L 543.00 338.80 L 538.40 339.70 L 533.50 340.00 L 528.60 339.70 L 524.00 338.80 L 519.60 337.20 L 515.40 335.10 L 511.60 332.60 L 508.20 329.60 L 505.20 326.10 L 502.60 322.30 L 500.50 318.20 L 499.00 313.80 L 498.10 309.20 L 497.70 304.30 L 498.10 299.30 L 499.00 294.70 L 500.50 290.30 L 502.60 286.20 L 505.20 282.40 L 508.20 278.90 L 511.60 275.90 L 515.40 273.40 L 519.60 271.30 L 524.00 269.70 L 528.60 268.80 L 533.50 268.50 L 538.40 268.80 L 543.00 269.70 L 547.40 271.30 L 551.60 273.40 L 555.40 275.90 L 558.80 278.90 L 561.80 282.40 L 564.40 286.20 L 566.50 290.30 L 568.00 294.70 L 568.90 299.30 L 569.30 304.30 Z" fill="none" group-id="2,19,39" node-id="211" stroke="#c00020" stroke-linecap="butt" stroke-width="8" target-height="71.5" target-width="71.599976" target-x="497.7" target-y="268.5"></path><path d="M 599.10 488.00 L 598.90 483.70 L 591.10 414.70 L 589.50 394.70 L 588.90 377.80 L 589.10 370.70 L 589.60 365.90 L 590.90 362.20 L 592.30 361.10 L 593.60 361.10 L 597.50 362.80 L 600.40 364.70 L 607.80 371.40 L 612.30 376.50 L 621.10 388.20 L 625.90 395.60 L 630.30 403.20 L 634.60 411.60 L 638.90 421.00 L 642.60 430.50 L 646.00 440.70 L 649.10 451.70 L 651.00 460.00 L 652.50 468.60 L 653.60 477.60 L 654.40 486.90 L 648.00 505.10 L 645.20 510.60 L 643.50 512.70 L 641.50 514.30 L 639.30 515.60 L 636.90 516.30 L 633.80 516.80 L 629.90 517.00 L 623.60 516.70 L 614.90 515.60 L 592.30 512.20 L 579.20 509.40 L 568.20 505.50 L 561.30 502.30 L 555.20 498.80 L 549.80 495.10 L 544.80 490.90 L 540.40 486.70 L 536.70 482.40 L 533.30 477.80 L 530.50 473.40 L 526.30 464.70 L 523.90 457.00 L 523.10 450.00 L 523.30 447.40 L 523.70 446.20 L 524.40 445.40 L 525.50 444.90 L 527.20 444.80 L 532.30 445.90 L 541.60 450.00 L 548.20 453.60 L 562.00 462.00 L 575.70 471.10 L 599.10 488.00 Z" fill="#fdfbfa" fill-rule="nonzero" group-id="2,20" id="路径_23" node-id="57" stroke="#c00020" stroke-linecap="butt" stroke-width="10" target-height="155.9" target-width="131.30005" target-x="523.1" target-y="361.1"></path><path d="M 703.30 523.30 L 724.50 522.50 L 734.70 522.70 L 742.80 523.60 L 746.00 524.80 L 746.50 525.40 L 746.70 526.70 L 746.70 530.40 L 745.70 540.60 L 744.50 546.90 L 741.30 559.00 L 737.40 569.30 L 732.10 579.20 L 728.80 584.00 L 725.20 588.60 L 721.10 592.80 L 716.50 596.70 L 712.90 599.20 L 708.90 601.50 L 704.50 603.50 L 699.80 605.30 L 695.10 606.50 L 689.90 607.40 L 684.20 608.00 L 678.10 608.00 L 678.80 622.90 L 678.70 631.00 L 677.40 647.20 L 674.60 663.70 L 672.70 671.70 L 670.40 679.70 L 667.60 687.50 L 664.50 694.80 L 661.00 701.80 L 658.00 706.90 L 651.50 716.10 L 647.80 720.10 L 643.90 723.90 L 639.80 727.30 L 635.40 730.20 L 630.70 732.80 L 619.10 721.20 L 611.80 727.70 L 599.00 737.60 L 590.40 743.40 L 577.70 750.80 L 562.90 758.00 L 554.90 761.10 L 546.40 764.00 L 537.80 766.30 L 528.90 768.00 L 519.50 769.20 L 512.50 769.70 L 505.30 769.70 L 498.00 769.20 L 490.40 768.20 L 483.10 766.70 L 475.50 764.70 L 467.90 761.90 L 460.00 758.50 L 448.00 752.00 L 441.80 747.90 L 429.10 738.00 L 421.10 730.90 L 414.00 723.80 L 407.60 716.90 L 401.90 710.10 L 396.90 703.50 L 392.10 696.30 L 387.90 689.30 L 384.20 682.40 L 381.20 675.60 L 378.60 669.00 L 376.40 662.10 L 374.70 655.20 L 373.40 648.60 L 372.60 642.00 L 372.20 635.50 L 372.20 627.40 L 372.80 619.40 L 374.00 611.60 L 375.70 604.00 L 377.90 596.50 L 380.50 589.20 L 383.60 582.10 L 387.10 575.30 L 391.00 568.60 L 395.20 562.30 L 399.70 556.20 L 409.60 544.80 L 420.30 534.60 L 425.90 530.10 L 431.00 526.40 L 436.40 523.20 L 441.90 520.20 L 447.60 517.70 L 455.50 514.80 L 463.50 512.40 L 471.80 510.60 L 480.20 509.20 L 488.70 508.30 L 497.10 507.90 L 505.60 507.80 L 522.10 508.80 L 530.20 509.70 L 545.10 512.30 L 552.40 514.00 L 564.90 517.70 L 570.80 519.80 L 579.80 523.90 L 583.90 526.20 L 586.70 528.30 L 588.60 530.10 L 588.50 520.90 L 588.90 515.90 L 590.00 510.50 L 591.00 506.90 L 594.40 499.60 L 596.70 496.10 L 599.60 492.70 L 603.20 489.20 L 607.20 486.10 L 612.10 483.10 L 618.10 480.10 L 623.30 478.10 L 628.70 476.80 L 634.40 476.10 L 640.10 475.90 L 646.00 476.30 L 651.90 477.20 L 657.70 478.70 L 663.40 480.60 L 669.00 483.00 L 674.40 485.90 L 679.50 489.20 L 684.30 493.00 L 688.80 497.10 L 692.80 501.70 L 696.30 506.60 L 700.50 514.50 L 703.30 523.30 Z" fill="#fdfbfa" fill-rule="nonzero" group-id="2,21" id="路径_31" node-id="58" stroke="#c00020" stroke-linecap="butt" stroke-width="10" target-height="293.80002" target-width="374.5" target-x="372.2" target-y="475.9"></path><g clip-path="url(#clip-path-3)" group-id="2,22" node-id="224"><path d="M 389.10 554.00 L 396.50 569.90 L 400.40 577.60 L 411.40 596.50 L 423.20 614.10 L 434.40 628.60 L 440.50 635.70 L 447.10 642.60 L 454.00 649.40 L 461.30 655.80 L 468.90 661.80 L 477.00 667.40 L 483.20 671.20 L 489.70 674.70 L 496.30 677.80 L 503.20 680.60 L 511.40 683.30 L 519.10 685.50 L 526.60 687.10 L 533.70 688.30 L 548.00 689.50 L 561.00 689.10 L 569.50 688.10 L 577.50 686.60 L 584.80 684.70 L 592.00 682.30 L 598.60 679.60 L 604.60 676.60 L 610.40 673.30 L 620.10 666.50 L 627.80 659.30 L 633.20 652.40 L 635.00 649.20 L 636.10 646.50 L 679.20 640.90 L 679.20 693.10 L 653.50 730.70 L 615.90 755.00 L 611.00 745.70 L 608.50 742.20 L 607.80 743.20 L 604.80 745.20 L 582.80 757.60 L 527.60 786.30 L 439.90 772.40 L 378.00 713.30 L 350.90 617.30 Z" fill="#f9ab98" fill-rule="nonzero" group-id="2,22,40" id="路径_25" node-id="60" stroke="none" target-height="232.29999" target-width="328.30002" target-x="350.9" target-y="554"></path></g><path d="M 703.30 523.30 L 724.50 522.50 L 734.70 522.70 L 742.80 523.60 L 746.00 524.80 L 746.50 525.40 L 746.70 526.70 L 746.70 530.40 L 745.70 540.60 L 744.50 546.90 L 741.30 559.00 L 737.40 569.30 L 732.10 579.20 L 728.80 584.00 L 725.20 588.60 L 721.10 592.80 L 716.50 596.70 L 712.90 599.20 L 708.90 601.50 L 704.50 603.50 L 699.80 605.30 L 695.10 606.50 L 689.90 607.40 L 684.20 608.00 L 678.10 608.00 L 678.80 622.90 L 678.70 631.00 L 677.40 647.20 L 674.60 663.70 L 672.70 671.70 L 670.40 679.70 L 667.60 687.50 L 664.50 694.80 L 661.00 701.80 L 658.00 706.90 L 651.50 716.10 L 647.80 720.10 L 643.90 723.90 L 639.80 727.30 L 635.40 730.20 L 630.70 732.80 L 619.10 721.20 L 611.80 727.70 L 599.00 737.60 L 590.40 743.40 L 577.70 750.80 L 562.90 758.00 L 554.90 761.10 L 546.40 764.00 L 537.80 766.30 L 528.90 768.00 L 519.50 769.20 L 512.50 769.70 L 505.30 769.70 L 498.00 769.20 L 490.40 768.20 L 483.10 766.70 L 475.50 764.70 L 467.90 761.90 L 460.00 758.50 L 448.00 752.00 L 441.80 747.90 L 429.10 738.00 L 421.10 730.90 L 414.00 723.80 L 407.60 716.90 L 401.90 710.10 L 396.90 703.50 L 392.10 696.30 L 387.90 689.30 L 384.20 682.40 L 381.20 675.60 L 378.60 669.00 L 376.40 662.10 L 374.70 655.20 L 373.40 648.60 L 372.60 642.00 L 372.20 635.50 L 372.20 627.40 L 372.80 619.40 L 374.00 611.60 L 375.70 604.00 L 377.90 596.50 L 380.50 589.20 L 383.60 582.10 L 387.10 575.30 L 391.00 568.60 L 395.20 562.30 L 399.70 556.20 L 409.60 544.80 L 420.30 534.60 L 425.90 530.10 L 431.00 526.40 L 436.40 523.20 L 441.90 520.20 L 447.60 517.70 L 455.50 514.80 L 463.50 512.40 L 471.80 510.60 L 480.20 509.20 L 488.70 508.30 L 497.10 507.90 L 505.60 507.80 L 522.10 508.80 L 530.20 509.70 L 545.10 512.30 L 552.40 514.00 L 564.90 517.70 L 570.80 519.80 L 579.80 523.90 L 583.90 526.20 L 586.70 528.30 L 588.60 530.10 L 588.50 520.90 L 588.90 515.90 L 590.00 510.50 L 591.00 506.90 L 594.40 499.60 L 596.70 496.10 L 599.60 492.70 L 603.20 489.20 L 607.20 486.10 L 612.10 483.10 L 618.10 480.10 L 623.30 478.10 L 628.70 476.80 L 634.40 476.10 L 640.10 475.90 L 646.00 476.30 L 651.90 477.20 L 657.70 478.70 L 663.40 480.60 L 669.00 483.00 L 674.40 485.90 L 679.50 489.20 L 684.30 493.00 L 688.80 497.10 L 692.80 501.70 L 696.30 506.60 L 700.50 514.50 L 703.30 523.30 Z" fill="none" group-id="2,23" id="路径_30" node-id="61" stroke="#c00020" stroke-linecap="butt" stroke-width="10" target-height="293.80002" target-width="374.5" target-x="372.2" target-y="475.9"></path><path d="M 650.20 514.00 L 653.10 513.60 L 655.80 513.60 L 658.40 514.10 L 660.90 514.90 L 663.10 516.10 L 665.00 517.70 L 666.70 519.60 L 667.90 521.80 L 668.80 524.30 L 669.10 527.00 L 669.00 529.90 L 668.20 533.30 L 667.40 535.50 L 666.70 536.70 L 665.20 537.70 L 663.50 537.30 L 662.20 536.30 L 655.80 527.50 L 654.60 526.40 L 653.70 526.00 L 652.60 526.40 L 651.60 527.50 L 647.20 534.70 L 645.80 536.40 L 644.20 537.70 L 641.60 538.50 L 640.10 538.40 L 638.70 537.80 L 637.70 536.90 L 637.00 535.50 L 636.60 532.00 L 637.90 526.60 L 639.40 523.20 L 641.50 520.10 L 644.00 517.30 L 645.90 515.80 L 650.20 514.00 Z" fill="#c00020" fill-rule="nonzero" group-id="2,24" id="路径_27" node-id="62" stroke="none" target-height="24.900024" target-width="32.5" target-x="636.6" target-y="513.6"></path><path d="M 614.40 680.10 L 612.60 675.00 L 610.60 671.30 L 606.70 666.10 L 600.60 660.40 L 596.70 657.70 L 589.00 653.20 L 586.60 651.30 L 584.70 649.10 L 583.00 646.70 L 581.80 644.10 L 580.30 638.50 L 580.10 635.50 L 580.50 631.50 L 581.40 627.50 L 582.90 623.40 L 585.00 619.70 L 587.70 616.10 L 591.10 612.80 L 593.90 610.70 L 597.00 608.80 L 600.50 607.20 L 604.40 605.80 L 608.50 604.90 L 615.60 604.30 L 618.70 604.50 L 622.90 605.30 L 626.70 606.60 L 630.10 608.30 L 633.20 610.50 L 636.00 612.90 L 638.50 615.50 L 642.40 621.40 L 645.10 627.60 L 646.50 633.40 L 646.90 640.90 L 646.10 649.70 L 643.90 658.60 L 642.30 663.00 L 640.30 667.10 L 637.90 671.00 L 635.70 673.70 L 630.80 678.30 L 627.90 680.10" fill="none" group-id="2,25" id="路径_28" node-id="63" stroke="#c00020" stroke-linecap="round" stroke-width="10" target-height="75.79999" target-width="66.80005" target-x="580.1" target-y="604.3"></path><path d="M 628.80 626.70 L 631.00 629.70 L 632.70 632.70 L 633.80 635.90 L 634.50 639.20 L 634.60 642.30 L 634.10 645.40 L 633.20 648.30 L 631.60 650.90 L 629.60 653.20 L 627.00 655.00 L 624.30 656.30 L 621.30 656.90 L 618.20 657.10 L 615.10 656.60 L 611.90 655.70 L 608.90 654.20 L 606.00 652.20 L 603.30 649.60 L 601.00 646.70 L 599.40 643.60 L 598.20 640.50 L 597.60 637.20 L 597.50 634.00 L 597.90 631.00 L 598.90 628.10 L 600.40 625.50 L 602.50 623.20 L 605.00 621.30 L 607.80 620.10 L 610.80 619.40 L 613.90 619.30 L 617.00 619.70 L 620.20 620.70 L 623.20 622.20 L 626.10 624.20 L 628.80 626.70 Z" fill="none" group-id="2,26" node-id="242" stroke="none" target-height="37.799988" target-width="37.099976" target-x="597.5" target-y="619.3"></path><path d="M 625.00 630.10 L 628.00 634.60 L 629.50 639.30 L 629.40 643.90 L 628.70 646.00 L 627.70 647.90 L 626.20 649.50 L 624.40 650.80 L 622.50 651.60 L 620.30 652.10 L 615.80 651.70 L 611.20 649.80 L 607.00 646.30 L 604.00 641.80 L 602.60 637.00 L 602.70 632.50 L 603.30 630.40 L 604.40 628.50 L 605.80 626.90 L 607.60 625.60 L 609.60 624.80 L 611.80 624.30 L 616.30 624.70 L 620.90 626.60 L 625.00 630.10 Z" fill="none" group-id="2,26" node-id="244" stroke="#c00020" stroke-linecap="butt" stroke-width="10" target-height="27.799988" target-width="26.900024" target-x="602.6" target-y="624.3"></path></g></svg>